<!DOCTYPE svg PUBLIC "-//W3C//DTD SVG 1.1//EN" "http://www.w3.org/Graphics/SVG/1.1/DTD/svg11.dtd">
<svg width="106mm" height="25.61mm" viewBox="0 0 106 25.61" xmlns="http://www.w3.org/2000/svg" version="1.1" xmlns:xlink="http://www.w3.org/1999/xlink">
<title>Airfoil plot (n2415-il) NACA 2415 by AirfoilTools.com</title>
<g transform="translate(3,12.409)"><g transform="scale(1,-1)"><line fill="none" stroke="green" stroke-width="0.05" x1="10" x2="10" y1="-8.7" y2="12.41"></line><line fill="none" stroke="green" stroke-width="0.05" x1="20" x2="20" y1="-8.7" y2="12.41"></line><line fill="none" stroke="green" stroke-width="0.05" x1="30" x2="30" y1="-8.7" y2="12.41"></line><line fill="none" stroke="green" stroke-width="0.05" x1="40" x2="40" y1="-8.7" y2="12.41"></line><line fill="none" stroke="green" stroke-width="0.05" x1="50" x2="50" y1="-8.7" y2="12.41"></line><line fill="none" stroke="green" stroke-width="0.05" x1="60" x2="60" y1="-8.7" y2="12.41"></line><line fill="none" stroke="green" stroke-width="0.05" x1="70" x2="70" y1="-8.7" y2="12.41"></line><line fill="none" stroke="green" stroke-width="0.05" x1="80" x2="80" y1="-8.7" y2="12.41"></line><line fill="none" stroke="green" stroke-width="0.05" x1="90" x2="90" y1="-8.7" y2="12.41"></line><line fill="none" stroke="green" stroke-width="0.05" x1="100" x2="100" y1="-8.7" y2="12.41"></line><line fill="none" stroke="green" stroke-width="0.05" x1="-3" x2="103" y1="10" y2="10"></line>
<path fill="none" stroke="red" stroke-width="0.1" d="M 100 0.16 L 99.74 0.22 L 98.93 0.42 L 97.59 0.74 L 95.73 1.17 L 93.38 1.71 L 90.55 2.32 L 87.28 3.01 L 83.59 3.74 L 79.54 4.5 L 75.15 5.27 L 70.49 6.03 L 65.6 6.75 L 60.52 7.43 L 55.33 8.04 L 50.07 8.56 L 44.81 8.98 L 39.6 9.27 L 34.45 9.41 L 29.47 9.37 L 24.72 9.14 L 20.26 8.74 L 16.14 8.16 L 12.41 7.44 L 9.11 6.58 L 6.28 5.62 L 3.95 4.57 L 2.15 3.46 L 0.88 2.32 L 0.16 1.16 L 0 0 L 0.39 -1.11 L 1.31 -2.1 L 2.75 -2.99 L 4.69 -3.75 L 7.12 -4.39 L 9.99 -4.9 L 13.28 -5.28 L 16.95 -5.54 L 20.96 -5.68 L 25.28 -5.7 L 29.86 -5.63 L 34.65 -5.48 L 39.61 -5.27 L 44.74 -5 L 49.93 -4.67 L 55.12 -4.3 L 60.27 -3.89 L 65.31 -3.47 L 70.18 -3.05 L 74.85 -2.63 L 79.24 -2.22 L 83.32 -1.84 L 87.04 -1.48 L 90.35 -1.15 L 93.23 -0.86 L 95.62 -0.62 L 97.52 -0.42 L 98.89 -0.28 L 99.71 -0.19 L 100 -0.16 "></path>
<path fill="none" stroke="blue" stroke-width="0.1" d="M 0 0 L 100 0 "></path>
<line fill="none" stroke="black" stroke-width="0.1" x1="-3" x2="103" y1="0" y2="0"></line>
<line fill="none" stroke="black" stroke-width="0.1" x1="0" x2="0" y1="-8.7" y2="12.41"></line>
</g>
</g>
<g transform="translate(0,21.112)"><g transform="scale(1,1)"><text fill="rgb(48,48,144)" font-size="1.8" style="font-family:Arial,Helvetica,sans-serif;" x="1" y="2">Name = NACA 2415</text><text fill="rgb(48,48,144)" font-size="1.8" style="font-family:Arial,Helvetica,sans-serif;" x="1" y="4">Chord = 100mm  Radius = 0mm  Thickness = 100%  Origin = 0%  Pitch = 0&#176; </text></g></g></svg>