G04 #@! TF.GenerationSoftware,KiCad,Pcbnew,(5.1.2)-1*
G04 #@! TF.CreationDate,2019-06-04T19:45:54-07:00*
G04 #@! TF.ProjectId,horizontal-stabilizer,686f7269-7a6f-46e7-9461-6c2d73746162,rev?*
G04 #@! TF.SameCoordinates,Original*
G04 #@! TF.FileFunction,Profile,NP*
%FSLAX46Y46*%
G04 Gerber Fmt 4.6, Leading zero omitted, Abs format (unit mm)*
G04 Created by KiCad (PCBNEW (5.1.2)-1) date 2019-06-04 19:45:54*
%MOMM*%
%LPD*%
G04 APERTURE LIST*
%ADD10C,0.200000*%
G04 APERTURE END LIST*
D10*
X50082475Y-34023032D02*
X43033586Y-32428045D01*
X37428650Y-40678621D02*
X56839231Y-38639183D01*
X56855462Y-35724447D02*
X50082475Y-34023032D01*
X56839231Y-38020785D02*
X56839231Y-38639183D01*
X56855462Y-36400653D02*
X51472523Y-36320590D01*
X29124383Y-35538896D02*
G75*
G03X29124383Y-35538896I-1929000J0D01*
G01*
X50963873Y-36490573D02*
X50859803Y-36587389D01*
X50859803Y-36587389D02*
X50780017Y-36691034D01*
X56855462Y-35724447D02*
X56855462Y-36400653D01*
X50654536Y-37212441D02*
X50689009Y-37378398D01*
X50689009Y-37378398D02*
X50727059Y-37474602D01*
X51203724Y-36362268D02*
X51063190Y-36423609D01*
X51063190Y-36423609D02*
X50963873Y-36490573D01*
X50882270Y-37697979D02*
X50989995Y-37792186D01*
X50989995Y-37792186D02*
X51102672Y-37857388D01*
X51102672Y-37857388D02*
X51251110Y-37910319D01*
X51251110Y-37910319D02*
X51363414Y-37934857D01*
X50780017Y-36691034D02*
X50711134Y-36822765D01*
X50711134Y-36822765D02*
X50672878Y-36941052D01*
X51448440Y-37940604D02*
X56839231Y-38020785D01*
X51363414Y-37934857D02*
X51448440Y-37940604D01*
X50727059Y-37474602D02*
X50801950Y-37601163D01*
X50801950Y-37601163D02*
X50882270Y-37697979D01*
X35346224Y-30879116D02*
X27172436Y-29431982D01*
X43033586Y-32428045D02*
X35346224Y-30879116D01*
X50672878Y-36941052D02*
X50650554Y-37119185D01*
X50650554Y-37119185D02*
X50654536Y-37212441D01*
X27183079Y-41645841D02*
G75*
G02X27172436Y-29431982I12261J6106945D01*
G01*
X51472523Y-36320590D02*
X51291696Y-36341351D01*
X51291696Y-36341351D02*
X51203724Y-36362268D01*
X27183080Y-41645840D02*
X37428650Y-40678621D01*
X22044645Y-58956529D02*
X22139379Y-59061871D01*
X21588068Y-58297661D02*
X21619332Y-58354967D01*
X28283641Y-61684571D02*
X29355832Y-61883447D01*
X26573760Y-61287338D02*
X27279558Y-61465489D01*
X21872719Y-58743797D02*
X21914104Y-58797917D01*
X24700426Y-60673312D02*
X25084041Y-60820477D01*
X24334943Y-60519371D02*
X24700426Y-60673312D01*
X23075711Y-59841682D02*
X23215668Y-59932061D01*
X21529379Y-58182071D02*
X21558126Y-58240127D01*
X22342660Y-59266149D02*
X22451993Y-59365954D01*
X58337769Y-63198885D02*
X66111318Y-62964334D01*
X50776780Y-63236316D02*
X58337769Y-63198885D01*
X25906946Y-61095992D02*
X26573760Y-61287338D01*
X39367148Y-62866725D02*
X43685838Y-63084124D01*
X37672777Y-62781431D02*
X37746948Y-62785165D01*
X37746948Y-57527571D02*
G75*
G02X39367148Y-57527571I810100J0D01*
G01*
X25084041Y-60820477D02*
X25486550Y-60961420D01*
X21651739Y-58411662D02*
X21685488Y-58468137D01*
X31095512Y-62148642D02*
X33659145Y-62449211D01*
X25486550Y-60961420D02*
X25906946Y-61095992D01*
X22566503Y-59464223D02*
X22686116Y-59560919D01*
X23665870Y-60193622D02*
X23825969Y-60277591D01*
X23510770Y-60108038D02*
X23665870Y-60193622D01*
X22238449Y-59164769D02*
X22342660Y-59266149D01*
X29355832Y-61883447D02*
X31095512Y-62148642D01*
X23215668Y-59932061D02*
X23360705Y-60020862D01*
X21914104Y-58797917D02*
X21956525Y-58851383D01*
X22810905Y-59656052D02*
X22940816Y-59749670D01*
X21475681Y-58064750D02*
X21501946Y-58123711D01*
X21619332Y-58354967D02*
X21651739Y-58411662D01*
X22686116Y-59560919D02*
X22810905Y-59656052D01*
X24161047Y-60440677D02*
X24334943Y-60519371D01*
X21756650Y-58579618D02*
X21794055Y-58634684D01*
X21501946Y-58123711D02*
X21529379Y-58182071D01*
X21450645Y-58005410D02*
X21475681Y-58064750D01*
X23991030Y-60359937D02*
X24161047Y-60440677D01*
X75918220Y-57038240D02*
X75918220Y-62402920D01*
X23360705Y-60020862D02*
X23510770Y-60108038D01*
X22940816Y-59749670D02*
X23075711Y-59841682D01*
X22451993Y-59365954D02*
X22566503Y-59464223D01*
X21794055Y-58634684D02*
X21832887Y-58689631D01*
X21558126Y-58240127D02*
X21588068Y-58297661D01*
X43685838Y-63084124D02*
X50776780Y-63236316D01*
X37746948Y-57527571D02*
X37746948Y-62785165D01*
X21956525Y-58851383D02*
X22000462Y-58904759D01*
X21832887Y-58689631D02*
X21872719Y-58743797D01*
X21720344Y-58523930D02*
X21756650Y-58579618D01*
X21685488Y-58468137D02*
X21720344Y-58523930D01*
X39367148Y-62866725D02*
X39367148Y-57527571D01*
X22139379Y-59061871D02*
X22238449Y-59164769D01*
X22000462Y-58904759D02*
X22044645Y-58956529D01*
X74589801Y-62504467D02*
X75918220Y-62402920D01*
X27279558Y-61465489D02*
X28283641Y-61684571D01*
X23825969Y-60277591D02*
X23991030Y-60359937D01*
X66111318Y-62964334D02*
X74589801Y-62504467D01*
X33659145Y-62449211D02*
X37672777Y-62781431D01*
X31122579Y-48562827D02*
X30063149Y-48958037D01*
X52246462Y-45699095D02*
X51352595Y-45687718D01*
X22016302Y-54464234D02*
X21922874Y-54610147D01*
X22221532Y-54170008D02*
X22115840Y-54317532D01*
X35935818Y-47192824D02*
X34650048Y-47499655D01*
X22451466Y-53872799D02*
X22333388Y-54021743D01*
X23136845Y-53119077D02*
X22986980Y-53270849D01*
X25219966Y-51436513D02*
X24781001Y-51742260D01*
X53866662Y-51013945D02*
G75*
G02X52246462Y-51013945I-810100J0D01*
G01*
X22986980Y-53270849D02*
X22843553Y-53422147D01*
X28431525Y-49652328D02*
X27827000Y-49940277D01*
X21383015Y-57824802D02*
X21404328Y-57885483D01*
X21487035Y-55466524D02*
X21434815Y-55605784D01*
X21362930Y-57763726D02*
X21383015Y-57824802D01*
X22575835Y-53723176D02*
X22451466Y-53872799D01*
X21344114Y-57702242D02*
X21362930Y-57763726D01*
X21341980Y-57694728D02*
X21344114Y-57702242D01*
X21678479Y-55042649D02*
X21608834Y-55184934D01*
X22843553Y-53422147D02*
X22706532Y-53572935D01*
X47929298Y-45754782D02*
X45200261Y-45899549D01*
X21754054Y-54899376D02*
X21678479Y-55042649D01*
X26606334Y-56152656D02*
G75*
G02X26582255Y-57772670I-12038J-810007D01*
G01*
X27250286Y-50232920D02*
X26701269Y-50529573D01*
X21434815Y-55605784D02*
X21387928Y-55745119D01*
X22706532Y-53572935D02*
X22575835Y-53723176D01*
X23983053Y-52356079D02*
X23801358Y-52508557D01*
X23801358Y-52508557D02*
X23625375Y-52661587D01*
X29063108Y-49370152D02*
X28431525Y-49652328D01*
X22115840Y-54317532D02*
X22016302Y-54464234D01*
X21545030Y-55326259D02*
X21487035Y-55466524D01*
X34650048Y-47499655D02*
X33417720Y-47831494D01*
X23293175Y-52966915D02*
X23136845Y-53119077D01*
X24781001Y-51742260D02*
X24369085Y-52048749D01*
X51352595Y-45687718D02*
X47929298Y-45754782D01*
X26179928Y-50829526D02*
X25686177Y-51132061D01*
X26701269Y-50529573D02*
X26179928Y-50829526D01*
X21835472Y-54755176D02*
X21754054Y-54899376D01*
X21608834Y-55184934D02*
X21545030Y-55326259D01*
X41075928Y-46302108D02*
X39132632Y-46581829D01*
X53866662Y-51013945D02*
X53866662Y-45719716D01*
X23456025Y-52814375D02*
X23293175Y-52966915D01*
X21312106Y-56017392D02*
X21299173Y-56073719D01*
X21329116Y-55949210D02*
X21312106Y-56017392D01*
X24369085Y-52048749D02*
X23983053Y-52356079D01*
X25686177Y-51132061D02*
X25219966Y-51436513D01*
X27827000Y-49940277D02*
X27250286Y-50232920D01*
X39132632Y-46581829D02*
X37272534Y-46912614D01*
X52246462Y-45699095D02*
X52246462Y-51013945D01*
X26606335Y-56152655D02*
X21299173Y-56073719D01*
X21922874Y-54610147D02*
X21835472Y-54755176D01*
X33417720Y-47831494D02*
X32240910Y-48186603D01*
X37272534Y-46912614D02*
X35935818Y-47192824D01*
X43100177Y-46074468D02*
X41075928Y-46302108D01*
X21426863Y-57945662D02*
X21450645Y-58005410D01*
X45200261Y-45899549D02*
X43100177Y-46074468D01*
X21404328Y-57885483D02*
X21426863Y-57945662D01*
X30063149Y-48958037D02*
X29063108Y-49370152D01*
X32240910Y-48186603D02*
X31122579Y-48562827D01*
X21341980Y-57694728D02*
X26582255Y-57772670D01*
X21347380Y-55881243D02*
X21329116Y-55949210D01*
X22333388Y-54021743D02*
X22221532Y-54170008D01*
X23625375Y-52661587D02*
X23456025Y-52814375D01*
X21367201Y-55812512D02*
X21347380Y-55881243D01*
X21387928Y-55745119D02*
X21367201Y-55812512D01*
X77538420Y-62279069D02*
X84493415Y-61747415D01*
X89311375Y-55368904D02*
G75*
G03X89311375Y-55368904I-1929000J0D01*
G01*
X59294172Y-45921500D02*
X54930468Y-45733256D01*
X89500693Y-49641092D02*
X87339282Y-49258424D01*
X89500692Y-49641091D02*
G75*
G02X88537396Y-61365649I-2118274J-5727813D01*
G01*
X72161273Y-47092644D02*
X65202733Y-46362348D01*
X87339282Y-49258424D02*
X79543809Y-48058849D01*
X84493415Y-61747415D02*
X88537396Y-61365649D01*
X54930468Y-45733256D02*
X53866662Y-45719716D01*
X79543809Y-48058849D02*
X72161273Y-47092644D01*
X65202733Y-46362348D02*
X59294172Y-45921500D01*
X77538420Y-62279069D02*
X77538420Y-57038240D01*
X75918220Y-57038240D02*
G75*
G02X77538420Y-57038240I810100J0D01*
G01*
M02*
