G04 #@! TF.GenerationSoftware,KiCad,Pcbnew,(5.1.2)-1*
G04 #@! TF.CreationDate,2019-05-13T23:52:54-07:00*
G04 #@! TF.ProjectId,slot-tester,736c6f74-2d74-4657-9374-65722e6b6963,rev?*
G04 #@! TF.SameCoordinates,Original*
G04 #@! TF.FileFunction,Profile,NP*
%FSLAX46Y46*%
G04 Gerber Fmt 4.6, Leading zero omitted, Abs format (unit mm)*
G04 Created by KiCad (PCBNEW (5.1.2)-1) date 2019-05-13 23:52:54*
%MOMM*%
%LPD*%
G04 APERTURE LIST*
%ADD10C,0.200000*%
G04 APERTURE END LIST*
D10*
X101257138Y-156756679D02*
X101257138Y-168756679D01*
X101257138Y-168756679D02*
X21257139Y-168756679D01*
X90044905Y-159739347D02*
X86044905Y-159739347D01*
X38135186Y-159166678D02*
G75*
G02X38135186Y-160746678I0J-790000D01*
G01*
X55753624Y-159186679D02*
G75*
G02X55753624Y-160726679I0J-770000D01*
G01*
X73537673Y-159306679D02*
G75*
G02X73537673Y-160806679I0J-750000D01*
G01*
X51753624Y-160726679D02*
G75*
G02X51753624Y-159186679I0J770000D01*
G01*
X42990000Y-160800000D02*
G75*
G02X42990000Y-159240000I0J780000D01*
G01*
X28576031Y-159277766D02*
G75*
G02X28576031Y-160877766I0J-800000D01*
G01*
X28576031Y-159277766D02*
X24576031Y-159277766D01*
X21257139Y-156756679D02*
X21257139Y-168756679D01*
X73537673Y-159306679D02*
X69537673Y-159306679D01*
X82680673Y-159716679D02*
X78680673Y-159716679D01*
X38135186Y-160746678D02*
X34135186Y-160746678D01*
X98170190Y-159681090D02*
X94170190Y-159681090D01*
X82680673Y-159716679D02*
G75*
G02X82680673Y-161196679I0J-740000D01*
G01*
X64759440Y-159295568D02*
G75*
G02X64759440Y-160815568I0J-760000D01*
G01*
X46990000Y-159240000D02*
X42990000Y-159240000D01*
X101257138Y-156756679D02*
X21257139Y-156756679D01*
X24576031Y-160877766D02*
G75*
G02X24576031Y-159277766I0J800000D01*
G01*
X73537673Y-160806679D02*
X69537673Y-160806679D01*
X28576031Y-160877766D02*
X24576031Y-160877766D01*
X46990000Y-160800000D02*
X42990000Y-160800000D01*
X38135186Y-159166678D02*
X34135186Y-159166678D01*
X98170190Y-161081090D02*
X94170190Y-161081090D01*
X86044905Y-161179347D02*
G75*
G02X86044905Y-159739347I0J720000D01*
G01*
X64759440Y-159295568D02*
X60759440Y-159295568D01*
X90044905Y-161179347D02*
X86044905Y-161179347D01*
X78680673Y-161196679D02*
G75*
G02X78680673Y-159716679I0J740000D01*
G01*
X60759440Y-160815568D02*
G75*
G02X60759440Y-159295568I0J760000D01*
G01*
X94170190Y-161081090D02*
G75*
G02X94170190Y-159681090I0J700000D01*
G01*
X64759440Y-160815568D02*
X60759440Y-160815568D01*
X82680673Y-161196679D02*
X78680673Y-161196679D01*
X90044905Y-159739347D02*
G75*
G02X90044905Y-161179347I0J-720000D01*
G01*
X98170190Y-159681090D02*
G75*
G02X98170190Y-161081090I0J-700000D01*
G01*
X34135186Y-160746678D02*
G75*
G02X34135186Y-159166678I0J790000D01*
G01*
X55753624Y-160726679D02*
X51753624Y-160726679D01*
X55753624Y-159186679D02*
X51753624Y-159186679D01*
X69537673Y-160806679D02*
G75*
G02X69537673Y-159306679I0J750000D01*
G01*
X46990000Y-159240000D02*
G75*
G02X46990000Y-160800000I0J-780000D01*
G01*
M02*
