G04 #@! TF.GenerationSoftware,KiCad,Pcbnew,(5.1.2)-1*
G04 #@! TF.CreationDate,2019-06-02T22:37:21-07:00*
G04 #@! TF.ProjectId,horizontal-stabilizer,686f7269-7a6f-46e7-9461-6c2d73746162,rev?*
G04 #@! TF.SameCoordinates,Original*
G04 #@! TF.FileFunction,Profile,NP*
%FSLAX46Y46*%
G04 Gerber Fmt 4.6, Leading zero omitted, Abs format (unit mm)*
G04 Created by KiCad (PCBNEW (5.1.2)-1) date 2019-06-02 22:37:21*
%MOMM*%
%LPD*%
G04 APERTURE LIST*
%ADD10C,0.200000*%
G04 APERTURE END LIST*
D10*
X36453435Y-55977562D02*
X36455655Y-55990109D01*
X36626901Y-56592622D02*
X36652682Y-56657392D01*
X36602466Y-56527370D02*
X36626901Y-56592622D01*
X42032504Y-56060543D02*
X42048734Y-54968470D01*
X42048734Y-54968470D02*
X36430819Y-54884912D01*
X36557610Y-56395442D02*
X36579378Y-56461635D01*
X36453435Y-55977562D02*
X42032504Y-56060543D01*
X36455655Y-55990109D02*
X36469218Y-56058486D01*
X36518164Y-56261737D02*
X36537214Y-56328793D01*
X36469218Y-56058486D02*
X36484153Y-56126558D01*
X36769040Y-56911494D02*
X36801399Y-56973673D01*
X36737925Y-56848654D02*
X36769040Y-56911494D01*
X36708207Y-56785434D02*
X36737925Y-56848654D01*
X36652682Y-56657392D02*
X36679784Y-56721629D01*
X36500485Y-56194325D02*
X36518164Y-56261737D01*
X36484153Y-56126558D02*
X36500485Y-56194325D01*
X36679784Y-56721629D02*
X36708207Y-56785434D01*
X36579378Y-56461635D02*
X36602466Y-56527370D01*
X36537214Y-56328793D02*
X36557610Y-56395442D01*
X36519866Y-54434842D02*
X36501679Y-54507740D01*
X36539373Y-54362248D02*
X36519866Y-54434842D01*
X36443843Y-54796538D02*
X36433023Y-54868089D01*
X36433023Y-54868089D02*
X36430819Y-54884912D01*
X36485093Y-54579977D02*
X36469853Y-54652494D01*
X36469853Y-54652494D02*
X36456162Y-54724402D01*
X36501679Y-54507740D02*
X36485093Y-54579977D01*
X36456162Y-54724402D02*
X36443843Y-54796538D01*
X104493741Y-53920748D02*
G75*
G03X104493741Y-53920748I-1665000J0D01*
G01*
X36748999Y-53773324D02*
X36687709Y-53921558D01*
X36889436Y-53474849D02*
X36816233Y-53624404D01*
X36816233Y-53624404D02*
X36748999Y-53773324D01*
X36968633Y-53324709D02*
X36889436Y-53474849D01*
X38896645Y-51015799D02*
X38723671Y-51171857D01*
X37345594Y-52718361D02*
X37242191Y-52870761D01*
X38096367Y-51794385D02*
X37955550Y-51949351D01*
X38723671Y-51171857D02*
X38557174Y-51327813D01*
X37955550Y-51949351D02*
X37821031Y-52103986D01*
X37455144Y-52565453D02*
X37345594Y-52718361D01*
X37570867Y-52412063D02*
X37455144Y-52565453D01*
X38557174Y-51327813D02*
X38397154Y-51483566D01*
X37821031Y-52103986D02*
X37692812Y-52258240D01*
X38243560Y-51639115D02*
X38096367Y-51794385D01*
X37053748Y-53173960D02*
X36968633Y-53324709D01*
X37692812Y-52258240D02*
X37570867Y-52412063D01*
X37144934Y-53022652D02*
X37053748Y-53173960D01*
X38397154Y-51483566D02*
X38243560Y-51639115D01*
X37242191Y-52870761D02*
X37144934Y-53022652D01*
X36560506Y-54288969D02*
X36539373Y-54362248D01*
X36582934Y-54216046D02*
X36560506Y-54288969D01*
X36632362Y-54069158D02*
X36582934Y-54216046D01*
X36687709Y-53921558D02*
X36632362Y-54069158D01*
X43767222Y-47964446D02*
X43156809Y-48255200D01*
X44405270Y-47679382D02*
X43767222Y-47964446D01*
X45413015Y-47264092D02*
X44405270Y-47679382D01*
X54537025Y-44872987D02*
X52668652Y-45205244D01*
X47606991Y-46486903D02*
X46480654Y-46865820D01*
X58520787Y-44363539D02*
X56488685Y-44592063D01*
X48791571Y-46129449D02*
X47606991Y-46486903D01*
X60628631Y-44187974D02*
X58520787Y-44363539D01*
X39076198Y-50859665D02*
X38896645Y-51015799D01*
X46480654Y-46865820D02*
X45413015Y-47264092D01*
X51324408Y-45487032D02*
X50031396Y-45795591D01*
X40991332Y-49460786D02*
X40518638Y-49769472D01*
X43156809Y-48255200D02*
X42574108Y-48550882D01*
X40073046Y-50079835D02*
X39654353Y-50391366D01*
X42018991Y-48850830D02*
X41491433Y-49154360D01*
X56488685Y-44592063D02*
X54537025Y-44872987D01*
X39262278Y-50703506D02*
X39076198Y-50859665D01*
X39654353Y-50391366D02*
X39262278Y-50703506D01*
X50031396Y-45795591D02*
X48791571Y-46129449D01*
X41491433Y-49154360D02*
X40991332Y-49460786D01*
X52668652Y-45205244D02*
X51324408Y-45487032D01*
X40518638Y-49769472D02*
X40073046Y-50079835D01*
X42574108Y-48550882D02*
X42018991Y-48850830D01*
X66798012Y-43975529D02*
X63366040Y-44042763D01*
X99962207Y-60562312D02*
X104021042Y-60179143D01*
X67956785Y-43990278D02*
X66798012Y-43975529D01*
X105016119Y-47937064D02*
G75*
G02X104021042Y-60179143I-2187378J-5983684D01*
G01*
X67956785Y-43990278D02*
X67956785Y-49565789D01*
X73788727Y-62014710D02*
X81568772Y-61779963D01*
X67956785Y-49565789D02*
X69048985Y-49565789D01*
X87638509Y-45382282D02*
X80672660Y-44651220D01*
X92720743Y-61115864D02*
X99962207Y-60562312D01*
X69048985Y-49565789D02*
X69048985Y-44004179D01*
X80672660Y-44651220D02*
X74756010Y-44209768D01*
X70384162Y-44021173D02*
X69048985Y-44004179D01*
X74756010Y-44209768D02*
X70384162Y-44021173D01*
X105016119Y-47937065D02*
X102828698Y-47549791D01*
X92720743Y-55590084D02*
X91628543Y-55590084D01*
X92720743Y-61115864D02*
X92720743Y-55590084D01*
X81568772Y-61779963D02*
X90053337Y-61319766D01*
X66220924Y-62052175D02*
X73788727Y-62014710D01*
X102828698Y-47549791D02*
X95027342Y-46349311D01*
X91628543Y-55590084D02*
X91628543Y-61199354D01*
X95027342Y-46349311D02*
X87638509Y-45382282D01*
X90053337Y-61319766D02*
X91628543Y-61199354D01*
X63366040Y-44042763D02*
X60628631Y-44187974D01*
X53457271Y-56079415D02*
X53457271Y-61614633D01*
X44758178Y-60695637D02*
X46506561Y-60962159D01*
X54549471Y-61669613D02*
X54549471Y-56079415D01*
X54549471Y-56079415D02*
X53457271Y-56079415D01*
X53101570Y-61596727D02*
X53457271Y-61614633D01*
X42665421Y-60274352D02*
X43677738Y-60495231D01*
X49079200Y-61263784D02*
X53101570Y-61596727D01*
X46506561Y-60962159D02*
X49079200Y-61263784D01*
X40048205Y-59470112D02*
X40439441Y-59620201D01*
X40439441Y-59620201D02*
X40848991Y-59763609D01*
X38671779Y-58799451D02*
X38826998Y-58889621D01*
X41951351Y-60094114D02*
X42665421Y-60274352D01*
X40848991Y-59763609D02*
X41276600Y-59900490D01*
X39321790Y-59149158D02*
X39496314Y-59232038D01*
X39152042Y-59064474D02*
X39321790Y-59149158D01*
X39496314Y-59232038D02*
X39675587Y-59313166D01*
X41276600Y-59900490D02*
X41951351Y-60094114D01*
X38987095Y-58977962D02*
X39152042Y-59064474D01*
X59122691Y-61899825D02*
X66220924Y-62052175D01*
X43677738Y-60495231D02*
X44758178Y-60695637D01*
X39675587Y-59313166D02*
X40048205Y-59470112D01*
X38826998Y-58889621D02*
X38987095Y-58977962D01*
X54549471Y-61669613D02*
X59122691Y-61899825D01*
X37107825Y-57454038D02*
X37152148Y-57512001D01*
X37969393Y-58320432D02*
X38100000Y-58420000D01*
X37843841Y-58218934D02*
X37969393Y-58320432D01*
X37392407Y-57793585D02*
X37497588Y-57902831D01*
X36906530Y-57157645D02*
X36944122Y-57217818D01*
X36835156Y-57035547D02*
X36870132Y-57096736D01*
X36801399Y-56973673D02*
X36835156Y-57035547D01*
X37292381Y-57682359D02*
X37392407Y-57793585D01*
X37607900Y-58010146D02*
X37723318Y-58115505D01*
X37197512Y-57569176D02*
X37244451Y-57626199D01*
X37244451Y-57626199D02*
X37292381Y-57682359D01*
X37497588Y-57902831D02*
X37607900Y-58010146D01*
X36983187Y-57277737D02*
X37023370Y-57336893D01*
X37723318Y-58115505D02*
X37843841Y-58218934D01*
X38521436Y-58707401D02*
X38671779Y-58799451D01*
X38376021Y-58613497D02*
X38521436Y-58707401D01*
X38235560Y-58517688D02*
X38376021Y-58613497D01*
X37152148Y-57512001D02*
X37197512Y-57569176D01*
X37065051Y-57395872D02*
X37107825Y-57454038D01*
X37023370Y-57336893D02*
X37065051Y-57395872D01*
X36944122Y-57217818D02*
X36983187Y-57277737D01*
X36870132Y-57096736D02*
X36906530Y-57157645D01*
X38100000Y-58420000D02*
X38235560Y-58517688D01*
X62620665Y-35533114D02*
X62620665Y-36248730D01*
X61977829Y-38354761D02*
X62604434Y-38282210D01*
X62604434Y-37340818D02*
X62604434Y-38282210D01*
X56953569Y-37256770D02*
X62604434Y-37340818D01*
X31096585Y-41489989D02*
X41356052Y-40521457D01*
X62620664Y-36248745D02*
X56969800Y-36164697D01*
X54044977Y-33346364D02*
X46990000Y-31750000D01*
X61283596Y-35164750D02*
X54044977Y-33346364D01*
X32761628Y-35119032D02*
G75*
G03X32761628Y-35119032I-1665000J0D01*
G01*
X41356052Y-40521457D02*
X61977829Y-38354761D01*
X56969800Y-36164697D02*
X56953569Y-37256770D01*
X62620665Y-35533114D02*
X61283596Y-35164750D01*
X31096585Y-41489988D02*
G75*
G02X31096585Y-28748076I-43J6370956D01*
G01*
X39296518Y-30199838D02*
X31096585Y-28748075D01*
X46990000Y-31750000D02*
X39296518Y-30199838D01*
M02*
