G04 #@! TF.GenerationSoftware,KiCad,Pcbnew,(5.1.2)-1*
G04 #@! TF.CreationDate,2019-06-03T18:19:25-07:00*
G04 #@! TF.ProjectId,horizontal-stabilizer,686f7269-7a6f-46e7-9461-6c2d73746162,rev?*
G04 #@! TF.SameCoordinates,Original*
G04 #@! TF.FileFunction,Profile,NP*
%FSLAX46Y46*%
G04 Gerber Fmt 4.6, Leading zero omitted, Abs format (unit mm)*
G04 Created by KiCad (PCBNEW (5.1.2)-1) date 2019-06-03 18:19:25*
%MOMM*%
%LPD*%
G04 APERTURE LIST*
%ADD10C,0.200000*%
G04 APERTURE END LIST*
D10*
X66179083Y-37747411D02*
X60796144Y-37667348D01*
X60287494Y-37837331D02*
X60183425Y-37934147D01*
X60183425Y-37934147D02*
X60103638Y-38037792D01*
X60527345Y-37709026D02*
X60386811Y-37770367D01*
X60386811Y-37770367D02*
X60287494Y-37837331D01*
X60796144Y-37667348D02*
X60615317Y-37688109D01*
X60615317Y-37688109D02*
X60527345Y-37709026D01*
X43069844Y-32225874D02*
X34896056Y-30778740D01*
X66179083Y-37500839D02*
X65038786Y-37186686D01*
X57806095Y-35369790D02*
X50757206Y-33774803D01*
X66179083Y-37500839D02*
X66179083Y-37747411D01*
X65771271Y-39858974D02*
X66162852Y-39813636D01*
X66162852Y-39367543D02*
X66162852Y-39813636D01*
X60772061Y-39287363D02*
X66162852Y-39367543D01*
X45152270Y-42025379D02*
X65771271Y-39858974D01*
X50757206Y-33774803D02*
X43069844Y-32225874D01*
X65038786Y-37186686D02*
X57806095Y-35369790D01*
X36848046Y-36885654D02*
G75*
G03X36848046Y-36885654I-1929000J0D01*
G01*
X59978157Y-38559199D02*
X60012630Y-38725156D01*
X60012630Y-38725156D02*
X60050680Y-38821360D01*
X34906700Y-42992598D02*
X45152270Y-42025379D01*
X59996499Y-38287810D02*
X59974175Y-38465943D01*
X59974175Y-38465943D02*
X59978157Y-38559199D01*
X60103638Y-38037792D02*
X60034755Y-38169523D01*
X60034755Y-38169523D02*
X59996499Y-38287810D01*
X34906699Y-42992599D02*
G75*
G02X34896056Y-30778740I12261J6106945D01*
G01*
X60687035Y-39281615D02*
X60772061Y-39287363D01*
X60426293Y-39204146D02*
X60574731Y-39257077D01*
X60574731Y-39257077D02*
X60687035Y-39281615D01*
X60205891Y-39044737D02*
X60313616Y-39138944D01*
X60313616Y-39138944D02*
X60426293Y-39204146D01*
X60050680Y-38821360D02*
X60125572Y-38947921D01*
X60125572Y-38947921D02*
X60205891Y-39044737D01*
X36735072Y-59847767D02*
X36103489Y-59565591D01*
X59918426Y-63518824D02*
X59024559Y-63530201D01*
X42322012Y-61718264D02*
X41089684Y-61386425D01*
X50772141Y-63143451D02*
X48747892Y-62915811D01*
X38794543Y-60655092D02*
X37735113Y-60259882D01*
X59918426Y-63518824D02*
X59918426Y-58203974D01*
X41089684Y-61386425D02*
X39912874Y-61031316D01*
X33358141Y-58085858D02*
X32891930Y-57781406D01*
X32891930Y-57781406D02*
X32452965Y-57475659D01*
X48747892Y-62915811D02*
X46804596Y-62636090D01*
X46804596Y-62636090D02*
X44944498Y-62305305D01*
X39912874Y-61031316D02*
X38794543Y-60655092D01*
X32452965Y-57475659D02*
X32041049Y-57169170D01*
X59918426Y-58203974D02*
G75*
G02X61538626Y-58203974I810100J0D01*
G01*
X36103489Y-59565591D02*
X35498964Y-59277642D01*
X37735113Y-60259882D02*
X36735072Y-59847767D01*
X55601262Y-63463137D02*
X52872225Y-63318370D01*
X59024559Y-63530201D02*
X55601262Y-63463137D01*
X44944498Y-62305305D02*
X43607782Y-62025095D01*
X34922250Y-58984999D02*
X34373233Y-58688346D01*
X52872225Y-63318370D02*
X50772141Y-63143451D01*
X96983382Y-53849015D02*
G75*
G03X96983382Y-53849015I-1929000J0D01*
G01*
X43607782Y-62025095D02*
X42322012Y-61718264D01*
X34373233Y-58688346D02*
X33851892Y-58388393D01*
X35498964Y-59277642D02*
X34922250Y-58984999D01*
X33851892Y-58388393D02*
X33358141Y-58085858D01*
X30515517Y-55795772D02*
X30378496Y-55644984D01*
X30378496Y-55644984D02*
X30247799Y-55494743D01*
X34254218Y-51445249D02*
G75*
G02X34278299Y-53065264I12042J-810007D01*
G01*
X29280798Y-54032985D02*
X29216994Y-53891660D01*
X29016078Y-51515677D02*
X29034894Y-51454193D01*
X29054979Y-51393117D02*
X29076292Y-51332436D01*
X29098827Y-51272257D02*
X29122609Y-51212509D01*
X29147645Y-51153169D02*
X29173910Y-51094208D01*
X29594838Y-54607772D02*
X29507436Y-54462743D01*
X29426018Y-54318543D02*
X29350443Y-54175270D01*
X29039165Y-53405407D02*
X29019344Y-53336676D01*
X34278299Y-53065264D02*
X28971137Y-53144200D01*
X29013944Y-51523191D02*
X29016078Y-51515677D01*
X29013944Y-51523191D02*
X34254219Y-51445249D01*
X29173910Y-51094208D02*
X29201343Y-51035848D01*
X29230090Y-50977792D02*
X29260032Y-50920258D01*
X29507436Y-54462743D02*
X29426018Y-54318543D01*
X29893496Y-55047911D02*
X29787804Y-54900387D01*
X29787804Y-54900387D02*
X29688266Y-54753685D01*
X29001080Y-53268709D02*
X28984070Y-53200527D01*
X28984070Y-53200527D02*
X28971137Y-53144200D01*
X29076292Y-51332436D02*
X29098827Y-51272257D01*
X29291296Y-50862952D02*
X29323703Y-50806257D01*
X29260032Y-50920258D02*
X29291296Y-50862952D01*
X30808809Y-56098842D02*
X30658944Y-55947070D01*
X29350443Y-54175270D02*
X29280798Y-54032985D01*
X29201343Y-51035848D02*
X29230090Y-50977792D01*
X30123430Y-55345120D02*
X30005352Y-55196176D01*
X29158999Y-53751395D02*
X29106779Y-53612135D01*
X29019344Y-53336676D02*
X29001080Y-53268709D01*
X29122609Y-51212509D02*
X29147645Y-51153169D01*
X29106779Y-53612135D02*
X29059892Y-53472800D01*
X32041049Y-57169170D02*
X31655017Y-56861840D01*
X31297339Y-56556332D02*
X31127989Y-56403544D01*
X29216994Y-53891660D02*
X29158999Y-53751395D01*
X31655017Y-56861840D02*
X31473322Y-56709362D01*
X31473322Y-56709362D02*
X31297339Y-56556332D01*
X31127989Y-56403544D02*
X30965139Y-56251004D01*
X30965139Y-56251004D02*
X30808809Y-56098842D01*
X30658944Y-55947070D02*
X30515517Y-55795772D01*
X30247799Y-55494743D02*
X30123430Y-55345120D01*
X30005352Y-55196176D02*
X29893496Y-55047911D01*
X29059892Y-53472800D02*
X29039165Y-53405407D01*
X29034894Y-51454193D02*
X29054979Y-51393117D01*
X29323703Y-50806257D02*
X29357452Y-50749782D01*
X29688266Y-54753685D02*
X29594838Y-54607772D01*
X85210384Y-52179679D02*
G75*
G02X83590184Y-52179679I-810100J0D01*
G01*
X85210384Y-46938850D02*
X85210384Y-52179679D01*
X87215773Y-61159070D02*
X79833237Y-62125275D01*
X96209359Y-47852270D02*
G75*
G02X97172657Y-59576827I-1154977J-5996745D01*
G01*
X85210384Y-46938850D02*
X92165379Y-47470504D01*
X95011246Y-59959495D02*
X87215773Y-61159070D01*
X79833237Y-62125275D02*
X72874697Y-62855571D01*
X72874697Y-62855571D02*
X66966136Y-63296419D01*
X66966136Y-63296419D02*
X62602432Y-63484663D01*
X92165379Y-47470504D02*
X96209360Y-47852270D01*
X83590184Y-52179679D02*
X83590184Y-46814999D01*
X62602432Y-63484663D02*
X61538626Y-63498203D01*
X97172657Y-59576827D02*
X95011246Y-59959495D01*
X61538626Y-58203974D02*
X61538626Y-63498203D01*
X82261765Y-46713452D02*
X83590184Y-46814999D01*
X29392308Y-50693989D02*
X29428614Y-50638301D01*
X31497933Y-48940328D02*
X31662994Y-48857982D01*
X31182734Y-49109881D02*
X31337834Y-49024297D01*
X29428614Y-50638301D02*
X29466019Y-50583235D01*
X29466019Y-50583235D02*
X29504851Y-50528288D01*
X66009733Y-46019034D02*
X73783282Y-46253585D01*
X32006907Y-48698548D02*
X32372390Y-48544607D01*
X41331109Y-46768708D02*
X45344741Y-46436488D01*
X35955605Y-47533348D02*
X37027796Y-47334472D01*
X30612780Y-49468249D02*
X30747675Y-49376237D01*
X29504851Y-50528288D02*
X29544683Y-50474122D01*
X51357802Y-46133795D02*
X58448744Y-45981603D01*
X29544683Y-50474122D02*
X29586068Y-50420002D01*
X30482869Y-49561867D02*
X30612780Y-49468249D01*
X73783282Y-46253585D02*
X82261765Y-46713452D01*
X29586068Y-50420002D02*
X29628489Y-50366536D01*
X58448744Y-45981603D02*
X66009733Y-46019034D01*
X31662994Y-48857982D02*
X31833011Y-48777242D01*
X32372390Y-48544607D02*
X32756005Y-48397442D01*
X34245724Y-47930581D02*
X34951522Y-47752430D01*
X29628489Y-50366536D02*
X29672426Y-50313160D01*
X30123957Y-49851965D02*
X30238467Y-49753696D01*
X31833011Y-48777242D02*
X32006907Y-48698548D01*
X30238467Y-49753696D02*
X30358080Y-49657000D01*
X38767476Y-47069277D02*
X41331109Y-46768708D01*
X33158514Y-48256499D02*
X33578910Y-48121927D01*
X45344741Y-46436488D02*
X45418912Y-46432754D01*
X45418912Y-51690348D02*
X45418912Y-46432754D01*
X29672426Y-50313160D02*
X29716609Y-50261390D01*
X47039112Y-51690348D02*
G75*
G02X45418912Y-51690348I-810100J0D01*
G01*
X33578910Y-48121927D02*
X34245724Y-47930581D01*
X30747675Y-49376237D02*
X30887632Y-49285858D01*
X29716609Y-50261390D02*
X29811343Y-50156048D01*
X34951522Y-47752430D02*
X35955605Y-47533348D01*
X30887632Y-49285858D02*
X31032669Y-49197057D01*
X29811343Y-50156048D02*
X29910413Y-50053150D01*
X31337834Y-49024297D02*
X31497933Y-48940328D01*
X29910413Y-50053150D02*
X30014624Y-49951770D01*
X47039112Y-46351194D02*
X47039112Y-51690348D01*
X31032669Y-49197057D02*
X31182734Y-49109881D01*
X37027796Y-47334472D02*
X38767476Y-47069277D01*
X30014624Y-49951770D02*
X30123957Y-49851965D01*
X47039112Y-46351194D02*
X51357802Y-46133795D01*
X32756005Y-48397442D02*
X33158514Y-48256499D01*
X29357452Y-50749782D02*
X29392308Y-50693989D01*
X30358080Y-49657000D02*
X30482869Y-49561867D01*
M02*
