G04 #@! TF.GenerationSoftware,KiCad,Pcbnew,(5.1.2)-1*
G04 #@! TF.CreationDate,2019-05-10T19:59:37-07:00*
G04 #@! TF.ProjectId,inclass-top-v2,696e636c-6173-4732-9d74-6f702d76322e,rev?*
G04 #@! TF.SameCoordinates,Original*
G04 #@! TF.FileFunction,Profile,NP*
%FSLAX46Y46*%
G04 Gerber Fmt 4.6, Leading zero omitted, Abs format (unit mm)*
G04 Created by KiCad (PCBNEW (5.1.2)-1) date 2019-05-10 19:59:37*
%MOMM*%
%LPD*%
G04 APERTURE LIST*
%ADD10C,0.200000*%
G04 APERTURE END LIST*
D10*
X170060000Y-124150000D02*
G75*
G02X168060000Y-126150000I-2000000J0D01*
G01*
X137060000Y-88135000D02*
X163060000Y-88135000D01*
X132045000Y-93150000D02*
G75*
G02X133645000Y-93150000I800000J0D01*
G01*
X137060000Y-124165000D02*
G75*
G02X137060000Y-122565000I0J800000D01*
G01*
X137060000Y-89734999D02*
G75*
G02X137060000Y-88135001I0J799999D01*
G01*
X168075000Y-119150000D02*
G75*
G02X166475000Y-119150000I-800000J0D01*
G01*
X166475001Y-93150000D02*
G75*
G02X168074999Y-93150000I799999J0D01*
G01*
X133645000Y-119150000D02*
X133645000Y-93150000D01*
X166475000Y-93150000D02*
X166475000Y-119150000D01*
X163060000Y-124165000D02*
X137060000Y-124165000D01*
X132045000Y-119150000D02*
X132045000Y-93150000D01*
X133644999Y-119150000D02*
G75*
G02X132045001Y-119150000I-799999J0D01*
G01*
X163060000Y-88135000D02*
G75*
G02X163060000Y-89735000I0J-800000D01*
G01*
X137060000Y-89735000D02*
X163060000Y-89735000D01*
X168075000Y-93150000D02*
X168075000Y-119150000D01*
X163060000Y-122565000D02*
X137060000Y-122565000D01*
X163060000Y-122565001D02*
G75*
G02X163060000Y-124164999I0J-799999D01*
G01*
X164560000Y-118650000D02*
G75*
G02X162560000Y-120650000I-2000000J0D01*
G01*
X162560000Y-91650000D02*
X137560000Y-91650000D01*
X168060000Y-126150000D02*
X132060000Y-126150000D01*
X130060000Y-88150000D02*
X130060000Y-124150000D01*
X132060000Y-126150000D02*
G75*
G02X130060000Y-124150000I0J2000000D01*
G01*
X170060000Y-88150000D02*
X170060000Y-124150000D01*
X130060000Y-88150000D02*
G75*
G02X132060000Y-86150000I2000000J0D01*
G01*
X168060000Y-86150000D02*
X132060000Y-86150000D01*
X168060000Y-86150000D02*
G75*
G02X170060000Y-88150000I0J-2000000D01*
G01*
X162560000Y-91650000D02*
G75*
G02X164560000Y-93650000I0J-2000000D01*
G01*
X135560000Y-93650000D02*
X135560000Y-118650000D01*
X164560000Y-93650000D02*
X164560000Y-118650000D01*
X137560000Y-120650000D02*
G75*
G02X135560000Y-118650000I0J2000000D01*
G01*
X135560000Y-93650000D02*
G75*
G02X137560000Y-91650000I2000000J0D01*
G01*
X162560000Y-120650000D02*
X137560000Y-120650000D01*
M02*
