G04 #@! TF.GenerationSoftware,KiCad,Pcbnew,(5.1.2)-1*
G04 #@! TF.CreationDate,2019-05-13T20:02:10-07:00*
G04 #@! TF.ProjectId,wing,77696e67-2e6b-4696-9361-645f70636258,rev?*
G04 #@! TF.SameCoordinates,Original*
G04 #@! TF.FileFunction,Profile,NP*
%FSLAX46Y46*%
G04 Gerber Fmt 4.6, Leading zero omitted, Abs format (unit mm)*
G04 Created by KiCad (PCBNEW (5.1.2)-1) date 2019-05-13 20:02:10*
%MOMM*%
%LPD*%
G04 APERTURE LIST*
%ADD10C,0.200000*%
G04 APERTURE END LIST*
D10*
X26293850Y-188763180D02*
X30672188Y-188913327D01*
X21823965Y-189124486D02*
X22006776Y-189073634D01*
X22952332Y-188891202D02*
X23313155Y-188847158D01*
X22199468Y-189026568D02*
X22402058Y-188983247D01*
X22402058Y-188983247D02*
X22614607Y-188943646D01*
X23313155Y-188847158D02*
X23697547Y-188811625D01*
X33679131Y-189084857D02*
X48352127Y-190209837D01*
X22614607Y-188943646D02*
X22952332Y-188891202D01*
X30672188Y-188913327D02*
X33679131Y-189084857D01*
X24246782Y-188777615D02*
X24989523Y-188756054D01*
X22006776Y-189073634D02*
X22199468Y-189026568D01*
X24989523Y-188756054D02*
X26293850Y-188763180D01*
X23697547Y-188811625D02*
X24246782Y-188777615D01*
X37842314Y-193205469D02*
X36054507Y-193513125D01*
X48367111Y-190318767D02*
X46292071Y-191037122D01*
X44253956Y-191666131D02*
X42263748Y-192213298D01*
X42263748Y-192213298D02*
X40011992Y-192757691D01*
X40011992Y-192757691D02*
X37842314Y-193205469D01*
X46292071Y-191037122D02*
X44253956Y-191666131D01*
X36054507Y-193513125D02*
X34341709Y-193752068D01*
X22612637Y-192789323D02*
X22372411Y-192673574D01*
X28742849Y-194078262D02*
X28052513Y-194046986D01*
X27384086Y-193994504D02*
X26952802Y-193948077D01*
X26952802Y-193948077D02*
X26534445Y-193893060D01*
X25364622Y-193683367D02*
X24828887Y-193557749D01*
X26130055Y-193830126D02*
X25740032Y-193759987D01*
X21931443Y-192435586D02*
X21829544Y-192374970D01*
X21731019Y-192313992D02*
X21635881Y-192252692D01*
X21544143Y-192191115D02*
X21455813Y-192129302D01*
X23131844Y-193012878D02*
X22865831Y-192902516D01*
X22145293Y-192555557D02*
X21931443Y-192435586D01*
X21829544Y-192374970D02*
X21731019Y-192313992D01*
X34341709Y-193752068D02*
X32712865Y-193926298D01*
X26534445Y-193893060D02*
X26130055Y-193830126D01*
X25740032Y-193759987D02*
X25364622Y-193683367D01*
X32712865Y-193926298D02*
X31419328Y-194024805D01*
X22372411Y-192673574D02*
X22145293Y-192555557D01*
X31419328Y-194024805D02*
X30421462Y-194072236D01*
X24007083Y-193324510D02*
X23702320Y-193224125D01*
X30421462Y-194072236D02*
X29451599Y-194088663D01*
X29451599Y-194088663D02*
X28742849Y-194078262D01*
X28052513Y-194046986D02*
X27384086Y-193994504D01*
X24828887Y-193557749D02*
X24325374Y-193421032D01*
X24325374Y-193421032D02*
X24007083Y-193324510D01*
X23702320Y-193224125D02*
X23410658Y-193120164D01*
X23410658Y-193120164D02*
X23131844Y-193012878D01*
X22865831Y-192902516D02*
X22612637Y-192789323D01*
X21635881Y-192252692D02*
X21544143Y-192191115D01*
X20402565Y-190128982D02*
X20413319Y-190102660D01*
X21455813Y-192129302D02*
X21370895Y-192067295D01*
X21370895Y-192067295D02*
X21289393Y-192005135D01*
X20386092Y-190868283D02*
X20377023Y-190838493D01*
X21065402Y-191818138D02*
X20997582Y-191755765D01*
X20933143Y-191693423D02*
X20872073Y-191631143D01*
X20424800Y-190076578D02*
X20436973Y-190050812D01*
X20537537Y-191199269D02*
X20519878Y-191169002D01*
X20368819Y-190809056D02*
X20361329Y-190779443D01*
X20343665Y-190691601D02*
X20339313Y-190662360D01*
X20366750Y-190236807D02*
X20374612Y-190209511D01*
X20661167Y-191383240D02*
X20616697Y-191321695D01*
X20456820Y-191047843D02*
X20442978Y-191017560D01*
X20329728Y-190546681D02*
X20329266Y-190518033D01*
X20359619Y-190264302D02*
X20366750Y-190236807D01*
X20463474Y-190000041D02*
X20477821Y-189975004D01*
X21289393Y-192005135D02*
X21211304Y-191942862D01*
X20708921Y-191444982D02*
X20661167Y-191383240D01*
X20353220Y-190291977D02*
X20359619Y-190264302D01*
X20616697Y-191321695D02*
X20575493Y-191260364D01*
X20471297Y-191077852D02*
X20456820Y-191047843D01*
X20442978Y-191017560D02*
X20430080Y-190987687D01*
X21211304Y-191942862D02*
X21136627Y-191880514D01*
X20524972Y-189901734D02*
X20542167Y-189877750D01*
X20342655Y-190347801D02*
X20347563Y-190319813D01*
X20872073Y-191631143D02*
X20814357Y-191568959D01*
X20374612Y-190209511D02*
X20383204Y-190182427D01*
X20508585Y-189925837D02*
X20524972Y-189901734D01*
X20348763Y-190720731D02*
X20343665Y-190691601D01*
X20330653Y-190460903D02*
X20332504Y-190432462D01*
X20335121Y-190404145D02*
X20338507Y-190375912D01*
X20814357Y-191568959D02*
X20759978Y-191506896D01*
X20519878Y-191169002D02*
X20502811Y-191138427D01*
X20339313Y-190662360D02*
X20335763Y-190633389D01*
X20383204Y-190182427D02*
X20392522Y-190155583D01*
X21136627Y-191880514D02*
X21065402Y-191818138D01*
X20575493Y-191260364D02*
X20556229Y-191229977D01*
X20556229Y-191229977D02*
X20537537Y-191199269D01*
X20335763Y-190633389D02*
X20332971Y-190604341D01*
X20413319Y-190102660D02*
X20424800Y-190076578D01*
X20361329Y-190779443D02*
X20354680Y-190750159D01*
X20449889Y-190025252D02*
X20463474Y-190000041D01*
X20542167Y-189877750D02*
X20559944Y-189854198D01*
X20338507Y-190375912D02*
X20342655Y-190347801D01*
X20486747Y-191108286D02*
X20471297Y-191077852D01*
X20430080Y-190987687D02*
X20417837Y-190957562D01*
X20406509Y-190927832D02*
X20395856Y-190897869D01*
X20436973Y-190050812D02*
X20449889Y-190025252D01*
X20417837Y-190957562D02*
X20406509Y-190927832D01*
X20377023Y-190838493D02*
X20368819Y-190809056D01*
X20332971Y-190604341D02*
X20330966Y-190575531D01*
X20330966Y-190575531D02*
X20329728Y-190546681D01*
X20354680Y-190750159D02*
X20348763Y-190720731D01*
X20332504Y-190432462D02*
X20335121Y-190404145D01*
X20492811Y-189950348D02*
X20508585Y-189925837D01*
X20392522Y-190155583D02*
X20402565Y-190128982D01*
X20477821Y-189975004D02*
X20492811Y-189950348D01*
X20997582Y-191755765D02*
X20933143Y-191693423D01*
X20329575Y-190489387D02*
X20330653Y-190460903D01*
X20759978Y-191506896D02*
X20708921Y-191444982D01*
X20329266Y-190518033D02*
X20329575Y-190489387D01*
X20347563Y-190319813D02*
X20353220Y-190291977D01*
X20502811Y-191138427D02*
X20486747Y-191108286D01*
X20395856Y-190897869D02*
X20386092Y-190868283D01*
X48352127Y-190209837D02*
X48367111Y-190318767D01*
X20597712Y-189807740D02*
X20617730Y-189784816D01*
X20704391Y-189696190D02*
X20727646Y-189674817D01*
X20776440Y-189632649D02*
X20802003Y-189611846D01*
X21410649Y-189268589D02*
X21488290Y-189237800D01*
X21488290Y-189237800D02*
X21568448Y-189208002D01*
X20939037Y-189512510D02*
X20998581Y-189474569D01*
X21568448Y-189208002D02*
X21651109Y-189179187D01*
X41085124Y-191874735D02*
X37085124Y-191874735D01*
X21192985Y-189366980D02*
X21262979Y-189333170D01*
X20727646Y-189674817D02*
X20751837Y-189653484D01*
X21335540Y-189300376D02*
X21410649Y-189268589D01*
X37085124Y-191874736D02*
G75*
G02X37085124Y-190274736I0J800000D01*
G01*
X20854875Y-189571271D02*
X20882153Y-189551500D01*
X21060767Y-189437671D02*
X21125574Y-189401811D01*
X41085124Y-190274737D02*
G75*
G02X41085124Y-191874735I0J-799999D01*
G01*
X41085124Y-190274736D02*
X37085124Y-190274736D01*
X20559944Y-189854198D02*
X20578553Y-189830743D01*
X20578553Y-189830743D02*
X20597712Y-189807740D01*
X21651109Y-189179187D02*
X21736272Y-189151348D01*
X20617730Y-189784816D02*
X20638263Y-189762359D01*
X21125574Y-189401811D02*
X21192985Y-189366980D01*
X26670000Y-190170002D02*
G75*
G02X26670000Y-191770000I0J-799999D01*
G01*
X20882153Y-189551500D02*
X20939037Y-189512510D01*
X20659682Y-189739965D02*
X20681581Y-189718053D01*
X20751837Y-189653484D02*
X20776440Y-189632649D01*
X20638263Y-189762359D02*
X20659682Y-189739965D01*
X21262979Y-189333170D02*
X21335540Y-189300376D01*
X20681581Y-189718053D02*
X20704391Y-189696190D01*
X20802003Y-189611846D02*
X20827947Y-189591544D01*
X20827947Y-189591544D02*
X20854875Y-189571271D01*
X20998581Y-189474569D02*
X21060767Y-189437671D01*
X21736272Y-189151348D02*
X21823965Y-189124486D01*
X26670000Y-190170001D02*
X22670000Y-190170001D01*
X22670000Y-191770001D02*
G75*
G02X22670000Y-190170001I0J800000D01*
G01*
X26670000Y-191770000D02*
X22670000Y-191770000D01*
X72880981Y-191123621D02*
X68880981Y-191123621D01*
X58465857Y-191018887D02*
G75*
G02X58465857Y-192618885I0J-799999D01*
G01*
X58465857Y-192618885D02*
X54465857Y-192618885D01*
X68880981Y-192723621D02*
G75*
G02X68880981Y-191123621I0J800000D01*
G01*
X58465857Y-191018886D02*
X54465857Y-191018886D01*
X62468045Y-189762212D02*
X65474988Y-189933742D01*
X54465857Y-192618886D02*
G75*
G02X54465857Y-191018886I0J800000D01*
G01*
X65474988Y-189933742D02*
X80147984Y-191058722D01*
X80147984Y-191058722D02*
X80162968Y-191167652D01*
X72880981Y-191123622D02*
G75*
G02X72880981Y-192723620I0J-799999D01*
G01*
X72880981Y-192723620D02*
X68880981Y-192723620D01*
X56785380Y-189604939D02*
X58089707Y-189612065D01*
X58089707Y-189612065D02*
X62468045Y-189762212D01*
X52555835Y-192355781D02*
X52504778Y-192293867D01*
X52457024Y-192232125D02*
X52412554Y-192170580D01*
X52315735Y-192017887D02*
X52298668Y-191987312D01*
X52144620Y-191569616D02*
X52139522Y-191540486D01*
X52125585Y-191395566D02*
X52125123Y-191366918D01*
X52130978Y-191253030D02*
X52134364Y-191224797D01*
X52412554Y-192170580D02*
X52371350Y-192109249D01*
X52371350Y-192109249D02*
X52352086Y-192078862D01*
X52164676Y-191657941D02*
X52157186Y-191628328D01*
X52126510Y-191309788D02*
X52128361Y-191281347D01*
X52333394Y-192048154D02*
X52315735Y-192017887D01*
X52298668Y-191987312D02*
X52282604Y-191957171D01*
X52213694Y-191806447D02*
X52202366Y-191776717D01*
X52139522Y-191540486D02*
X52135170Y-191511245D01*
X52135170Y-191511245D02*
X52131620Y-191482274D01*
X52172880Y-191687378D02*
X52164676Y-191657941D01*
X52134364Y-191224797D02*
X52138512Y-191196686D01*
X52138512Y-191196686D02*
X52143420Y-191168698D01*
X52143420Y-191168698D02*
X52149077Y-191140862D01*
X52149077Y-191140862D02*
X52155476Y-191113187D01*
X52188379Y-191004468D02*
X52198422Y-190977867D01*
X52150537Y-191599044D02*
X52144620Y-191569616D01*
X52131620Y-191482274D02*
X52128828Y-191453226D01*
X52504778Y-192293867D02*
X52457024Y-192232125D01*
X52352086Y-192078862D02*
X52333394Y-192048154D01*
X52198422Y-190977867D02*
X52209176Y-190951545D01*
X52238835Y-191866445D02*
X52225937Y-191836572D01*
X52181949Y-191717168D02*
X52172880Y-191687378D01*
X52170469Y-191058396D02*
X52179061Y-191031312D01*
X52128828Y-191453226D02*
X52126823Y-191424416D01*
X52125432Y-191338272D02*
X52126510Y-191309788D01*
X52126823Y-191424416D02*
X52125585Y-191395566D01*
X52225937Y-191836572D02*
X52213694Y-191806447D01*
X52202366Y-191776717D02*
X52191713Y-191746754D01*
X52282604Y-191957171D02*
X52267154Y-191926737D01*
X52267154Y-191926737D02*
X52252677Y-191896728D01*
X52252677Y-191896728D02*
X52238835Y-191866445D01*
X52162607Y-191085692D02*
X52170469Y-191058396D01*
X52125123Y-191366918D02*
X52125432Y-191338272D01*
X52128361Y-191281347D02*
X52130978Y-191253030D01*
X52157186Y-191628328D02*
X52150537Y-191599044D01*
X52191713Y-191746754D02*
X52181949Y-191717168D01*
X52155476Y-191113187D02*
X52162607Y-191085692D01*
X52179061Y-191031312D02*
X52188379Y-191004468D01*
X52667930Y-192480028D02*
X52610214Y-192417844D01*
X52610214Y-192417844D02*
X52555835Y-192355781D01*
X52413587Y-190633701D02*
X52434120Y-190611244D01*
X52477438Y-190566938D02*
X52500248Y-190545075D01*
X54410464Y-189792531D02*
X54748189Y-189740087D01*
X53532129Y-190000233D02*
X53619822Y-189973371D01*
X52355801Y-190703083D02*
X52374410Y-190679628D01*
X52678010Y-190400385D02*
X52734894Y-190361395D01*
X52434120Y-190611244D02*
X52455539Y-190588850D01*
X52794438Y-190323454D02*
X52856624Y-190286556D01*
X52650732Y-190420156D02*
X52678010Y-190400385D01*
X52288668Y-190799233D02*
X52304442Y-190774722D01*
X52523503Y-190523702D02*
X52547694Y-190502369D01*
X54197915Y-189832132D02*
X54410464Y-189792531D01*
X52304442Y-190774722D02*
X52320829Y-190750619D01*
X52320829Y-190750619D02*
X52338024Y-190726635D01*
X52856624Y-190286556D02*
X52921431Y-190250696D01*
X52338024Y-190726635D02*
X52355801Y-190703083D01*
X53058836Y-190182055D02*
X53131397Y-190149261D01*
X54748189Y-189740087D02*
X55109012Y-189696043D01*
X52393569Y-190656625D02*
X52413587Y-190633701D01*
X52921431Y-190250696D02*
X52988842Y-190215865D01*
X52374410Y-190679628D02*
X52393569Y-190656625D01*
X53995325Y-189875453D02*
X54197915Y-189832132D01*
X55109012Y-189696043D02*
X55493404Y-189660510D01*
X52547694Y-190502369D02*
X52572297Y-190481534D01*
X53284147Y-190086685D02*
X53364305Y-190056887D01*
X53446966Y-190028072D02*
X53532129Y-190000233D01*
X53802633Y-189922519D02*
X53995325Y-189875453D01*
X52572297Y-190481534D02*
X52597860Y-190460731D01*
X56042639Y-189626500D02*
X56785380Y-189604939D01*
X52597860Y-190460731D02*
X52623804Y-190440429D01*
X53364305Y-190056887D02*
X53446966Y-190028072D01*
X52500248Y-190545075D02*
X52523503Y-190523702D01*
X53131397Y-190149261D02*
X53206506Y-190117474D01*
X53619822Y-189973371D02*
X53802633Y-189922519D01*
X52209176Y-190951545D02*
X52220657Y-190925463D01*
X52623804Y-190440429D02*
X52650732Y-190420156D01*
X53206506Y-190117474D02*
X53284147Y-190086685D01*
X52988842Y-190215865D02*
X53058836Y-190182055D01*
X55493404Y-189660510D02*
X56042639Y-189626500D01*
X52220657Y-190925463D02*
X52232830Y-190899697D01*
X52232830Y-190899697D02*
X52245746Y-190874137D01*
X52259331Y-190848926D02*
X52273678Y-190823889D01*
X52455539Y-190588850D02*
X52477438Y-190566938D01*
X52734894Y-190361395D02*
X52794438Y-190323454D01*
X52245746Y-190874137D02*
X52259331Y-190848926D01*
X52273678Y-190823889D02*
X52288668Y-190799233D01*
X53166752Y-192916180D02*
X53085250Y-192854020D01*
X52932484Y-192729399D02*
X52861259Y-192667023D01*
X52861259Y-192667023D02*
X52793439Y-192604650D01*
X53085250Y-192854020D02*
X53007161Y-192791747D01*
X62217319Y-194921121D02*
X61247456Y-194937548D01*
X60538706Y-194927147D02*
X59848370Y-194895871D01*
X59848370Y-194895871D02*
X59179943Y-194843389D01*
X53431738Y-193101577D02*
X53340000Y-193040000D01*
X59179943Y-194843389D02*
X58748659Y-194796962D01*
X54661688Y-193751401D02*
X54408494Y-193638208D01*
X58330302Y-194741945D02*
X57925912Y-194679011D01*
X56624744Y-194406634D02*
X56121231Y-194269917D01*
X55802940Y-194173395D02*
X55498177Y-194073010D01*
X54927701Y-193861763D02*
X54661688Y-193751401D01*
X54408494Y-193638208D02*
X54168268Y-193522459D01*
X53526876Y-193162877D02*
X53431738Y-193101577D01*
X53941150Y-193404442D02*
X53727300Y-193284471D01*
X55498177Y-194073010D02*
X55206515Y-193969049D01*
X55206515Y-193969049D02*
X54927701Y-193861763D01*
X53007161Y-192791747D02*
X52932484Y-192729399D01*
X52729000Y-192542308D02*
X52667930Y-192480028D01*
X56121231Y-194269917D02*
X55802940Y-194173395D01*
X67850364Y-194362010D02*
X66137566Y-194600953D01*
X63215185Y-194873690D02*
X62217319Y-194921121D01*
X54168268Y-193522459D02*
X53941150Y-193404442D01*
X52793439Y-192604650D02*
X52729000Y-192542308D01*
X80162968Y-191167652D02*
X78087928Y-191886007D01*
X78087928Y-191886007D02*
X76049813Y-192515016D01*
X76049813Y-192515016D02*
X74059605Y-193062183D01*
X53625401Y-193223855D02*
X53526876Y-193162877D01*
X64508722Y-194775183D02*
X63215185Y-194873690D01*
X57160479Y-194532252D02*
X56624744Y-194406634D01*
X69638171Y-194054354D02*
X67850364Y-194362010D01*
X57925912Y-194679011D02*
X57535889Y-194608872D01*
X53251670Y-192978187D02*
X53166752Y-192916180D01*
X74059605Y-193062183D02*
X71807849Y-193606576D01*
X61247456Y-194937548D02*
X60538706Y-194927147D01*
X71807849Y-193606576D02*
X69638171Y-194054354D01*
X66137566Y-194600953D02*
X64508722Y-194775183D01*
X58748659Y-194796962D02*
X58330302Y-194741945D01*
X57535889Y-194608872D02*
X57160479Y-194532252D01*
X53727300Y-193284471D02*
X53625401Y-193223855D01*
X53340000Y-193040000D02*
X53251670Y-192978187D01*
M02*
