<svg xmlns="http://www.w3.org/2000/svg" width="1643.77" height="426.56" viewBox="0 0 1643.77 426.56"><defs><style>.cls-1{fill:none;stroke:#000;stroke-linecap:round;stroke-linejoin:round;}</style></defs><title>Asset 4</title><g id="Layer_2" data-name="Layer 2"><g id="Layer_13" data-name="Layer 13"><line class="cls-1" x1="1643.27" y1="12" x2="1643.27" y2="46.32"/><path class="cls-1" d="M1643.27,12c-31-5.35-70.19-10.64-101.83-11.26-16.7-.33-34.53.51-51,4.16a100.16,100.16,0,0,0-24.65,8.52c-6,3.09-15.66,9.25-17.61,17-1.22,4.84,1,8.78,4.86,11.48,3.42,2.4,8,3.89,12,4.85,7.51,1.85,17,2.86,24.65,3.48,16.21,1.33,35,1.77,51.23,1.73,17.1,0,34.16-.62,51.23-1.62s34.09-2.41,51.11-4"/><rect class="cls-1" x="587.55" y="373.85" width="12.96" height="34.42"/><rect class="cls-1" x="1604.43" y="17.58" width="3.1" height="32.04"/><rect class="cls-1" x="1537.33" y="0.5" width="3.1" height="32.04"/><rect class="cls-1" x="1496.23" y="18.96" width="3.1" height="32.04"/><rect class="cls-1" x="1462.32" y="17.36" width="3.1" height="32.04" transform="translate(1408.69 1496.59) rotate(-89.15)"/><rect class="cls-1" x="460.57" y="362.01" width="12.96" height="34.42"/><rect class="cls-1" x="328.85" y="388.06" width="12.96" height="34.42" transform="translate(-72.1 737.96) rotate(-89.63)"/><path class="cls-1" d="M755.48,406.73c-37.66-9.46-71.79-16.89-110-23.56-35.91-6.26-75.2-11.76-111.46-15.54-35.63-3.72-76.37-6.69-112.34-4.62-18.5,1.07-37.85,3.55-55.76,8.68a132.46,132.46,0,0,0-26.43,10.39c-6.72,3.61-16.86,10.11-20.3,17.91a10.67,10.67,0,0,0,3,13.24c3.53,3,8.78,4.81,13.08,5.92,8.38,2.18,19.11,3.24,27.67,3.9,16.63,1.28,38.76,2,55.43,2.31q27.87.57,55.75.28,28.41-.31,56.78-1.55c37.5-1.61,74.91-4.33,112.32-7.17,26.32-2,85.92-6.53,112.21-8.87C755.41,407.61,755.44,407.17,755.48,406.73Z"/><rect class="cls-1" x="571.52" y="394.26" width="3.1" height="32.4" transform="translate(-126.83 494.34) rotate(-42.45)"/><rect class="cls-1" x="420.51" y="393.55" width="3.1" height="32.4"/><rect class="cls-1" x="420.51" y="393.66" width="3.1" height="32.4"/><path class="cls-1" d="M763.72,406.84c18.3-1.64,51.44-4.62,128.48-11.27,130.12-11.24,385.48-32.93,514.93-43.94s133-11.35,136.6-11.74a89.42,89.42,0,0,0,9.84-1.43,8.56,8.56,0,0,0,4.67-2.38,12.83,12.83,0,0,0,2.88-5.34c1-2.88,2-7.24,15.19-56s38.7-141.9,51.43-190.09c4.77-18,7.75-29.8,9.58-37.56"/><line class="cls-1" x1="353.54" y1="420.65" x2="763.72" y2="406.84"/><line class="cls-1" x1="1463.97" y1="42.94" x2="1637.32" y2="47.1"/><path class="cls-1" d="M1464,42.94c-.65.46-1.29.93-1.91,1.42-7,5.47-12.09,12.7-17.62,19.69s-11.46,13.77-36.9,44.08-70.38,84.16-93.85,112-25.46,29.78-27.61,31.57a72.82,72.82,0,0,1-6.68,4.92,40,40,0,0,1-7.52,3.94c-3.17,1.27-7.39,2.58-17.13,3.24s-25,.65-98.36-3.43-204.75-12.25-275.23-16.84-80-5.62-90-6.3-20.37-1-28.17-1.41-13-.81-17.73-1.83a72.22,72.22,0,0,1-13.3-4.48c-4.3-1.83-8.65-3.87-15.42-7.16s-16-7.8-24.51-11.63-16.36-7-24.37-9.93-16.2-5.67-24.21-8.61-15.85-6.09-24.25-9-17.34-5.67-26.12-8.06S575.7,170.7,566,168.91s-20.42-3.32-30.94-4.43-20.84-1.79-28.43-2a171.8,171.8,0,0,0-17.43.22c-5,.29-10.1.72-15.38,1.44s-10.74,1.75-17,3-13.21,2.68-19.39,4.43-11.55,3.79-18.24,6.26-14.71,5.37-21.57,8.53a213.83,213.83,0,0,0-18.88,10.23c-6.3,3.66-13.21,7.58-18.88,10.95s-10.1,6.18-14.49,8.86-8.73,5.24-12.14,7.33-5.88,3.71-7.93,5.12a30.06,30.06,0,0,1-6.18,3.62,44.18,44.18,0,0,1-10.91,2.51c-5,.64-11.55,1.07-21.69,2s-23.86,2.26-35.37,3.46-20.8,2.21-32.47,3.57S193,247,176.66,249.57s-35,6.06-49.12,8.22-23.83,3-31.72,3.89a174.83,174.83,0,0,0-19.52,3.11c-5.53,1.26-10.47,2.84-16.16,4.47s-12.1,3.31-18.52,5.42-12.83,4.63-20.74,7.94S3.58,290,1.16,293.13s2.13,5.17,8.43,7.9,14.35,6.1,22.47,9.22,16.3,6,23.06,8.06a151.54,151.54,0,0,0,16.24,4.15c4.16.78,7.14,1,8.7,2.34s1.69,3.64,2.53,6.76a89.87,89.87,0,0,0,4,10.78c1.63,3.77,3.31,7.4,4.77,10.06a23.68,23.68,0,0,0,3.73,5.37,21.33,21.33,0,0,0,3.72,2.66,31.94,31.94,0,0,1,6.6,5.62c1.9,2.32,2.85,4.89,3.94,8.44s2.32,8.08,4.58,11.58,5.57,5.95,11.27,7.91,13.81,3.41,22.45,4.92,17.82,3.08,26.4,4.33,16.58,2.21,24.35,3,15.33,1.49,31.93,3.1,42.28,4.18,65.22,6.38c21.93,2.1,41.38,3.87,58,4.92"/><line class="cls-1" x1="969.76" y1="389.17" x2="969.76" y2="244.17"/><line class="cls-1" x1="1226.76" y1="362.17" x2="1226.76" y2="270.17"/><line class="cls-1" x1="384.76" y1="407.17" x2="384.76" y2="262.17"/><line class="cls-1" x1="176.76" y1="399.17" x2="176.76" y2="254.17"/><line class="cls-1" x1="712.76" y1="399.17" x2="712.76" y2="254.17"/><line class="cls-1" x1="384.76" y1="394.17" x2="384.76" y2="249.17"/></g></g></svg>