G04 #@! TF.GenerationSoftware,KiCad,Pcbnew,(5.1.2)-1*
G04 #@! TF.CreationDate,2019-05-11T14:40:44-07:00*
G04 #@! TF.ProjectId,wing,77696e67-2e6b-4696-9361-645f70636258,rev?*
G04 #@! TF.SameCoordinates,Original*
G04 #@! TF.FileFunction,Profile,NP*
%FSLAX46Y46*%
G04 Gerber Fmt 4.6, Leading zero omitted, Abs format (unit mm)*
G04 Created by KiCad (PCBNEW (5.1.2)-1) date 2019-05-11 14:40:44*
%MOMM*%
%LPD*%
G04 APERTURE LIST*
%ADD10C,0.200000*%
G04 APERTURE END LIST*
D10*
X47377397Y-179685643D02*
X45664598Y-179446699D01*
X40774489Y-179110104D02*
X40065739Y-179120506D01*
X41744352Y-179126531D02*
X40774489Y-179110104D01*
X42742216Y-179173963D02*
X41744352Y-179126531D01*
X44035754Y-179272469D02*
X42742216Y-179173963D01*
X51334883Y-180441077D02*
X49165204Y-179993298D01*
X53586637Y-180985470D02*
X51334883Y-180441077D01*
X55576846Y-181532635D02*
X53586637Y-180985470D01*
X45664598Y-179446699D02*
X44035754Y-179272469D01*
X49165204Y-179993298D02*
X47377397Y-179685643D01*
X40065739Y-179120506D02*
X39375403Y-179151781D01*
X37857333Y-179305707D02*
X37452944Y-179368641D01*
X34454734Y-180185889D02*
X34188721Y-180296251D01*
X33152433Y-180823797D02*
X33053908Y-180884776D01*
X33254332Y-180763182D02*
X33152433Y-180823797D01*
X38706976Y-179204263D02*
X38275691Y-179250690D01*
X35025210Y-179974642D02*
X34733548Y-180078604D01*
X33695301Y-180525194D02*
X33468182Y-180643211D01*
X37452944Y-179368641D02*
X37062921Y-179438780D01*
X36151777Y-179641019D02*
X35648264Y-179777735D01*
X38275691Y-179250690D02*
X37857333Y-179305707D01*
X35648264Y-179777735D02*
X35329972Y-179874258D01*
X37062921Y-179438780D02*
X36687511Y-179515401D01*
X33053908Y-180884776D02*
X32958771Y-180946075D01*
X33468182Y-180643211D02*
X33254332Y-180763182D01*
X35329972Y-179874258D02*
X35025210Y-179974642D01*
X36687511Y-179515401D02*
X36151777Y-179641019D01*
X32778702Y-181069466D02*
X32693785Y-181131473D01*
X32867033Y-181007653D02*
X32778702Y-181069466D01*
X34733548Y-180078604D02*
X34454734Y-180185889D01*
X39375403Y-179151781D02*
X38706976Y-179204263D01*
X32958771Y-180946075D02*
X32867033Y-181007653D01*
X33935527Y-180409444D02*
X33695301Y-180525194D01*
X34188721Y-180296251D02*
X33935527Y-180409444D01*
X31652465Y-182709381D02*
X31653544Y-182737865D01*
X31658654Y-182565379D02*
X31655862Y-182594426D01*
X31671653Y-182478038D02*
X31666556Y-182507167D01*
X31652156Y-182680735D02*
X31652465Y-182709381D01*
X31662204Y-182536408D02*
X31658654Y-182565379D01*
X31729399Y-182270937D02*
X31718745Y-182300899D01*
X31677571Y-182448608D02*
X31671653Y-182478038D01*
X31691708Y-182389711D02*
X31684218Y-182419324D01*
X31708981Y-182330484D02*
X31699912Y-182360275D01*
X31718745Y-182300899D02*
X31708981Y-182330484D01*
X31740726Y-182241206D02*
X31729399Y-182270937D01*
X31655862Y-182594426D02*
X31653857Y-182623237D01*
X31684218Y-182419324D02*
X31677571Y-182448608D01*
X31670454Y-182878954D02*
X31676111Y-182906790D01*
X31658011Y-182794622D02*
X31661397Y-182822855D01*
X31665546Y-182850966D02*
X31670454Y-182878954D01*
X31652618Y-182652086D02*
X31652156Y-182680735D01*
X31653857Y-182623237D02*
X31652618Y-182652086D01*
X31699912Y-182360275D02*
X31691708Y-182389711D01*
X31666556Y-182507167D02*
X31662204Y-182536408D01*
X31655394Y-182766306D02*
X31658011Y-182794622D01*
X31661397Y-182822855D02*
X31665546Y-182850966D01*
X31653544Y-182737865D02*
X31655394Y-182766306D01*
X33522358Y-184172198D02*
X33724948Y-184215519D01*
X45002020Y-184113909D02*
X59675017Y-182988930D01*
X33937496Y-184255121D02*
X34275221Y-184307564D01*
X41995077Y-184285440D02*
X45002020Y-184113909D01*
X34636045Y-184351609D02*
X35020437Y-184387142D01*
X33724948Y-184215519D02*
X33937496Y-184255121D01*
X37616739Y-184435586D02*
X41995077Y-184285440D01*
X59675017Y-182988930D02*
X59690000Y-182880000D01*
X35020437Y-184387142D02*
X35569671Y-184421151D01*
X34275221Y-184307564D02*
X34636045Y-184351609D01*
X35569671Y-184421151D02*
X36312412Y-184442713D01*
X36312412Y-184442713D02*
X37616739Y-184435586D01*
X32177765Y-183627496D02*
X32205042Y-183647267D01*
X32027280Y-183502577D02*
X32050536Y-183523949D01*
X32811179Y-183960967D02*
X32891337Y-183990764D01*
X32733538Y-183930178D02*
X32811179Y-183960967D01*
X32099329Y-183566118D02*
X32124892Y-183586921D01*
X32448464Y-183796956D02*
X32515874Y-183831788D01*
X32321471Y-183724198D02*
X32383656Y-183761095D01*
X32585869Y-183865596D02*
X32658429Y-183898391D01*
X32050536Y-183523949D02*
X32074726Y-183545282D01*
X32515874Y-183831788D02*
X32585869Y-183865596D01*
X32074726Y-183545282D02*
X32099329Y-183566118D01*
X32124892Y-183586921D02*
X32150837Y-183607222D01*
X32004471Y-183480714D02*
X32027280Y-183502577D01*
X32383656Y-183761095D02*
X32448464Y-183796956D01*
X32150837Y-183607222D02*
X32177765Y-183627496D01*
X32658429Y-183898391D02*
X32733538Y-183930178D01*
X33329665Y-184125132D02*
X33522358Y-184172198D01*
X33146854Y-184074280D02*
X33329665Y-184125132D01*
X33059162Y-184047419D02*
X33146854Y-184074280D01*
X32973998Y-184019580D02*
X33059162Y-184047419D01*
X32891337Y-183990764D02*
X32973998Y-184019580D01*
X32261926Y-183686257D02*
X32321471Y-183724198D01*
X32205042Y-183647267D02*
X32261926Y-183686257D01*
X32031811Y-181753786D02*
X31984056Y-181815527D01*
X32320471Y-181443002D02*
X32256032Y-181505345D01*
X32256032Y-181505345D02*
X32194962Y-181567624D01*
X31879118Y-181968790D02*
X31860427Y-181999498D01*
X32612282Y-181193633D02*
X32534194Y-181255906D01*
X31984056Y-181815527D02*
X31939586Y-181877073D01*
X32194962Y-181567624D02*
X32137246Y-181629809D01*
X32388292Y-181380628D02*
X32320471Y-181443002D01*
X31779709Y-182150925D02*
X31765867Y-182181208D01*
X31898383Y-181938403D02*
X31879118Y-181968790D01*
X32082868Y-181691871D02*
X32031811Y-181753786D01*
X32137246Y-181629809D02*
X32082868Y-181691871D01*
X32459516Y-181318254D02*
X32388292Y-181380628D01*
X31842767Y-182029766D02*
X31825700Y-182060341D01*
X31752970Y-182211080D02*
X31740726Y-182241206D01*
X31794186Y-182120915D02*
X31779709Y-182150925D01*
X32693785Y-181131473D02*
X32612282Y-181193633D01*
X31939586Y-181877073D02*
X31898383Y-181938403D01*
X31765867Y-182181208D02*
X31752970Y-182211080D01*
X31860427Y-181999498D02*
X31842767Y-182029766D01*
X32534194Y-181255906D02*
X32459516Y-181318254D01*
X31809637Y-182090482D02*
X31794186Y-182120915D01*
X31825700Y-182060341D02*
X31809637Y-182090482D01*
X31736208Y-183096107D02*
X31747689Y-183122189D01*
X31847861Y-183297033D02*
X31865056Y-183321016D01*
X31800711Y-183223762D02*
X31815700Y-183248419D01*
X31747689Y-183122189D02*
X31759862Y-183147955D01*
X31725454Y-183069785D02*
X31736208Y-183096107D01*
X31772779Y-183173515D02*
X31786363Y-183198726D01*
X31815700Y-183248419D02*
X31831474Y-183272930D01*
X31982571Y-183458801D02*
X32004471Y-183480714D01*
X31882833Y-183344568D02*
X31901443Y-183368023D01*
X31706094Y-183016340D02*
X31715411Y-183043184D01*
X31682509Y-182934465D02*
X31689640Y-182961960D01*
X31676111Y-182906790D02*
X31682509Y-182934465D01*
X31689640Y-182961960D02*
X31697501Y-182989256D01*
X31865056Y-183321016D02*
X31882833Y-183344568D01*
X31961153Y-183436407D02*
X31982571Y-183458801D01*
X31940620Y-183413951D02*
X31961153Y-183436407D01*
X31920602Y-183391026D02*
X31940620Y-183413951D01*
X31901443Y-183368023D02*
X31920602Y-183391026D01*
X31831474Y-183272930D02*
X31847861Y-183297033D01*
X31786363Y-183198726D02*
X31800711Y-183223762D01*
X31697501Y-182989256D02*
X31706094Y-183016340D01*
X31759862Y-183147955D02*
X31772779Y-183173515D01*
X31715411Y-183043184D02*
X31725454Y-183069785D01*
X57614961Y-182161646D02*
X55576846Y-181532635D01*
X59690000Y-182880000D02*
X57614961Y-182161646D01*
M02*
