  0
SECTION
  2
HEADER
  9
$ACADVER
  1
AC1014
  9
$ACADMAINTVER
 70
     9
  9
$DWGCODEPAGE
  3
ANSI_1252
  9
$INSBASE
 10
0.0
 20
0.0
 30
0.0
  9
$EXTMIN
 10
1.000000000000000E+20
 20
1.000000000000000E+20
 30
1.000000000000000E+20
  9
$EXTMAX
 10
-1.000000000000000E+20
 20
-1.000000000000000E+20
 30
-1.000000000000000E+20
  9
$LIMMIN
 10
0.0
 20
0.0
  9
$LIMMAX
 10
12.0
 20
9.0
  9
$ORTHOMODE
 70
     0
  9
$REGENMODE
 70
     1
  9
$FILLMODE
 70
     1
  9
$QTEXTMODE
 70
     0
  9
$MIRRTEXT
 70
     1
  9
$DRAGMODE
 70
     2
  9
$LTSCALE
 40
1.0
  9
$OSMODE
 70
    37
  9
$ATTMODE
 70
     1
  9
$TEXTSIZE
 40
0.2
  9
$TRACEWID
 40
0.05
  9
$TEXTSTYLE
  7
STANDARD
  9
$CLAYER
  8
DEFAULT
  9
$CELTYPE
  6
BYLAYER
  9
$CECOLOR
 62
   256
  9
$CELTSCALE
 40
1.0
  9
$DELOBJ
 70
     1
  9
$DISPSILH
 70
     0
  9
$DIMSCALE
 40
1.0
  9
$DIMASZ
 40
0.18
  9
$DIMEXO
 40
0.0625
  9
$DIMDLI
 40
0.38
  9
$DIMRND
 40
0.0
  9
$DIMDLE
 40
0.0
  9
$DIMEXE
 40
0.18
  9
$DIMTP
 40
0.0
  9
$DIMTM
 40
0.0
  9
$DIMTXT
 40
0.18
  9
$DIMCEN
 40
0.09
  9
$DIMTSZ
 40
0.0
  9
$DIMTOL
 70
     0
  9
$DIMLIM
 70
     0
  9
$DIMTIH
 70
     1
  9
$DIMTOH
 70
     1
  9
$DIMSE1
 70
     0
  9
$DIMSE2
 70
     0
  9
$DIMTAD
 70
     0
  9
$DIMZIN
 70
     0
  9
$DIMBLK
  1

  9
$DIMASO
 70
     1
  9
$DIMSHO
 70
     1
  9
$DIMPOST
  1

  9
$DIMAPOST
  1

  9
$DIMALT
 70
     0
  9
$DIMALTD
 70
     2
  9
$DIMALTF
 40
25.4
  9
$DIMLFAC
 40
1.0
  9
$DIMTOFL
 70
     0
  9
$DIMTVP
 40
0.0
  9
$DIMTIX
 70
     0
  9
$DIMSOXD
 70
     0
  9
$DIMSAH
 70
     0
  9
$DIMBLK1
  1

  9
$DIMBLK2
  1

  9
$DIMSTYLE
  2
STANDARD_ACAD
  9
$DIMCLRD
 70
     0
  9
$DIMCLRE
 70
     0
  9
$DIMCLRT
 70
     0
  9
$DIMTFAC
 40
1.0
  9
$DIMGAP
 40
0.09
  9
$DIMJUST
 70
     0
  9
$DIMSD1
 70
     0
  9
$DIMSD2
 70
     0
  9
$DIMTOLJ
 70
     1
  9
$DIMTZIN
 70
     0
  9
$DIMALTZ
 70
     0
  9
$DIMALTTZ
 70
     0
  9
$DIMFIT
 70
     5
  9
$DIMUPT
 70
     0
  9
$DIMUNIT
 70
     2
  9
$DIMDEC
 70
     4
  9
$DIMTDEC
 70
     4
  9
$DIMALTU
 70
     2
  9
$DIMALTTD
 70
     2
  9
$DIMTXSTY
  7
STANDARD
  9
$DIMAUNIT
 70
     0
  9
$LUNITS
 70
     2
  9
$LUPREC
 70
     2
  9
$SKETCHINC
 40
0.1
  9
$FILLETRAD
 40
0.5
  9
$AUNITS
 70
     0
  9
$AUPREC
 70
     0
  9
$MENU
  1
.
  9
$ELEVATION
 40
0.0
  9
$PELEVATION
 40
0.0
  9
$THICKNESS
 40
0.0
  9
$LIMCHECK
 70
     0
  9
$CHAMFERA
 40
0.0
  9
$CHAMFERB
 40
0.0
  9
$CHAMFERC
 40
0.0
  9
$CHAMFERD
 40
0.0
  9
$SKPOLY
 70
     0
  9
$TDCREATE
 40
2458637.658882836
  9
$TDUPDATE
 40
2458637.658907604
  9
$TDINDWG
 40
0.0000000116
  9
$TDUSRTIMER
 40
0.0000000116
  9
$USRTIMER
 70
     1
  9
$ANGBASE
 50
0.0
  9
$ANGDIR
 70
     0
  9
$PDMODE
 70
     0
  9
$PDSIZE
 40
0.0
  9
$PLINEWID
 40
0.0
  9
$COORDS
 70
     1
  9
$SPLFRAME
 70
     0
  9
$SPLINETYPE
 70
     6
  9
$SPLINESEGS
 70
     8
  9
$ATTDIA
 70
     0
  9
$ATTREQ
 70
     1
  9
$HANDLING
 70
     1
  9
$HANDSEED
  5
473
  9
$SURFTAB1
 70
     6
  9
$SURFTAB2
 70
     6
  9
$SURFTYPE
 70
     6
  9
$SURFU
 70
     6
  9
$SURFV
 70
     6
  9
$UCSNAME
  2

  9
$UCSORG
 10
0.0
 20
0.0
 30
0.0
  9
$UCSXDIR
 10
1.0
 20
0.0
 30
0.0
  9
$UCSYDIR
 10
0.0
 20
1.0
 30
0.0
  9
$PUCSNAME
  2

  9
$PUCSORG
 10
0.0
 20
0.0
 30
0.0
  9
$PUCSXDIR
 10
1.0
 20
0.0
 30
0.0
  9
$PUCSYDIR
 10
0.0
 20
1.0
 30
0.0
  9
$USERI1
 70
     0
  9
$USERI2
 70
     0
  9
$USERI3
 70
     0
  9
$USERI4
 70
     0
  9
$USERI5
 70
     0
  9
$USERR1
 40
0.0
  9
$USERR2
 40
0.0
  9
$USERR3
 40
0.0
  9
$USERR4
 40
0.0
  9
$USERR5
 40
0.0
  9
$WORLDVIEW
 70
     1
  9
$SHADEDGE
 70
     3
  9
$SHADEDIF
 70
    70
  9
$TILEMODE
 70
     1
  9
$MAXACTVP
 70
    64
  9
$PINSBASE
 10
0.0
 20
0.0
 30
0.0
  9
$PLIMCHECK
 70
     0
  9
$PEXTMIN
 10
1.000000000000000E+20
 20
1.000000000000000E+20
 30
1.000000000000000E+20
  9
$PEXTMAX
 10
-1.000000000000000E+20
 20
-1.000000000000000E+20
 30
-1.000000000000000E+20
  9
$PLIMMIN
 10
0.0
 20
0.0
  9
$PLIMMAX
 10
12.0
 20
9.0
  9
$UNITMODE
 70
     0
  9
$VISRETAIN
 70
     1
  9
$PLINEGEN
 70
     0
  9
$PSLTSCALE
 70
     1
  9
$TREEDEPTH
 70
  3020
  9
$PICKSTYLE
 70
     1
  9
$CMLSTYLE
  2
STANDARD
  9
$CMLJUST
 70
     0
  9
$CMLSCALE
 40
1.0
  9
$PROXYGRAPHICS
 70
     1
  9
$MEASUREMENT
 70
     0
  0
ENDSEC
  0
SECTION
  2
CLASSES
  0
CLASS
  1
ACDBDICTIONARYWDFLT
  2
AcDbDictionaryWithDefault
  3
ObjectDBX Classes
 90
        0
280
     0
281
     0
  0
CLASS
  1
VISUALSTYLE
  2
AcDbVisualStyle
  3
ObjectDBX Classes
 90
     4095
280
     0
281
     0
  0
CLASS
  1
MATERIAL
  2
AcDbMaterial
  3
ObjectDBX Classes
 90
     1153
280
     0
281
     0
  0
CLASS
  1
SCALE
  2
AcDbScale
  3
ObjectDBX Classes
 90
     1153
280
     0
281
     0
  0
CLASS
  1
TABLESTYLE
  2
AcDbTableStyle
  3
ObjectDBX Classes
 90
     4095
280
     0
281
     0
  0
CLASS
  1
MLEADERSTYLE
  2
AcDbMLeaderStyle
  3
ACDB_MLEADERSTYLE_CLASS
 90
     4095
280
     0
281
     0
  0
CLASS
  1
SUN
  2
AcDbSun
  3
SCENEOE
 90
     1153
280
     0
281
     0
  0
CLASS
  1
DICTIONARYVAR
  2
AcDbDictionaryVar
  3
ObjectDBX Classes
 90
        0
280
     0
281
     0
  0
CLASS
  1
XRECORD
  2
AcDbXrecord
  3
ObjectDBX Classes
 90
        0
280
     0
281
     0
  0
CLASS
  1
LWPOLYLINE
  2
AcDbPolyline
  3
ObjectDBX Classes
 90
        0
280
     0
281
     1
  0
CLASS
  1
HATCH
  2
AcDbHatch
  3
ObjectDBX Classes
 90
        0
280
     0
281
     1
  0
CLASS
  1
ACDBPLACEHOLDER
  2
AcDbPlaceHolder
  3
ObjectDBX Classes
 90
        0
280
     0
281
     0
  0
CLASS
  1
LAYOUT
  2
AcDbLayout
  3
ObjectDBX Classes
 90
        0
280
     0
281
     0
  0
ENDSEC
  0
SECTION
  2
TABLES
  0
TABLE
  2
VPORT
  5
8
102
{ACAD_XDICTIONARY
360
468
102
}
330
0
100
AcDbSymbolTable
 70
     1
  0
VPORT
  5
29
330
8
100
AcDbSymbolTableRecord
100
AcDbViewportTableRecord
  2
*ACTIVE
 70
     0
 10
0.0
 20
0.0
 11
1.0
 21
1.0
 12
10.42990654205607
 22
4.5
 13
0.0
 23
0.0
 14
0.5
 24
0.5
 15
0.5
 25
0.5
 16
0.0
 26
0.0
 36
1.0
 17
0.0
 27
0.0
 37
0.0
 40
9.0
 41
1.972972972850329
 42
50.0
 43
0.0
 44
0.0
 50
0.0
 51
0.0
 71
     0
 72
   100
 73
     1
 74
     3
 75
     0
 76
     0
 77
     0
 78
     0
  0
ENDTAB
  0
TABLE
  2
LTYPE
  5
5
330
0
100
AcDbSymbolTable
 70
     1
  0
LTYPE
  5
14
330
5
100
AcDbSymbolTableRecord
100
AcDbLinetypeTableRecord
  2
BYBLOCK
 70
     0
  3

 72
    65
 73
     0
 40
0.0
  0
LTYPE
  5
15
330
5
100
AcDbSymbolTableRecord
100
AcDbLinetypeTableRecord
  2
BYLAYER
 70
     0
  3

 72
    65
 73
     0
 40
0.0
  0
LTYPE
  5
16
330
5
100
AcDbSymbolTableRecord
100
AcDbLinetypeTableRecord
  2
CONTINUOUS
 70
     0
  3
Solid line
 72
    65
 73
     0
 40
0.0
  0
ENDTAB
  0
TABLE
  2
LAYER
  5
2
330
0
100
AcDbSymbolTable
 70
     2
  0
LAYER
  5
10
330
2
100
AcDbSymbolTableRecord
100
AcDbLayerTableRecord
  2
0
 70
     0
 62
     7
  6
CONTINUOUS
  0
LAYER
  5
6E
330
2
100
AcDbSymbolTableRecord
100
AcDbLayerTableRecord
  2
DEFAULT
 70
     0
 62
    18
  6
CONTINUOUS
  0
ENDTAB
  0
TABLE
  2
STYLE
  5
3
330
0
100
AcDbSymbolTable
 70
     1
  0
STYLE
  5
11
330
3
100
AcDbSymbolTableRecord
100
AcDbTextStyleTableRecord
  2
STANDARD
 70
     0
 40
0.0
 41
1.0
 50
0.0
 71
     0
 42
0.2
  3
txt
  4

  0
ENDTAB
  0
TABLE
  2
VIEW
  5
6
330
0
100
AcDbSymbolTable
 70
     0
  0
ENDTAB
  0
TABLE
  2
UCS
  5
7
330
0
100
AcDbSymbolTable
 70
     0
  0
ENDTAB
  0
TABLE
  2
APPID
  5
9
330
0
100
AcDbSymbolTable
 70
     2
  0
APPID
  5
12
330
9
100
AcDbSymbolTableRecord
100
AcDbRegAppTableRecord
  2
ACAD
 70
     0
  0
APPID
  5
472
330
9
100
AcDbSymbolTableRecord
100
AcDbRegAppTableRecord
  2
ACAD_MLEADERVER
 70
     0
  0
ENDTAB
  0
TABLE
  2
DIMSTYLE
  5
A
330
0
100
AcDbSymbolTable
 70
     1
  0
DIMSTYLE
105
27
330
A
100
AcDbSymbolTableRecord
100
AcDbDimStyleTableRecord
  2
STANDARD_ACAD
 70
     0
  3

  4

  5

  6

  7

 40
1.0
 41
0.18
 42
0.0625
 43
0.38
 44
0.18
 45
0.0
 46
0.0
 47
0.0
 48
0.0
140
0.18
141
0.09
142
0.0
143
25.4
144
1.0
145
0.0
146
1.0
147
0.09
 71
     0
 72
     0
 73
     1
 74
     1
 75
     0
 76
     0
 77
     0
 78
     0
170
     0
171
     2
172
     0
173
     0
174
     0
175
     0
176
     0
177
     0
178
     0
270
     2
271
     4
272
     4
273
     2
274
     2
340
11
275
     0
280
     0
281
     0
282
     0
283
     1
284
     0
285
     0
286
     0
287
     3
288
     0
  0
ENDTAB
  0
TABLE
  2
BLOCK_RECORD
  5
1
330
0
100
AcDbSymbolTable
 70
     0
  0
BLOCK_RECORD
  5
1F
330
1
100
AcDbSymbolTableRecord
100
AcDbBlockTableRecord
  2
*MODEL_SPACE
  0
BLOCK_RECORD
  5
1B
330
1
100
AcDbSymbolTableRecord
100
AcDbBlockTableRecord
  2
*PAPER_SPACE
  0
ENDTAB
  0
ENDSEC
  0
SECTION
  2
BLOCKS
  0
BLOCK
  5
20
330
1F
100
AcDbEntity
  8
0
100
AcDbBlockBegin
  2
*MODEL_SPACE
 70
     0
 10
0.0
 20
0.0
 30
0.0
  3
*MODEL_SPACE
  1

  0
ENDBLK
  5
21
330
1F
100
AcDbEntity
  8
0
100
AcDbBlockEnd
  0
BLOCK
  5
1C
330
1B
100
AcDbEntity
 67
     1
  8
0
100
AcDbBlockBegin
  2
*PAPER_SPACE
 70
     0
 10
0.0
 20
0.0
 30
0.0
  3
*PAPER_SPACE
  1

  0
ENDBLK
  5
1D
330
1B
100
AcDbEntity
 67
     1
  8
0
100
AcDbBlockEnd
  0
ENDSEC
  0
SECTION
  2
ENTITIES
  0
POLYLINE
  5
6F
330
1F
100
AcDbEntity
  8
DEFAULT
100
AcDb2dPolyline
 66
     1
 10
0.0
 20
0.0
 30
0.0
 70
     1
  0
VERTEX
  5
70
330
6F
100
AcDbEntity
  8
DEFAULT
100
AcDbVertex
100
AcDb2dVertex
 10
-5.514980835386174
 20
-3.208347571873354
 30
0.0
  0
VERTEX
  5
71
330
6F
100
AcDbEntity
  8
DEFAULT
100
AcDbVertex
100
AcDb2dVertex
 10
-5.471980835386175
 20
-3.208347571873354
 30
0.0
  0
VERTEX
  5
72
330
6F
100
AcDbEntity
  8
DEFAULT
100
AcDbVertex
100
AcDb2dVertex
 10
-5.471980835386175
 20
-2.763347571873354
 30
0.0
  0
VERTEX
  5
73
330
6F
100
AcDbEntity
  8
DEFAULT
100
AcDbVertex
100
AcDb2dVertex
 10
-5.514980835386174
 20
-2.763347571873354
 30
0.0
  0
SEQEND
  5
74
330
6F
100
AcDbEntity
  8
DEFAULT
  0
POLYLINE
  5
75
330
1F
100
AcDbEntity
  8
DEFAULT
100
AcDb2dPolyline
 66
     1
 10
0.0
 20
0.0
 30
0.0
 70
     1
  0
VERTEX
  5
76
330
75
100
AcDbEntity
  8
DEFAULT
100
AcDbVertex
100
AcDb2dVertex
 10
-26.94133208585642
 20
-6.559491725159666
 30
0.0
  0
VERTEX
  5
77
330
75
100
AcDbEntity
  8
DEFAULT
100
AcDbVertex
100
AcDb2dVertex
 10
-26.94210295902858
 20
-6.560495269762646
 30
0.0
  0
VERTEX
  5
78
330
75
100
AcDbEntity
  8
DEFAULT
100
AcDbVertex
100
AcDb2dVertex
 10
-26.94283859207691
 20
-6.561493731886832
 30
0.0
  0
VERTEX
  5
79
330
75
100
AcDbEntity
  8
DEFAULT
100
AcDbVertex
100
AcDb2dVertex
 10
-26.94353919224601
 20
-6.562487177565338
 30
0.0
  0
VERTEX
  5
7A
330
75
100
AcDbEntity
  8
DEFAULT
100
AcDbVertex
100
AcDb2dVertex
 10
-26.94420496678046
 20
-6.563475672831268
 30
0.0
  0
VERTEX
  5
7B
330
75
100
AcDbEntity
  8
DEFAULT
100
AcDbVertex
100
AcDb2dVertex
 10
-26.94483612292488
 20
-6.564459283717735
 30
0.0
  0
VERTEX
  5
7C
330
75
100
AcDbEntity
  8
DEFAULT
100
AcDbVertex
100
AcDb2dVertex
 10
-26.94543286792386
 20
-6.565438076257846
 30
0.0
  0
VERTEX
  5
7D
330
75
100
AcDbEntity
  8
DEFAULT
100
AcDbVertex
100
AcDb2dVertex
 10
-26.94599540902198
 20
-6.56641211648471
 30
0.0
  0
VERTEX
  5
7E
330
75
100
AcDbEntity
  8
DEFAULT
100
AcDbVertex
100
AcDb2dVertex
 10
-26.94652395346384
 20
-6.567381470431435
 30
0.0
  0
VERTEX
  5
7F
330
75
100
AcDbEntity
  8
DEFAULT
100
AcDbVertex
100
AcDb2dVertex
 10
-26.94701870849404
 20
-6.568346204131132
 30
0.0
  0
VERTEX
  5
80
330
75
100
AcDbEntity
  8
DEFAULT
100
AcDbVertex
100
AcDb2dVertex
 10
-26.94747988135718
 20
-6.569306383616908
 30
0.0
  0
VERTEX
  5
81
330
75
100
AcDbEntity
  8
DEFAULT
100
AcDbVertex
100
AcDb2dVertex
 10
-26.94790767929783
 20
-6.570262074921873
 30
0.0
  0
VERTEX
  5
82
330
75
100
AcDbEntity
  8
DEFAULT
100
AcDbVertex
100
AcDb2dVertex
 10
-26.94830230956062
 20
-6.571213344079135
 30
0.0
  0
VERTEX
  5
83
330
75
100
AcDbEntity
  8
DEFAULT
100
AcDbVertex
100
AcDb2dVertex
 10
-26.94866397939012
 20
-6.572160257121803
 30
0.0
  0
VERTEX
  5
84
330
75
100
AcDbEntity
  8
DEFAULT
100
AcDbVertex
100
AcDb2dVertex
 10
-26.94899289603093
 20
-6.573102880082986
 30
0.0
  0
VERTEX
  5
85
330
75
100
AcDbEntity
  8
DEFAULT
100
AcDbVertex
100
AcDb2dVertex
 10
-26.94928926672764
 20
-6.574041278995793
 30
0.0
  0
VERTEX
  5
86
330
75
100
AcDbEntity
  8
DEFAULT
100
AcDbVertex
100
AcDb2dVertex
 10
-26.94955329872486
 20
-6.574975519893333
 30
0.0
  0
VERTEX
  5
87
330
75
100
AcDbEntity
  8
DEFAULT
100
AcDbVertex
100
AcDb2dVertex
 10
-26.94978519926717
 20
-6.575905668808715
 30
0.0
  0
VERTEX
  5
88
330
75
100
AcDbEntity
  8
DEFAULT
100
AcDbVertex
100
AcDb2dVertex
 10
-26.94998517559917
 20
-6.576831791775047
 30
0.0
  0
VERTEX
  5
89
330
75
100
AcDbEntity
  8
DEFAULT
100
AcDbVertex
100
AcDb2dVertex
 10
-26.95015343496546
 20
-6.577753954825439
 30
0.0
  0
VERTEX
  5
8A
330
75
100
AcDbEntity
  8
DEFAULT
100
AcDbVertex
100
AcDb2dVertex
 10
-26.95029018461062
 20
-6.578672223992998
 30
0.0
  0
VERTEX
  5
8B
330
75
100
AcDbEntity
  8
DEFAULT
100
AcDbVertex
100
AcDb2dVertex
 10
-26.95039563177926
 20
-6.579586665310835
 30
0.0
  0
VERTEX
  5
8C
330
75
100
AcDbEntity
  8
DEFAULT
100
AcDbVertex
100
AcDb2dVertex
 10
-26.95046998371598
 20
-6.580497344812057
 30
0.0
  0
VERTEX
  5
8D
330
75
100
AcDbEntity
  8
DEFAULT
100
AcDbVertex
100
AcDb2dVertex
 10
-26.95051344766535
 20
-6.581404328529775
 30
0.0
  0
VERTEX
  5
8E
330
75
100
AcDbEntity
  8
DEFAULT
100
AcDbVertex
100
AcDb2dVertex
 10
-26.95052623087198
 20
-6.582307682497097
 30
0.0
  0
VERTEX
  5
8F
330
75
100
AcDbEntity
  8
DEFAULT
100
AcDbVertex
100
AcDb2dVertex
 10
-26.95050854058047
 20
-6.583207472747131
 30
0.0
  0
VERTEX
  5
90
330
75
100
AcDbEntity
  8
DEFAULT
100
AcDbVertex
100
AcDb2dVertex
 10
-26.9504605840354
 20
-6.584103765312986
 30
0.0
  0
VERTEX
  5
91
330
75
100
AcDbEntity
  8
DEFAULT
100
AcDbVertex
100
AcDb2dVertex
 10
-26.95038256848138
 20
-6.584996626227771
 30
0.0
  0
VERTEX
  5
92
330
75
100
AcDbEntity
  8
DEFAULT
100
AcDbVertex
100
AcDb2dVertex
 10
-26.950274701163
 20
-6.585886121524596
 30
0.0
  0
VERTEX
  5
93
330
75
100
AcDbEntity
  8
DEFAULT
100
AcDbVertex
100
AcDb2dVertex
 10
-26.95013718932484
 20
-6.586772317236569
 30
0.0
  0
VERTEX
  5
94
330
75
100
AcDbEntity
  8
DEFAULT
100
AcDbVertex
100
AcDb2dVertex
 10
-26.94997024021152
 20
-6.587655279396798
 30
0.0
  0
VERTEX
  5
95
330
75
100
AcDbEntity
  8
DEFAULT
100
AcDbVertex
100
AcDb2dVertex
 10
-26.94977406106761
 20
-6.588535074038393
 30
0.0
  0
VERTEX
  5
96
330
75
100
AcDbEntity
  8
DEFAULT
100
AcDbVertex
100
AcDb2dVertex
 10
-26.94954885913773
 20
-6.589411767194464
 30
0.0
  0
VERTEX
  5
97
330
75
100
AcDbEntity
  8
DEFAULT
100
AcDbVertex
100
AcDb2dVertex
 10
-26.94929484166645
 20
-6.590285424898118
 30
0.0
  0
VERTEX
  5
98
330
75
100
AcDbEntity
  8
DEFAULT
100
AcDbVertex
100
AcDb2dVertex
 10
-26.94901221589839
 20
-6.591156113182464
 30
0.0
  0
VERTEX
  5
99
330
75
100
AcDbEntity
  8
DEFAULT
100
AcDbVertex
100
AcDb2dVertex
 10
-26.94870118907812
 20
-6.59202389808061
 30
0.0
  0
VERTEX
  5
9A
330
75
100
AcDbEntity
  8
DEFAULT
100
AcDbVertex
100
AcDb2dVertex
 10
-26.94836196845025
 20
-6.592888845625667
 30
0.0
  0
VERTEX
  5
9B
330
75
100
AcDbEntity
  8
DEFAULT
100
AcDbVertex
100
AcDb2dVertex
 10
-26.94799476125937
 20
-6.593751021850743
 30
0.0
  0
VERTEX
  5
9C
330
75
100
AcDbEntity
  8
DEFAULT
100
AcDbVertex
100
AcDb2dVertex
 10
-26.94759977475007
 20
-6.594610492788946
 30
0.0
  0
VERTEX
  5
9D
330
75
100
AcDbEntity
  8
DEFAULT
100
AcDbVertex
100
AcDb2dVertex
 10
-26.94717721616696
 20
-6.595467324473386
 30
0.0
  0
VERTEX
  5
9E
330
75
100
AcDbEntity
  8
DEFAULT
100
AcDbVertex
100
AcDb2dVertex
 10
-26.94672729275462
 20
-6.596321582937172
 30
0.0
  0
VERTEX
  5
9F
330
75
100
AcDbEntity
  8
DEFAULT
100
AcDbVertex
100
AcDb2dVertex
 10
-26.94625021175764
 20
-6.597173334213412
 30
0.0
  0
VERTEX
  5
A0
330
75
100
AcDbEntity
  8
DEFAULT
100
AcDbVertex
100
AcDb2dVertex
 10
-26.94574618042063
 20
-6.598022644335215
 30
0.0
  0
VERTEX
  5
A1
330
75
100
AcDbEntity
  8
DEFAULT
100
AcDbVertex
100
AcDb2dVertex
 10
-26.94521540598819
 20
-6.598869579335691
 30
0.0
  0
VERTEX
  5
A2
330
75
100
AcDbEntity
  8
DEFAULT
100
AcDbVertex
100
AcDb2dVertex
 10
-26.9446580957049
 20
-6.599714205247946
 30
0.0
  0
VERTEX
  5
A3
330
75
100
AcDbEntity
  8
DEFAULT
100
AcDbVertex
100
AcDb2dVertex
 10
-26.94407445681535
 20
-6.600556588105093
 30
0.0
  0
VERTEX
  5
A4
330
75
100
AcDbEntity
  8
DEFAULT
100
AcDbVertex
100
AcDb2dVertex
 10
-26.94346469656415
 20
-6.601396793940237
 30
0.0
  0
VERTEX
  5
A5
330
75
100
AcDbEntity
  8
DEFAULT
100
AcDbVertex
100
AcDb2dVertex
 10
-26.94282902219588
 20
-6.602234888786489
 30
0.0
  0
VERTEX
  5
A6
330
75
100
AcDbEntity
  8
DEFAULT
100
AcDbVertex
100
AcDb2dVertex
 10
-26.94216764095515
 20
-6.603070938676957
 30
0.0
  0
VERTEX
  5
A7
330
75
100
AcDbEntity
  8
DEFAULT
100
AcDbVertex
100
AcDb2dVertex
 10
-26.94148076008654
 20
-6.603905009644751
 30
0.0
  0
VERTEX
  5
A8
330
75
100
AcDbEntity
  8
DEFAULT
100
AcDbVertex
100
AcDb2dVertex
 10
-26.94076858683466
 20
-6.604737167722979
 30
0.0
  0
VERTEX
  5
A9
330
75
100
AcDbEntity
  8
DEFAULT
100
AcDbVertex
100
AcDb2dVertex
 10
-26.9400313284441
 20
-6.605567478944748
 30
0.0
  0
VERTEX
  5
AA
330
75
100
AcDbEntity
  8
DEFAULT
100
AcDbVertex
100
AcDb2dVertex
 10
-26.93926919215944
 20
-6.606396009343172
 30
0.0
  0
VERTEX
  5
AB
330
75
100
AcDbEntity
  8
DEFAULT
100
AcDbVertex
100
AcDb2dVertex
 10
-26.93767111488625
 20
-6.608047991802406
 30
0.0
  0
VERTEX
  5
AC
330
75
100
AcDbEntity
  8
DEFAULT
100
AcDbVertex
100
AcDb2dVertex
 10
-26.93597601297184
 20
-6.609693643365557
 30
0.0
  0
VERTEX
  5
AD
330
75
100
AcDbEntity
  8
DEFAULT
100
AcDbVertex
100
AcDb2dVertex
 10
-26.93418554437298
 20
-6.611333492297492
 30
0.0
  0
VERTEX
  5
AE
330
75
100
AcDbEntity
  8
DEFAULT
100
AcDbVertex
100
AcDb2dVertex
 10
-26.93230136704641
 20
-6.612968066863082
 30
0.0
  0
VERTEX
  5
AF
330
75
100
AcDbEntity
  8
DEFAULT
100
AcDbVertex
100
AcDb2dVertex
 10
-26.93032513894891
 20
-6.614597895327197
 30
0.0
  0
VERTEX
  5
B0
330
75
100
AcDbEntity
  8
DEFAULT
100
AcDbVertex
100
AcDb2dVertex
 10
-26.92825851803722
 20
-6.616223505954711
 30
0.0
  0
VERTEX
  5
B1
330
75
100
AcDbEntity
  8
DEFAULT
100
AcDbVertex
100
AcDb2dVertex
 10
-26.92610316226811
 20
-6.617845427010492
 30
0.0
  0
VERTEX
  5
B2
330
75
100
AcDbEntity
  8
DEFAULT
100
AcDbVertex
100
AcDb2dVertex
 10
-26.92386072959832
 20
-6.619464186759412
 30
0.0
  0
VERTEX
  5
B3
330
75
100
AcDbEntity
  8
DEFAULT
100
AcDbVertex
100
AcDb2dVertex
 10
-26.91912126538378
 20
-6.622694335396154
 30
0.0
  0
VERTEX
  5
B4
330
75
100
AcDbEntity
  8
DEFAULT
100
AcDbVertex
100
AcDb2dVertex
 10
-26.91405338904767
 20
-6.625918177983903
 30
0.0
  0
VERTEX
  5
B5
330
75
100
AcDbEntity
  8
DEFAULT
100
AcDbVertex
100
AcDb2dVertex
 10
-26.90867036424404
 20
-6.629139940641625
 30
0.0
  0
VERTEX
  5
B6
330
75
100
AcDbEntity
  8
DEFAULT
100
AcDbVertex
100
AcDb2dVertex
 10
-26.90298545462696
 20
-6.632363849488287
 30
0.0
  0
VERTEX
  5
B7
330
75
100
AcDbEntity
  8
DEFAULT
100
AcDbVertex
100
AcDb2dVertex
 10
-26.89701192385051
 20
-6.635594130642859
 30
0.0
  0
VERTEX
  5
B8
330
75
100
AcDbEntity
  8
DEFAULT
100
AcDbVertex
100
AcDb2dVertex
 10
-26.88425205343572
 20
-6.642090714351596
 30
0.0
  0
VERTEX
  5
B9
330
75
100
AcDbEntity
  8
DEFAULT
100
AcDbVertex
100
AcDb2dVertex
 10
-26.87049686223216
 20
-6.648663500719572
 30
0.0
  0
VERTEX
  5
BA
330
75
100
AcDbEntity
  8
DEFAULT
100
AcDbVertex
100
AcDb2dVertex
 10
-26.82432045621406
 20
-6.669177165296306
 30
0.0
  0
VERTEX
  5
BB
330
75
100
AcDbEntity
  8
DEFAULT
100
AcDbVertex
100
AcDb2dVertex
 10
-26.67772311965696
 20
-6.731199115378155
 30
0.0
  0
VERTEX
  5
BC
330
75
100
AcDbEntity
  8
DEFAULT
100
AcDbVertex
100
AcDb2dVertex
 10
-26.51218089652941
 20
-6.797280684010816
 30
0.0
  0
VERTEX
  5
BD
330
75
100
AcDbEntity
  8
DEFAULT
100
AcDbVertex
100
AcDb2dVertex
 10
-26.34494716567235
 20
-6.858626031000863
 30
0.0
  0
VERTEX
  5
BE
330
75
100
AcDbEntity
  8
DEFAULT
100
AcDbVertex
100
AcDb2dVertex
 10
-26.2656859326473
 20
-6.885577387490974
 30
0.0
  0
VERTEX
  5
BF
330
75
100
AcDbEntity
  8
DEFAULT
100
AcDbVertex
100
AcDb2dVertex
 10
-26.19192209974313
 20
-6.909145728522077
 30
0.0
  0
VERTEX
  5
C0
330
75
100
AcDbEntity
  8
DEFAULT
100
AcDbVertex
100
AcDb2dVertex
 10
-26.12522031160966
 20
-6.928823601775317
 30
0.0
  0
VERTEX
  5
C1
330
75
100
AcDbEntity
  8
DEFAULT
100
AcDbVertex
100
AcDb2dVertex
 10
-26.0656228559401
 20
-6.944780158023648
 30
0.0
  0
VERTEX
  5
C2
330
75
100
AcDbEntity
  8
DEFAULT
100
AcDbVertex
100
AcDb2dVertex
 10
-26.01279143118856
 20
-6.957353698812968
 30
0.0
  0
VERTEX
  5
C3
330
75
100
AcDbEntity
  8
DEFAULT
100
AcDbVertex
100
AcDb2dVertex
 10
-25.96638773580914
 20
-6.96688252568918
 30
0.0
  0
VERTEX
  5
C4
330
75
100
AcDbEntity
  8
DEFAULT
100
AcDbVertex
100
AcDb2dVertex
 10
-25.90847473992022
 20
-6.977158435145924
 30
0.0
  0
VERTEX
  5
C5
330
75
100
AcDbEntity
  8
DEFAULT
100
AcDbVertex
100
AcDb2dVertex
 10
-25.89241246443879
 20
-6.980414587525221
 30
0.0
  0
VERTEX
  5
C6
330
75
100
AcDbEntity
  8
DEFAULT
100
AcDbVertex
100
AcDb2dVertex
 10
-25.88501299911582
 20
-6.982153668909619
 30
0.0
  0
VERTEX
  5
C7
330
75
100
AcDbEntity
  8
DEFAULT
100
AcDbVertex
100
AcDb2dVertex
 10
-25.87804169668687
 20
-6.984009041450419
 30
0.0
  0
VERTEX
  5
C8
330
75
100
AcDbEntity
  8
DEFAULT
100
AcDbVertex
100
AcDb2dVertex
 10
-25.87471825842068
 20
-6.984990248082573
 30
0.0
  0
VERTEX
  5
C9
330
75
100
AcDbEntity
  8
DEFAULT
100
AcDbVertex
100
AcDb2dVertex
 10
-25.87150384311362
 20
-6.986012420917551
 30
0.0
  0
VERTEX
  5
CA
330
75
100
AcDbEntity
  8
DEFAULT
100
AcDbVertex
100
AcDb2dVertex
 10
-25.86839911151088
 20
-6.987079524426594
 30
0.0
  0
VERTEX
  5
CB
330
75
100
AcDbEntity
  8
DEFAULT
100
AcDbVertex
100
AcDb2dVertex
 10
-25.8654047243577
 20
-6.988195523080943
 30
0.0
  0
VERTEX
  5
CC
330
75
100
AcDbEntity
  8
DEFAULT
100
AcDbVertex
100
AcDb2dVertex
 10
-25.86252134239926
 20
-6.98936438135184
 30
0.0
  0
VERTEX
  5
CD
330
75
100
AcDbEntity
  8
DEFAULT
100
AcDbVertex
100
AcDb2dVertex
 10
-25.85974962638078
 20
-6.990590063710524
 30
0.0
  0
VERTEX
  5
CE
330
75
100
AcDbEntity
  8
DEFAULT
100
AcDbVertex
100
AcDb2dVertex
 10
-25.85840584958189
 20
-6.99122545282005
 30
0.0
  0
VERTEX
  5
CF
330
75
100
AcDbEntity
  8
DEFAULT
100
AcDbVertex
100
AcDb2dVertex
 10
-25.85709023704745
 20
-6.991876534628237
 30
0.0
  0
VERTEX
  5
D0
330
75
100
AcDbEntity
  8
DEFAULT
100
AcDbVertex
100
AcDb2dVertex
 10
-25.85580287137061
 20
-6.992543804693993
 30
0.0
  0
VERTEX
  5
D1
330
75
100
AcDbEntity
  8
DEFAULT
100
AcDbVertex
100
AcDb2dVertex
 10
-25.8545438351445
 20
-6.993227758576221
 30
0.0
  0
VERTEX
  5
D2
330
75
100
AcDbEntity
  8
DEFAULT
100
AcDbVertex
100
AcDb2dVertex
 10
-25.85331321096229
 20
-6.993928891833827
 30
0.0
  0
VERTEX
  5
D3
330
75
100
AcDbEntity
  8
DEFAULT
100
AcDbVertex
100
AcDb2dVertex
 10
-25.85211108141712
 20
-6.994647700025716
 30
0.0
  0
VERTEX
  5
D4
330
75
100
AcDbEntity
  8
DEFAULT
100
AcDbVertex
100
AcDb2dVertex
 10
-25.85093752910215
 20
-6.995384678710793
 30
0.0
  0
VERTEX
  5
D5
330
75
100
AcDbEntity
  8
DEFAULT
100
AcDbVertex
100
AcDb2dVertex
 10
-25.84979263661053
 20
-6.996140323447962
 30
0.0
  0
VERTEX
  5
D6
330
75
100
AcDbEntity
  8
DEFAULT
100
AcDbVertex
100
AcDb2dVertex
 10
-25.84867648653541
 20
-6.996915129796131
 30
0.0
  0
VERTEX
  5
D7
330
75
100
AcDbEntity
  8
DEFAULT
100
AcDbVertex
100
AcDb2dVertex
 10
-25.84758916146993
 20
-6.997709593314202
 30
0.0
  0
VERTEX
  5
D8
330
75
100
AcDbEntity
  8
DEFAULT
100
AcDbVertex
100
AcDb2dVertex
 10
-25.84653074400725
 20
-6.998524209561083
 30
0.0
  0
VERTEX
  5
D9
330
75
100
AcDbEntity
  8
DEFAULT
100
AcDbVertex
100
AcDb2dVertex
 10
-25.84550131674052
 20
-6.999359474095677
 30
0.0
  0
VERTEX
  5
DA
330
75
100
AcDbEntity
  8
DEFAULT
100
AcDbVertex
100
AcDb2dVertex
 10
-25.84450083493179
 20
-7.000215786118214
 30
0.0
  0
VERTEX
  5
DB
330
75
100
AcDbEntity
  8
DEFAULT
100
AcDbVertex
100
AcDb2dVertex
 10
-25.84352874451866
 20
-7.001093159394219
 30
0.0
  0
VERTEX
  5
DC
330
75
100
AcDbEntity
  8
DEFAULT
100
AcDbVertex
100
AcDb2dVertex
 10
-25.84258436410764
 20
-7.001991511330541
 30
0.0
  0
VERTEX
  5
DD
330
75
100
AcDbEntity
  8
DEFAULT
100
AcDbVertex
100
AcDb2dVertex
 10
-25.84166701230524
 20
-7.002910759334029
 30
0.0
  0
VERTEX
  5
DE
330
75
100
AcDbEntity
  8
DEFAULT
100
AcDbVertex
100
AcDb2dVertex
 10
-25.84077600771796
 20
-7.003850820811532
 30
0.0
  0
VERTEX
  5
DF
330
75
100
AcDbEntity
  8
DEFAULT
100
AcDbVertex
100
AcDb2dVertex
 10
-25.83991066895231
 20
-7.0048116131699
 30
0.0
  0
VERTEX
  5
E0
330
75
100
AcDbEntity
  8
DEFAULT
100
AcDbVertex
100
AcDb2dVertex
 10
-25.83907031461479
 20
-7.005793053815982
 30
0.0
  0
VERTEX
  5
E1
330
75
100
AcDbEntity
  8
DEFAULT
100
AcDbVertex
100
AcDb2dVertex
 10
-25.83825426331192
 20
-7.006795060156625
 30
0.0
  0
VERTEX
  5
E2
330
75
100
AcDbEntity
  8
DEFAULT
100
AcDbVertex
100
AcDb2dVertex
 10
-25.83746183365019
 20
-7.007817549598681
 30
0.0
  0
VERTEX
  5
E3
330
75
100
AcDbEntity
  8
DEFAULT
100
AcDbVertex
100
AcDb2dVertex
 10
-25.83669234423611
 20
-7.008860439548999
 30
0.0
  0
VERTEX
  5
E4
330
75
100
AcDbEntity
  8
DEFAULT
100
AcDbVertex
100
AcDb2dVertex
 10
-25.83594511367618
 20
-7.009923647414428
 30
0.0
  0
VERTEX
  5
E5
330
75
100
AcDbEntity
  8
DEFAULT
100
AcDbVertex
100
AcDb2dVertex
 10
-25.83521946057692
 20
-7.011007090601815
 30
0.0
  0
VERTEX
  5
E6
330
75
100
AcDbEntity
  8
DEFAULT
100
AcDbVertex
100
AcDb2dVertex
 10
-25.83451470354481
 20
-7.01211068651801
 30
0.0
  0
VERTEX
  5
E7
330
75
100
AcDbEntity
  8
DEFAULT
100
AcDbVertex
100
AcDb2dVertex
 10
-25.83383016118638
 20
-7.013234352569864
 30
0.0
  0
VERTEX
  5
E8
330
75
100
AcDbEntity
  8
DEFAULT
100
AcDbVertex
100
AcDb2dVertex
 10
-25.83316515210813
 20
-7.014378006164224
 30
0.0
  0
VERTEX
  5
E9
330
75
100
AcDbEntity
  8
DEFAULT
100
AcDbVertex
100
AcDb2dVertex
 10
-25.83251899491657
 20
-7.015541564707941
 30
0.0
  0
VERTEX
  5
EA
330
75
100
AcDbEntity
  8
DEFAULT
100
AcDbVertex
100
AcDb2dVertex
 10
-25.83189100821819
 20
-7.016724945607862
 30
0.0
  0
VERTEX
  5
EB
330
75
100
AcDbEntity
  8
DEFAULT
100
AcDbVertex
100
AcDb2dVertex
 10
-25.8312805106195
 20
-7.017928066270837
 30
0.0
  0
VERTEX
  5
EC
330
75
100
AcDbEntity
  8
DEFAULT
100
AcDbVertex
100
AcDb2dVertex
 10
-25.83010925714724
 20
-7.020393196513348
 30
0.0
  0
VERTEX
  5
ED
330
75
100
AcDbEntity
  8
DEFAULT
100
AcDbVertex
100
AcDb2dVertex
 10
-25.8289997833518
 20
-7.022936294690266
 30
0.0
  0
VERTEX
  5
EE
330
75
100
AcDbEntity
  8
DEFAULT
100
AcDbVertex
100
AcDb2dVertex
 10
-25.82794663808525
 20
-7.025556700056384
 30
0.0
  0
VERTEX
  5
EF
330
75
100
AcDbEntity
  8
DEFAULT
100
AcDbVertex
100
AcDb2dVertex
 10
-25.82694437019963
 20
-7.028253751866496
 30
0.0
  0
VERTEX
  5
F0
330
75
100
AcDbEntity
  8
DEFAULT
100
AcDbVertex
100
AcDb2dVertex
 10
-25.82598752854697
 20
-7.031026789375393
 30
0.0
  0
VERTEX
  5
F1
330
75
100
AcDbEntity
  8
DEFAULT
100
AcDbVertex
100
AcDb2dVertex
 10
-25.82507066197934
 20
-7.03387515183787
 30
0.0
  0
VERTEX
  5
F2
330
75
100
AcDbEntity
  8
DEFAULT
100
AcDbVertex
100
AcDb2dVertex
 10
-25.82418831934876
 20
-7.036798178508721
 30
0.0
  0
VERTEX
  5
F3
330
75
100
AcDbEntity
  8
DEFAULT
100
AcDbVertex
100
AcDb2dVertex
 10
-25.82250540130694
 20
-7.042865581494711
 30
0.0
  0
VERTEX
  5
F4
330
75
100
AcDbEntity
  8
DEFAULT
100
AcDbVertex
100
AcDb2dVertex
 10
-25.81430885701612
 20
-7.077457795556696
 30
0.0
  0
VERTEX
  5
F5
330
75
100
AcDbEntity
  8
DEFAULT
100
AcDbVertex
100
AcDb2dVertex
 10
-25.81031795596682
 20
-7.09318176949222
 30
0.0
  0
VERTEX
  5
F6
330
75
100
AcDbEntity
  8
DEFAULT
100
AcDbVertex
100
AcDb2dVertex
 10
-25.80547249111667
 20
-7.109903028193264
 30
0.0
  0
VERTEX
  5
F7
330
75
100
AcDbEntity
  8
DEFAULT
100
AcDbVertex
100
AcDb2dVertex
 10
-25.79980241624839
 20
-7.127491184605679
 30
0.0
  0
VERTEX
  5
F8
330
75
100
AcDbEntity
  8
DEFAULT
100
AcDbVertex
100
AcDb2dVertex
 10
-25.79341345059508
 20
-7.145798231803134
 30
0.0
  0
VERTEX
  5
F9
330
75
100
AcDbEntity
  8
DEFAULT
100
AcDbVertex
100
AcDb2dVertex
 10
-25.78641131338981
 20
-7.164676162859297
 30
0.0
  0
VERTEX
  5
FA
330
75
100
AcDbEntity
  8
DEFAULT
100
AcDbVertex
100
AcDb2dVertex
 10
-25.77099040125583
 20
-7.20355264884242
 30
0.0
  0
VERTEX
  5
FB
330
75
100
AcDbEntity
  8
DEFAULT
100
AcDbVertex
100
AcDb2dVertex
 10
-25.75438543371119
 20
-7.242936587144394
 30
0.0
  0
VERTEX
  5
FC
330
75
100
AcDbEntity
  8
DEFAULT
100
AcDbVertex
100
AcDb2dVertex
 10
-25.7203894799444
 20
-7.318593670104705
 30
0.0
  0
VERTEX
  5
FD
330
75
100
AcDbEntity
  8
DEFAULT
100
AcDbVertex
100
AcDb2dVertex
 10
-25.703841808083
 20
-7.352640426625067
 30
0.0
  0
VERTEX
  5
FE
330
75
100
AcDbEntity
  8
DEFAULT
100
AcDbVertex
100
AcDb2dVertex
 10
-25.69584815594245
 20
-7.368234154588934
 30
0.0
  0
VERTEX
  5
FF
330
75
100
AcDbEntity
  8
DEFAULT
100
AcDbVertex
100
AcDb2dVertex
 10
-25.68810514348472
 20
-7.382690323667118
 30
0.0
  0
VERTEX
  5
100
330
75
100
AcDbEntity
  8
DEFAULT
100
AcDbVertex
100
AcDb2dVertex
 10
-25.68065176728577
 20
-7.395902783502384
 30
0.0
  0
VERTEX
  5
101
330
75
100
AcDbEntity
  8
DEFAULT
100
AcDbVertex
100
AcDb2dVertex
 10
-25.67349145875728
 20
-7.407894158372965
 30
0.0
  0
VERTEX
  5
102
330
75
100
AcDbEntity
  8
DEFAULT
100
AcDbVertex
100
AcDb2dVertex
 10
-25.66661875801983
 20
-7.418719266215964
 30
0.0
  0
VERTEX
  5
103
330
75
100
AcDbEntity
  8
DEFAULT
100
AcDbVertex
100
AcDb2dVertex
 10
-25.66002820519399
 20
-7.428432924968487
 30
0.0
  0
VERTEX
  5
104
330
75
100
AcDbEntity
  8
DEFAULT
100
AcDbVertex
100
AcDb2dVertex
 10
-25.65683702803562
 20
-7.432890091541162
 30
0.0
  0
VERTEX
  5
105
330
75
100
AcDbEntity
  8
DEFAULT
100
AcDbVertex
100
AcDb2dVertex
 10
-25.65371434040037
 20
-7.43708995256763
 30
0.0
  0
VERTEX
  5
106
330
75
100
AcDbEntity
  8
DEFAULT
100
AcDbVertex
100
AcDb2dVertex
 10
-25.65065945980332
 20
-7.441039360290032
 30
0.0
  0
VERTEX
  5
107
330
75
100
AcDbEntity
  8
DEFAULT
100
AcDbVertex
100
AcDb2dVertex
 10
-25.64767170375954
 20
-7.444745166950502
 30
0.0
  0
VERTEX
  5
108
330
75
100
AcDbEntity
  8
DEFAULT
100
AcDbVertex
100
AcDb2dVertex
 10
-25.64475038978411
 20
-7.448214224791181
 30
0.0
  0
VERTEX
  5
109
330
75
100
AcDbEntity
  8
DEFAULT
100
AcDbVertex
100
AcDb2dVertex
 10
-25.64189483539209
 20
-7.451453386054204
 30
0.0
  0
VERTEX
  5
10A
330
75
100
AcDbEntity
  8
DEFAULT
100
AcDbVertex
100
AcDb2dVertex
 10
-25.63910435809857
 20
-7.454469502981709
 30
0.0
  0
VERTEX
  5
10B
330
75
100
AcDbEntity
  8
DEFAULT
100
AcDbVertex
100
AcDb2dVertex
 10
-25.63637827541861
 20
-7.457269427815836
 30
0.0
  0
VERTEX
  5
10C
330
75
100
AcDbEntity
  8
DEFAULT
100
AcDbVertex
100
AcDb2dVertex
 10
-25.63371194179703
 20
-7.459863895673273
 30
0.0
  0
VERTEX
  5
10D
330
75
100
AcDbEntity
  8
DEFAULT
100
AcDbVertex
100
AcDb2dVertex
 10
-25.63108485939755
 20
-7.462279173168913
 30
0.0
  0
VERTEX
  5
10E
330
75
100
AcDbEntity
  8
DEFAULT
100
AcDbVertex
100
AcDb2dVertex
 10
-25.62847256731365
 20
-7.464545409792202
 30
0.0
  0
VERTEX
  5
10F
330
75
100
AcDbEntity
  8
DEFAULT
100
AcDbVertex
100
AcDb2dVertex
 10
-25.6258506046388
 20
-7.466692755032585
 30
0.0
  0
VERTEX
  5
110
330
75
100
AcDbEntity
  8
DEFAULT
100
AcDbVertex
100
AcDb2dVertex
 10
-25.62319451046645
 20
-7.468751358379507
 30
0.0
  0
VERTEX
  5
111
330
75
100
AcDbEntity
  8
DEFAULT
100
AcDbVertex
100
AcDb2dVertex
 10
-25.6204798238901
 20
-7.470751369322413
 30
0.0
  0
VERTEX
  5
112
330
75
100
AcDbEntity
  8
DEFAULT
100
AcDbVertex
100
AcDb2dVertex
 10
-25.61477682989921
 20
-7.474696211953958
 30
0.0
  0
VERTEX
  5
113
330
75
100
AcDbEntity
  8
DEFAULT
100
AcDbVertex
100
AcDb2dVertex
 10
-25.57451531546591
 20
-7.501099579930637
 30
0.0
  0
VERTEX
  5
114
330
75
100
AcDbEntity
  8
DEFAULT
100
AcDbVertex
100
AcDb2dVertex
 10
-25.56330956560272
 20
-7.509034015379317
 30
0.0
  0
VERTEX
  5
115
330
75
100
AcDbEntity
  8
DEFAULT
100
AcDbVertex
100
AcDb2dVertex
 10
-25.55143028752249
 20
-7.517869522361602
 30
0.0
  0
VERTEX
  5
116
330
75
100
AcDbEntity
  8
DEFAULT
100
AcDbVertex
100
AcDb2dVertex
 10
-25.53919604186842
 20
-7.527510532684532
 30
0.0
  0
VERTEX
  5
117
330
75
100
AcDbEntity
  8
DEFAULT
100
AcDbVertex
100
AcDb2dVertex
 10
-25.53304535640219
 20
-7.532603236538441
 30
0.0
  0
VERTEX
  5
118
330
75
100
AcDbEntity
  8
DEFAULT
100
AcDbVertex
100
AcDb2dVertex
 10
-25.5269253892837
 20
-7.537861478155152
 30
0.0
  0
VERTEX
  5
119
330
75
100
AcDbEntity
  8
DEFAULT
100
AcDbVertex
100
AcDb2dVertex
 10
-25.52087596059334
 20
-7.543273311510545
 30
0.0
  0
VERTEX
  5
11A
330
75
100
AcDbEntity
  8
DEFAULT
100
AcDbVertex
100
AcDb2dVertex
 10
-25.51493689041152
 20
-7.548826790580501
 30
0.0
  0
VERTEX
  5
11B
330
75
100
AcDbEntity
  8
DEFAULT
100
AcDbVertex
100
AcDb2dVertex
 10
-25.50914799881863
 20
-7.5545099693409
 30
0.0
  0
VERTEX
  5
11C
330
75
100
AcDbEntity
  8
DEFAULT
100
AcDbVertex
100
AcDb2dVertex
 10
-25.50354910589508
 20
-7.560310901767623
 30
0.0
  0
VERTEX
  5
11D
330
75
100
AcDbEntity
  8
DEFAULT
100
AcDbVertex
100
AcDb2dVertex
 10
-25.49818003172126
 20
-7.566217641836548
 30
0.0
  0
VERTEX
  5
11E
330
75
100
AcDbEntity
  8
DEFAULT
100
AcDbVertex
100
AcDb2dVertex
 10
-25.49559412044062
 20
-7.5692069566043
 30
0.0
  0
VERTEX
  5
11F
330
75
100
AcDbEntity
  8
DEFAULT
100
AcDbVertex
100
AcDb2dVertex
 10
-25.49308059637757
 20
-7.572218243523558
 30
0.0
  0
VERTEX
  5
120
330
75
100
AcDbEntity
  8
DEFAULT
100
AcDbVertex
100
AcDb2dVertex
 10
-25.49064314525978
 20
-7.575250566348384
 30
0.0
  0
VERTEX
  5
121
330
75
100
AcDbEntity
  8
DEFAULT
100
AcDbVertex
100
AcDb2dVertex
 10
-25.48828028568545
 20
-7.578305216861148
 30
0.0
  0
VERTEX
  5
122
330
75
100
AcDbEntity
  8
DEFAULT
100
AcDbVertex
100
AcDb2dVertex
 10
-25.48598924447041
 20
-7.581384043851296
 30
0.0
  0
VERTEX
  5
123
330
75
100
AcDbEntity
  8
DEFAULT
100
AcDbVertex
100
AcDb2dVertex
 10
-25.4837672484305
 20
-7.584488896108278
 30
0.0
  0
VERTEX
  5
124
330
75
100
AcDbEntity
  8
DEFAULT
100
AcDbVertex
100
AcDb2dVertex
 10
-25.48161152438153
 20
-7.587621622421539
 30
0.0
  0
VERTEX
  5
125
330
75
100
AcDbEntity
  8
DEFAULT
100
AcDbVertex
100
AcDb2dVertex
 10
-25.47951929913934
 20
-7.590784071580526
 30
0.0
  0
VERTEX
  5
126
330
75
100
AcDbEntity
  8
DEFAULT
100
AcDbVertex
100
AcDb2dVertex
 10
-25.47748779951976
 20
-7.593978092374687
 30
0.0
  0
VERTEX
  5
127
330
75
100
AcDbEntity
  8
DEFAULT
100
AcDbVertex
100
AcDb2dVertex
 10
-25.47551425233862
 20
-7.597205533593469
 30
0.0
  0
VERTEX
  5
128
330
75
100
AcDbEntity
  8
DEFAULT
100
AcDbVertex
100
AcDb2dVertex
 10
-25.47172992255497
 20
-7.603768072462683
 30
0.0
  0
VERTEX
  5
129
330
75
100
AcDbEntity
  8
DEFAULT
100
AcDbVertex
100
AcDb2dVertex
 10
-25.46814412431503
 20
-7.610486478503745
 30
0.0
  0
VERTEX
  5
12A
330
75
100
AcDbEntity
  8
DEFAULT
100
AcDbVertex
100
AcDb2dVertex
 10
-25.46473467214542
 20
-7.617375542032232
 30
0.0
  0
VERTEX
  5
12B
330
75
100
AcDbEntity
  8
DEFAULT
100
AcDbVertex
100
AcDb2dVertex
 10
-25.46147938057279
 20
-7.624450053363721
 30
0.0
  0
VERTEX
  5
12C
330
75
100
AcDbEntity
  8
DEFAULT
100
AcDbVertex
100
AcDb2dVertex
 10
-25.45835606412377
 20
-7.631724802813789
 30
0.0
  0
VERTEX
  5
12D
330
75
100
AcDbEntity
  8
DEFAULT
100
AcDbVertex
100
AcDb2dVertex
 10
-25.45534253732498
 20
-7.639214580698011
 30
0.0
  0
VERTEX
  5
12E
330
75
100
AcDbEntity
  8
DEFAULT
100
AcDbVertex
100
AcDb2dVertex
 10
-25.45241661470308
 20
-7.646934177331968
 30
0.0
  0
VERTEX
  5
12F
330
75
100
AcDbEntity
  8
DEFAULT
100
AcDbVertex
100
AcDb2dVertex
 10
-25.44955611078469
 20
-7.654898383031233
 30
0.0
  0
VERTEX
  5
130
330
75
100
AcDbEntity
  8
DEFAULT
100
AcDbVertex
100
AcDb2dVertex
 10
-25.443942617165
 20
-7.671619782887998
 30
0.0
  0
VERTEX
  5
131
330
75
100
AcDbEntity
  8
DEFAULT
100
AcDbVertex
100
AcDb2dVertex
 10
-25.4198116484431
 20
-7.749240875990674
 30
0.0
  0
VERTEX
  5
132
330
75
100
AcDbEntity
  8
DEFAULT
100
AcDbVertex
100
AcDb2dVertex
 10
-25.41259700835249
 20
-7.77017486111481
 30
0.0
  0
VERTEX
  5
133
330
75
100
AcDbEntity
  8
DEFAULT
100
AcDbVertex
100
AcDb2dVertex
 10
-25.40871208546098
 20
-7.780648679976377
 30
0.0
  0
VERTEX
  5
134
330
75
100
AcDbEntity
  8
DEFAULT
100
AcDbVertex
100
AcDb2dVertex
 10
-25.40461782271822
 20
-7.791072439308296
 30
0.0
  0
VERTEX
  5
135
330
75
100
AcDbEntity
  8
DEFAULT
100
AcDbVertex
100
AcDb2dVertex
 10
-25.4002960166589
 20
-7.801405181313591
 30
0.0
  0
VERTEX
  5
136
330
75
100
AcDbEntity
  8
DEFAULT
100
AcDbVertex
100
AcDb2dVertex
 10
-25.39572846381768
 20
-7.811605948195275
 30
0.0
  0
VERTEX
  5
137
330
75
100
AcDbEntity
  8
DEFAULT
100
AcDbVertex
100
AcDb2dVertex
 10
-25.39089696072924
 20
-7.82163378215637
 30
0.0
  0
VERTEX
  5
138
330
75
100
AcDbEntity
  8
DEFAULT
100
AcDbVertex
100
AcDb2dVertex
 10
-25.38578330392827
 20
-7.831447725399892
 30
0.0
  0
VERTEX
  5
139
330
75
100
AcDbEntity
  8
DEFAULT
100
AcDbVertex
100
AcDb2dVertex
 10
-25.38311497930267
 20
-7.836261688691007
 30
0.0
  0
VERTEX
  5
13A
330
75
100
AcDbEntity
  8
DEFAULT
100
AcDbVertex
100
AcDb2dVertex
 10
-25.38036928994943
 20
-7.841006820128859
 30
0.0
  0
VERTEX
  5
13B
330
75
100
AcDbEntity
  8
DEFAULT
100
AcDbVertex
100
AcDb2dVertex
 10
-25.37754396043539
 20
-7.845677999988828
 30
0.0
  0
VERTEX
  5
13C
330
75
100
AcDbEntity
  8
DEFAULT
100
AcDbVertex
100
AcDb2dVertex
 10
-25.37463671532739
 20
-7.85027010854629
 30
0.0
  0
VERTEX
  5
13D
330
75
100
AcDbEntity
  8
DEFAULT
100
AcDbVertex
100
AcDb2dVertex
 10
-25.37164507772162
 20
-7.854779104537132
 30
0.0
  0
VERTEX
  5
13E
330
75
100
AcDbEntity
  8
DEFAULT
100
AcDbVertex
100
AcDb2dVertex
 10
-25.36856576483168
 20
-7.859205260539288
 30
0.0
  0
VERTEX
  5
13F
330
75
100
AcDbEntity
  8
DEFAULT
100
AcDbVertex
100
AcDb2dVertex
 10
-25.36539529240054
 20
-7.863549927591198
 30
0.0
  0
VERTEX
  5
140
330
75
100
AcDbEntity
  8
DEFAULT
100
AcDbVertex
100
AcDb2dVertex
 10
-25.36213017617116
 20
-7.867814456731304
 30
0.0
  0
VERTEX
  5
141
330
75
100
AcDbEntity
  8
DEFAULT
100
AcDbVertex
100
AcDb2dVertex
 10
-25.35876693188652
 20
-7.87200019899805
 30
0.0
  0
VERTEX
  5
142
330
75
100
AcDbEntity
  8
DEFAULT
100
AcDbVertex
100
AcDb2dVertex
 10
-25.35530207528957
 20
-7.876108505429876
 30
0.0
  0
VERTEX
  5
143
330
75
100
AcDbEntity
  8
DEFAULT
100
AcDbVertex
100
AcDb2dVertex
 10
-25.35173212212329
 20
-7.880140727065226
 30
0.0
  0
VERTEX
  5
144
330
75
100
AcDbEntity
  8
DEFAULT
100
AcDbVertex
100
AcDb2dVertex
 10
-25.34805358813063
 20
-7.88409821494254
 30
0.0
  0
VERTEX
  5
145
330
75
100
AcDbEntity
  8
DEFAULT
100
AcDbVertex
100
AcDb2dVertex
 10
-25.34426298905456
 20
-7.887982320100261
 30
0.0
  0
VERTEX
  5
146
330
75
100
AcDbEntity
  8
DEFAULT
100
AcDbVertex
100
AcDb2dVertex
 10
-25.34035684063804
 20
-7.891794393576832
 30
0.0
  0
VERTEX
  5
147
330
75
100
AcDbEntity
  8
DEFAULT
100
AcDbVertex
100
AcDb2dVertex
 10
-25.33633165862405
 20
-7.895535786410695
 30
0.0
  0
VERTEX
  5
148
330
75
100
AcDbEntity
  8
DEFAULT
100
AcDbVertex
100
AcDb2dVertex
 10
-25.33218395875554
 20
-7.89920784964029
 30
0.0
  0
VERTEX
  5
149
330
75
100
AcDbEntity
  8
DEFAULT
100
AcDbVertex
100
AcDb2dVertex
 10
-25.32791025677548
 20
-7.902811934304061
 30
0.0
  0
VERTEX
  5
14A
330
75
100
AcDbEntity
  8
DEFAULT
100
AcDbVertex
100
AcDb2dVertex
 10
-25.32350706842684
 20
-7.906349391440452
 30
0.0
  0
VERTEX
  5
14B
330
75
100
AcDbEntity
  8
DEFAULT
100
AcDbVertex
100
AcDb2dVertex
 10
-25.31897090945258
 20
-7.909821572087901
 30
0.0
  0
VERTEX
  5
14C
330
75
100
AcDbEntity
  8
DEFAULT
100
AcDbVertex
100
AcDb2dVertex
 10
-25.31429829559567
 20
-7.913229827284852
 30
0.0
  0
VERTEX
  5
14D
330
75
100
AcDbEntity
  8
DEFAULT
100
AcDbVertex
100
AcDb2dVertex
 10
-25.30948574259907
 20
-7.916575508069748
 30
0.0
  0
VERTEX
  5
14E
330
75
100
AcDbEntity
  8
DEFAULT
100
AcDbVertex
100
AcDb2dVertex
 10
-25.30452976620575
 20
-7.919859965481029
 30
0.0
  0
VERTEX
  5
14F
330
75
100
AcDbEntity
  8
DEFAULT
100
AcDbVertex
100
AcDb2dVertex
 10
-25.29942688215867
 20
-7.92308455055714
 30
0.0
  0
VERTEX
  5
150
330
75
100
AcDbEntity
  8
DEFAULT
100
AcDbVertex
100
AcDb2dVertex
 10
-25.29417360620079
 20
-7.926250614336521
 30
0.0
  0
VERTEX
  5
151
330
75
100
AcDbEntity
  8
DEFAULT
100
AcDbVertex
100
AcDb2dVertex
 10
-25.28876645407509
 20
-7.929359507857614
 30
0.0
  0
VERTEX
  5
152
330
75
100
AcDbEntity
  8
DEFAULT
100
AcDbVertex
100
AcDb2dVertex
 10
-25.28320194152452
 20
-7.932412582158863
 30
0.0
  0
VERTEX
  5
153
330
75
100
AcDbEntity
  8
DEFAULT
100
AcDbVertex
100
AcDb2dVertex
 10
-25.27747658429205
 20
-7.935411188278707
 30
0.0
  0
VERTEX
  5
154
330
75
100
AcDbEntity
  8
DEFAULT
100
AcDbVertex
100
AcDb2dVertex
 10
-25.27158689812066
 20
-7.938356677255591
 30
0.0
  0
VERTEX
  5
155
330
75
100
AcDbEntity
  8
DEFAULT
100
AcDbVertex
100
AcDb2dVertex
 10
-25.25930060193292
 20
-7.944093707934244
 30
0.0
  0
VERTEX
  5
156
330
75
100
AcDbEntity
  8
DEFAULT
100
AcDbVertex
100
AcDb2dVertex
 10
-25.24631517890504
 20
-7.949634482502359
 30
0.0
  0
VERTEX
  5
157
330
75
100
AcDbEntity
  8
DEFAULT
100
AcDbVertex
100
AcDb2dVertex
 10
-25.23260275498072
 20
-7.954989809267472
 30
0.0
  0
VERTEX
  5
158
330
75
100
AcDbEntity
  8
DEFAULT
100
AcDbVertex
100
AcDb2dVertex
 10
-25.2181354561037
 20
-7.960170496537119
 30
0.0
  0
VERTEX
  5
159
330
75
100
AcDbEntity
  8
DEFAULT
100
AcDbVertex
100
AcDb2dVertex
 10
-25.20289640614465
 20
-7.965187447428553
 30
0.0
  0
VERTEX
  5
15A
330
75
100
AcDbEntity
  8
DEFAULT
100
AcDbVertex
100
AcDb2dVertex
 10
-25.18691272068213
 20
-7.970051944297888
 30
0.0
  0
VERTEX
  5
15B
330
75
100
AcDbEntity
  8
DEFAULT
100
AcDbVertex
100
AcDb2dVertex
 10
-25.15286389726882
 20
-7.979369084633572
 30
0.0
  0
VERTEX
  5
15C
330
75
100
AcDbEntity
  8
DEFAULT
100
AcDbVertex
100
AcDb2dVertex
 10
-25.11629389390794
 20
-7.988212934870798
 30
0.0
  0
VERTEX
  5
15D
330
75
100
AcDbEntity
  8
DEFAULT
100
AcDbVertex
100
AcDb2dVertex
 10
-25.0775076186437
 20
-7.996674512336192
 30
0.0
  0
VERTEX
  5
15E
330
75
100
AcDbEntity
  8
DEFAULT
100
AcDbVertex
100
AcDb2dVertex
 10
-24.90629795943714
 20
-8.028518441011979
 30
0.0
  0
VERTEX
  5
15F
330
75
100
AcDbEntity
  8
DEFAULT
100
AcDbVertex
100
AcDb2dVertex
 10
-24.72270994380935
 20
-8.059925486519957
 30
0.0
  0
VERTEX
  5
160
330
75
100
AcDbEntity
  8
DEFAULT
100
AcDbVertex
100
AcDb2dVertex
 10
-24.53970443907198
 20
-8.088711233021089
 30
0.0
  0
VERTEX
  5
161
330
75
100
AcDbEntity
  8
DEFAULT
100
AcDbVertex
100
AcDb2dVertex
 10
-24.36635890660057
 20
-8.11201166863752
 30
0.0
  0
VERTEX
  5
162
330
75
100
AcDbEntity
  8
DEFAULT
100
AcDbVertex
100
AcDb2dVertex
 10
-24.11650268888681
 20
-8.139755197263373
 30
0.0
  0
VERTEX
  5
163
330
75
100
AcDbEntity
  8
DEFAULT
100
AcDbVertex
100
AcDb2dVertex
 10
-24.00528707585452
 20
-8.15425528795263
 30
0.0
  0
VERTEX
  5
164
330
75
100
AcDbEntity
  8
DEFAULT
100
AcDbVertex
100
AcDb2dVertex
 10
-23.84038940128345
 20
-8.180277338367993
 30
0.0
  0
VERTEX
  5
165
330
75
100
AcDbEntity
  8
DEFAULT
100
AcDbVertex
100
AcDb2dVertex
 10
-23.25554846161932
 20
-8.286490000996093
 30
0.0
  0
VERTEX
  5
166
330
75
100
AcDbEntity
  8
DEFAULT
100
AcDbVertex
100
AcDb2dVertex
 10
-23.06628902095689
 20
-8.319407563433575
 30
0.0
  0
VERTEX
  5
167
330
75
100
AcDbEntity
  8
DEFAULT
100
AcDbVertex
100
AcDb2dVertex
 10
-22.87492667760793
 20
-8.34954562719275
 30
0.0
  0
VERTEX
  5
168
330
75
100
AcDbEntity
  8
DEFAULT
100
AcDbVertex
100
AcDb2dVertex
 10
-22.68980455941511
 20
-8.37399668787542
 30
0.0
  0
VERTEX
  5
169
330
75
100
AcDbEntity
  8
DEFAULT
100
AcDbVertex
100
AcDb2dVertex
 10
-22.60219081220309
 20
-8.383180996938624
 30
0.0
  0
VERTEX
  5
16A
330
75
100
AcDbEntity
  8
DEFAULT
100
AcDbVertex
100
AcDb2dVertex
 10
-22.51926579422111
 20
-8.389853241083376
 30
0.0
  0
VERTEX
  5
16B
330
75
100
AcDbEntity
  8
DEFAULT
100
AcDbVertex
100
AcDb2dVertex
 10
-22.47988746212274
 20
-8.392133764420777
 30
0.0
  0
VERTEX
  5
16C
330
75
100
AcDbEntity
  8
DEFAULT
100
AcDbVertex
100
AcDb2dVertex
 10
-22.4420723964495
 20
-8.393649982259898
 30
0.0
  0
VERTEX
  5
16D
330
75
100
AcDbEntity
  8
DEFAULT
100
AcDbVertex
100
AcDb2dVertex
 10
-22.40595095857394
 20
-8.394356464844517
 30
0.0
  0
VERTEX
  5
16E
330
75
100
AcDbEntity
  8
DEFAULT
100
AcDbVertex
100
AcDb2dVertex
 10
-22.37165350986861
 20
-8.394207782418414
 30
0.0
  0
VERTEX
  5
16F
330
75
100
AcDbEntity
  8
DEFAULT
100
AcDbVertex
100
AcDb2dVertex
 10
-22.33931041170603
 20
-8.393158505225365
 30
0.0
  0
VERTEX
  5
170
330
75
100
AcDbEntity
  8
DEFAULT
100
AcDbVertex
100
AcDb2dVertex
 10
-22.3239124820072
 20
-8.39228194679242
 30
0.0
  0
VERTEX
  5
171
330
75
100
AcDbEntity
  8
DEFAULT
100
AcDbVertex
100
AcDb2dVertex
 10
-22.30905202545876
 20
-8.391163203509151
 30
0.0
  0
VERTEX
  5
172
330
75
100
AcDbEntity
  8
DEFAULT
100
AcDbVertex
100
AcDb2dVertex
 10
-22.29474533723229
 20
-8.389796596656037
 30
0.0
  0
VERTEX
  5
173
330
75
100
AcDbEntity
  8
DEFAULT
100
AcDbVertex
100
AcDb2dVertex
 10
-22.28100871249934
 20
-8.388176447513548
 30
0.0
  0
VERTEX
  5
174
330
75
100
AcDbEntity
  8
DEFAULT
100
AcDbVertex
100
AcDb2dVertex
 10
-22.26785844643149
 20
-8.386297077362155
 30
0.0
  0
VERTEX
  5
175
330
75
100
AcDbEntity
  8
DEFAULT
100
AcDbVertex
100
AcDb2dVertex
 10
-22.2553108342003
 20
-8.384152807482334
 30
0.0
  0
VERTEX
  5
176
330
75
100
AcDbEntity
  8
DEFAULT
100
AcDbVertex
100
AcDb2dVertex
 10
-22.24337695274384
 20
-8.381740084364633
 30
0.0
  0
VERTEX
  5
177
330
75
100
AcDbEntity
  8
DEFAULT
100
AcDbVertex
100
AcDb2dVertex
 10
-22.23204700606617
 20
-8.379063855339925
 30
0.0
  0
VERTEX
  5
178
330
75
100
AcDbEntity
  8
DEFAULT
100
AcDbVertex
100
AcDb2dVertex
 10
-22.22660381632267
 20
-8.377629136281492
 30
0.0
  0
VERTEX
  5
179
330
75
100
AcDbEntity
  8
DEFAULT
100
AcDbVertex
100
AcDb2dVertex
 10
-22.22130597993782
 20
-8.37613119294916
 30
0.0
  0
VERTEX
  5
17A
330
75
100
AcDbEntity
  8
DEFAULT
100
AcDbVertex
100
AcDb2dVertex
 10
-22.21615162013293
 20
-8.374570909410554
 30
0.0
  0
VERTEX
  5
17B
330
75
100
AcDbEntity
  8
DEFAULT
100
AcDbVertex
100
AcDb2dVertex
 10
-22.21113886012935
 20
-8.372949169733293
 30
0.0
  0
VERTEX
  5
17C
330
75
100
AcDbEntity
  8
DEFAULT
100
AcDbVertex
100
AcDb2dVertex
 10
-22.20626582314836
 20
-8.371266857984992
 30
0.0
  0
VERTEX
  5
17D
330
75
100
AcDbEntity
  8
DEFAULT
100
AcDbVertex
100
AcDb2dVertex
 10
-22.20153063241129
 20
-8.369524858233271
 30
0.0
  0
VERTEX
  5
17E
330
75
100
AcDbEntity
  8
DEFAULT
100
AcDbVertex
100
AcDb2dVertex
 10
-22.19693141113947
 20
-8.36772405454575
 30
0.0
  0
VERTEX
  5
17F
330
75
100
AcDbEntity
  8
DEFAULT
100
AcDbVertex
100
AcDb2dVertex
 10
-22.19246628255421
 20
-8.365865330990047
 30
0.0
  0
VERTEX
  5
180
330
75
100
AcDbEntity
  8
DEFAULT
100
AcDbVertex
100
AcDb2dVertex
 10
-22.18813336987683
 20
-8.363949571633782
 30
0.0
  0
VERTEX
  5
181
330
75
100
AcDbEntity
  8
DEFAULT
100
AcDbVertex
100
AcDb2dVertex
 10
-22.18393079632865
 20
-8.361977660544575
 30
0.0
  0
VERTEX
  5
182
330
75
100
AcDbEntity
  8
DEFAULT
100
AcDbVertex
100
AcDb2dVertex
 10
-22.17985668513099
 20
-8.359950481790042
 30
0.0
  0
VERTEX
  5
183
330
75
100
AcDbEntity
  8
DEFAULT
100
AcDbVertex
100
AcDb2dVertex
 10
-22.17590915950515
 20
-8.357868919437802
 30
0.0
  0
VERTEX
  5
184
330
75
100
AcDbEntity
  8
DEFAULT
100
AcDbVertex
100
AcDb2dVertex
 10
-22.17208634267248
 20
-8.355733857555476
 30
0.0
  0
VERTEX
  5
185
330
75
100
AcDbEntity
  8
DEFAULT
100
AcDbVertex
100
AcDb2dVertex
 10
-22.16838635785427
 20
-8.353546180210682
 30
0.0
  0
VERTEX
  5
186
330
75
100
AcDbEntity
  8
DEFAULT
100
AcDbVertex
100
AcDb2dVertex
 10
-22.16480732827186
 20
-8.351306771471037
 30
0.0
  0
VERTEX
  5
187
330
75
100
AcDbEntity
  8
DEFAULT
100
AcDbVertex
100
AcDb2dVertex
 10
-22.16134737714655
 20
-8.349016515404163
 30
0.0
  0
VERTEX
  5
188
330
75
100
AcDbEntity
  8
DEFAULT
100
AcDbVertex
100
AcDb2dVertex
 10
-22.15800462769968
 20
-8.346676296077678
 30
0.0
  0
VERTEX
  5
189
330
75
100
AcDbEntity
  8
DEFAULT
100
AcDbVertex
100
AcDb2dVertex
 10
-22.15477720315254
 20
-8.3442869975592
 30
0.0
  0
VERTEX
  5
18A
330
75
100
AcDbEntity
  8
DEFAULT
100
AcDbVertex
100
AcDb2dVertex
 10
-22.15166322672647
 20
-8.341849503916347
 30
0.0
  0
VERTEX
  5
18B
330
75
100
AcDbEntity
  8
DEFAULT
100
AcDbVertex
100
AcDb2dVertex
 10
-22.14866082164279
 20
-8.339364699216741
 30
0.0
  0
VERTEX
  5
18C
330
75
100
AcDbEntity
  8
DEFAULT
100
AcDbVertex
100
AcDb2dVertex
 10
-22.14576811112281
 20
-8.336833467527999
 30
0.0
  0
VERTEX
  5
18D
330
75
100
AcDbEntity
  8
DEFAULT
100
AcDbVertex
100
AcDb2dVertex
 10
-22.14298321838784
 20
-8.33425669291774
 30
0.0
  0
VERTEX
  5
18E
330
75
100
AcDbEntity
  8
DEFAULT
100
AcDbVertex
100
AcDb2dVertex
 10
-22.14030426665921
 20
-8.331635259453584
 30
0.0
  0
VERTEX
  5
18F
330
75
100
AcDbEntity
  8
DEFAULT
100
AcDbVertex
100
AcDb2dVertex
 10
-22.13772937915824
 20
-8.32897005120315
 30
0.0
  0
VERTEX
  5
190
330
75
100
AcDbEntity
  8
DEFAULT
100
AcDbVertex
100
AcDb2dVertex
 10
-22.13525667910625
 20
-8.326261952234052
 30
0.0
  0
VERTEX
  5
191
330
75
100
AcDbEntity
  8
DEFAULT
100
AcDbVertex
100
AcDb2dVertex
 10
-22.13288428972455
 20
-8.323511846613915
 30
0.0
  0
VERTEX
  5
192
330
75
100
AcDbEntity
  8
DEFAULT
100
AcDbVertex
100
AcDb2dVertex
 10
-22.13061033423446
 20
-8.320720618410357
 30
0.0
  0
VERTEX
  5
193
330
75
100
AcDbEntity
  8
DEFAULT
100
AcDbVertex
100
AcDb2dVertex
 10
-22.1284329358573
 20
-8.317889151690995
 30
0.0
  0
VERTEX
  5
194
330
75
100
AcDbEntity
  8
DEFAULT
100
AcDbVertex
100
AcDb2dVertex
 10
-22.12635021781439
 20
-8.315018330523449
 30
0.0
  0
VERTEX
  5
195
330
75
100
AcDbEntity
  8
DEFAULT
100
AcDbVertex
100
AcDb2dVertex
 10
-22.12436030332704
 20
-8.312109038975336
 30
0.0
  0
VERTEX
  5
196
330
75
100
AcDbEntity
  8
DEFAULT
100
AcDbVertex
100
AcDb2dVertex
 10
-22.12246131561658
 20
-8.309162161114276
 30
0.0
  0
VERTEX
  5
197
330
75
100
AcDbEntity
  8
DEFAULT
100
AcDbVertex
100
AcDb2dVertex
 10
-22.12065137790433
 20
-8.30617858100789
 30
0.0
  0
VERTEX
  5
198
330
75
100
AcDbEntity
  8
DEFAULT
100
AcDbVertex
100
AcDb2dVertex
 10
-22.1189286134116
 20
-8.303159182723794
 30
0.0
  0
VERTEX
  5
199
330
75
100
AcDbEntity
  8
DEFAULT
100
AcDbVertex
100
AcDb2dVertex
 10
-22.11729114535971
 20
-8.300104850329607
 30
0.0
  0
VERTEX
  5
19A
330
75
100
AcDbEntity
  8
DEFAULT
100
AcDbVertex
100
AcDb2dVertex
 10
-22.11573709696998
 20
-8.29701646789295
 30
0.0
  0
VERTEX
  5
19B
330
75
100
AcDbEntity
  8
DEFAULT
100
AcDbVertex
100
AcDb2dVertex
 10
-22.11426459146373
 20
-8.293894919481442
 30
0.0
  0
VERTEX
  5
19C
330
75
100
AcDbEntity
  8
DEFAULT
100
AcDbVertex
100
AcDb2dVertex
 10
-22.11287175206228
 20
-8.2907410891627
 30
0.0
  0
VERTEX
  5
19D
330
75
100
AcDbEntity
  8
DEFAULT
100
AcDbVertex
100
AcDb2dVertex
 10
-22.11155670198693
 20
-8.287555861004343
 30
0.0
  0
VERTEX
  5
19E
330
75
100
AcDbEntity
  8
DEFAULT
100
AcDbVertex
100
AcDb2dVertex
 10
-22.11031756445903
 20
-8.28434011907399
 30
0.0
  0
VERTEX
  5
19F
330
75
100
AcDbEntity
  8
DEFAULT
100
AcDbVertex
100
AcDb2dVertex
 10
-22.10915246269987
 20
-8.281094747439262
 30
0.0
  0
VERTEX
  5
1A0
330
75
100
AcDbEntity
  8
DEFAULT
100
AcDbVertex
100
AcDb2dVertex
 10
-22.10805951993079
 20
-8.277820630167778
 30
0.0
  0
VERTEX
  5
1A1
330
75
100
AcDbEntity
  8
DEFAULT
100
AcDbVertex
100
AcDb2dVertex
 10
-22.1070368593731
 20
-8.274518651327153
 30
0.0
  0
VERTEX
  5
1A2
330
75
100
AcDbEntity
  8
DEFAULT
100
AcDbVertex
100
AcDb2dVertex
 10
-22.10608260424811
 20
-8.271189694985006
 30
0.0
  0
VERTEX
  5
1A3
330
75
100
AcDbEntity
  8
DEFAULT
100
AcDbVertex
100
AcDb2dVertex
 10
-22.10519487777714
 20
-8.26783464520896
 30
0.0
  0
VERTEX
  5
1A4
330
75
100
AcDbEntity
  8
DEFAULT
100
AcDbVertex
100
AcDb2dVertex
 10
-22.10437180318153
 20
-8.264454386066632
 30
0.0
  0
VERTEX
  5
1A5
330
75
100
AcDbEntity
  8
DEFAULT
100
AcDbVertex
100
AcDb2dVertex
 10
-22.10361150368257
 20
-8.261049801625642
 30
0.0
  0
VERTEX
  5
1A6
330
75
100
AcDbEntity
  8
DEFAULT
100
AcDbVertex
100
AcDb2dVertex
 10
-22.10291210250159
 20
-8.257621775953607
 30
0.0
  0
VERTEX
  5
1A7
330
75
100
AcDbEntity
  8
DEFAULT
100
AcDbVertex
100
AcDb2dVertex
 10
-22.10227172285992
 20
-8.254171193118149
 30
0.0
  0
VERTEX
  5
1A8
330
75
100
AcDbEntity
  8
DEFAULT
100
AcDbVertex
100
AcDb2dVertex
 10
-22.10116052107974
 20
-8.247205892227429
 30
0.0
  0
VERTEX
  5
1A9
330
75
100
AcDbEntity
  8
DEFAULT
100
AcDbVertex
100
AcDb2dVertex
 10
-22.10026288411258
 20
-8.240160971494436
 30
0.0
  0
VERTEX
  5
1AA
330
75
100
AcDbEntity
  8
DEFAULT
100
AcDbVertex
100
AcDb2dVertex
 10
-22.09956379772899
 20
-8.233043503460117
 30
0.0
  0
VERTEX
  5
1AB
330
75
100
AcDbEntity
  8
DEFAULT
100
AcDbVertex
100
AcDb2dVertex
 10
-22.09904824769952
 20
-8.225860560665431
 30
0.0
  0
VERTEX
  5
1AC
330
75
100
AcDbEntity
  8
DEFAULT
100
AcDbVertex
100
AcDb2dVertex
 10
-22.09870121979471
 20
-8.218619215651323
 30
0.0
  0
VERTEX
  5
1AD
330
75
100
AcDbEntity
  8
DEFAULT
100
AcDbVertex
100
AcDb2dVertex
 10
-22.0985076997851
 20
-8.211326540958744
 30
0.0
  0
VERTEX
  5
1AE
330
75
100
AcDbEntity
  8
DEFAULT
100
AcDbVertex
100
AcDb2dVertex
 10
-22.09852112653372
 20
-8.196615492701987
 30
0.0
  0
VERTEX
  5
1AF
330
75
100
AcDbEntity
  8
DEFAULT
100
AcDbVertex
100
AcDb2dVertex
 10
-22.09896841410976
 20
-8.18178399622277
 30
0.0
  0
VERTEX
  5
1B0
330
75
100
AcDbEntity
  8
DEFAULT
100
AcDbVertex
100
AcDb2dVertex
 10
-22.1035087801545
 20
-8.107800101956133
 30
0.0
  0
VERTEX
  5
1B1
330
75
100
AcDbEntity
  8
DEFAULT
100
AcDbVertex
100
AcDb2dVertex
 10
-22.10403684214703
 20
-8.093434103021966
 30
0.0
  0
VERTEX
  5
1B2
330
75
100
AcDbEntity
  8
DEFAULT
100
AcDbVertex
100
AcDb2dVertex
 10
-22.10415796811765
 20
-8.07934371815861
 30
0.0
  0
VERTEX
  5
1B3
330
75
100
AcDbEntity
  8
DEFAULT
100
AcDbVertex
100
AcDb2dVertex
 10
-22.10402839452111
 20
-8.072419562355863
 30
0.0
  0
VERTEX
  5
1B4
330
75
100
AcDbEntity
  8
DEFAULT
100
AcDbVertex
100
AcDb2dVertex
 10
-22.10375204423073
 20
-8.065585527693672
 30
0.0
  0
VERTEX
  5
1B5
330
75
100
AcDbEntity
  8
DEFAULT
100
AcDbVertex
100
AcDb2dVertex
 10
-22.10331390301707
 20
-8.058848686712988
 30
0.0
  0
VERTEX
  5
1B6
330
75
100
AcDbEntity
  8
DEFAULT
100
AcDbVertex
100
AcDb2dVertex
 10
-22.10269895665066
 20
-8.052216111954763
 30
0.0
  0
VERTEX
  5
1B7
330
75
100
AcDbEntity
  8
DEFAULT
100
AcDbVertex
100
AcDb2dVertex
 10
-22.10189219090207
 20
-8.04569487595995
 30
0.0
  0
VERTEX
  5
1B8
330
75
100
AcDbEntity
  8
DEFAULT
100
AcDbVertex
100
AcDb2dVertex
 10
-22.10141218381274
 20
-8.042478220167869
 30
0.0
  0
VERTEX
  5
1B9
330
75
100
AcDbEntity
  8
DEFAULT
100
AcDbVertex
100
AcDb2dVertex
 10
-22.10087859154182
 20
-8.039292051269499
 30
0.0
  0
VERTEX
  5
1BA
330
75
100
AcDbEntity
  8
DEFAULT
100
AcDbVertex
100
AcDb2dVertex
 10
-22.10028953731063
 20
-8.036137253332456
 30
0.0
  0
VERTEX
  5
1BB
330
75
100
AcDbEntity
  8
DEFAULT
100
AcDbVertex
100
AcDb2dVertex
 10
-22.09964314434048
 20
-8.033014710424359
 30
0.0
  0
VERTEX
  5
1BC
330
75
100
AcDbEntity
  8
DEFAULT
100
AcDbVertex
100
AcDb2dVertex
 10
-22.0989375358527
 20
-8.029925306612828
 30
0.0
  0
VERTEX
  5
1BD
330
75
100
AcDbEntity
  8
DEFAULT
100
AcDbVertex
100
AcDb2dVertex
 10
-22.09817083506859
 20
-8.026869925965483
 30
0.0
  0
VERTEX
  5
1BE
330
75
100
AcDbEntity
  8
DEFAULT
100
AcDbVertex
100
AcDb2dVertex
 10
-22.09734116520949
 20
-8.023849452549943
 30
0.0
  0
VERTEX
  5
1BF
330
75
100
AcDbEntity
  8
DEFAULT
100
AcDbVertex
100
AcDb2dVertex
 10
-22.0964466494967
 20
-8.020864770433823
 30
0.0
  0
VERTEX
  5
1C0
330
75
100
AcDbEntity
  8
DEFAULT
100
AcDbVertex
100
AcDb2dVertex
 10
-22.09548541115155
 20
-8.017916763684745
 30
0.0
  0
VERTEX
  5
1C1
330
75
100
AcDbEntity
  8
DEFAULT
100
AcDbVertex
100
AcDb2dVertex
 10
-22.09445557339536
 20
-8.015006316370329
 30
0.0
  0
VERTEX
  5
1C2
330
75
100
AcDbEntity
  8
DEFAULT
100
AcDbVertex
100
AcDb2dVertex
 10
-22.09335525944944
 20
-8.012134312558192
 30
0.0
  0
VERTEX
  5
1C3
330
75
100
AcDbEntity
  8
DEFAULT
100
AcDbVertex
100
AcDb2dVertex
 10
-22.09218259253511
 20
-8.009301636315953
 30
0.0
  0
VERTEX
  5
1C4
330
75
100
AcDbEntity
  8
DEFAULT
100
AcDbVertex
100
AcDb2dVertex
 10
-22.09093569587369
 20
-8.006509171711231
 30
0.0
  0
VERTEX
  5
1C5
330
75
100
AcDbEntity
  8
DEFAULT
100
AcDbVertex
100
AcDb2dVertex
 10
-22.0896126926865
 20
-8.003757802811645
 30
0.0
  0
VERTEX
  5
1C6
330
75
100
AcDbEntity
  8
DEFAULT
100
AcDbVertex
100
AcDb2dVertex
 10
-22.08821170619485
 20
-8.001048413684815
 30
0.0
  0
VERTEX
  5
1C7
330
75
100
AcDbEntity
  8
DEFAULT
100
AcDbVertex
100
AcDb2dVertex
 10
-22.08673085962008
 20
-7.99838188839836
 30
0.0
  0
VERTEX
  5
1C8
330
75
100
AcDbEntity
  8
DEFAULT
100
AcDbVertex
100
AcDb2dVertex
 10
-22.08516827618348
 20
-7.995759111019897
 30
0.0
  0
VERTEX
  5
1C9
330
75
100
AcDbEntity
  8
DEFAULT
100
AcDbVertex
100
AcDb2dVertex
 10
-22.08352207910639
 20
-7.993180965617045
 30
0.0
  0
VERTEX
  5
1CA
330
75
100
AcDbEntity
  8
DEFAULT
100
AcDbVertex
100
AcDb2dVertex
 10
-22.08179084077873
 20
-7.990648131777892
 30
0.0
  0
VERTEX
  5
1CB
330
75
100
AcDbEntity
  8
DEFAULT
100
AcDbVertex
100
AcDb2dVertex
 10
-22.07997493026485
 20
-7.988160471172385
 30
0.0
  0
VERTEX
  5
1CC
330
75
100
AcDbEntity
  8
DEFAULT
100
AcDbVertex
100
AcDb2dVertex
 10
-22.07807516579769
 20
-7.985717640990943
 30
0.0
  0
VERTEX
  5
1CD
330
75
100
AcDbEntity
  8
DEFAULT
100
AcDbVertex
100
AcDb2dVertex
 10
-22.07609236561023
 20
-7.983319298423984
 30
0.0
  0
VERTEX
  5
1CE
330
75
100
AcDbEntity
  8
DEFAULT
100
AcDbVertex
100
AcDb2dVertex
 10
-22.07402734793541
 20
-7.980965100661924
 30
0.0
  0
VERTEX
  5
1CF
330
75
100
AcDbEntity
  8
DEFAULT
100
AcDbVertex
100
AcDb2dVertex
 10
-22.07188093100619
 20
-7.978654704895183
 30
0.0
  0
VERTEX
  5
1D0
330
75
100
AcDbEntity
  8
DEFAULT
100
AcDbVertex
100
AcDb2dVertex
 10
-22.06965393305553
 20
-7.976387768314175
 30
0.0
  0
VERTEX
  5
1D1
330
75
100
AcDbEntity
  8
DEFAULT
100
AcDbVertex
100
AcDb2dVertex
 10
-22.06734717231637
 20
-7.974163948109319
 30
0.0
  0
VERTEX
  5
1D2
330
75
100
AcDbEntity
  8
DEFAULT
100
AcDbVertex
100
AcDb2dVertex
 10
-22.0649614670217
 20
-7.971982901471032
 30
0.0
  0
VERTEX
  5
1D3
330
75
100
AcDbEntity
  8
DEFAULT
100
AcDbVertex
100
AcDb2dVertex
 10
-22.06249763540444
 20
-7.96984428558973
 30
0.0
  0
VERTEX
  5
1D4
330
75
100
AcDbEntity
  8
DEFAULT
100
AcDbVertex
100
AcDb2dVertex
 10
-22.05995649569756
 20
-7.967747757655831
 30
0.0
  0
VERTEX
  5
1D5
330
75
100
AcDbEntity
  8
DEFAULT
100
AcDbVertex
100
AcDb2dVertex
 10
-22.05733886613402
 20
-7.965692974859754
 30
0.0
  0
VERTEX
  5
1D6
330
75
100
AcDbEntity
  8
DEFAULT
100
AcDbVertex
100
AcDb2dVertex
 10
-22.05464556494678
 20
-7.963679594391914
 30
0.0
  0
VERTEX
  5
1D7
330
75
100
AcDbEntity
  8
DEFAULT
100
AcDbVertex
100
AcDb2dVertex
 10
-22.05187741036878
 20
-7.961707273442729
 30
0.0
  0
VERTEX
  5
1D8
330
75
100
AcDbEntity
  8
DEFAULT
100
AcDbVertex
100
AcDb2dVertex
 10
-22.04903522063299
 20
-7.959775669202616
 30
0.0
  0
VERTEX
  5
1D9
330
75
100
AcDbEntity
  8
DEFAULT
100
AcDbVertex
100
AcDb2dVertex
 10
-22.04611981397235
 20
-7.957884438861994
 30
0.0
  0
VERTEX
  5
1DA
330
75
100
AcDbEntity
  8
DEFAULT
100
AcDbVertex
100
AcDb2dVertex
 10
-22.04313200861984
 20
-7.956033239611278
 30
0.0
  0
VERTEX
  5
1DB
330
75
100
AcDbEntity
  8
DEFAULT
100
AcDbVertex
100
AcDb2dVertex
 10
-22.0400726228084
 20
-7.954221728640887
 30
0.0
  0
VERTEX
  5
1DC
330
75
100
AcDbEntity
  8
DEFAULT
100
AcDbVertex
100
AcDb2dVertex
 10
-22.03694247477098
 20
-7.952449563141236
 30
0.0
  0
VERTEX
  5
1DD
330
75
100
AcDbEntity
  8
DEFAULT
100
AcDbVertex
100
AcDb2dVertex
 10
-22.03374238274055
 20
-7.950716400302745
 30
0.0
  0
VERTEX
  5
1DE
330
75
100
AcDbEntity
  8
DEFAULT
100
AcDbVertex
100
AcDb2dVertex
 10
-22.03047316495006
 20
-7.949021897315829
 30
0.0
  0
VERTEX
  5
1DF
330
75
100
AcDbEntity
  8
DEFAULT
100
AcDbVertex
100
AcDb2dVertex
 10
-22.02713563963246
 20
-7.947365711370907
 30
0.0
  0
VERTEX
  5
1E0
330
75
100
AcDbEntity
  8
DEFAULT
100
AcDbVertex
100
AcDb2dVertex
 10
-22.02025893934779
 20
-7.944166919368709
 30
0.0
  0
VERTEX
  5
1E1
330
75
100
AcDbEntity
  8
DEFAULT
100
AcDbVertex
100
AcDb2dVertex
 10
-22.01311882775017
 20
-7.941117281819492
 30
0.0
  0
VERTEX
  5
1E2
330
75
100
AcDbEntity
  8
DEFAULT
100
AcDbVertex
100
AcDb2dVertex
 10
-22.00572185070326
 20
-7.938214056246593
 30
0.0
  0
VERTEX
  5
1E3
330
75
100
AcDbEntity
  8
DEFAULT
100
AcDbVertex
100
AcDb2dVertex
 10
-21.99807455407069
 20
-7.935454500173351
 30
0.0
  0
VERTEX
  5
1E4
330
75
100
AcDbEntity
  8
DEFAULT
100
AcDbVertex
100
AcDb2dVertex
 10
-21.99018348371613
 20
-7.932835871123102
 30
0.0
  0
VERTEX
  5
1E5
330
75
100
AcDbEntity
  8
DEFAULT
100
AcDbVertex
100
AcDb2dVertex
 10
-21.98205518550322
 20
-7.930355426619185
 30
0.0
  0
VERTEX
  5
1E6
330
75
100
AcDbEntity
  8
DEFAULT
100
AcDbVertex
100
AcDb2dVertex
 10
-21.9736962052956
 20
-7.928010424184938
 30
0.0
  0
VERTEX
  5
1E7
330
75
100
AcDbEntity
  8
DEFAULT
100
AcDbVertex
100
AcDb2dVertex
 10
-21.96511308895692
 20
-7.9257981213437
 30
0.0
  0
VERTEX
  5
1E8
330
75
100
AcDbEntity
  8
DEFAULT
100
AcDbVertex
100
AcDb2dVertex
 10
-21.95631238235083
 20
-7.923715775618809
 30
0.0
  0
VERTEX
  5
1E9
330
75
100
AcDbEntity
  8
DEFAULT
100
AcDbVertex
100
AcDb2dVertex
 10
-21.94730063134098
 20
-7.921760644533602
 30
0.0
  0
VERTEX
  5
1EA
330
75
100
AcDbEntity
  8
DEFAULT
100
AcDbVertex
100
AcDb2dVertex
 10
-21.93808438179102
 20
-7.919929985611416
 30
0.0
  0
VERTEX
  5
1EB
330
75
100
AcDbEntity
  8
DEFAULT
100
AcDbVertex
100
AcDb2dVertex
 10
-21.91906457052534
 20
-7.916631114349467
 30
0.0
  0
VERTEX
  5
1EC
330
75
100
AcDbEntity
  8
DEFAULT
100
AcDbVertex
100
AcDb2dVertex
 10
-21.89930531546299
 20
-7.913797222019666
 30
0.0
  0
VERTEX
  5
1ED
330
75
100
AcDbEntity
  8
DEFAULT
100
AcDbVertex
100
AcDb2dVertex
 10
-21.87885898351312
 20
-7.911406368808716
 30
0.0
  0
VERTEX
  5
1EE
330
75
100
AcDbEntity
  8
DEFAULT
100
AcDbVertex
100
AcDb2dVertex
 10
-21.85777794158494
 20
-7.909436614903323
 30
0.0
  0
VERTEX
  5
1EF
330
75
100
AcDbEntity
  8
DEFAULT
100
AcDbVertex
100
AcDb2dVertex
 10
-21.83611455658762
 20
-7.907866020490191
 30
0.0
  0
VERTEX
  5
1F0
330
75
100
AcDbEntity
  8
DEFAULT
100
AcDbVertex
100
AcDb2dVertex
 10
-21.7912502250223
 20
-7.905834550887531
 30
0.0
  0
VERTEX
  5
1F1
330
75
100
AcDbEntity
  8
DEFAULT
100
AcDbVertex
100
AcDb2dVertex
 10
-21.74468492409059
 20
-7.905136441494371
 30
0.0
  0
VERTEX
  5
1F2
330
75
100
AcDbEntity
  8
DEFAULT
100
AcDbVertex
100
AcDb2dVertex
 10
-21.69683758906597
 20
-7.90559617380435
 30
0.0
  0
VERTEX
  5
1F3
330
75
100
AcDbEntity
  8
DEFAULT
100
AcDbVertex
100
AcDb2dVertex
 10
-21.64812715522188
 20
-7.907038229311105
 30
0.0
  0
VERTEX
  5
1F4
330
75
100
AcDbEntity
  8
DEFAULT
100
AcDbVertex
100
AcDb2dVertex
 10
-21.5497927321691
 20
-7.912167235889493
 30
0.0
  0
VERTEX
  5
1F5
330
75
100
AcDbEntity
  8
DEFAULT
100
AcDbVertex
100
AcDb2dVertex
 10
-21.27276496730904
 20
-7.934596811640833
 30
0.0
  0
VERTEX
  5
1F6
330
75
100
AcDbEntity
  8
DEFAULT
100
AcDbVertex
100
AcDb2dVertex
 10
-21.10973754092232
 20
-7.950841160066834
 30
0.0
  0
VERTEX
  5
1F7
330
75
100
AcDbEntity
  8
DEFAULT
100
AcDbVertex
100
AcDb2dVertex
 10
-20.82554692905867
 20
-7.981995044107821
 30
0.0
  0
VERTEX
  5
1F8
330
75
100
AcDbEntity
  8
DEFAULT
100
AcDbVertex
100
AcDb2dVertex
 10
-20.69731458775543
 20
-7.994590503097724
 30
0.0
  0
VERTEX
  5
1F9
330
75
100
AcDbEntity
  8
DEFAULT
100
AcDbVertex
100
AcDb2dVertex
 10
-20.63210817881374
 20
-7.998938601719408
 30
0.0
  0
VERTEX
  5
1FA
330
75
100
AcDbEntity
  8
DEFAULT
100
AcDbVertex
100
AcDb2dVertex
 10
-20.56362403364356
 20
-8.001339077705772
 30
0.0
  0
VERTEX
  5
1FB
330
75
100
AcDbEntity
  8
DEFAULT
100
AcDbVertex
100
AcDb2dVertex
 10
-20.52755494027703
 20
-8.001657112979505
 30
0.0
  0
VERTEX
  5
1FC
330
75
100
AcDbEntity
  8
DEFAULT
100
AcDbVertex
100
AcDb2dVertex
 10
-20.4899489692185
 20
-8.001306029516961
 30
0.0
  0
VERTEX
  5
1FD
330
75
100
AcDbEntity
  8
DEFAULT
100
AcDbVertex
100
AcDb2dVertex
 10
-20.45056697258966
 20
-8.000225089625658
 30
0.0
  0
VERTEX
  5
1FE
330
75
100
AcDbEntity
  8
DEFAULT
100
AcDbVertex
100
AcDb2dVertex
 10
-20.40916980251222
 20
-7.99835355561312
 30
0.0
  0
VERTEX
  5
1FF
330
75
100
AcDbEntity
  8
DEFAULT
100
AcDbVertex
100
AcDb2dVertex
 10
-20.31937335049837
 20
-7.991995754454393
 30
0.0
  0
VERTEX
  5
200
330
75
100
AcDbEntity
  8
DEFAULT
100
AcDbVertex
100
AcDb2dVertex
 10
-20.21864643015059
 20
-7.981746724500925
 30
0.0
  0
VERTEX
  5
201
330
75
100
AcDbEntity
  8
DEFAULT
100
AcDbVertex
100
AcDb2dVertex
 10
-19.72819607622819
 20
-7.917038936617711
 30
0.0
  0
VERTEX
  5
202
330
75
100
AcDbEntity
  8
DEFAULT
100
AcDbVertex
100
AcDb2dVertex
 10
-19.60133103680667
 20
-7.903795828517483
 30
0.0
  0
VERTEX
  5
203
330
75
100
AcDbEntity
  8
DEFAULT
100
AcDbVertex
100
AcDb2dVertex
 10
-19.53981417822193
 20
-7.898886377896103
 30
0.0
  0
VERTEX
  5
204
330
75
100
AcDbEntity
  8
DEFAULT
100
AcDbVertex
100
AcDb2dVertex
 10
-19.48019346433142
 20
-7.89542669988737
 30
0.0
  0
VERTEX
  5
205
330
75
100
AcDbEntity
  8
DEFAULT
100
AcDbVertex
100
AcDb2dVertex
 10
-19.42293317309279
 20
-7.893648072236401
 30
0.0
  0
VERTEX
  5
206
330
75
100
AcDbEntity
  8
DEFAULT
100
AcDbVertex
100
AcDb2dVertex
 10
-19.39533327282971
 20
-7.893461426590427
 30
0.0
  0
VERTEX
  5
207
330
75
100
AcDbEntity
  8
DEFAULT
100
AcDbVertex
100
AcDb2dVertex
 10
-19.36849758246371
 20
-7.893781772688315
 30
0.0
  0
VERTEX
  5
208
330
75
100
AcDbEntity
  8
DEFAULT
100
AcDbVertex
100
AcDb2dVertex
 10
-19.34248413673953
 20
-7.894638020248202
 30
0.0
  0
VERTEX
  5
209
330
75
100
AcDbEntity
  8
DEFAULT
100
AcDbVertex
100
AcDb2dVertex
 10
-19.31735097040185
 20
-7.896059078988229
 30
0.0
  0
VERTEX
  5
20A
330
75
100
AcDbEntity
  8
DEFAULT
100
AcDbVertex
100
AcDb2dVertex
 10
-19.2931561181954
 20
-7.898073858626535
 30
0.0
  0
VERTEX
  5
20B
330
75
100
AcDbEntity
  8
DEFAULT
100
AcDbVertex
100
AcDb2dVertex
 10
-19.26995761486487
 20
-7.90071126888126
 30
0.0
  0
VERTEX
  5
20C
330
75
100
AcDbEntity
  8
DEFAULT
100
AcDbVertex
100
AcDb2dVertex
 10
-19.24779742122519
 20
-7.90398936970985
 30
0.0
  0
VERTEX
  5
20D
330
75
100
AcDbEntity
  8
DEFAULT
100
AcDbVertex
100
AcDb2dVertex
 10
-19.23710071550244
 20
-7.90586143873522
 30
0.0
  0
VERTEX
  5
20E
330
75
100
AcDbEntity
  8
DEFAULT
100
AcDbVertex
100
AcDb2dVertex
 10
-19.22665320237208
 20
-7.907882822026972
 30
0.0
  0
VERTEX
  5
20F
330
75
100
AcDbEntity
  8
DEFAULT
100
AcDbVertex
100
AcDb2dVertex
 10
-19.21645008072984
 20
-7.91004899597935
 30
0.0
  0
VERTEX
  5
210
330
75
100
AcDbEntity
  8
DEFAULT
100
AcDbVertex
100
AcDb2dVertex
 10
-19.20648654947148
 20
-7.912355436986601
 30
0.0
  0
VERTEX
  5
211
330
75
100
AcDbEntity
  8
DEFAULT
100
AcDbVertex
100
AcDb2dVertex
 10
-19.19675780749273
 20
-7.914797621442972
 30
0.0
  0
VERTEX
  5
212
330
75
100
AcDbEntity
  8
DEFAULT
100
AcDbVertex
100
AcDb2dVertex
 10
-19.18725905368934
 20
-7.91737102574271
 30
0.0
  0
VERTEX
  5
213
330
75
100
AcDbEntity
  8
DEFAULT
100
AcDbVertex
100
AcDb2dVertex
 10
-19.17798548695705
 20
-7.920071126280062
 30
0.0
  0
VERTEX
  5
214
330
75
100
AcDbEntity
  8
DEFAULT
100
AcDbVertex
100
AcDb2dVertex
 10
-19.1689323061916
 20
-7.922893399449275
 30
0.0
  0
VERTEX
  5
215
330
75
100
AcDbEntity
  8
DEFAULT
100
AcDbVertex
100
AcDb2dVertex
 10
-19.16009471028874
 20
-7.925833321644594
 30
0.0
  0
VERTEX
  5
216
330
75
100
AcDbEntity
  8
DEFAULT
100
AcDbVertex
100
AcDb2dVertex
 10
-19.1514678981442
 20
-7.928886369260265
 30
0.0
  0
VERTEX
  5
217
330
75
100
AcDbEntity
  8
DEFAULT
100
AcDbVertex
100
AcDb2dVertex
 10
-19.14304706865373
 20
-7.932048018690539
 30
0.0
  0
VERTEX
  5
218
330
75
100
AcDbEntity
  8
DEFAULT
100
AcDbVertex
100
AcDb2dVertex
 10
-19.13482742071307
 20
-7.93531374632966
 30
0.0
  0
VERTEX
  5
219
330
75
100
AcDbEntity
  8
DEFAULT
100
AcDbVertex
100
AcDb2dVertex
 10
-19.12680415321797
 20
-7.938679028571875
 30
0.0
  0
VERTEX
  5
21A
330
75
100
AcDbEntity
  8
DEFAULT
100
AcDbVertex
100
AcDb2dVertex
 10
-19.11897246506416
 20
-7.942139341811431
 30
0.0
  0
VERTEX
  5
21B
330
75
100
AcDbEntity
  8
DEFAULT
100
AcDbVertex
100
AcDb2dVertex
 10
-19.11132755514739
 20
-7.945690162442574
 30
0.0
  0
VERTEX
  5
21C
330
75
100
AcDbEntity
  8
DEFAULT
100
AcDbVertex
100
AcDb2dVertex
 10
-19.10386462236341
 20
-7.949326966859552
 30
0.0
  0
VERTEX
  5
21D
330
75
100
AcDbEntity
  8
DEFAULT
100
AcDbVertex
100
AcDb2dVertex
 10
-19.09657886560795
 20
-7.95304523145661
 30
0.0
  0
VERTEX
  5
21E
330
75
100
AcDbEntity
  8
DEFAULT
100
AcDbVertex
100
AcDb2dVertex
 10
-19.08946548377676
 20
-7.956840432627995
 30
0.0
  0
VERTEX
  5
21F
330
75
100
AcDbEntity
  8
DEFAULT
100
AcDbVertex
100
AcDb2dVertex
 10
-19.08251967576557
 20
-7.960708046767955
 30
0.0
  0
VERTEX
  5
220
330
75
100
AcDbEntity
  8
DEFAULT
100
AcDbVertex
100
AcDb2dVertex
 10
-19.07573664047015
 20
-7.964643550270736
 30
0.0
  0
VERTEX
  5
221
330
75
100
AcDbEntity
  8
DEFAULT
100
AcDbVertex
100
AcDb2dVertex
 10
-19.06263968360951
 20
-7.97270013094175
 30
0.0
  0
VERTEX
  5
222
330
75
100
AcDbEntity
  8
DEFAULT
100
AcDbVertex
100
AcDb2dVertex
 10
-19.0501362043608
 20
-7.980973985795008
 30
0.0
  0
VERTEX
  5
223
330
75
100
AcDbEntity
  8
DEFAULT
100
AcDbVertex
100
AcDb2dVertex
 10
-19.03818779388995
 20
-7.989428925984486
 30
0.0
  0
VERTEX
  5
224
330
75
100
AcDbEntity
  8
DEFAULT
100
AcDbVertex
100
AcDb2dVertex
 10
-19.02675604336289
 20
-7.998028762664157
 30
0.0
  0
VERTEX
  5
225
330
75
100
AcDbEntity
  8
DEFAULT
100
AcDbVertex
100
AcDb2dVertex
 10
-19.01580254394558
 20
-8.006737306987995
 30
0.0
  0
VERTEX
  5
226
330
75
100
AcDbEntity
  8
DEFAULT
100
AcDbVertex
100
AcDb2dVertex
 10
-19.00528888680395
 20
-8.015518370109973
 30
0.0
  0
VERTEX
  5
227
330
75
100
AcDbEntity
  8
DEFAULT
100
AcDbVertex
100
AcDb2dVertex
 10
-18.99517666310394
 20
-8.024335763184068
 30
0.0
  0
VERTEX
  5
228
330
75
100
AcDbEntity
  8
DEFAULT
100
AcDbVertex
100
AcDb2dVertex
 10
-18.97600288069254
 20
-8.041934783804496
 30
0.0
  0
VERTEX
  5
229
330
75
100
AcDbEntity
  8
DEFAULT
100
AcDbVertex
100
AcDb2dVertex
 10
-18.92412141731506
 20
-8.09184012452982
 30
0.0
  0
VERTEX
  5
22A
330
75
100
AcDbEntity
  8
DEFAULT
100
AcDbVertex
100
AcDb2dVertex
 10
-18.91589369705695
 20
-8.099355989101772
 30
0.0
  0
VERTEX
  5
22B
330
75
100
AcDbEntity
  8
DEFAULT
100
AcDbVertex
100
AcDb2dVertex
 10
-18.90768332189987
 20
-8.106546295165577
 30
0.0
  0
VERTEX
  5
22C
330
75
100
AcDbEntity
  8
DEFAULT
100
AcDbVertex
100
AcDb2dVertex
 10
-18.89945188300976
 20
-8.11337485387521
 30
0.0
  0
VERTEX
  5
22D
330
75
100
AcDbEntity
  8
DEFAULT
100
AcDbVertex
100
AcDb2dVertex
 10
-18.89531626190418
 20
-8.116642168957828
 30
0.0
  0
VERTEX
  5
22E
330
75
100
AcDbEntity
  8
DEFAULT
100
AcDbVertex
100
AcDb2dVertex
 10
-18.89116097155256
 20
-8.119805476384645
 30
0.0
  0
VERTEX
  5
22F
330
75
100
AcDbEntity
  8
DEFAULT
100
AcDbVertex
100
AcDb2dVertex
 10
-18.88698121085065
 20
-8.122860252549906
 30
0.0
  0
VERTEX
  5
230
330
75
100
AcDbEntity
  8
DEFAULT
100
AcDbVertex
100
AcDb2dVertex
 10
-18.8827721786942
 20
-8.125801973847855
 30
0.0
  0
VERTEX
  5
231
330
75
100
AcDbEntity
  8
DEFAULT
100
AcDbVertex
100
AcDb2dVertex
 10
-18.87852907397894
 20
-8.128626116672743
 30
0.0
  0
VERTEX
  5
232
330
75
100
AcDbEntity
  8
DEFAULT
100
AcDbVertex
100
AcDb2dVertex
 10
-18.87424709560062
 20
-8.131328157418814
 30
0.0
  0
VERTEX
  5
233
330
75
100
AcDbEntity
  8
DEFAULT
100
AcDbVertex
100
AcDb2dVertex
 10
-18.869921297293
 20
-8.133904734246482
 30
0.0
  0
VERTEX
  5
234
330
75
100
AcDbEntity
  8
DEFAULT
100
AcDbVertex
100
AcDb2dVertex
 10
-18.8655461521419
 20
-8.136357132380828
 30
0.0
  0
VERTEX
  5
235
330
75
100
AcDbEntity
  8
DEFAULT
100
AcDbVertex
100
AcDb2dVertex
 10
-18.86111598807116
 20
-8.1386877988131
 30
0.0
  0
VERTEX
  5
236
330
75
100
AcDbEntity
  8
DEFAULT
100
AcDbVertex
100
AcDb2dVertex
 10
-18.85662513300463
 20
-8.140899180534543
 30
0.0
  0
VERTEX
  5
237
330
75
100
AcDbEntity
  8
DEFAULT
100
AcDbVertex
100
AcDb2dVertex
 10
-18.85206791486614
 20
-8.142993724536407
 30
0.0
  0
VERTEX
  5
238
330
75
100
AcDbEntity
  8
DEFAULT
100
AcDbVertex
100
AcDb2dVertex
 10
-18.84743866157954
 20
-8.144973877809935
 30
0.0
  0
VERTEX
  5
239
330
75
100
AcDbEntity
  8
DEFAULT
100
AcDbVertex
100
AcDb2dVertex
 10
-18.84273170106866
 20
-8.146842087346375
 30
0.0
  0
VERTEX
  5
23A
330
75
100
AcDbEntity
  8
DEFAULT
100
AcDbVertex
100
AcDb2dVertex
 10
-18.83794136125735
 20
-8.148600800136975
 30
0.0
  0
VERTEX
  5
23B
330
75
100
AcDbEntity
  8
DEFAULT
100
AcDbVertex
100
AcDb2dVertex
 10
-18.83306197006944
 20
-8.150252463172984
 30
0.0
  0
VERTEX
  5
23C
330
75
100
AcDbEntity
  8
DEFAULT
100
AcDbVertex
100
AcDb2dVertex
 10
-18.82808785542879
 20
-8.151799523445646
 30
0.0
  0
VERTEX
  5
23D
330
75
100
AcDbEntity
  8
DEFAULT
100
AcDbVertex
100
AcDb2dVertex
 10
-18.82301334525922
 20
-8.153244427946207
 30
0.0
  0
VERTEX
  5
23E
330
75
100
AcDbEntity
  8
DEFAULT
100
AcDbVertex
100
AcDb2dVertex
 10
-18.81783276748458
 20
-8.154589623665917
 30
0.0
  0
VERTEX
  5
23F
330
75
100
AcDbEntity
  8
DEFAULT
100
AcDbVertex
100
AcDb2dVertex
 10
-18.81254045002871
 20
-8.155837557596021
 30
0.0
  0
VERTEX
  5
240
330
75
100
AcDbEntity
  8
DEFAULT
100
AcDbVertex
100
AcDb2dVertex
 10
-18.80713072081544
 20
-8.156990676727768
 30
0.0
  0
VERTEX
  5
241
330
75
100
AcDbEntity
  8
DEFAULT
100
AcDbVertex
100
AcDb2dVertex
 10
-18.80159790776863
 20
-8.158051428052403
 30
0.0
  0
VERTEX
  5
242
330
75
100
AcDbEntity
  8
DEFAULT
100
AcDbVertex
100
AcDb2dVertex
 10
-18.79593633881211
 20
-8.159022258561174
 30
0.0
  0
VERTEX
  5
243
330
75
100
AcDbEntity
  8
DEFAULT
100
AcDbVertex
100
AcDb2dVertex
 10
-18.79014034186972
 20
-8.15990561524533
 30
0.0
  0
VERTEX
  5
244
330
75
100
AcDbEntity
  8
DEFAULT
100
AcDbVertex
100
AcDb2dVertex
 10
-18.78420424486531
 20
-8.160703945096115
 30
0.0
  0
VERTEX
  5
245
330
75
100
AcDbEntity
  8
DEFAULT
100
AcDbVertex
100
AcDb2dVertex
 10
-18.77188906236576
 20
-8.16205531226256
 30
0.0
  0
VERTEX
  5
246
330
75
100
AcDbEntity
  8
DEFAULT
100
AcDbVertex
100
AcDb2dVertex
 10
-18.75894541470418
 20
-8.16309593599049
 30
0.0
  0
VERTEX
  5
247
330
75
100
AcDbEntity
  8
DEFAULT
100
AcDbVertex
100
AcDb2dVertex
 10
-18.74532792527131
 20
-8.163845392209879
 30
0.0
  0
VERTEX
  5
248
330
75
100
AcDbEntity
  8
DEFAULT
100
AcDbVertex
100
AcDb2dVertex
 10
-18.73099121745787
 20
-8.164323256850704
 30
0.0
  0
VERTEX
  5
249
330
75
100
AcDbEntity
  8
DEFAULT
100
AcDbVertex
100
AcDb2dVertex
 10
-18.71588991465458
 20
-8.164549105842942
 30
0.0
  0
VERTEX
  5
24A
330
75
100
AcDbEntity
  8
DEFAULT
100
AcDbVertex
100
AcDb2dVertex
 10
-18.2615913863581
 20
-8.14783627196742
 30
0.0
  0
VERTEX
  5
24B
330
75
100
AcDbEntity
  8
DEFAULT
100
AcDbVertex
100
AcDb2dVertex
 10
-17.91919825926255
 20
-8.143935698837684
 30
0.0
  0
VERTEX
  5
24C
330
75
100
AcDbEntity
  8
DEFAULT
100
AcDbVertex
100
AcDb2dVertex
 10
-16.8131482759841
 20
-8.148990631930774
 30
0.0
  0
VERTEX
  5
24D
330
75
100
AcDbEntity
  8
DEFAULT
100
AcDbVertex
100
AcDb2dVertex
 10
-16.68381177607003
 20
-8.148230161399205
 30
0.0
  0
VERTEX
  5
24E
330
75
100
AcDbEntity
  8
DEFAULT
100
AcDbVertex
100
AcDb2dVertex
 10
-16.55907393725479
 20
-8.144883039405059
 30
0.0
  0
VERTEX
  5
24F
330
75
100
AcDbEntity
  8
DEFAULT
100
AcDbVertex
100
AcDb2dVertex
 10
-16.41498126815643
 20
-8.137373314506988
 30
0.0
  0
VERTEX
  5
250
330
75
100
AcDbEntity
  8
DEFAULT
100
AcDbVertex
100
AcDb2dVertex
 10
-16.22758027739297
 20
-8.124125035263631
 30
0.0
  0
VERTEX
  5
251
330
75
100
AcDbEntity
  8
DEFAULT
100
AcDbVertex
100
AcDb2dVertex
 10
-15.62703936534294
 20
-8.07410900797565
 30
0.0
  0
VERTEX
  5
252
330
75
100
AcDbEntity
  8
DEFAULT
100
AcDbVertex
100
AcDb2dVertex
 10
-10.98640356055061
 20
-7.675943606330792
 30
0.0
  0
VERTEX
  5
253
330
75
100
AcDbEntity
  8
DEFAULT
100
AcDbVertex
100
AcDb2dVertex
 10
-5.581731222782809
 20
-7.215139821526126
 30
0.0
  0
VERTEX
  5
254
330
75
100
AcDbEntity
  8
DEFAULT
100
AcDbVertex
100
AcDb2dVertex
 10
-5.516808564622155
 20
-7.208878357751939
 30
0.0
  0
VERTEX
  5
255
330
75
100
AcDbEntity
  8
DEFAULT
100
AcDbVertex
100
AcDb2dVertex
 10
-5.442344255797979
 20
-7.199995066673175
 30
0.0
  0
VERTEX
  5
256
330
75
100
AcDbEntity
  8
DEFAULT
100
AcDbVertex
100
AcDb2dVertex
 10
-5.408789201381609
 20
-7.194843485986105
 30
0.0
  0
VERTEX
  5
257
330
75
100
AcDbEntity
  8
DEFAULT
100
AcDbVertex
100
AcDb2dVertex
 10
-5.393727350780336
 20
-7.192042427759168
 30
0.0
  0
VERTEX
  5
258
330
75
100
AcDbEntity
  8
DEFAULT
100
AcDbVertex
100
AcDb2dVertex
 10
-5.386724894832426
 20
-7.190579608662789
 30
0.0
  0
VERTEX
  5
259
330
75
100
AcDbEntity
  8
DEFAULT
100
AcDbVertex
100
AcDb2dVertex
 10
-5.380112675672429
 20
-7.189072987477973
 30
0.0
  0
VERTEX
  5
25A
330
75
100
AcDbEntity
  8
DEFAULT
100
AcDbVertex
100
AcDb2dVertex
 10
-5.373910508530827
 20
-7.187520478390979
 30
0.0
  0
VERTEX
  5
25B
330
75
100
AcDbEntity
  8
DEFAULT
100
AcDbVertex
100
AcDb2dVertex
 10
-5.36810369790176
 20
-7.185918478632635
 30
0.0
  0
VERTEX
  5
25C
330
75
100
AcDbEntity
  8
DEFAULT
100
AcDbVertex
100
AcDb2dVertex
 10
-5.36266892059528
 20
-7.184263006194898
 30
0.0
  0
VERTEX
  5
25D
330
75
100
AcDbEntity
  8
DEFAULT
100
AcDbVertex
100
AcDb2dVertex
 10
-5.357582853421437
 20
-7.182550079069726
 30
0.0
  0
VERTEX
  5
25E
330
75
100
AcDbEntity
  8
DEFAULT
100
AcDbVertex
100
AcDb2dVertex
 10
-5.352822173190287
 20
-7.180775715249082
 30
0.0
  0
VERTEX
  5
25F
330
75
100
AcDbEntity
  8
DEFAULT
100
AcDbVertex
100
AcDb2dVertex
 10
-5.35055656468136
 20
-7.179864250200445
 30
0.0
  0
VERTEX
  5
260
330
75
100
AcDbEntity
  8
DEFAULT
100
AcDbVertex
100
AcDb2dVertex
 10
-5.348363556711877
 20
-7.178935932724925
 30
0.0
  0
VERTEX
  5
261
330
75
100
AcDbEntity
  8
DEFAULT
100
AcDbVertex
100
AcDb2dVertex
 10
-5.346240233883092
 20
-7.177990265071516
 30
0.0
  0
VERTEX
  5
262
330
75
100
AcDbEntity
  8
DEFAULT
100
AcDbVertex
100
AcDb2dVertex
 10
-5.344183680796262
 20
-7.177026749489215
 30
0.0
  0
VERTEX
  5
263
330
75
100
AcDbEntity
  8
DEFAULT
100
AcDbVertex
100
AcDb2dVertex
 10
-5.342190982052644
 20
-7.176044888227015
 30
0.0
  0
VERTEX
  5
264
330
75
100
AcDbEntity
  8
DEFAULT
100
AcDbVertex
100
AcDb2dVertex
 10
-5.340259222253493
 20
-7.175044183533911
 30
0.0
  0
VERTEX
  5
265
330
75
100
AcDbEntity
  8
DEFAULT
100
AcDbVertex
100
AcDb2dVertex
 10
-5.338385486000068
 20
-7.174024137658901
 30
0.0
  0
VERTEX
  5
266
330
75
100
AcDbEntity
  8
DEFAULT
100
AcDbVertex
100
AcDb2dVertex
 10
-5.336566857893622
 20
-7.172984252850977
 30
0.0
  0
VERTEX
  5
267
330
75
100
AcDbEntity
  8
DEFAULT
100
AcDbVertex
100
AcDb2dVertex
 10
-5.334800422535415
 20
-7.171924031359134
 30
0.0
  0
VERTEX
  5
268
330
75
100
AcDbEntity
  8
DEFAULT
100
AcDbVertex
100
AcDb2dVertex
 10
-5.333083264526701
 20
-7.170842975432368
 30
0.0
  0
VERTEX
  5
269
330
75
100
AcDbEntity
  8
DEFAULT
100
AcDbVertex
100
AcDb2dVertex
 10
-5.331412468468739
 20
-7.169740587319675
 30
0.0
  0
VERTEX
  5
26A
330
75
100
AcDbEntity
  8
DEFAULT
100
AcDbVertex
100
AcDb2dVertex
 10
-5.329785118962782
 20
-7.168616369270048
 30
0.0
  0
VERTEX
  5
26B
330
75
100
AcDbEntity
  8
DEFAULT
100
AcDbVertex
100
AcDb2dVertex
 10
-5.32819830061009
 20
-7.167469823532482
 30
0.0
  0
VERTEX
  5
26C
330
75
100
AcDbEntity
  8
DEFAULT
100
AcDbVertex
100
AcDb2dVertex
 10
-5.326649098011917
 20
-7.166300452355975
 30
0.0
  0
VERTEX
  5
26D
330
75
100
AcDbEntity
  8
DEFAULT
100
AcDbVertex
100
AcDb2dVertex
 10
-5.325134595769521
 20
-7.165107757989519
 30
0.0
  0
VERTEX
  5
26E
330
75
100
AcDbEntity
  8
DEFAULT
100
AcDbVertex
100
AcDb2dVertex
 10
-5.323651878484158
 20
-7.16389124268211
 30
0.0
  0
VERTEX
  5
26F
330
75
100
AcDbEntity
  8
DEFAULT
100
AcDbVertex
100
AcDb2dVertex
 10
-5.322198030757084
 20
-7.162650408682742
 30
0.0
  0
VERTEX
  5
270
330
75
100
AcDbEntity
  8
DEFAULT
100
AcDbVertex
100
AcDb2dVertex
 10
-5.320770137189557
 20
-7.161384758240412
 30
0.0
  0
VERTEX
  5
271
330
75
100
AcDbEntity
  8
DEFAULT
100
AcDbVertex
100
AcDb2dVertex
 10
-5.317980550938165
 20
-7.158777017022842
 30
0.0
  0
VERTEX
  5
272
330
75
100
AcDbEntity
  8
DEFAULT
100
AcDbVertex
100
AcDb2dVertex
 10
-5.315259796540033
 20
-7.156064037021361
 30
0.0
  0
VERTEX
  5
273
330
75
100
AcDbEntity
  8
DEFAULT
100
AcDbVertex
100
AcDb2dVertex
 10
-5.312587774335533
 20
-7.153238612697609
 30
0.0
  0
VERTEX
  5
274
330
75
100
AcDbEntity
  8
DEFAULT
100
AcDbVertex
100
AcDb2dVertex
 10
-5.309957278786307
 20
-7.150280644391957
 30
0.0
  0
VERTEX
  5
275
330
75
100
AcDbEntity
  8
DEFAULT
100
AcDbVertex
100
AcDb2dVertex
 10
-5.307364327884315
 20
-7.147166808914458
 30
0.0
  0
VERTEX
  5
276
330
75
100
AcDbEntity
  8
DEFAULT
100
AcDbVertex
100
AcDb2dVertex
 10
-5.304804939621516
 20
-7.143873783075161
 30
0.0
  0
VERTEX
  5
277
330
75
100
AcDbEntity
  8
DEFAULT
100
AcDbVertex
100
AcDb2dVertex
 10
-5.30227513198987
 20
-7.14037824368412
 30
0.0
  0
VERTEX
  5
278
330
75
100
AcDbEntity
  8
DEFAULT
100
AcDbVertex
100
AcDb2dVertex
 10
-5.299770922981338
 20
-7.136656867551388
 30
0.0
  0
VERTEX
  5
279
330
75
100
AcDbEntity
  8
DEFAULT
100
AcDbVertex
100
AcDb2dVertex
 10
-5.297288330587881
 20
-7.132686331487013
 30
0.0
  0
VERTEX
  5
27A
330
75
100
AcDbEntity
  8
DEFAULT
100
AcDbVertex
100
AcDb2dVertex
 10
-5.294823372801456
 20
-7.128443312301052
 30
0.0
  0
VERTEX
  5
27B
330
75
100
AcDbEntity
  8
DEFAULT
100
AcDbVertex
100
AcDb2dVertex
 10
-5.292372067614027
 20
-7.123904486803553
 30
0.0
  0
VERTEX
  5
27C
330
75
100
AcDbEntity
  8
DEFAULT
100
AcDbVertex
100
AcDb2dVertex
 10
-5.289930433017551
 20
-7.119046531804569
 30
0.0
  0
VERTEX
  5
27D
330
75
100
AcDbEntity
  8
DEFAULT
100
AcDbVertex
100
AcDb2dVertex
 10
-5.287494487003989
 20
-7.113846124114152
 30
0.0
  0
VERTEX
  5
27E
330
75
100
AcDbEntity
  8
DEFAULT
100
AcDbVertex
100
AcDb2dVertex
 10
-5.285060247565301
 20
-7.108279940542355
 30
0.0
  0
VERTEX
  5
27F
330
75
100
AcDbEntity
  8
DEFAULT
100
AcDbVertex
100
AcDb2dVertex
 10
-5.282623732693448
 20
-7.102324657899228
 30
0.0
  0
VERTEX
  5
280
330
75
100
AcDbEntity
  8
DEFAULT
100
AcDbVertex
100
AcDb2dVertex
 10
-5.28018096038039
 20
-7.095956952994824
 30
0.0
  0
VERTEX
  5
281
330
75
100
AcDbEntity
  8
DEFAULT
100
AcDbVertex
100
AcDb2dVertex
 10
-5.277727948618086
 20
-7.089153502639195
 30
0.0
  0
VERTEX
  5
282
330
75
100
AcDbEntity
  8
DEFAULT
100
AcDbVertex
100
AcDb2dVertex
 10
-5.275260715398495
 20
-7.081890983642392
 30
0.0
  0
VERTEX
  5
283
330
75
100
AcDbEntity
  8
DEFAULT
100
AcDbVertex
100
AcDb2dVertex
 10
-5.269942785959017
 20
-7.064762560298167
 30
0.0
  0
VERTEX
  5
284
330
75
100
AcDbEntity
  8
DEFAULT
100
AcDbVertex
100
AcDb2dVertex
 10
-4.510353292221924
 20
-4.263717421261852
 30
0.0
  0
VERTEX
  5
285
330
75
100
AcDbEntity
  8
DEFAULT
100
AcDbVertex
100
AcDb2dVertex
 10
-4.350001905854867
 20
-3.66401342208851
 30
0.0
  0
VERTEX
  5
286
330
75
100
AcDbEntity
  8
DEFAULT
100
AcDbVertex
100
AcDb2dVertex
 10
-4.247919414379242
 20
-3.26945514828373
 30
0.0
  0
VERTEX
  5
287
330
75
100
AcDbEntity
  8
DEFAULT
100
AcDbVertex
100
AcDb2dVertex
 10
-4.21682738792628
 20
-3.142019422724931
 30
0.0
  0
VERTEX
  5
288
330
75
100
AcDbEntity
  8
DEFAULT
100
AcDbVertex
100
AcDb2dVertex
 10
-4.196413004015817
 20
-3.051574856825744
 30
0.0
  0
VERTEX
  5
289
330
75
100
AcDbEntity
  8
DEFAULT
100
AcDbVertex
100
AcDb2dVertex
 10
-4.189595434971664
 20
-3.01798102877129
 30
0.0
  0
VERTEX
  5
28A
330
75
100
AcDbEntity
  8
DEFAULT
100
AcDbVertex
100
AcDb2dVertex
 10
-4.184709884912305
 20
-2.990943114659082
 30
0.0
  0
VERTEX
  5
28B
330
75
100
AcDbEntity
  8
DEFAULT
100
AcDbVertex
100
AcDb2dVertex
 10
-4.182914805371627
 20
-2.979602221584168
 30
0.0
  0
VERTEX
  5
28C
330
75
100
AcDbEntity
  8
DEFAULT
100
AcDbVertex
100
AcDb2dVertex
 10
-4.181510556620796
 20
-2.969563822498233
 30
0.0
  0
VERTEX
  5
28D
330
75
100
AcDbEntity
  8
DEFAULT
100
AcDbVertex
100
AcDb2dVertex
 10
-4.180466414007689
 20
-2.960715755902417
 30
0.0
  0
VERTEX
  5
28E
330
75
100
AcDbEntity
  8
DEFAULT
100
AcDbVertex
100
AcDb2dVertex
 10
-4.179751652880193
 20
-2.952945860297858
 30
0.0
  0
VERTEX
  5
28F
330
75
100
AcDbEntity
  8
DEFAULT
100
AcDbVertex
100
AcDb2dVertex
 10
-4.179335548586186
 20
-2.946141974185696
 30
0.0
  0
VERTEX
  5
290
330
75
100
AcDbEntity
  8
DEFAULT
100
AcDbVertex
100
AcDb2dVertex
 10
-4.179229891297957
 20
-2.94306723422087
 30
0.0
  0
VERTEX
  5
291
330
75
100
AcDbEntity
  8
DEFAULT
100
AcDbVertex
100
AcDb2dVertex
 10
-4.179187376473554
 20
-2.940191936067071
 30
0.0
  0
VERTEX
  5
292
330
75
100
AcDbEntity
  8
DEFAULT
100
AcDbVertex
100
AcDb2dVertex
 10
-4.179204163531466
 20
-2.937502059536941
 30
0.0
  0
VERTEX
  5
293
330
75
100
AcDbEntity
  8
DEFAULT
100
AcDbVertex
100
AcDb2dVertex
 10
-4.179276411890176
 20
-2.934983584443121
 30
0.0
  0
VERTEX
  5
294
330
75
100
AcDbEntity
  8
DEFAULT
100
AcDbVertex
100
AcDb2dVertex
 10
-4.17940028096817
 20
-2.932622490598256
 30
0.0
  0
VERTEX
  5
295
330
75
100
AcDbEntity
  8
DEFAULT
100
AcDbVertex
100
AcDb2dVertex
 10
-4.179571930183934
 20
-2.930404757814986
 30
0.0
  0
VERTEX
  5
296
330
75
100
AcDbEntity
  8
DEFAULT
100
AcDbVertex
100
AcDb2dVertex
 10
-4.179787518955952
 20
-2.928316365905955
 30
0.0
  0
VERTEX
  5
297
330
75
100
AcDbEntity
  8
DEFAULT
100
AcDbVertex
100
AcDb2dVertex
 10
-4.18004320670271
 20
-2.926343294683805
 30
0.0
  0
VERTEX
  5
298
330
75
100
AcDbEntity
  8
DEFAULT
100
AcDbVertex
100
AcDb2dVertex
 10
-4.180335152842694
 20
-2.924471523961178
 30
0.0
  0
VERTEX
  5
299
330
75
100
AcDbEntity
  8
DEFAULT
100
AcDbVertex
100
AcDb2dVertex
 10
-4.180659516794389
 20
-2.922687033550717
 30
0.0
  0
VERTEX
  5
29A
330
75
100
AcDbEntity
  8
DEFAULT
100
AcDbVertex
100
AcDb2dVertex
 10
-4.181012457976278
 20
-2.920975803265065
 30
0.0
  0
VERTEX
  5
29B
330
75
100
AcDbEntity
  8
DEFAULT
100
AcDbVertex
100
AcDb2dVertex
 10
-4.18139013580685
 20
-2.919323812916862
 30
0.0
  0
VERTEX
  5
29C
330
75
100
AcDbEntity
  8
DEFAULT
100
AcDbVertex
100
AcDb2dVertex
 10
-4.182204339087975
 20
-2.916141471283379
 30
0.0
  0
VERTEX
  5
29D
330
75
100
AcDbEntity
  8
DEFAULT
100
AcDbVertex
100
AcDb2dVertex
 10
-4.183076825602554
 20
-2.913046430610349
 30
0.0
  0
VERTEX
  5
29E
330
75
100
AcDbEntity
  8
DEFAULT
100
AcDbVertex
100
AcDb2dVertex
 10
-4.184003988782999
 20
-2.910019446693624
 30
0.0
  0
VERTEX
  5
29F
330
75
100
AcDbEntity
  8
DEFAULT
100
AcDbVertex
100
AcDb2dVertex
 10
-4.184987645678628
 20
-2.907059858787996
 30
0.0
  0
VERTEX
  5
2A0
330
75
100
AcDbEntity
  8
DEFAULT
100
AcDbVertex
100
AcDb2dVertex
 10
-4.186029613338762
 20
-2.904167006148258
 30
0.0
  0
VERTEX
  5
2A1
330
75
100
AcDbEntity
  8
DEFAULT
100
AcDbVertex
100
AcDb2dVertex
 10
-4.187131708812717
 20
-2.901340228029204
 30
0.0
  0
VERTEX
  5
2A2
330
75
100
AcDbEntity
  8
DEFAULT
100
AcDbVertex
100
AcDb2dVertex
 10
-4.188295749149813
 20
-2.898578863685628
 30
0.0
  0
VERTEX
  5
2A3
330
75
100
AcDbEntity
  8
DEFAULT
100
AcDbVertex
100
AcDb2dVertex
 10
-4.18952355139937
 20
-2.895882252372321
 30
0.0
  0
VERTEX
  5
2A4
330
75
100
AcDbEntity
  8
DEFAULT
100
AcDbVertex
100
AcDb2dVertex
 10
-4.190816932610705
 20
-2.893249733344078
 30
0.0
  0
VERTEX
  5
2A5
330
75
100
AcDbEntity
  8
DEFAULT
100
AcDbVertex
100
AcDb2dVertex
 10
-4.192177709833137
 20
-2.890680645855691
 30
0.0
  0
VERTEX
  5
2A6
330
75
100
AcDbEntity
  8
DEFAULT
100
AcDbVertex
100
AcDb2dVertex
 10
-4.193607700115985
 20
-2.888174329161954
 30
0.0
  0
VERTEX
  5
2A7
330
75
100
AcDbEntity
  8
DEFAULT
100
AcDbVertex
100
AcDb2dVertex
 10
-4.195108720508569
 20
-2.88573012251766
 30
0.0
  0
VERTEX
  5
2A8
330
75
100
AcDbEntity
  8
DEFAULT
100
AcDbVertex
100
AcDb2dVertex
 10
-4.196682588060206
 20
-2.883347365177601
 30
0.0
  0
VERTEX
  5
2A9
330
75
100
AcDbEntity
  8
DEFAULT
100
AcDbVertex
100
AcDb2dVertex
 10
-4.198331119820216
 20
-2.881025396396571
 30
0.0
  0
VERTEX
  5
2AA
330
75
100
AcDbEntity
  8
DEFAULT
100
AcDbVertex
100
AcDb2dVertex
 10
-4.200056132837918
 20
-2.878763555429364
 30
0.0
  0
VERTEX
  5
2AB
330
75
100
AcDbEntity
  8
DEFAULT
100
AcDbVertex
100
AcDb2dVertex
 10
-4.20185944416263
 20
-2.876561181530772
 30
0.0
  0
VERTEX
  5
2AC
330
75
100
AcDbEntity
  8
DEFAULT
100
AcDbVertex
100
AcDb2dVertex
 10
-4.203742870843671
 20
-2.874417613955589
 30
0.0
  0
VERTEX
  5
2AD
330
75
100
AcDbEntity
  8
DEFAULT
100
AcDbVertex
100
AcDb2dVertex
 10
-4.205708229930361
 20
-2.872332191958607
 30
0.0
  0
VERTEX
  5
2AE
330
75
100
AcDbEntity
  8
DEFAULT
100
AcDbVertex
100
AcDb2dVertex
 10
-4.207757338472016
 20
-2.870304254794621
 30
0.0
  0
VERTEX
  5
2AF
330
75
100
AcDbEntity
  8
DEFAULT
100
AcDbVertex
100
AcDb2dVertex
 10
-4.209892013517957
 20
-2.868333141718422
 30
0.0
  0
VERTEX
  5
2B0
330
75
100
AcDbEntity
  8
DEFAULT
100
AcDbVertex
100
AcDb2dVertex
 10
-4.212114072117503
 20
-2.866418191984805
 30
0.0
  0
VERTEX
  5
2B1
330
75
100
AcDbEntity
  8
DEFAULT
100
AcDbVertex
100
AcDb2dVertex
 10
-4.214425331319971
 20
-2.864558744848562
 30
0.0
  0
VERTEX
  5
2B2
330
75
100
AcDbEntity
  8
DEFAULT
100
AcDbVertex
100
AcDb2dVertex
 10
-4.216827608174682
 20
-2.862754139564487
 30
0.0
  0
VERTEX
  5
2B3
330
75
100
AcDbEntity
  8
DEFAULT
100
AcDbVertex
100
AcDb2dVertex
 10
-4.219322719730953
 20
-2.861003715387372
 30
0.0
  0
VERTEX
  5
2B4
330
75
100
AcDbEntity
  8
DEFAULT
100
AcDbVertex
100
AcDb2dVertex
 10
-4.221912483038104
 20
-2.859306811572011
 30
0.0
  0
VERTEX
  5
2B5
330
75
100
AcDbEntity
  8
DEFAULT
100
AcDbVertex
100
AcDb2dVertex
 10
-4.224598715145454
 20
-2.857662767373198
 30
0.0
  0
VERTEX
  5
2B6
330
75
100
AcDbEntity
  8
DEFAULT
100
AcDbVertex
100
AcDb2dVertex
 10
-4.22738323310232
 20
-2.856070922045724
 30
0.0
  0
VERTEX
  5
2B7
330
75
100
AcDbEntity
  8
DEFAULT
100
AcDbVertex
100
AcDb2dVertex
 10
-4.230267853958022
 20
-2.854530614844384
 30
0.0
  0
VERTEX
  5
2B8
330
75
100
AcDbEntity
  8
DEFAULT
100
AcDbVertex
100
AcDb2dVertex
 10
-4.233254394761879
 20
-2.853041185023971
 30
0.0
  0
VERTEX
  5
2B9
330
75
100
AcDbEntity
  8
DEFAULT
100
AcDbVertex
100
AcDb2dVertex
 10
-4.236344672563209
 20
-2.851601971839276
 30
0.0
  0
VERTEX
  5
2BA
330
75
100
AcDbEntity
  8
DEFAULT
100
AcDbVertex
100
AcDb2dVertex
 10
-4.239540504411331
 20
-2.850212314545095
 30
0.0
  0
VERTEX
  5
2BB
330
75
100
AcDbEntity
  8
DEFAULT
100
AcDbVertex
100
AcDb2dVertex
 10
-4.242843707355565
 20
-2.84887155239622
 30
0.0
  0
VERTEX
  5
2BC
330
75
100
AcDbEntity
  8
DEFAULT
100
AcDbVertex
100
AcDb2dVertex
 10
-4.24625609844523
 20
-2.847579024647444
 30
0.0
  0
VERTEX
  5
2BD
330
75
100
AcDbEntity
  8
DEFAULT
100
AcDbVertex
100
AcDb2dVertex
 10
-4.249787821604711
 20
-2.846333326124326
 30
0.0
  0
VERTEX
  5
2BE
330
75
100
AcDbEntity
  8
DEFAULT
100
AcDbVertex
100
AcDb2dVertex
 10
-4.253482328258661
 20
-2.845130073935492
 30
0.0
  0
VERTEX
  5
2BF
330
75
100
AcDbEntity
  8
DEFAULT
100
AcDbVertex
100
AcDb2dVertex
 10
-4.257391396706803
 20
-2.843964140760329
 30
0.0
  0
VERTEX
  5
2C0
330
75
100
AcDbEntity
  8
DEFAULT
100
AcDbVertex
100
AcDb2dVertex
 10
-4.261566805248859
 20
-2.84283039927823
 30
0.0
  0
VERTEX
  5
2C1
330
75
100
AcDbEntity
  8
DEFAULT
100
AcDbVertex
100
AcDb2dVertex
 10
-4.26606033218455
 20
-2.841723722168584
 30
0.0
  0
VERTEX
  5
2C2
330
75
100
AcDbEntity
  8
DEFAULT
100
AcDbVertex
100
AcDb2dVertex
 10
-4.270923755813599
 20
-2.840638982110782
 30
0.0
  0
VERTEX
  5
2C3
330
75
100
AcDbEntity
  8
DEFAULT
100
AcDbVertex
100
AcDb2dVertex
 10
-4.276208854435726
 20
-2.839571051784215
 30
0.0
  0
VERTEX
  5
2C4
330
75
100
AcDbEntity
  8
DEFAULT
100
AcDbVertex
100
AcDb2dVertex
 10
-4.281967406350654
 20
-2.838514803868271
 30
0.0
  0
VERTEX
  5
2C5
330
75
100
AcDbEntity
  8
DEFAULT
100
AcDbVertex
100
AcDb2dVertex
 10
-4.295111983257797
 20
-2.836416845985816
 30
0.0
  0
VERTEX
  5
2C6
330
75
100
AcDbEntity
  8
DEFAULT
100
AcDbVertex
100
AcDb2dVertex
 10
-4.310771712932802
 20
-2.834304089898541
 30
0.0
  0
VERTEX
  5
2C7
330
75
100
AcDbEntity
  8
DEFAULT
100
AcDbVertex
100
AcDb2dVertex
 10
-4.35129353617749
 20
-2.82987010885002
 30
0.0
  0
VERTEX
  5
2C8
330
75
100
AcDbEntity
  8
DEFAULT
100
AcDbVertex
100
AcDb2dVertex
 10
-4.696832219425356
 20
-2.80333854348754
 30
0.0
  0
VERTEX
  5
2C9
330
75
100
AcDbEntity
  8
DEFAULT
100
AcDbVertex
100
AcDb2dVertex
 10
-5.010793989645967
 20
-2.782644113274274
 30
0.0
  0
VERTEX
  5
2CA
330
75
100
AcDbEntity
  8
DEFAULT
100
AcDbVertex
100
AcDb2dVertex
 10
-5.189854707605569
 20
-2.773260793175475
 30
0.0
  0
VERTEX
  5
2CB
330
75
100
AcDbEntity
  8
DEFAULT
100
AcDbVertex
100
AcDb2dVertex
 10
-5.372781966925549
 20
-2.766525354825206
 30
0.0
  0
VERTEX
  5
2CC
330
75
100
AcDbEntity
  8
DEFAULT
100
AcDbVertex
100
AcDb2dVertex
 10
-5.551435757201546
 20
-2.763941762030946
 30
0.0
  0
VERTEX
  5
2CD
330
75
100
AcDbEntity
  8
DEFAULT
100
AcDbVertex
100
AcDb2dVertex
 10
-5.636616348196684
 20
-2.764676896407156
 30
0.0
  0
VERTEX
  5
2CE
330
75
100
AcDbEntity
  8
DEFAULT
100
AcDbVertex
100
AcDb2dVertex
 10
-5.71767606802919
 20
-2.767013978600174
 30
0.0
  0
VERTEX
  5
2CF
330
75
100
AcDbEntity
  8
DEFAULT
100
AcDbVertex
100
AcDb2dVertex
 10
-5.793597415398518
 20
-2.771141004085934
 30
0.0
  0
VERTEX
  5
2D0
330
75
100
AcDbEntity
  8
DEFAULT
100
AcDbVertex
100
AcDb2dVertex
 10
-5.829313230253071
 20
-2.773934494149822
 30
0.0
  0
VERTEX
  5
2D1
330
75
100
AcDbEntity
  8
DEFAULT
100
AcDbVertex
100
AcDb2dVertex
 10
-5.863362889004123
 20
-2.777245968340371
 30
0.0
  0
VERTEX
  5
2D2
330
75
100
AcDbEntity
  8
DEFAULT
100
AcDbVertex
100
AcDb2dVertex
 10
-5.895619203989109
 20
-2.781098926092072
 30
0.0
  0
VERTEX
  5
2D3
330
75
100
AcDbEntity
  8
DEFAULT
100
AcDbVertex
100
AcDb2dVertex
 10
-5.925954987545459
 20
-2.785516866839419
 30
0.0
  0
VERTEX
  5
2D4
330
75
100
AcDbEntity
  8
DEFAULT
100
AcDbVertex
100
AcDb2dVertex
 10
-5.954243052010604
 20
-2.790523290016902
 30
0.0
  0
VERTEX
  5
2D5
330
75
100
AcDbEntity
  8
DEFAULT
100
AcDbVertex
100
AcDb2dVertex
 10
-5.967579443439424
 20
-2.793254526090224
 30
0.0
  0
VERTEX
  5
2D6
330
75
100
AcDbEntity
  8
DEFAULT
100
AcDbVertex
100
AcDb2dVertex
 10
-5.980356209721979
 20
-2.796141695059014
 30
0.0
  0
VERTEX
  5
2D7
330
75
100
AcDbEntity
  8
DEFAULT
100
AcDbVertex
100
AcDb2dVertex
 10
-5.992562275963154
 20
-2.799186425354936
 30
0.0
  0
VERTEX
  5
2D8
330
75
100
AcDbEntity
  8
DEFAULT
100
AcDbVertex
100
AcDb2dVertex
 10
-6.004205861518641
 20
-2.802385109419058
 30
0.0
  0
VERTEX
  5
2D9
330
75
100
AcDbEntity
  8
DEFAULT
100
AcDbVertex
100
AcDb2dVertex
 10
-6.015300009306841
 20
-2.805732830694799
 30
0.0
  0
VERTEX
  5
2DA
330
75
100
AcDbEntity
  8
DEFAULT
100
AcDbVertex
100
AcDb2dVertex
 10
-6.025857762246153
 20
-2.80922467262558
 30
0.0
  0
VERTEX
  5
2DB
330
75
100
AcDbEntity
  8
DEFAULT
100
AcDbVertex
100
AcDb2dVertex
 10
-6.035892163254974
 20
-2.81285571865482
 30
0.0
  0
VERTEX
  5
2DC
330
75
100
AcDbEntity
  8
DEFAULT
100
AcDbVertex
100
AcDb2dVertex
 10
-6.045416255251705
 20
-2.816621052225939
 30
0.0
  0
VERTEX
  5
2DD
330
75
100
AcDbEntity
  8
DEFAULT
100
AcDbVertex
100
AcDb2dVertex
 10
-6.054443081154744
 20
-2.820515756782356
 30
0.0
  0
VERTEX
  5
2DE
330
75
100
AcDbEntity
  8
DEFAULT
100
AcDbVertex
100
AcDb2dVertex
 10
-6.062985683882491
 20
-2.824534915767493
 30
0.0
  0
VERTEX
  5
2DF
330
75
100
AcDbEntity
  8
DEFAULT
100
AcDbVertex
100
AcDb2dVertex
 10
-6.071057106353344
 20
-2.828673612624767
 30
0.0
  0
VERTEX
  5
2E0
330
75
100
AcDbEntity
  8
DEFAULT
100
AcDbVertex
100
AcDb2dVertex
 10
-6.074920200904434
 20
-2.830786251331525
 30
0.0
  0
VERTEX
  5
2E1
330
75
100
AcDbEntity
  8
DEFAULT
100
AcDbVertex
100
AcDb2dVertex
 10
-6.0786703914857
 20
-2.8329269307976
 30
0.0
  0
VERTEX
  5
2E2
330
75
100
AcDbEntity
  8
DEFAULT
100
AcDbVertex
100
AcDb2dVertex
 10
-6.082309308461943
 20
-2.835095036453419
 30
0.0
  0
VERTEX
  5
2E3
330
75
100
AcDbEntity
  8
DEFAULT
100
AcDbVertex
100
AcDb2dVertex
 10
-6.08583858219796
 20
-2.837289953729411
 30
0.0
  0
VERTEX
  5
2E4
330
75
100
AcDbEntity
  8
DEFAULT
100
AcDbVertex
100
AcDb2dVertex
 10
-6.089259843058554
 20
-2.839511068056001
 30
0.0
  0
VERTEX
  5
2E5
330
75
100
AcDbEntity
  8
DEFAULT
100
AcDbVertex
100
AcDb2dVertex
 10
-6.092574721408523
 20
-2.841757764863619
 30
0.0
  0
VERTEX
  5
2E6
330
75
100
AcDbEntity
  8
DEFAULT
100
AcDbVertex
100
AcDb2dVertex
 10
-6.095784847612667
 20
-2.844029429582691
 30
0.0
  0
VERTEX
  5
2E7
330
75
100
AcDbEntity
  8
DEFAULT
100
AcDbVertex
100
AcDb2dVertex
 10
-6.098891852035786
 20
-2.846325447643645
 30
0.0
  0
VERTEX
  5
2E8
330
75
100
AcDbEntity
  8
DEFAULT
100
AcDbVertex
100
AcDb2dVertex
 10
-6.10189736504268
 20
-2.848645204476908
 30
0.0
  0
VERTEX
  5
2E9
330
75
100
AcDbEntity
  8
DEFAULT
100
AcDbVertex
100
AcDb2dVertex
 10
-6.10480301699815
 20
-2.850988085512908
 30
0.0
  0
VERTEX
  5
2EA
330
75
100
AcDbEntity
  8
DEFAULT
100
AcDbVertex
100
AcDb2dVertex
 10
-6.107610438266995
 20
-2.853353476182072
 30
0.0
  0
VERTEX
  5
2EB
330
75
100
AcDbEntity
  8
DEFAULT
100
AcDbVertex
100
AcDb2dVertex
 10
-6.110321259214014
 20
-2.855740761914828
 30
0.0
  0
VERTEX
  5
2EC
330
75
100
AcDbEntity
  8
DEFAULT
100
AcDbVertex
100
AcDb2dVertex
 10
-6.112937110204006
 20
-2.858149328141603
 30
0.0
  0
VERTEX
  5
2ED
330
75
100
AcDbEntity
  8
DEFAULT
100
AcDbVertex
100
AcDb2dVertex
 10
-6.115459621601774
 20
-2.860578560292825
 30
0.0
  0
VERTEX
  5
2EE
330
75
100
AcDbEntity
  8
DEFAULT
100
AcDbVertex
100
AcDb2dVertex
 10
-6.117890423772115
 20
-2.86302784379892
 30
0.0
  0
VERTEX
  5
2EF
330
75
100
AcDbEntity
  8
DEFAULT
100
AcDbVertex
100
AcDb2dVertex
 10
-6.120231147079831
 20
-2.865496564090318
 30
0.0
  0
VERTEX
  5
2F0
330
75
100
AcDbEntity
  8
DEFAULT
100
AcDbVertex
100
AcDb2dVertex
 10
-6.122483421889721
 20
-2.867984106597445
 30
0.0
  0
VERTEX
  5
2F1
330
75
100
AcDbEntity
  8
DEFAULT
100
AcDbVertex
100
AcDb2dVertex
 10
-6.124648878566584
 20
-2.870489856750728
 30
0.0
  0
VERTEX
  5
2F2
330
75
100
AcDbEntity
  8
DEFAULT
100
AcDbVertex
100
AcDb2dVertex
 10
-6.126729147475221
 20
-2.873013199980595
 30
0.0
  0
VERTEX
  5
2F3
330
75
100
AcDbEntity
  8
DEFAULT
100
AcDbVertex
100
AcDb2dVertex
 10
-6.128725858980432
 20
-2.875553521717474
 30
0.0
  0
VERTEX
  5
2F4
330
75
100
AcDbEntity
  8
DEFAULT
100
AcDbVertex
100
AcDb2dVertex
 10
-6.130640643447015
 20
-2.878110207391791
 30
0.0
  0
VERTEX
  5
2F5
330
75
100
AcDbEntity
  8
DEFAULT
100
AcDbVertex
100
AcDb2dVertex
 10
-6.132475131239772
 20
-2.880682642433976
 30
0.0
  0
VERTEX
  5
2F6
330
75
100
AcDbEntity
  8
DEFAULT
100
AcDbVertex
100
AcDb2dVertex
 10
-6.134230952723502
 20
-2.883270212274454
 30
0.0
  0
VERTEX
  5
2F7
330
75
100
AcDbEntity
  8
DEFAULT
100
AcDbVertex
100
AcDb2dVertex
 10
-6.135909738263004
 20
-2.885872302343653
 30
0.0
  0
VERTEX
  5
2F8
330
75
100
AcDbEntity
  8
DEFAULT
100
AcDbVertex
100
AcDb2dVertex
 10
-6.13751311822308
 20
-2.888488298072001
 30
0.0
  0
VERTEX
  5
2F9
330
75
100
AcDbEntity
  8
DEFAULT
100
AcDbVertex
100
AcDb2dVertex
 10
-6.139042722968528
 20
-2.891117584889926
 30
0.0
  0
VERTEX
  5
2FA
330
75
100
AcDbEntity
  8
DEFAULT
100
AcDbVertex
100
AcDb2dVertex
 10
-6.140500182864148
 20
-2.893759548227854
 30
0.0
  0
VERTEX
  5
2FB
330
75
100
AcDbEntity
  8
DEFAULT
100
AcDbVertex
100
AcDb2dVertex
 10
-6.141887128274741
 20
-2.896413573516214
 30
0.0
  0
VERTEX
  5
2FC
330
75
100
AcDbEntity
  8
DEFAULT
100
AcDbVertex
100
AcDb2dVertex
 10
-6.143205189565105
 20
-2.899079046185432
 30
0.0
  0
VERTEX
  5
2FD
330
75
100
AcDbEntity
  8
DEFAULT
100
AcDbVertex
100
AcDb2dVertex
 10
-6.144455997100042
 20
-2.901755351665937
 30
0.0
  0
VERTEX
  5
2FE
330
75
100
AcDbEntity
  8
DEFAULT
100
AcDbVertex
100
AcDb2dVertex
 10
-6.145641181244351
 20
-2.904441875388155
 30
0.0
  0
VERTEX
  5
2FF
330
75
100
AcDbEntity
  8
DEFAULT
100
AcDbVertex
100
AcDb2dVertex
 10
-6.146762372362832
 20
-2.907138002782515
 30
0.0
  0
VERTEX
  5
300
330
75
100
AcDbEntity
  8
DEFAULT
100
AcDbVertex
100
AcDb2dVertex
 10
-6.147821200820283
 20
-2.909843119279443
 30
0.0
  0
VERTEX
  5
301
330
75
100
AcDbEntity
  8
DEFAULT
100
AcDbVertex
100
AcDb2dVertex
 10
-6.148819296981507
 20
-2.912556610309367
 30
0.0
  0
VERTEX
  5
302
330
75
100
AcDbEntity
  8
DEFAULT
100
AcDbVertex
100
AcDb2dVertex
 10
-6.149758291211302
 20
-2.915277861302715
 30
0.0
  0
VERTEX
  5
303
330
75
100
AcDbEntity
  8
DEFAULT
100
AcDbVertex
100
AcDb2dVertex
 10
-6.150639813874467
 20
-2.918006257689914
 30
0.0
  0
VERTEX
  5
304
330
75
100
AcDbEntity
  8
DEFAULT
100
AcDbVertex
100
AcDb2dVertex
 10
-6.151465495335804
 20
-2.920741184901392
 30
0.0
  0
VERTEX
  5
305
330
75
100
AcDbEntity
  8
DEFAULT
100
AcDbVertex
100
AcDb2dVertex
 10
-6.152236965960112
 20
-2.923482028367575
 30
0.0
  0
VERTEX
  5
306
330
75
100
AcDbEntity
  8
DEFAULT
100
AcDbVertex
100
AcDb2dVertex
 10
-6.152955856112191
 20
-2.926228173518892
 30
0.0
  0
VERTEX
  5
307
330
75
100
AcDbEntity
  8
DEFAULT
100
AcDbVertex
100
AcDb2dVertex
 10
-6.153623796156841
 20
-2.92897900578577
 30
0.0
  0
VERTEX
  5
308
330
75
100
AcDbEntity
  8
DEFAULT
100
AcDbVertex
100
AcDb2dVertex
 10
-6.15481334738305
 20
-2.934492273387918
 30
0.0
  0
VERTEX
  5
309
330
75
100
AcDbEntity
  8
DEFAULT
100
AcDbVertex
100
AcDb2dVertex
 10
-6.155818662557141
 20
-2.94001691461744
 30
0.0
  0
VERTEX
  5
30A
330
75
100
AcDbEntity
  8
DEFAULT
100
AcDbVertex
100
AcDb2dVertex
 10
-6.15665278459751
 20
-2.945548012917755
 30
0.0
  0
VERTEX
  5
30B
330
75
100
AcDbEntity
  8
DEFAULT
100
AcDbVertex
100
AcDb2dVertex
 10
-6.157328756422557
 20
-2.951080651732283
 30
0.0
  0
VERTEX
  5
30C
330
75
100
AcDbEntity
  8
DEFAULT
100
AcDbVertex
100
AcDb2dVertex
 10
-6.157859620950683
 20
-2.956609914504444
 30
0.0
  0
VERTEX
  5
30D
330
75
100
AcDbEntity
  8
DEFAULT
100
AcDbVertex
100
AcDb2dVertex
 10
-6.158258421100284
 20
-2.962130884677658
 30
0.0
  0
VERTEX
  5
30E
330
75
100
AcDbEntity
  8
DEFAULT
100
AcDbVertex
100
AcDb2dVertex
 10
-6.15853819978976
 20
-2.967638645695343
 30
0.0
  0
VERTEX
  5
30F
330
75
100
AcDbEntity
  8
DEFAULT
100
AcDbVertex
100
AcDb2dVertex
 10
-6.158792864461931
 20
-2.978594874037811
 30
0.0
  0
VERTEX
  5
310
330
75
100
AcDbEntity
  8
DEFAULT
100
AcDbVertex
100
AcDb2dVertex
 10
-6.157261882432643
 20
-3.040607066927616
 30
0.0
  0
VERTEX
  5
311
330
75
100
AcDbEntity
  8
DEFAULT
100
AcDbVertex
100
AcDb2dVertex
 10
-6.157321489428106
 20
-3.04532670382276
 30
0.0
  0
VERTEX
  5
312
330
75
100
AcDbEntity
  8
DEFAULT
100
AcDbVertex
100
AcDb2dVertex
 10
-6.157470761657824
 20
-3.049954466657093
 30
0.0
  0
VERTEX
  5
313
330
75
100
AcDbEntity
  8
DEFAULT
100
AcDbVertex
100
AcDb2dVertex
 10
-6.157722742040198
 20
-3.054485438874035
 30
0.0
  0
VERTEX
  5
314
330
75
100
AcDbEntity
  8
DEFAULT
100
AcDbVertex
100
AcDb2dVertex
 10
-6.158090473493625
 20
-3.058914703917005
 30
0.0
  0
VERTEX
  5
315
330
75
100
AcDbEntity
  8
DEFAULT
100
AcDbVertex
100
AcDb2dVertex
 10
-6.158586998936507
 20
-3.063237345229423
 30
0.0
  0
VERTEX
  5
316
330
75
100
AcDbEntity
  8
DEFAULT
100
AcDbVertex
100
AcDb2dVertex
 10
-6.158887635315992
 20
-3.065357145562744
 30
0.0
  0
VERTEX
  5
317
330
75
100
AcDbEntity
  8
DEFAULT
100
AcDbVertex
100
AcDb2dVertex
 10
-6.159225361287239
 20
-3.067448446254709
 30
0.0
  0
VERTEX
  5
318
330
75
100
AcDbEntity
  8
DEFAULT
100
AcDbVertex
100
AcDb2dVertex
 10
-6.15960180721505
 20
-3.069510632735746
 30
0.0
  0
VERTEX
  5
319
330
75
100
AcDbEntity
  8
DEFAULT
100
AcDbVertex
100
AcDb2dVertex
 10
-6.160018603464223
 20
-3.071543090436283
 30
0.0
  0
VERTEX
  5
31A
330
75
100
AcDbEntity
  8
DEFAULT
100
AcDbVertex
100
AcDb2dVertex
 10
-6.160477380399559
 20
-3.073545204786746
 30
0.0
  0
VERTEX
  5
31B
330
75
100
AcDbEntity
  8
DEFAULT
100
AcDbVertex
100
AcDb2dVertex
 10
-6.160979768385856
 20
-3.075516361217564
 30
0.0
  0
VERTEX
  5
31C
330
75
100
AcDbEntity
  8
DEFAULT
100
AcDbVertex
100
AcDb2dVertex
 10
-6.161527397787916
 20
-3.077455945159164
 30
0.0
  0
VERTEX
  5
31D
330
75
100
AcDbEntity
  8
DEFAULT
100
AcDbVertex
100
AcDb2dVertex
 10
-6.162121898970538
 20
-3.079363342041973
 30
0.0
  0
VERTEX
  5
31E
330
75
100
AcDbEntity
  8
DEFAULT
100
AcDbVertex
100
AcDb2dVertex
 10
-6.162764902298522
 20
-3.081237937296418
 30
0.0
  0
VERTEX
  5
31F
330
75
100
AcDbEntity
  8
DEFAULT
100
AcDbVertex
100
AcDb2dVertex
 10
-6.163458038136667
 20
-3.083079116352928
 30
0.0
  0
VERTEX
  5
320
330
75
100
AcDbEntity
  8
DEFAULT
100
AcDbVertex
100
AcDb2dVertex
 10
-6.164202936849774
 20
-3.08488626464193
 30
0.0
  0
VERTEX
  5
321
330
75
100
AcDbEntity
  8
DEFAULT
100
AcDbVertex
100
AcDb2dVertex
 10
-6.165001228802644
 20
-3.08665876759385
 30
0.0
  0
VERTEX
  5
322
330
75
100
AcDbEntity
  8
DEFAULT
100
AcDbVertex
100
AcDb2dVertex
 10
-6.165854544360074
 20
-3.088396010639118
 30
0.0
  0
VERTEX
  5
323
330
75
100
AcDbEntity
  8
DEFAULT
100
AcDbVertex
100
AcDb2dVertex
 10
-6.166302345479499
 20
-3.089251217643765
 30
0.0
  0
VERTEX
  5
324
330
75
100
AcDbEntity
  8
DEFAULT
100
AcDbVertex
100
AcDb2dVertex
 10
-6.166764513886864
 20
-3.090097379208159
 30
0.0
  0
VERTEX
  5
325
330
75
100
AcDbEntity
  8
DEFAULT
100
AcDbVertex
100
AcDb2dVertex
 10
-6.16724125337777
 20
-3.090934418511103
 30
0.0
  0
VERTEX
  5
326
330
75
100
AcDbEntity
  8
DEFAULT
100
AcDbVertex
100
AcDb2dVertex
 10
-6.167732767747816
 20
-3.091762258731402
 30
0.0
  0
VERTEX
  5
327
330
75
100
AcDbEntity
  8
DEFAULT
100
AcDbVertex
100
AcDb2dVertex
 10
-6.168239260792603
 20
-3.092580823047858
 30
0.0
  0
VERTEX
  5
328
330
75
100
AcDbEntity
  8
DEFAULT
100
AcDbVertex
100
AcDb2dVertex
 10
-6.16876093630773
 20
-3.093390034639274
 30
0.0
  0
VERTEX
  5
329
330
75
100
AcDbEntity
  8
DEFAULT
100
AcDbVertex
100
AcDb2dVertex
 10
-6.169297998088796
 20
-3.094189816684454
 30
0.0
  0
VERTEX
  5
32A
330
75
100
AcDbEntity
  8
DEFAULT
100
AcDbVertex
100
AcDb2dVertex
 10
-6.169850649931403
 20
-3.094980092362203
 30
0.0
  0
VERTEX
  5
32B
330
75
100
AcDbEntity
  8
DEFAULT
100
AcDbVertex
100
AcDb2dVertex
 10
-6.17041909563115
 20
-3.095760784851322
 30
0.0
  0
VERTEX
  5
32C
330
75
100
AcDbEntity
  8
DEFAULT
100
AcDbVertex
100
AcDb2dVertex
 10
-6.171003538983637
 20
-3.096531817330615
 30
0.0
  0
VERTEX
  5
32D
330
75
100
AcDbEntity
  8
DEFAULT
100
AcDbVertex
100
AcDb2dVertex
 10
-6.171604134612676
 20
-3.097293136333441
 30
0.0
  0
VERTEX
  5
32E
330
75
100
AcDbEntity
  8
DEFAULT
100
AcDbVertex
100
AcDb2dVertex
 10
-6.172220840454925
 20
-3.098044781811369
 30
0.0
  0
VERTEX
  5
32F
330
75
100
AcDbEntity
  8
DEFAULT
100
AcDbVertex
100
AcDb2dVertex
 10
-6.172853565275255
 20
-3.098786817070525
 30
0.0
  0
VERTEX
  5
330
330
75
100
AcDbEntity
  8
DEFAULT
100
AcDbVertex
100
AcDb2dVertex
 10
-6.173502217838536
 20
-3.099519305417034
 30
0.0
  0
VERTEX
  5
331
330
75
100
AcDbEntity
  8
DEFAULT
100
AcDbVertex
100
AcDb2dVertex
 10
-6.174166706909638
 20
-3.100242310157022
 30
0.0
  0
VERTEX
  5
332
330
75
100
AcDbEntity
  8
DEFAULT
100
AcDbVertex
100
AcDb2dVertex
 10
-6.174846941253431
 20
-3.100955894596612
 30
0.0
  0
VERTEX
  5
333
330
75
100
AcDbEntity
  8
DEFAULT
100
AcDbVertex
100
AcDb2dVertex
 10
-6.175542829634787
 20
-3.10166012204193
 30
0.0
  0
VERTEX
  5
334
330
75
100
AcDbEntity
  8
DEFAULT
100
AcDbVertex
100
AcDb2dVertex
 10
-6.176254280818573
 20
-3.102355055799102
 30
0.0
  0
VERTEX
  5
335
330
75
100
AcDbEntity
  8
DEFAULT
100
AcDbVertex
100
AcDb2dVertex
 10
-6.177723506652923
 20
-3.103717295473506
 30
0.0
  0
VERTEX
  5
336
330
75
100
AcDbEntity
  8
DEFAULT
100
AcDbVertex
100
AcDb2dVertex
 10
-6.179253888875445
 20
-3.105043120068825
 30
0.0
  0
VERTEX
  5
337
330
75
100
AcDbEntity
  8
DEFAULT
100
AcDbVertex
100
AcDb2dVertex
 10
-6.180844697605099
 20
-3.106333036034058
 30
0.0
  0
VERTEX
  5
338
330
75
100
AcDbEntity
  8
DEFAULT
100
AcDbVertex
100
AcDb2dVertex
 10
-6.182495202960849
 20
-3.107587549818207
 30
0.0
  0
VERTEX
  5
339
330
75
100
AcDbEntity
  8
DEFAULT
100
AcDbVertex
100
AcDb2dVertex
 10
-6.184204675061656
 20
-3.108807167870271
 30
0.0
  0
VERTEX
  5
33A
330
75
100
AcDbEntity
  8
DEFAULT
100
AcDbVertex
100
AcDb2dVertex
 10
-6.185972384026481
 20
-3.109992396639252
 30
0.0
  0
VERTEX
  5
33B
330
75
100
AcDbEntity
  8
DEFAULT
100
AcDbVertex
100
AcDb2dVertex
 10
-6.187797599974289
 20
-3.11114374257415
 30
0.0
  0
VERTEX
  5
33C
330
75
100
AcDbEntity
  8
DEFAULT
100
AcDbVertex
100
AcDb2dVertex
 10
-6.189679593024039
 20
-3.112261712123965
 30
0.0
  0
VERTEX
  5
33D
330
75
100
AcDbEntity
  8
DEFAULT
100
AcDbVertex
100
AcDb2dVertex
 10
-6.191617633294694
 20
-3.113346811737698
 30
0.0
  0
VERTEX
  5
33E
330
75
100
AcDbEntity
  8
DEFAULT
100
AcDbVertex
100
AcDb2dVertex
 10
-6.193610990905217
 20
-3.11439954786435
 30
0.0
  0
VERTEX
  5
33F
330
75
100
AcDbEntity
  8
DEFAULT
100
AcDbVertex
100
AcDb2dVertex
 10
-6.195658935974571
 20
-3.115420426952921
 30
0.0
  0
VERTEX
  5
340
330
75
100
AcDbEntity
  8
DEFAULT
100
AcDbVertex
100
AcDb2dVertex
 10
-6.197760738621716
 20
-3.116409955452412
 30
0.0
  0
VERTEX
  5
341
330
75
100
AcDbEntity
  8
DEFAULT
100
AcDbVertex
100
AcDb2dVertex
 10
-6.199915668965614
 20
-3.117368639811823
 30
0.0
  0
VERTEX
  5
342
330
75
100
AcDbEntity
  8
DEFAULT
100
AcDbVertex
100
AcDb2dVertex
 10
-6.202122997125229
 20
-3.118296986480154
 30
0.0
  0
VERTEX
  5
343
330
75
100
AcDbEntity
  8
DEFAULT
100
AcDbVertex
100
AcDb2dVertex
 10
-6.204381993219521
 20
-3.119195501906407
 30
0.0
  0
VERTEX
  5
344
330
75
100
AcDbEntity
  8
DEFAULT
100
AcDbVertex
100
AcDb2dVertex
 10
-6.206691927367453
 20
-3.120064692539582
 30
0.0
  0
VERTEX
  5
345
330
75
100
AcDbEntity
  8
DEFAULT
100
AcDbVertex
100
AcDb2dVertex
 10
-6.211461690300085
 20
-3.1217171252227
 30
0.0
  0
VERTEX
  5
346
330
75
100
AcDbEntity
  8
DEFAULT
100
AcDbVertex
100
AcDb2dVertex
 10
-6.216426446874824
 20
-3.123258336121512
 30
0.0
  0
VERTEX
  5
347
330
75
100
AcDbEntity
  8
DEFAULT
100
AcDbVertex
100
AcDb2dVertex
 10
-6.221580358043364
 20
-3.124692376828021
 30
0.0
  0
VERTEX
  5
348
330
75
100
AcDbEntity
  8
DEFAULT
100
AcDbVertex
100
AcDb2dVertex
 10
-6.226917584757403
 20
-3.126023298934234
 30
0.0
  0
VERTEX
  5
349
330
75
100
AcDbEntity
  8
DEFAULT
100
AcDbVertex
100
AcDb2dVertex
 10
-6.232432287968637
 20
-3.127255154032154
 30
0.0
  0
VERTEX
  5
34A
330
75
100
AcDbEntity
  8
DEFAULT
100
AcDbVertex
100
AcDb2dVertex
 10
-6.238118628628763
 20
-3.128391993713785
 30
0.0
  0
VERTEX
  5
34B
330
75
100
AcDbEntity
  8
DEFAULT
100
AcDbVertex
100
AcDb2dVertex
 10
-6.243970767689478
 20
-3.129437869571133
 30
0.0
  0
VERTEX
  5
34C
330
75
100
AcDbEntity
  8
DEFAULT
100
AcDbVertex
100
AcDb2dVertex
 10
-6.24998286610248
 20
-3.1303968331962
 30
0.0
  0
VERTEX
  5
34D
330
75
100
AcDbEntity
  8
DEFAULT
100
AcDbVertex
100
AcDb2dVertex
 10
-6.262463584792123
 20
-3.132070230117513
 30
0.0
  0
VERTEX
  5
34E
330
75
100
AcDbEntity
  8
DEFAULT
100
AcDbVertex
100
AcDb2dVertex
 10
-6.275514072311267
 20
-3.13344459721376
 30
0.0
  0
VERTEX
  5
34F
330
75
100
AcDbEntity
  8
DEFAULT
100
AcDbVertex
100
AcDb2dVertex
 10
-6.289087616273489
 20
-3.134552347220975
 30
0.0
  0
VERTEX
  5
350
330
75
100
AcDbEntity
  8
DEFAULT
100
AcDbVertex
100
AcDb2dVertex
 10
-6.31761702398145
 20
-3.136097646912452
 30
0.0
  0
VERTEX
  5
351
330
75
100
AcDbEntity
  8
DEFAULT
100
AcDbVertex
100
AcDb2dVertex
 10
-6.475765237720765
 20
-3.138847450279844
 30
0.0
  0
VERTEX
  5
352
330
75
100
AcDbEntity
  8
DEFAULT
100
AcDbVertex
100
AcDb2dVertex
 10
-6.507879221868647
 20
-3.140217185153284
 30
0.0
  0
VERTEX
  5
353
330
75
100
AcDbEntity
  8
DEFAULT
100
AcDbVertex
100
AcDb2dVertex
 10
-6.539282688603242
 20
-3.142465215832697
 30
0.0
  0
VERTEX
  5
354
330
75
100
AcDbEntity
  8
DEFAULT
100
AcDbVertex
100
AcDb2dVertex
 10
-6.55460119697449
 20
-3.143999623939731
 30
0.0
  0
VERTEX
  5
355
330
75
100
AcDbEntity
  8
DEFAULT
100
AcDbVertex
100
AcDb2dVertex
 10
-6.569601938833136
 20
-3.145850844206364
 30
0.0
  0
VERTEX
  5
356
330
75
100
AcDbEntity
  8
DEFAULT
100
AcDbVertex
100
AcDb2dVertex
 10
-6.584238201792755
 20
-3.14805128936863
 30
0.0
  0
VERTEX
  5
357
330
75
100
AcDbEntity
  8
DEFAULT
100
AcDbVertex
100
AcDb2dVertex
 10
-6.59846327346692
 20
-3.150633372162565
 30
0.0
  0
VERTEX
  5
358
330
75
100
AcDbEntity
  8
DEFAULT
100
AcDbVertex
100
AcDb2dVertex
 10
-6.60540830741588
 20
-3.152076699655
 30
0.0
  0
VERTEX
  5
359
330
75
100
AcDbEntity
  8
DEFAULT
100
AcDbVertex
100
AcDb2dVertex
 10
-6.612240781186654
 20
-3.153621849352851
 30
0.0
  0
VERTEX
  5
35A
330
75
100
AcDbEntity
  8
DEFAULT
100
AcDbVertex
100
AcDb2dVertex
 10
-6.618962610519025
 20
-3.155267130869608
 30
0.0
  0
VERTEX
  5
35B
330
75
100
AcDbEntity
  8
DEFAULT
100
AcDbVertex
100
AcDb2dVertex
 10
-6.62557571115278
 20
-3.157010853818762
 30
0.0
  0
VERTEX
  5
35C
330
75
100
AcDbEntity
  8
DEFAULT
100
AcDbVertex
100
AcDb2dVertex
 10
-6.632081998827701
 20
-3.158851327813804
 30
0.0
  0
VERTEX
  5
35D
330
75
100
AcDbEntity
  8
DEFAULT
100
AcDbVertex
100
AcDb2dVertex
 10
-6.638483389283572
 20
-3.160786862468222
 30
0.0
  0
VERTEX
  5
35E
330
75
100
AcDbEntity
  8
DEFAULT
100
AcDbVertex
100
AcDb2dVertex
 10
-6.64478179826018
 20
-3.162815767395508
 30
0.0
  0
VERTEX
  5
35F
330
75
100
AcDbEntity
  8
DEFAULT
100
AcDbVertex
100
AcDb2dVertex
 10
-6.650979141497305
 20
-3.164936352209153
 30
0.0
  0
VERTEX
  5
360
330
75
100
AcDbEntity
  8
DEFAULT
100
AcDbVertex
100
AcDb2dVertex
 10
-6.657077334734734
 20
-3.167146926522646
 30
0.0
  0
VERTEX
  5
361
330
75
100
AcDbEntity
  8
DEFAULT
100
AcDbVertex
100
AcDb2dVertex
 10
-6.663078293712251
 20
-3.169445799949477
 30
0.0
  0
VERTEX
  5
362
330
75
100
AcDbEntity
  8
DEFAULT
100
AcDbVertex
100
AcDb2dVertex
 10
-6.66898393416964
 20
-3.171831282103137
 30
0.0
  0
VERTEX
  5
363
330
75
100
AcDbEntity
  8
DEFAULT
100
AcDbVertex
100
AcDb2dVertex
 10
-6.674796171846686
 20
-3.174301682597116
 30
0.0
  0
VERTEX
  5
364
330
75
100
AcDbEntity
  8
DEFAULT
100
AcDbVertex
100
AcDb2dVertex
 10
-6.680516922483172
 20
-3.176855311044905
 30
0.0
  0
VERTEX
  5
365
330
75
100
AcDbEntity
  8
DEFAULT
100
AcDbVertex
100
AcDb2dVertex
 10
-6.686148101818882
 20
-3.179490477059994
 30
0.0
  0
VERTEX
  5
366
330
75
100
AcDbEntity
  8
DEFAULT
100
AcDbVertex
100
AcDb2dVertex
 10
-6.691691625593601
 20
-3.182205490255873
 30
0.0
  0
VERTEX
  5
367
330
75
100
AcDbEntity
  8
DEFAULT
100
AcDbVertex
100
AcDb2dVertex
 10
-6.697149409547112
 20
-3.184998660246032
 30
0.0
  0
VERTEX
  5
368
330
75
100
AcDbEntity
  8
DEFAULT
100
AcDbVertex
100
AcDb2dVertex
 10
-6.707815420949652
 20
-3.190812709063153
 30
0.0
  0
VERTEX
  5
369
330
75
100
AcDbEntity
  8
DEFAULT
100
AcDbVertex
100
AcDb2dVertex
 10
-6.718161461944773
 20
-3.196919100419279
 30
0.0
  0
VERTEX
  5
36A
330
75
100
AcDbEntity
  8
DEFAULT
100
AcDbVertex
100
AcDb2dVertex
 10
-6.728202858450751
 20
-3.203304311222333
 30
0.0
  0
VERTEX
  5
36B
330
75
100
AcDbEntity
  8
DEFAULT
100
AcDbVertex
100
AcDb2dVertex
 10
-6.73795493638586
 20
-3.209954818380238
 30
0.0
  0
VERTEX
  5
36C
330
75
100
AcDbEntity
  8
DEFAULT
100
AcDbVertex
100
AcDb2dVertex
 10
-6.747433021668371
 20
-3.216857098800916
 30
0.0
  0
VERTEX
  5
36D
330
75
100
AcDbEntity
  8
DEFAULT
100
AcDbVertex
100
AcDb2dVertex
 10
-6.756652440216559
 20
-3.223997629392288
 30
0.0
  0
VERTEX
  5
36E
330
75
100
AcDbEntity
  8
DEFAULT
100
AcDbVertex
100
AcDb2dVertex
 10
-6.765628517948697
 20
-3.231362887062279
 30
0.0
  0
VERTEX
  5
36F
330
75
100
AcDbEntity
  8
DEFAULT
100
AcDbVertex
100
AcDb2dVertex
 10
-6.774376580783061
 20
-3.238939348718809
 30
0.0
  0
VERTEX
  5
370
330
75
100
AcDbEntity
  8
DEFAULT
100
AcDbVertex
100
AcDb2dVertex
 10
-6.782911954637923
 20
-3.246713491269801
 30
0.0
  0
VERTEX
  5
371
330
75
100
AcDbEntity
  8
DEFAULT
100
AcDbVertex
100
AcDb2dVertex
 10
-6.791249965431556
 20
-3.25467179162318
 30
0.0
  0
VERTEX
  5
372
330
75
100
AcDbEntity
  8
DEFAULT
100
AcDbVertex
100
AcDb2dVertex
 10
-6.799405939082235
 20
-3.262800726686865
 30
0.0
  0
VERTEX
  5
373
330
75
100
AcDbEntity
  8
DEFAULT
100
AcDbVertex
100
AcDb2dVertex
 10
-6.807395201508234
 20
-3.27108677336878
 30
0.0
  0
VERTEX
  5
374
330
75
100
AcDbEntity
  8
DEFAULT
100
AcDbVertex
100
AcDb2dVertex
 10
-6.822934896359285
 20
-3.28807610921899
 30
0.0
  0
VERTEX
  5
375
330
75
100
AcDbEntity
  8
DEFAULT
100
AcDbVertex
100
AcDb2dVertex
 10
-6.837991657330896
 20
-3.305531614437188
 30
0.0
  0
VERTEX
  5
376
330
75
100
AcDbEntity
  8
DEFAULT
100
AcDbVertex
100
AcDb2dVertex
 10
-6.895841509346748
 20
-3.377851634257465
 30
0.0
  0
VERTEX
  5
377
330
75
100
AcDbEntity
  8
DEFAULT
100
AcDbVertex
100
AcDb2dVertex
 10
-7.048346755211185
 20
-3.562486443728962
 30
0.0
  0
VERTEX
  5
378
330
75
100
AcDbEntity
  8
DEFAULT
100
AcDbVertex
100
AcDb2dVertex
 10
-7.408235953646178
 20
-3.989987192484057
 30
0.0
  0
VERTEX
  5
379
330
75
100
AcDbEntity
  8
DEFAULT
100
AcDbVertex
100
AcDb2dVertex
 10
-8.711740454066163
 20
-5.546187677902742
 30
0.0
  0
VERTEX
  5
37A
330
75
100
AcDbEntity
  8
DEFAULT
100
AcDbVertex
100
AcDb2dVertex
 10
-8.90498128830269
 20
-5.774561053126195
 30
0.0
  0
VERTEX
  5
37B
330
75
100
AcDbEntity
  8
DEFAULT
100
AcDbVertex
100
AcDb2dVertex
 10
-9.014536026918417
 20
-5.90131517678382
 30
0.0
  0
VERTEX
  5
37C
330
75
100
AcDbEntity
  8
DEFAULT
100
AcDbVertex
100
AcDb2dVertex
 10
-9.04673442336931
 20
-5.937108921284748
 30
0.0
  0
VERTEX
  5
37D
330
75
100
AcDbEntity
  8
DEFAULT
100
AcDbVertex
100
AcDb2dVertex
 10
-9.058729458155659
 20
-5.949951647054868
 30
0.0
  0
VERTEX
  5
37E
330
75
100
AcDbEntity
  8
DEFAULT
100
AcDbVertex
100
AcDb2dVertex
 10
-9.068575271515996
 20
-5.960126535305379
 30
0.0
  0
VERTEX
  5
37F
330
75
100
AcDbEntity
  8
DEFAULT
100
AcDbVertex
100
AcDb2dVertex
 10
-9.076712029100367
 20
-5.968159781136747
 30
0.0
  0
VERTEX
  5
380
330
75
100
AcDbEntity
  8
DEFAULT
100
AcDbVertex
100
AcDb2dVertex
 10
-9.08357989655881
 20
-5.974577579649436
 30
0.0
  0
VERTEX
  5
381
330
75
100
AcDbEntity
  8
DEFAULT
100
AcDbVertex
100
AcDb2dVertex
 10
-9.089619039541368
 20
-5.979906125943911
 30
0.0
  0
VERTEX
  5
382
330
75
100
AcDbEntity
  8
DEFAULT
100
AcDbVertex
100
AcDb2dVertex
 10
-9.09526962369808
 20
-5.984671615120637
 30
0.0
  0
VERTEX
  5
383
330
75
100
AcDbEntity
  8
DEFAULT
100
AcDbVertex
100
AcDb2dVertex
 10
-9.118040520508195
 20
-6.002989580242868
 30
0.0
  0
VERTEX
  5
384
330
75
100
AcDbEntity
  8
DEFAULT
100
AcDbVertex
100
AcDb2dVertex
 10
-9.14131274075337
 20
-6.020570305019426
 30
0.0
  0
VERTEX
  5
385
330
75
100
AcDbEntity
  8
DEFAULT
100
AcDbVertex
100
AcDb2dVertex
 10
-9.164761898681508
 20
-6.03726634138117
 30
0.0
  0
VERTEX
  5
386
330
75
100
AcDbEntity
  8
DEFAULT
100
AcDbVertex
100
AcDb2dVertex
 10
-9.18806360854051
 20
-6.052930241258969
 30
0.0
  0
VERTEX
  5
387
330
75
100
AcDbEntity
  8
DEFAULT
100
AcDbVertex
100
AcDb2dVertex
 10
-9.199595276280796
 20
-6.060339506733015
 30
0.0
  0
VERTEX
  5
388
330
75
100
AcDbEntity
  8
DEFAULT
100
AcDbVertex
100
AcDb2dVertex
 10
-9.21119329565219
 20
-6.067498110489529
 30
0.0
  0
VERTEX
  5
389
330
75
100
AcDbEntity
  8
DEFAULT
100
AcDbVertex
100
AcDb2dVertex
 10
-9.223041976741115
 20
-6.074450286949254
 30
0.0
  0
VERTEX
  5
38A
330
75
100
AcDbEntity
  8
DEFAULT
100
AcDbVertex
100
AcDb2dVertex
 10
-9.235325629633987
 20
-6.081240270532932
 30
0.0
  0
VERTEX
  5
38B
330
75
100
AcDbEntity
  8
DEFAULT
100
AcDbVertex
100
AcDb2dVertex
 10
-9.248228564417229
 20
-6.087912295661301
 30
0.0
  0
VERTEX
  5
38C
330
75
100
AcDbEntity
  8
DEFAULT
100
AcDbVertex
100
AcDb2dVertex
 10
-9.261935091177257
 20
-6.094510596755101
 30
0.0
  0
VERTEX
  5
38D
330
75
100
AcDbEntity
  8
DEFAULT
100
AcDbVertex
100
AcDb2dVertex
 10
-9.276629520000494
 20
-6.101079408235075
 30
0.0
  0
VERTEX
  5
38E
330
75
100
AcDbEntity
  8
DEFAULT
100
AcDbVertex
100
AcDb2dVertex
 10
-9.292496160973354
 20
-6.107662964521962
 30
0.0
  0
VERTEX
  5
38F
330
75
100
AcDbEntity
  8
DEFAULT
100
AcDbVertex
100
AcDb2dVertex
 10
-9.309810395357403
 20
-6.11427908225745
 30
0.0
  0
VERTEX
  5
390
330
75
100
AcDbEntity
  8
DEFAULT
100
AcDbVertex
100
AcDb2dVertex
 10
-9.319204563743352
 20
-6.117573548256322
 30
0.0
  0
VERTEX
  5
391
330
75
100
AcDbEntity
  8
DEFAULT
100
AcDbVertex
100
AcDb2dVertex
 10
-9.3292118891148
 20
-6.120839906967014
 30
0.0
  0
VERTEX
  5
392
330
75
100
AcDbEntity
  8
DEFAULT
100
AcDbVertex
100
AcDb2dVertex
 10
-9.339923713613912
 20
-6.124063874357828
 30
0.0
  0
VERTEX
  5
393
330
75
100
AcDbEntity
  8
DEFAULT
100
AcDbVertex
100
AcDb2dVertex
 10
-9.351431379382849
 20
-6.12723116639707
 30
0.0
  0
VERTEX
  5
394
330
75
100
AcDbEntity
  8
DEFAULT
100
AcDbVertex
100
AcDb2dVertex
 10
-9.363826228563772
 20
-6.13032749905304
 30
0.0
  0
VERTEX
  5
395
330
75
100
AcDbEntity
  8
DEFAULT
100
AcDbVertex
100
AcDb2dVertex
 10
-9.377199603298846
 20
-6.133338588294042
 30
0.0
  0
VERTEX
  5
396
330
75
100
AcDbEntity
  8
DEFAULT
100
AcDbVertex
100
AcDb2dVertex
 10
-9.391642845730235
 20
-6.136250150088378
 30
0.0
  0
VERTEX
  5
397
330
75
100
AcDbEntity
  8
DEFAULT
100
AcDbVertex
100
AcDb2dVertex
 10
-9.4072472980001
 20
-6.13904790040435
 30
0.0
  0
VERTEX
  5
398
330
75
100
AcDbEntity
  8
DEFAULT
100
AcDbVertex
100
AcDb2dVertex
 10
-9.424104302250601
 20
-6.14171755521026
 30
0.0
  0
VERTEX
  5
399
330
75
100
AcDbEntity
  8
DEFAULT
100
AcDbVertex
100
AcDb2dVertex
 10
-9.442305200623908
 20
-6.144244830474412
 30
0.0
  0
VERTEX
  5
39A
330
75
100
AcDbEntity
  8
DEFAULT
100
AcDbVertex
100
AcDb2dVertex
 10
-9.483104048307577
 20
-6.148815106250649
 30
0.0
  0
VERTEX
  5
39B
330
75
100
AcDbEntity
  8
DEFAULT
100
AcDbVertex
100
AcDb2dVertex
 10
-9.53037457818841
 20
-6.152644455479481
 30
0.0
  0
VERTEX
  5
39C
330
75
100
AcDbEntity
  8
DEFAULT
100
AcDbVertex
100
AcDb2dVertex
 10
-9.586150834071304
 20
-6.155544699309413
 30
0.0
  0
VERTEX
  5
39D
330
75
100
AcDbEntity
  8
DEFAULT
100
AcDbVertex
100
AcDb2dVertex
 10
-9.65768008643157
 20
-6.157032032497272
 30
0.0
  0
VERTEX
  5
39E
330
75
100
AcDbEntity
  8
DEFAULT
100
AcDbVertex
100
AcDb2dVertex
 10
-9.753512912412106
 20
-6.156548743201968
 30
0.0
  0
VERTEX
  5
39F
330
75
100
AcDbEntity
  8
DEFAULT
100
AcDbVertex
100
AcDb2dVertex
 10
-9.882199889155817
 20
-6.153537119582419
 30
0.0
  0
VERTEX
  5
3A0
330
75
100
AcDbEntity
  8
DEFAULT
100
AcDbVertex
100
AcDb2dVertex
 10
-10.27233860350438
 20
-6.137698022006223
 30
0.0
  0
VERTEX
  5
3A1
330
75
100
AcDbEntity
  8
DEFAULT
100
AcDbVertex
100
AcDb2dVertex
 10
-10.89650084662047
 20
-6.10505304503998
 30
0.0
  0
VERTEX
  5
3A2
330
75
100
AcDbEntity
  8
DEFAULT
100
AcDbVertex
100
AcDb2dVertex
 10
-11.78586644006741
 20
-6.053545427764199
 30
0.0
  0
VERTEX
  5
3A3
330
75
100
AcDbEntity
  8
DEFAULT
100
AcDbVertex
100
AcDb2dVertex
 10
-12.8227160230888
 20
-5.990738144496246
 30
0.0
  0
VERTEX
  5
3A4
330
75
100
AcDbEntity
  8
DEFAULT
100
AcDbVertex
100
AcDb2dVertex
 10
-14.71909053250959
 20
-5.871096212490137
 30
0.0
  0
VERTEX
  5
3A5
330
75
100
AcDbEntity
  8
DEFAULT
100
AcDbVertex
100
AcDb2dVertex
 10
-15.65918602459974
 20
-5.806970509454362
 30
0.0
  0
VERTEX
  5
3A6
330
75
100
AcDbEntity
  8
DEFAULT
100
AcDbVertex
100
AcDb2dVertex
 10
-15.96902375070613
 20
-5.783604277501965
 30
0.0
  0
VERTEX
  5
3A7
330
75
100
AcDbEntity
  8
DEFAULT
100
AcDbVertex
100
AcDb2dVertex
 10
-16.43519449357505
 20
-5.75984534724703
 30
0.0
  0
VERTEX
  5
3A8
330
75
100
AcDbEntity
  8
DEFAULT
100
AcDbVertex
100
AcDb2dVertex
 10
-16.49935932740484
 20
-5.754675537199342
 30
0.0
  0
VERTEX
  5
3A9
330
75
100
AcDbEntity
  8
DEFAULT
100
AcDbVertex
100
AcDb2dVertex
 10
-16.52827188315007
 20
-5.751511456228743
 30
0.0
  0
VERTEX
  5
3AA
330
75
100
AcDbEntity
  8
DEFAULT
100
AcDbVertex
100
AcDb2dVertex
 10
-16.55553361404107
 20
-5.747841029819662
 30
0.0
  0
VERTEX
  5
3AB
330
75
100
AcDbEntity
  8
DEFAULT
100
AcDbVertex
100
AcDb2dVertex
 10
-16.58149133202201
 20
-5.743574086866619
 30
0.0
  0
VERTEX
  5
3AC
330
75
100
AcDbEntity
  8
DEFAULT
100
AcDbVertex
100
AcDb2dVertex
 10
-16.60649184903706
 20
-5.738620456264127
 30
0.0
  0
VERTEX
  5
3AD
330
75
100
AcDbEntity
  8
DEFAULT
100
AcDbVertex
100
AcDb2dVertex
 10
-16.63083804751744
 20
-5.732915399782611
 30
0.0
  0
VERTEX
  5
3AE
330
75
100
AcDbEntity
  8
DEFAULT
100
AcDbVertex
100
AcDb2dVertex
 10
-16.6546570918427
 20
-5.726495910696116
 30
0.0
  0
VERTEX
  5
3AF
330
75
100
AcDbEntity
  8
DEFAULT
100
AcDbVertex
100
AcDb2dVertex
 10
-16.67803221687942
 20
-5.71942441515459
 30
0.0
  0
VERTEX
  5
3B0
330
75
100
AcDbEntity
  8
DEFAULT
100
AcDbVertex
100
AcDb2dVertex
 10
-16.70104665749422
 20
-5.711763339307984
 30
0.0
  0
VERTEX
  5
3B1
330
75
100
AcDbEntity
  8
DEFAULT
100
AcDbVertex
100
AcDb2dVertex
 10
-16.72378364855368
 20
-5.703575109306247
 30
0.0
  0
VERTEX
  5
3B2
330
75
100
AcDbEntity
  8
DEFAULT
100
AcDbVertex
100
AcDb2dVertex
 10
-16.74632642492441
 20
-5.694922151299329
 30
0.0
  0
VERTEX
  5
3B3
330
75
100
AcDbEntity
  8
DEFAULT
100
AcDbVertex
100
AcDb2dVertex
 10
-16.79116227306607
 20
-5.676471755869747
 30
0.0
  0
VERTEX
  5
3B4
330
75
100
AcDbEntity
  8
DEFAULT
100
AcDbVertex
100
AcDb2dVertex
 10
-16.88542113533088
 20
-5.634299423459274
 30
0.0
  0
VERTEX
  5
3B5
330
75
100
AcDbEntity
  8
DEFAULT
100
AcDbVertex
100
AcDb2dVertex
 10
-17.16649603151927
 20
-5.499126000101498
 30
0.0
  0
VERTEX
  5
3B6
330
75
100
AcDbEntity
  8
DEFAULT
100
AcDbVertex
100
AcDb2dVertex
 10
-17.34576543753782
 20
-5.415447214213351
 30
0.0
  0
VERTEX
  5
3B7
330
75
100
AcDbEntity
  8
DEFAULT
100
AcDbVertex
100
AcDb2dVertex
 10
-17.43295858446018
 20
-5.377168423896039
 30
0.0
  0
VERTEX
  5
3B8
330
75
100
AcDbEntity
  8
DEFAULT
100
AcDbVertex
100
AcDb2dVertex
 10
-17.51771017529561
 20
-5.341830598865247
 30
0.0
  0
VERTEX
  5
3B9
330
75
100
AcDbEntity
  8
DEFAULT
100
AcDbVertex
100
AcDb2dVertex
 10
-17.68432788159102
 20
-5.277536288576299
 30
0.0
  0
VERTEX
  5
3BA
330
75
100
AcDbEntity
  8
DEFAULT
100
AcDbVertex
100
AcDb2dVertex
 10
-18.02052275610538
 20
-5.157974026865208
 30
0.0
  0
VERTEX
  5
3BB
330
75
100
AcDbEntity
  8
DEFAULT
100
AcDbVertex
100
AcDb2dVertex
 10
-18.35730952300445
 20
-5.032492841307031
 30
0.0
  0
VERTEX
  5
3BC
330
75
100
AcDbEntity
  8
DEFAULT
100
AcDbVertex
100
AcDb2dVertex
 10
-18.44604713911815
 20
-5.00244505446457
 30
0.0
  0
VERTEX
  5
3BD
330
75
100
AcDbEntity
  8
DEFAULT
100
AcDbVertex
100
AcDb2dVertex
 10
-18.53672690211917
 20
-4.973673535576635
 30
0.0
  0
VERTEX
  5
3BE
330
75
100
AcDbEntity
  8
DEFAULT
100
AcDbVertex
100
AcDb2dVertex
 10
-18.72013955483068
 20
-4.920625180597146
 30
0.0
  0
VERTEX
  5
3BF
330
75
100
AcDbEntity
  8
DEFAULT
100
AcDbVertex
100
AcDb2dVertex
 10
-18.81141121021642
 20
-4.896635042379435
 30
0.0
  0
VERTEX
  5
3C0
330
75
100
AcDbEntity
  8
DEFAULT
100
AcDbVertex
100
AcDb2dVertex
 10
-18.90340423444601
 20
-4.874309601493716
 30
0.0
  0
VERTEX
  5
3C1
330
75
100
AcDbEntity
  8
DEFAULT
100
AcDbVertex
100
AcDb2dVertex
 10
-18.9977278349404
 20
-4.853537878117856
 30
0.0
  0
VERTEX
  5
3C2
330
75
100
AcDbEntity
  8
DEFAULT
100
AcDbVertex
100
AcDb2dVertex
 10
-19.0959912191205
 20
-4.834208892429723
 30
0.0
  0
VERTEX
  5
3C3
330
75
100
AcDbEntity
  8
DEFAULT
100
AcDbVertex
100
AcDb2dVertex
 10
-19.19925794361509
 20
-4.81626715451825
 30
0.0
  0
VERTEX
  5
3C4
330
75
100
AcDbEntity
  8
DEFAULT
100
AcDbVertex
100
AcDb2dVertex
 10
-19.30640896188433
 20
-4.799879134116637
 30
0.0
  0
VERTEX
  5
3C5
330
75
100
AcDbEntity
  8
DEFAULT
100
AcDbVertex
100
AcDb2dVertex
 10
-19.41577957659623
 20
-4.785266790869149
 30
0.0
  0
VERTEX
  5
3C6
330
75
100
AcDbEntity
  8
DEFAULT
100
AcDbVertex
100
AcDb2dVertex
 10
-19.52570509041879
 20
-4.772652084420051
 30
0.0
  0
VERTEX
  5
3C7
330
75
100
AcDbEntity
  8
DEFAULT
100
AcDbVertex
100
AcDb2dVertex
 10
-19.73841641617336
 20
-4.754007474301737
 30
0.0
  0
VERTEX
  5
3C8
330
75
100
AcDbEntity
  8
DEFAULT
100
AcDbVertex
100
AcDb2dVertex
 10
-19.83492261983636
 20
-4.748014563906565
 30
0.0
  0
VERTEX
  5
3C9
330
75
100
AcDbEntity
  8
DEFAULT
100
AcDbVertex
100
AcDb2dVertex
 10
-19.92049731101928
 20
-4.744241249954049
 30
0.0
  0
VERTEX
  5
3CA
330
75
100
AcDbEntity
  8
DEFAULT
100
AcDbVertex
100
AcDb2dVertex
 10
-19.99303187310159
 20
-4.742622794214612
 30
0.0
  0
VERTEX
  5
3CB
330
75
100
AcDbEntity
  8
DEFAULT
100
AcDbVertex
100
AcDb2dVertex
 10
-20.05507884199235
 20
-4.742835505540366
 30
0.0
  0
VERTEX
  5
3CC
330
75
100
AcDbEntity
  8
DEFAULT
100
AcDbVertex
100
AcDb2dVertex
 10
-20.11035604173301
 20
-4.744490954553847
 30
0.0
  0
VERTEX
  5
3CD
330
75
100
AcDbEntity
  8
DEFAULT
100
AcDbVertex
100
AcDb2dVertex
 10
-20.162581296365
 20
-4.747200711877591
 30
0.0
  0
VERTEX
  5
3CE
330
75
100
AcDbEntity
  8
DEFAULT
100
AcDbVertex
100
AcDb2dVertex
 10
-20.26786415429501
 20
-4.755043285974976
 30
0.0
  0
VERTEX
  5
3CF
330
75
100
AcDbEntity
  8
DEFAULT
100
AcDbVertex
100
AcDb2dVertex
 10
-20.32164312643687
 20
-4.760518290533529
 30
0.0
  0
VERTEX
  5
3D0
330
75
100
AcDbEntity
  8
DEFAULT
100
AcDbVertex
100
AcDb2dVertex
 10
-20.37625444724473
 20
-4.767325052957675
 30
0.0
  0
VERTEX
  5
3D1
330
75
100
AcDbEntity
  8
DEFAULT
100
AcDbVertex
100
AcDb2dVertex
 10
-20.4318738347703
 20
-4.775630042980614
 30
0.0
  0
VERTEX
  5
3D2
330
75
100
AcDbEntity
  8
DEFAULT
100
AcDbVertex
100
AcDb2dVertex
 10
-20.48915791962786
 20
-4.78537777069128
 30
0.0
  0
VERTEX
  5
3D3
330
75
100
AcDbEntity
  8
DEFAULT
100
AcDbVertex
100
AcDb2dVertex
 10
-20.61182761635867
 20
-4.808757519887261
 30
0.0
  0
VERTEX
  5
3D4
330
75
100
AcDbEntity
  8
DEFAULT
100
AcDbVertex
100
AcDb2dVertex
 10
-20.74670509352409
 20
-4.83687240816091
 30
0.0
  0
VERTEX
  5
3D5
330
75
100
AcDbEntity
  8
DEFAULT
100
AcDbVertex
100
AcDb2dVertex
 10
-20.81500392572833
 20
-4.852871999185059
 30
0.0
  0
VERTEX
  5
3D6
330
75
100
AcDbEntity
  8
DEFAULT
100
AcDbVertex
100
AcDb2dVertex
 10
-20.88113865140098
 20
-4.870314327896934
 30
0.0
  0
VERTEX
  5
3D7
330
75
100
AcDbEntity
  8
DEFAULT
100
AcDbVertex
100
AcDb2dVertex
 10
-20.91285344765506
 20
-4.879612356119999
 30
0.0
  0
VERTEX
  5
3D8
330
75
100
AcDbEntity
  8
DEFAULT
100
AcDbVertex
100
AcDb2dVertex
 10
-20.94386074754305
 20
-4.88931962243718
 30
0.0
  0
VERTEX
  5
3D9
330
75
100
AcDbEntity
  8
DEFAULT
100
AcDbVertex
100
AcDb2dVertex
 10
-21.00514010599739
 20
-4.910045104220484
 30
0.0
  0
VERTEX
  5
3DA
330
75
100
AcDbEntity
  8
DEFAULT
100
AcDbVertex
100
AcDb2dVertex
 10
-21.28332952681032
 20
-5.012960392611654
 30
0.0
  0
VERTEX
  5
3DB
330
75
100
AcDbEntity
  8
DEFAULT
100
AcDbVertex
100
AcDb2dVertex
 10
-21.36003508054112
 20
-5.043553830246269
 30
0.0
  0
VERTEX
  5
3DC
330
75
100
AcDbEntity
  8
DEFAULT
100
AcDbVertex
100
AcDb2dVertex
 10
-21.39754857250164
 20
-5.05944706560754
 30
0.0
  0
VERTEX
  5
3DD
330
75
100
AcDbEntity
  8
DEFAULT
100
AcDbVertex
100
AcDb2dVertex
 10
-21.4339661387186
 20
-5.075700985390743
 30
0.0
  0
VERTEX
  5
3DE
330
75
100
AcDbEntity
  8
DEFAULT
100
AcDbVertex
100
AcDb2dVertex
 10
-21.46899992527834
 20
-5.092292468799597
 30
0.0
  0
VERTEX
  5
3DF
330
75
100
AcDbEntity
  8
DEFAULT
100
AcDbVertex
100
AcDb2dVertex
 10
-21.50281987003351
 20
-5.109216891674853
 30
0.0
  0
VERTEX
  5
3E0
330
75
100
AcDbEntity
  8
DEFAULT
100
AcDbVertex
100
AcDb2dVertex
 10
-21.56795577730697
 20
-5.144064555824559
 30
0.0
  0
VERTEX
  5
3E1
330
75
100
AcDbEntity
  8
DEFAULT
100
AcDbVertex
100
AcDb2dVertex
 10
-21.95838279157024
 20
-5.369871500590806
 30
0.0
  0
VERTEX
  5
3E2
330
75
100
AcDbEntity
  8
DEFAULT
100
AcDbVertex
100
AcDb2dVertex
 10
-22.32831553201297
 20
-5.594790606779991
 30
0.0
  0
VERTEX
  5
3E3
330
75
100
AcDbEntity
  8
DEFAULT
100
AcDbVertex
100
AcDb2dVertex
 10
-22.39046423240735
 20
-5.633855504170745
 30
0.0
  0
VERTEX
  5
3E4
330
75
100
AcDbEntity
  8
DEFAULT
100
AcDbVertex
100
AcDb2dVertex
 10
-22.46884026366922
 20
-5.686574387803277
 30
0.0
  0
VERTEX
  5
3E5
330
75
100
AcDbEntity
  8
DEFAULT
100
AcDbVertex
100
AcDb2dVertex
 10
-22.47887815737317
 20
-5.692970756093494
 30
0.0
  0
VERTEX
  5
3E6
330
75
100
AcDbEntity
  8
DEFAULT
100
AcDbVertex
100
AcDb2dVertex
 10
-22.48399811320388
 20
-5.696074867498749
 30
0.0
  0
VERTEX
  5
3E7
330
75
100
AcDbEntity
  8
DEFAULT
100
AcDbVertex
100
AcDb2dVertex
 10
-22.48922124558798
 20
-5.699117419783914
 30
0.0
  0
VERTEX
  5
3E8
330
75
100
AcDbEntity
  8
DEFAULT
100
AcDbVertex
100
AcDb2dVertex
 10
-22.49457443245115
 20
-5.702099279978849
 30
0.0
  0
VERTEX
  5
3E9
330
75
100
AcDbEntity
  8
DEFAULT
100
AcDbVertex
100
AcDb2dVertex
 10
-22.50008455171905
 20
-5.705021315113416
 30
0.0
  0
VERTEX
  5
3EA
330
75
100
AcDbEntity
  8
DEFAULT
100
AcDbVertex
100
AcDb2dVertex
 10
-22.50577848131736
 20
-5.707884392217475
 30
0.0
  0
VERTEX
  5
3EB
330
75
100
AcDbEntity
  8
DEFAULT
100
AcDbVertex
100
AcDb2dVertex
 10
-22.51168309917174
 20
-5.710689378320887
 30
0.0
  0
VERTEX
  5
3EC
330
75
100
AcDbEntity
  8
DEFAULT
100
AcDbVertex
100
AcDb2dVertex
 10
-22.51782528320788
 20
-5.713437140453511
 30
0.0
  0
VERTEX
  5
3ED
330
75
100
AcDbEntity
  8
DEFAULT
100
AcDbVertex
100
AcDb2dVertex
 10
-22.52423191135145
 20
-5.716128545645208
 30
0.0
  0
VERTEX
  5
3EE
330
75
100
AcDbEntity
  8
DEFAULT
100
AcDbVertex
100
AcDb2dVertex
 10
-22.53092769395347
 20
-5.718764171915886
 30
0.0
  0
VERTEX
  5
3EF
330
75
100
AcDbEntity
  8
DEFAULT
100
AcDbVertex
100
AcDb2dVertex
 10
-22.53792867106635
 20
-5.721343441245637
 30
0.0
  0
VERTEX
  5
3F0
330
75
100
AcDbEntity
  8
DEFAULT
100
AcDbVertex
100
AcDb2dVertex
 10
-22.54524871516786
 20
-5.723865486604601
 30
0.0
  0
VERTEX
  5
3F1
330
75
100
AcDbEntity
  8
DEFAULT
100
AcDbVertex
100
AcDb2dVertex
 10
-22.55290169873577
 20
-5.726329440962917
 30
0.0
  0
VERTEX
  5
3F2
330
75
100
AcDbEntity
  8
DEFAULT
100
AcDbVertex
100
AcDb2dVertex
 10
-22.56090149424784
 20
-5.728734437290725
 30
0.0
  0
VERTEX
  5
3F3
330
75
100
AcDbEntity
  8
DEFAULT
100
AcDbVertex
100
AcDb2dVertex
 10
-22.56926197418184
 20
-5.731079608558165
 30
0.0
  0
VERTEX
  5
3F4
330
75
100
AcDbEntity
  8
DEFAULT
100
AcDbVertex
100
AcDb2dVertex
 10
-22.58712047722672
 20
-5.735587007792496
 30
0.0
  0
VERTEX
  5
3F5
330
75
100
AcDbEntity
  8
DEFAULT
100
AcDbVertex
100
AcDb2dVertex
 10
-22.60658818769252
 20
-5.73984470242703
 30
0.0
  0
VERTEX
  5
3F6
330
75
100
AcDbEntity
  8
DEFAULT
100
AcDbVertex
100
AcDb2dVertex
 10
-22.62777608540137
 20
-5.74384575622288
 30
0.0
  0
VERTEX
  5
3F7
330
75
100
AcDbEntity
  8
DEFAULT
100
AcDbVertex
100
AcDb2dVertex
 10
-22.65079515017542
 20
-5.747583232941166
 30
0.0
  0
VERTEX
  5
3F8
330
75
100
AcDbEntity
  8
DEFAULT
100
AcDbVertex
100
AcDb2dVertex
 10
-22.6757563618368
 20
-5.751050196343003
 30
0.0
  0
VERTEX
  5
3F9
330
75
100
AcDbEntity
  8
DEFAULT
100
AcDbVertex
100
AcDb2dVertex
 10
-22.73223584298389
 20
-5.757302059656485
 30
0.0
  0
VERTEX
  5
3FA
330
75
100
AcDbEntity
  8
DEFAULT
100
AcDbVertex
100
AcDb2dVertex
 10
-22.97702958565336
 20
-5.77827724603959
 30
0.0
  0
VERTEX
  5
3FB
330
75
100
AcDbEntity
  8
DEFAULT
100
AcDbVertex
100
AcDb2dVertex
 10
-23.46830026496132
 20
-5.826220529200969
 30
0.0
  0
VERTEX
  5
3FC
330
75
100
AcDbEntity
  8
DEFAULT
100
AcDbVertex
100
AcDb2dVertex
 10
-23.91932226210911
 20
-5.875939489516472
 30
0.0
  0
VERTEX
  5
3FD
330
75
100
AcDbEntity
  8
DEFAULT
100
AcDbVertex
100
AcDb2dVertex
 10
-24.18726591613304
 20
-5.908844321718222
 30
0.0
  0
VERTEX
  5
3FE
330
75
100
AcDbEntity
  8
DEFAULT
100
AcDbVertex
100
AcDb2dVertex
 10
-24.33953811029652
 20
-5.929727709976845
 30
0.0
  0
VERTEX
  5
3FF
330
75
100
AcDbEntity
  8
DEFAULT
100
AcDbVertex
100
AcDb2dVertex
 10
-24.50382695297871
 20
-5.954507723101465
 30
0.0
  0
VERTEX
  5
400
330
75
100
AcDbEntity
  8
DEFAULT
100
AcDbVertex
100
AcDb2dVertex
 10
-25.18607426777252
 20
-6.068647958276094
 30
0.0
  0
VERTEX
  5
401
330
75
100
AcDbEntity
  8
DEFAULT
100
AcDbVertex
100
AcDb2dVertex
 10
-25.32243558626349
 20
-6.087989503409119
 30
0.0
  0
VERTEX
  5
402
330
75
100
AcDbEntity
  8
DEFAULT
100
AcDbVertex
100
AcDb2dVertex
 10
-25.70451673521953
 20
-6.132233002458983
 30
0.0
  0
VERTEX
  5
403
330
75
100
AcDbEntity
  8
DEFAULT
100
AcDbVertex
100
AcDb2dVertex
 10
-25.77458702003734
 20
-6.142360482112461
 30
0.0
  0
VERTEX
  5
404
330
75
100
AcDbEntity
  8
DEFAULT
100
AcDbVertex
100
AcDb2dVertex
 10
-25.83849175918111
 20
-6.153447046648569
 30
0.0
  0
VERTEX
  5
405
330
75
100
AcDbEntity
  8
DEFAULT
100
AcDbVertex
100
AcDb2dVertex
 10
-25.86862443645336
 20
-6.159457026471117
 30
0.0
  0
VERTEX
  5
406
330
75
100
AcDbEntity
  8
DEFAULT
100
AcDbVertex
100
AcDb2dVertex
 10
-25.89780659210086
 20
-6.165835226382531
 30
0.0
  0
VERTEX
  5
407
330
75
100
AcDbEntity
  8
DEFAULT
100
AcDbVertex
100
AcDb2dVertex
 10
-25.95412999360099
 20
-6.17975337485783
 30
0.0
  0
VERTEX
  5
408
330
75
100
AcDbEntity
  8
DEFAULT
100
AcDbVertex
100
AcDb2dVertex
 10
-26.31265647454674
 20
-6.282306951236123
 30
0.0
  0
VERTEX
  5
409
330
75
100
AcDbEntity
  8
DEFAULT
100
AcDbVertex
100
AcDb2dVertex
 10
-26.37935854459818
 20
-6.303212718142008
 30
0.0
  0
VERTEX
  5
40A
330
75
100
AcDbEntity
  8
DEFAULT
100
AcDbVertex
100
AcDb2dVertex
 10
-26.44654304845394
 20
-6.326310593860545
 30
0.0
  0
VERTEX
  5
40B
330
75
100
AcDbEntity
  8
DEFAULT
100
AcDbVertex
100
AcDb2dVertex
 10
-26.51566307025297
 20
-6.35207969480912
 30
0.0
  0
VERTEX
  5
40C
330
75
100
AcDbEntity
  8
DEFAULT
100
AcDbVertex
100
AcDb2dVertex
 10
-26.66745173945406
 20
-6.413547697246779
 30
0.0
  0
VERTEX
  5
40D
330
75
100
AcDbEntity
  8
DEFAULT
100
AcDbVertex
100
AcDb2dVertex
 10
-26.7518338290423
 20
-6.449733972831729
 30
0.0
  0
VERTEX
  5
40E
330
75
100
AcDbEntity
  8
DEFAULT
100
AcDbVertex
100
AcDb2dVertex
 10
-26.79348751192043
 20
-6.468634886836083
 30
0.0
  0
VERTEX
  5
40F
330
75
100
AcDbEntity
  8
DEFAULT
100
AcDbVertex
100
AcDb2dVertex
 10
-26.83294794614474
 20
-6.487683468521122
 30
0.0
  0
VERTEX
  5
410
330
75
100
AcDbEntity
  8
DEFAULT
100
AcDbVertex
100
AcDb2dVertex
 10
-26.85142561515785
 20
-6.497171529323453
 30
0.0
  0
VERTEX
  5
411
330
75
100
AcDbEntity
  8
DEFAULT
100
AcDbVertex
100
AcDb2dVertex
 10
-26.86883887618286
 20
-6.506586580541423
 30
0.0
  0
VERTEX
  5
412
330
75
100
AcDbEntity
  8
DEFAULT
100
AcDbVertex
100
AcDb2dVertex
 10
-26.88501569727824
 20
-6.515891980006852
 30
0.0
  0
VERTEX
  5
413
330
75
100
AcDbEntity
  8
DEFAULT
100
AcDbVertex
100
AcDb2dVertex
 10
-26.89258668287058
 20
-6.520492109654809
 30
0.0
  0
VERTEX
  5
414
330
75
100
AcDbEntity
  8
DEFAULT
100
AcDbVertex
100
AcDb2dVertex
 10
-26.89978404650243
 20
-6.525051085551564
 30
0.0
  0
VERTEX
  5
415
330
75
100
AcDbEntity
  8
DEFAULT
100
AcDbVertex
100
AcDb2dVertex
 10
-26.9065862841811
 20
-6.529564327426096
 30
0.0
  0
VERTEX
  5
416
330
75
100
AcDbEntity
  8
DEFAULT
100
AcDbVertex
100
AcDb2dVertex
 10
-26.91297189191389
 20
-6.534027255007381
 30
0.0
  0
VERTEX
  5
417
330
75
100
AcDbEntity
  8
DEFAULT
100
AcDbVertex
100
AcDb2dVertex
 10
-26.91891936570812
 20
-6.538435288024396
 30
0.0
  0
VERTEX
  5
418
330
75
100
AcDbEntity
  8
DEFAULT
100
AcDbVertex
100
AcDb2dVertex
 10
-26.92440720157107
 20
-6.54278384620612
 30
0.0
  0
VERTEX
  5
419
330
75
100
AcDbEntity
  8
DEFAULT
100
AcDbVertex
100
AcDb2dVertex
 10
-26.92697203528061
 20
-6.544934390899055
 30
0.0
  0
VERTEX
  5
41A
330
75
100
AcDbEntity
  8
DEFAULT
100
AcDbVertex
100
AcDb2dVertex
 10
-26.92941389551008
 20
-6.547068349281532
 30
0.0
  0
VERTEX
  5
41B
330
75
100
AcDbEntity
  8
DEFAULT
100
AcDbVertex
100
AcDb2dVertex
 10
-26.93173009426038
 20
-6.549185148819676
 30
0.0
  0
VERTEX
  5
41C
330
75
100
AcDbEntity
  8
DEFAULT
100
AcDbVertex
100
AcDb2dVertex
 10
-26.93391794353243
 20
-6.551284216979608
 30
0.0
  0
VERTEX
  5
41D
330
75
100
AcDbEntity
  8
DEFAULT
100
AcDbVertex
100
AcDb2dVertex
 10
-26.93597475532715
 20
-6.553364981227451
 30
0.0
  0
VERTEX
  5
41E
330
75
100
AcDbEntity
  8
DEFAULT
100
AcDbVertex
100
AcDb2dVertex
 10
-26.93789784164544
 20
-6.555426869029327
 30
0.0
  0
VERTEX
  5
41F
330
75
100
AcDbEntity
  8
DEFAULT
100
AcDbVertex
100
AcDb2dVertex
 10
-26.93968451448823
 20
-6.557469307851359
 30
0.0
  0
VERTEX
  5
420
330
75
100
AcDbEntity
  8
DEFAULT
100
AcDbVertex
100
AcDb2dVertex
 10
-26.94052585585659
 20
-6.558483054978096
 30
0.0
  0
SEQEND
  5
421
330
75
100
AcDbEntity
  8
DEFAULT
  0
POLYLINE
  5
422
330
1F
100
AcDbEntity
  8
DEFAULT
100
AcDb2dPolyline
 66
     1
 10
0.0
 20
0.0
 30
0.0
 70
     1
  0
VERTEX
  5
423
330
422
100
AcDbEntity
  8
DEFAULT
100
AcDbVertex
100
AcDb2dVertex
 10
-6.083695963444807
 20
-3.273478465634247
 30
0.0
  0
VERTEX
  5
424
330
422
100
AcDbEntity
  8
DEFAULT
100
AcDbVertex
100
AcDb2dVertex
 10
-6.040695963444808
 20
-3.273478465634247
 30
0.0
  0
VERTEX
  5
425
330
422
100
AcDbEntity
  8
DEFAULT
100
AcDbVertex
100
AcDb2dVertex
 10
-6.040695963444808
 20
-2.828478465634247
 30
0.0
  0
VERTEX
  5
426
330
422
100
AcDbEntity
  8
DEFAULT
100
AcDbVertex
100
AcDb2dVertex
 10
-6.083695963444807
 20
-2.828478465634247
 30
0.0
  0
SEQEND
  5
427
330
422
100
AcDbEntity
  8
DEFAULT
  0
POLYLINE
  5
428
330
1F
100
AcDbEntity
  8
DEFAULT
100
AcDb2dPolyline
 66
     1
 10
0.0
 20
0.0
 30
0.0
 70
     1
  0
VERTEX
  5
429
330
428
100
AcDbEntity
  8
DEFAULT
100
AcDbVertex
100
AcDb2dVertex
 10
-4.580890006018929
 20
-3.26777559502725
 30
0.0
  0
VERTEX
  5
42A
330
428
100
AcDbEntity
  8
DEFAULT
100
AcDbVertex
100
AcDb2dVertex
 10
-4.537890006018928
 20
-3.26777559502725
 30
0.0
  0
VERTEX
  5
42B
330
428
100
AcDbEntity
  8
DEFAULT
100
AcDbVertex
100
AcDb2dVertex
 10
-4.537890006018928
 20
-2.82277559502725
 30
0.0
  0
VERTEX
  5
42C
330
428
100
AcDbEntity
  8
DEFAULT
100
AcDbVertex
100
AcDb2dVertex
 10
-4.580890006018929
 20
-2.82277559502725
 30
0.0
  0
SEQEND
  5
42D
330
428
100
AcDbEntity
  8
DEFAULT
  0
POLYLINE
  5
42E
330
1F
100
AcDbEntity
  8
DEFAULT
100
AcDb2dPolyline
 66
     1
 10
0.0
 20
0.0
 30
0.0
 70
     1
  0
VERTEX
  5
42F
330
42E
100
AcDbEntity
  8
DEFAULT
100
AcDbVertex
100
AcDb2dVertex
 10
-20.59640964552607
 20
-8.005810545305138
 30
0.0
  0
VERTEX
  5
430
330
42E
100
AcDbEntity
  8
DEFAULT
100
AcDbVertex
100
AcDb2dVertex
 10
-20.41640964552607
 20
-8.005810545305138
 30
0.0
  0
VERTEX
  5
431
330
42E
100
AcDbEntity
  8
DEFAULT
100
AcDbVertex
100
AcDb2dVertex
 10
-20.41640964552607
 20
-7.527810545305139
 30
0.0
  0
VERTEX
  5
432
330
42E
100
AcDbEntity
  8
DEFAULT
100
AcDbVertex
100
AcDb2dVertex
 10
-20.59640964552607
 20
-7.527810545305139
 30
0.0
  0
SEQEND
  5
433
330
42E
100
AcDbEntity
  8
DEFAULT
  0
POLYLINE
  5
434
330
1F
100
AcDbEntity
  8
DEFAULT
100
AcDb2dPolyline
 66
     1
 10
0.0
 20
0.0
 30
0.0
 70
     1
  0
VERTEX
  5
435
330
434
100
AcDbEntity
  8
DEFAULT
100
AcDbVertex
100
AcDb2dVertex
 10
-18.83282519891976
 20
-8.170205019640115
 30
0.0
  0
VERTEX
  5
436
330
434
100
AcDbEntity
  8
DEFAULT
100
AcDbVertex
100
AcDb2dVertex
 10
-18.65282519891976
 20
-8.170205019640115
 30
0.0
  0
VERTEX
  5
437
330
434
100
AcDbEntity
  8
DEFAULT
100
AcDbVertex
100
AcDb2dVertex
 10
-18.65282519891976
 20
-7.692205019640112
 30
0.0
  0
VERTEX
  5
438
330
434
100
AcDbEntity
  8
DEFAULT
100
AcDbVertex
100
AcDb2dVertex
 10
-18.83282519891976
 20
-7.692205019640112
 30
0.0
  0
SEQEND
  5
439
330
434
100
AcDbEntity
  8
DEFAULT
  0
POLYLINE
  5
43A
330
1F
100
AcDbEntity
  8
DEFAULT
100
AcDb2dPolyline
 66
     1
 10
0.0
 20
0.0
 30
0.0
 70
     1
  0
VERTEX
  5
43B
330
43A
100
AcDbEntity
  8
DEFAULT
100
AcDbVertex
100
AcDb2dVertex
 10
-22.09747325738557
 20
-8.220060770694353
 30
0.0
  0
VERTEX
  5
43C
330
43A
100
AcDbEntity
  8
DEFAULT
100
AcDbVertex
100
AcDb2dVertex
 10
-22.09630811313215
 20
-8.040064541736996
 30
0.0
  0
VERTEX
  5
43D
330
43A
100
AcDbEntity
  8
DEFAULT
100
AcDbVertex
100
AcDb2dVertex
 10
-22.5742980989189
 20
-8.036970436441816
 30
0.0
  0
VERTEX
  5
43E
330
43A
100
AcDbEntity
  8
DEFAULT
100
AcDbVertex
100
AcDb2dVertex
 10
-22.57546324317232
 20
-8.21696666539917
 30
0.0
  0
SEQEND
  5
43F
330
43A
100
AcDbEntity
  8
DEFAULT
  0
ENDSEC
  0
SECTION
  2
OBJECTS
  0
DICTIONARY
  5
C
330
0
100
AcDbDictionary
  3
ACAD_GROUP
350
D
  3
ACAD_LAYOUT
350
1A
  3
ACAD_MATERIAL
350
43
  3
ACAD_MLEADERSTYLE
350
6B
  3
ACAD_MLINESTYLE
350
17
  3
ACAD_PLOTSETTINGS
350
19
  3
ACAD_SCALELIST
350
47
  3
ACAD_VISUALSTYLE
350
2A
  3
ACDBHEADERROUNDTRIPXREC
350
440
  3
ACDBVARIABLEDICTIONARY
350
461
  0
DICTIONARY
  5
468
330
8
100
AcDbDictionary
280
     1
  3
ACAD_XREC_ROUNDTRIP
360
469
  0
DICTIONARY
  5
D
102
{ACAD_REACTORS
330
C
102
}
330
C
100
AcDbDictionary
  0
DICTIONARY
  5
1A
102
{ACAD_REACTORS
330
C
102
}
330
C
100
AcDbDictionary
  0
DICTIONARY
  5
43
102
{ACAD_REACTORS
330
C
102
}
330
C
100
AcDbDictionary
  3
BYBLOCK
350
45
  3
BYLAYER
350
44
  3
GLOBAL
350
46
  0
DICTIONARY
  5
6B
102
{ACAD_REACTORS
330
C
102
}
330
C
100
AcDbDictionary
  3
STANDARD
350
6C
  0
DICTIONARY
  5
17
102
{ACAD_REACTORS
330
C
102
}
330
C
100
AcDbDictionary
  3
STANDARD
350
18
  0
DICTIONARY
  5
19
102
{ACAD_REACTORS
330
C
102
}
330
C
100
AcDbDictionary
  0
DICTIONARY
  5
47
102
{ACAD_REACTORS
330
C
102
}
330
C
100
AcDbDictionary
  3
A0
350
48
  3
A1
350
49
  3
A2
350
4A
  3
A3
350
4B
  3
A4
350
4C
  3
A5
350
4D
  3
A6
350
4E
  3
A7
350
4F
  3
A8
350
50
  3
A9
350
51
  3
B0
350
52
  3
B1
350
53
  3
B2
350
54
  3
B3
350
55
  3
B4
350
56
  3
B5
350
57
  3
B6
350
58
  3
B7
350
59
  3
B8
350
5A
  3
B9
350
5B
  3
C0
350
5C
  3
C1
350
5D
  3
C2
350
5E
  3
C3
350
5F
  3
C4
350
60
  3
C5
350
61
  3
C6
350
62
  3
C7
350
63
  3
C8
350
64
  3
C9
350
65
  3
D0
350
66
  3
D1
350
67
  3
D2
350
68
  0
DICTIONARY
  5
2A
102
{ACAD_REACTORS
330
C
102
}
330
C
100
AcDbDictionary
  3
2DWIREFRAME
350
2F
  3
BASIC
350
32
  3
BRIGHTEN
350
36
  3
COLORCHANGE
350
3A
  3
CONCEPTUAL
350
34
  3
DIM
350
35
  3
EDGECOLOROFF
350
3D
  3
FACEPATTERN
350
39
  3
FLAT
350
2B
  3
FLATWITHEDGES
350
2C
  3
GOURAUD
350
2D
  3
GOURAUDWITHEDGES
350
2E
  3
HIDDEN
350
31
  3
JITTEROFF
350
3B
  3
LINEPATTERN
350
38
  3
OVERHANGOFF
350
3C
  3
REALISTIC
350
33
  3
SHADED
350
42
  3
SHADED_WITH_EDGES
350
41
  3
SHADES_OF_GRAY
350
3E
  3
SKETCHY
350
3F
  3
THICKEN
350
37
  3
WIREFRAME
350
30
  3
X-RAY
350
40
  0
DICTIONARY
  5
440
102
{ACAD_REACTORS
330
C
102
}
330
C
100
AcDbDictionary
  3
CEPSNID
350
44A
  3
CEPSNTYPE
350
449
  3
DIMSTYLEDATA
350
460
  3
FINGERPRINTGUID
350
44B
  3
HYPERLINKBASE
350
443
  3
INSUNITS
350
448
  3
LAYOUTDICT
350
445
  3
LWETCUNION
350
447
  3
PLOTSETDICT
350
446
  3
PSVPSCALE
350
44D
  3
PUCSBASE
350
450
  3
PUCSORGBACK
350
456
  3
PUCSORGBOTTOM
350
452
  3
PUCSORGFRONT
350
455
  3
PUCSORGLEFT
350
453
  3
PUCSORGRIGHT
350
454
  3
PUCSORGTOP
350
451
  3
PUCSORTHOREF
350
44E
  3
PUCSORTHOVIEW
350
44F
  3
STYLESHEET
350
444
  3
TSTACKALIGN
350
441
  3
TSTACKSIZE
350
442
  3
UCSBASE
350
459
  3
UCSORGBACK
350
45F
  3
UCSORGBOTTOM
350
45B
  3
UCSORGFRONT
350
45E
  3
UCSORGLEFT
350
45C
  3
UCSORGRIGHT
350
45D
  3
UCSORGTOP
350
45A
  3
UCSORTHOREF
350
457
  3
UCSORTHOVIEW
350
458
  3
VERSIONGUID
350
44C
  0
DICTIONARY
  5
461
102
{ACAD_REACTORS
330
C
102
}
330
C
100
AcDbDictionary
  3
CANNOSCALE
350
46A
  3
CMLEADERSTYLE
350
463
  3
CTABLESTYLE
350
462
  3
DIMASSOC
350
466
  3
HIDETEXT
350
467
  3
MSLTSCALE
350
46B
  0
XRECORD
  5
469
102
{ACAD_REACTORS
330
468
102
}
330
468
100
AcDbXrecord
102
VTR_0.000_0.000_1.000_1.000_VISUALSTYLE
340
2F
102
VTR_0.000_0.000_1.000_1.000_GRIDDISPLAY
 70
     3
102
VTR_0.000_0.000_1.000_1.000_GRIDMAJOR
 70
     5
102
VTR_0.000_0.000_1.000_1.000_DEFAULTLIGHTING
280
     1
102
VTR_0.000_0.000_1.000_1.000_DEFAULTLIGHTINGTYPE
 70
     1
102
VTR_0.000_0.000_1.000_1.000_BRIGHTNESS
141
0.0
102
VTR_0.000_0.000_1.000_1.000_CONTRAST
142
0.0
  0
MATERIAL
  5
45
102
{ACAD_REACTORS
330
43
102
}
102
{ACAD_XDICTIONARY
360
46E
102
}
330
43
100
AcDbMaterial
  1
BYBLOCK
  0
MATERIAL
  5
44
102
{ACAD_REACTORS
330
43
102
}
102
{ACAD_XDICTIONARY
360
46C
102
}
330
43
100
AcDbMaterial
  1
BYLAYER
  0
MATERIAL
  5
46
102
{ACAD_REACTORS
330
43
102
}
102
{ACAD_XDICTIONARY
360
470
102
}
330
43
100
AcDbMaterial
  1
GLOBAL
  0
ACAD_PROXY_OBJECT
  5
6C
102
{ACAD_REACTORS
330
6B
102
}
330
6B
100
AcDbProxyObject
 90
      499
 91
      505
 93
      610
310
40901902A4063FBFFFFFE056BD1B81E855B9FC0AD7A3703D0AD73F4214DD185B99185C9900AD7A3703D0AC73F90141901A02B5E8DC0F42B1CFC02B5E8DC0F42B1CFE5764000000000000300FC0
340
14
340
0
340
11
340
0
 94
        0
1001
ACAD_MLEADERVER
1070
     2
  0
MLINESTYLE
  5
18
102
{ACAD_REACTORS
330
17
102
}
330
17
100
AcDbMlineStyle
  2
Standard
 70
     0
  3

 62
   256
 51
90.0
 52
90.0
 71
     2
 49
0.5
 62
   256
  6
BYLAYER
 49
-0.5
 62
   256
  6
BYLAYER
  0
ACAD_PROXY_OBJECT
  5
48
102
{ACAD_REACTORS
330
47
102
}
330
47
100
AcDbProxyObject
 90
      499
 91
      503
 93
       41
310
903313A31580
  0
ACAD_PROXY_OBJECT
  5
49
102
{ACAD_REACTORS
330
47
102
}
330
47
100
AcDbProxyObject
 90
      499
 91
      503
 93
      105
310
903313A324000000000000004000
  0
ACAD_PROXY_OBJECT
  5
4A
102
{ACAD_REACTORS
330
47
102
}
330
47
100
AcDbProxyObject
 90
      499
 91
      503
 93
      105
310
903313A344000000000000104000
  0
ACAD_PROXY_OBJECT
  5
4B
102
{ACAD_REACTORS
330
47
102
}
330
47
100
AcDbProxyObject
 90
      499
 91
      503
 93
      105
310
903313A354000000000000144000
  0
ACAD_PROXY_OBJECT
  5
4C
102
{ACAD_REACTORS
330
47
102
}
330
47
100
AcDbProxyObject
 90
      499
 91
      503
 93
      105
310
903313A384000000000000204000
  0
ACAD_PROXY_OBJECT
  5
4D
102
{ACAD_REACTORS
330
47
102
}
330
47
100
AcDbProxyObject
 90
      499
 91
      503
 93
      113
310
904313A31304000000000000244000
  0
ACAD_PROXY_OBJECT
  5
4E
102
{ACAD_REACTORS
330
47
102
}
330
47
100
AcDbProxyObject
 90
      499
 91
      503
 93
      113
310
904313A31364000000000000304000
  0
ACAD_PROXY_OBJECT
  5
4F
102
{ACAD_REACTORS
330
47
102
}
330
47
100
AcDbProxyObject
 90
      499
 91
      503
 93
      113
310
904313A32304000000000000344000
  0
ACAD_PROXY_OBJECT
  5
50
102
{ACAD_REACTORS
330
47
102
}
330
47
100
AcDbProxyObject
 90
      499
 91
      503
 93
      113
310
904313A333040000000000003E4000
  0
ACAD_PROXY_OBJECT
  5
51
102
{ACAD_REACTORS
330
47
102
}
330
47
100
AcDbProxyObject
 90
      499
 91
      503
 93
      113
310
904313A34304000000000000444000
  0
ACAD_PROXY_OBJECT
  5
52
102
{ACAD_REACTORS
330
47
102
}
330
47
100
AcDbProxyObject
 90
      499
 91
      503
 93
      113
310
904313A35304000000000000494000
  0
ACAD_PROXY_OBJECT
  5
53
102
{ACAD_REACTORS
330
47
102
}
330
47
100
AcDbProxyObject
 90
      499
 91
      503
 93
      121
310
905313A3130304000000000000594000
  0
ACAD_PROXY_OBJECT
  5
54
102
{ACAD_REACTORS
330
47
102
}
330
47
100
AcDbProxyObject
 90
      499
 91
      503
 93
      105
310
903323A310000000000000010100
  0
ACAD_PROXY_OBJECT
  5
55
102
{ACAD_REACTORS
330
47
102
}
330
47
100
AcDbProxyObject
 90
      499
 91
      503
 93
      105
310
903343A310000000000000410100
  0
ACAD_PROXY_OBJECT
  5
56
102
{ACAD_REACTORS
330
47
102
}
330
47
100
AcDbProxyObject
 90
      499
 91
      503
 93
      105
310
903383A310000000000000810100
  0
ACAD_PROXY_OBJECT
  5
57
102
{ACAD_REACTORS
330
47
102
}
330
47
100
AcDbProxyObject
 90
      499
 91
      503
 93
      113
310
90431303A310000000000000910100
  0
ACAD_PROXY_OBJECT
  5
58
102
{ACAD_REACTORS
330
47
102
}
330
47
100
AcDbProxyObject
 90
      499
 91
      503
 93
      121
310
9053130303A310000000000001650100
  0
ACAD_PROXY_OBJECT
  5
59
102
{ACAD_REACTORS
330
47
102
}
330
47
100
AcDbProxyObject
 90
      499
 91
      503
 93
      257
310
90E312F31323822203D2031272D3022000000000000200FC000000000000284000
  0
ACAD_PROXY_OBJECT
  5
5A
102
{ACAD_REACTORS
330
47
102
}
330
47
100
AcDbProxyObject
 90
      499
 91
      503
 93
      249
310
90D312F363422203D2031272D3022000000000000240FC000000000000284000
  0
ACAD_PROXY_OBJECT
  5
5B
102
{ACAD_REACTORS
330
47
102
}
330
47
100
AcDbProxyObject
 90
      499
 91
      503
 93
      249
310
90D312F333222203D2031272D3022000000000000280FC000000000000284000
  0
ACAD_PROXY_OBJECT
  5
5C
102
{ACAD_REACTORS
330
47
102
}
330
47
100
AcDbProxyObject
 90
      499
 91
      503
 93
      249
310
90D312F313622203D2031272D30220000000000002C0FC000000000000284000
  0
ACAD_PROXY_OBJECT
  5
5D
102
{ACAD_REACTORS
330
47
102
}
330
47
100
AcDbProxyObject
 90
      499
 91
      503
 93
      249
310
90D332F333222203D2031272D30220000000000002E0FC000000000000284000
  0
ACAD_PROXY_OBJECT
  5
5E
102
{ACAD_REACTORS
330
47
102
}
330
47
100
AcDbProxyObject
 90
      499
 91
      503
 93
      241
310
90C312F3822203D2031272D3022000000000000300FC000000000000284000
  0
ACAD_PROXY_OBJECT
  5
5F
102
{ACAD_REACTORS
330
47
102
}
330
47
100
AcDbProxyObject
 90
      499
 91
      503
 93
      249
310
90D332F313622203D2031272D3022000000000000320FC000000000000284000
  0
ACAD_PROXY_OBJECT
  5
60
102
{ACAD_REACTORS
330
47
102
}
330
47
100
AcDbProxyObject
 90
      499
 91
      503
 93
      241
310
90C312F3422203D2031272D3022000000000000340FC000000000000284000
  0
ACAD_PROXY_OBJECT
  5
61
102
{ACAD_REACTORS
330
47
102
}
330
47
100
AcDbProxyObject
 90
      499
 91
      503
 93
      241
310
90C332F3822203D2031272D3022000000000000360FC000000000000284000
  0
ACAD_PROXY_OBJECT
  5
62
102
{ACAD_REACTORS
330
47
102
}
330
47
100
AcDbProxyObject
 90
      499
 91
      503
 93
      241
310
90C312F3222203D2031272D3022000000000000380FC000000000000284000
  0
ACAD_PROXY_OBJECT
  5
63
102
{ACAD_REACTORS
330
47
102
}
330
47
100
AcDbProxyObject
 90
      499
 91
      503
 93
      241
310
90C332F3422203D2031272D30220000000000003A0FC000000000000284000
  0
ACAD_PROXY_OBJECT
  5
64
102
{ACAD_REACTORS
330
47
102
}
330
47
100
AcDbProxyObject
 90
      499
 91
      503
 93
      161
310
90A3122203D2031272D30224000000000000284000
  0
ACAD_PROXY_OBJECT
  5
65
102
{ACAD_REACTORS
330
47
102
}
330
47
100
AcDbProxyObject
 90
      499
 91
      503
 93
      257
310
90E312D312F3222203D2031272D30220000000000003E0FC000000000000284000
  0
ACAD_PROXY_OBJECT
  5
66
102
{ACAD_REACTORS
330
47
102
}
330
47
100
AcDbProxyObject
 90
      499
 91
      503
 93
      225
310
90A3322203D2031272D302200000000000002100000000000000284000
  0
ACAD_PROXY_OBJECT
  5
67
102
{ACAD_REACTORS
330
47
102
}
330
47
100
AcDbProxyObject
 90
      499
 91
      503
 93
      225
310
90A3622203D2031272D302200000000000006100000000000000284000
  0
ACAD_PROXY_OBJECT
  5
68
102
{ACAD_REACTORS
330
47
102
}
330
47
100
AcDbProxyObject
 90
      499
 91
      503
 93
      249
310
90D31272D3022203D2031272D30220000000000000A100000000000000284000
  0
ACAD_PROXY_OBJECT
  5
2F
102
{ACAD_REACTORS
330
2A
102
}
330
2A
100
AcDbProxyObject
 90
      499
 91
      501
 93
      436
310
42CC9915DA5C99599C985B595049028333333333333E33F0000000000000F90107901411070040501600405405064090741402480A0340
1001
ACAD
1000
AcDbSavedByObjectVersion
1070
     0
  0
ACAD_PROXY_OBJECT
  5
32
102
{ACAD_REACTORS
330
2A
102
}
330
2A
100
AcDbProxyObject
 90
      499
 91
      501
 93
      388
310
4150985CDA58D07406404333333333333E33F0000000000000F90107A41107004050150841D405064090741402480A0350
1001
ACAD
1000
AcDbSavedByObjectVersion
1070
     0
  0
ACAD_PROXY_OBJECT
  5
36
102
{ACAD_REACTORS
330
2A
102
}
330
2A
100
AcDbProxyObject
 90
      499
 91
      501
 93
      428
310
42109C9A59DA1D195B90C409028333333333333E33F0000000000000F9010790141107004050150841D405064090741402480A029950
1001
ACAD
1000
AcDbSavedByObjectVersion
1070
     0
  0
ACAD_PROXY_OBJECT
  5
3A
102
{ACAD_REACTORS
330
2A
102
}
330
2A
100
AcDbProxyObject
 90
      499
 91
      501
 93
      452
310
42D0DBDB1BDC90DA185B99D95104090240C333333333333E33F0000000000000F90108901411070040501508421405064090741402480A0350
1001
ACAD
1000
AcDbSavedByObjectVersion
1070
     0
  0
ACAD_PROXY_OBJECT
  5
34
102
{ACAD_REACTORS
330
2A
102
}
330
2A
100
AcDbProxyObject
 90
      499
 91
      501
 93
      500
310
4290DBDB98D95C1D1D585B10940D028333333333333E33F0000000000000F90107902409070040501000000000018199010841D405064090740C02480A0340
1001
ACAD
1000
AcDbSavedByObjectVersion
1070
     0
  0
ACAD_PROXY_OBJECT
  5
35
102
{ACAD_REACTORS
330
2A
102
}
330
2A
100
AcDbProxyObject
 90
      499
 91
      501
 93
      412
310
40D11A5B50B409028333333333333E33F0000000000000F9010790141107004050150841D405064090741402480A02677FFFFFD0
1001
ACAD
1000
AcDbSavedByObjectVersion
1070
     0
  0
ACAD_PROXY_OBJECT
  5
3D
102
{ACAD_REACTORS
330
2A
102
}
330
2A
100
AcDbProxyObject
 90
      499
 91
      501
 93
      452
310
43115919D950DBDB1BDC93D999916409028333333333333E33F0000000000000F9010790141107004050150841D405064090741402480A0350
1001
ACAD
1000
AcDbSavedByObjectVersion
1070
     0
  0
ACAD_PROXY_OBJECT
  5
39
102
{ACAD_REACTORS
330
2A
102
}
330
2A
100
AcDbProxyObject
 90
      499
 91
      501
 93
      444
310
42D19858D95C185D1D195C9B90F409028333333333333E33F0000000000000F9010790141107004050150841D405064090741402480A0350
1001
ACAD
1000
AcDbSavedByObjectVersion
1070
     0
  0
ACAD_PROXY_OBJECT
  5
2B
102
{ACAD_REACTORS
330
2A
102
}
330
2A
100
AcDbProxyObject
 90
      499
 91
      501
 93
      380
310
41119B185D240901404333333333333E33F0000000000000F9010740A907004050150841D405064090741402480A1B50
1001
ACAD
1000
AcDbSavedByObjectVersion
1070
     0
  0
ACAD_PROXY_OBJECT
  5
2C
102
{ACAD_REACTORS
330
2A
102
}
330
2A
100
AcDbProxyObject
 90
      499
 91
      501
 93
      468
310
43519B185D15DA5D1A115919D95CD0140901404333333333333E33F0000000000000F90107409019070040501600405405064090741402480A1B50
1001
ACAD
1000
AcDbSavedByObjectVersion
1070
     0
  0
ACAD_PROXY_OBJECT
  5
2D
102
{ACAD_REACTORS
330
2A
102
}
330
2A
100
AcDbProxyObject
 90
      499
 91
      501
 93
      404
310
41D1DBDD5C985D5910240902404333333333333E33F0000000000000F9010740A9070040501641D405064090741402480A1B50
1001
ACAD
1000
AcDbSavedByObjectVersion
1070
     0
  0
ACAD_PROXY_OBJECT
  5
2E
102
{ACAD_REACTORS
330
2A
102
}
330
2A
100
AcDbProxyObject
 90
      499
 91
      501
 93
      492
310
4411DBDD5C985D5915DA5D1A115919D95CD0340902404333333333333E33F0000000000000F90107409019070040501600405405064090741402480A1B50
1001
ACAD
1000
AcDbSavedByObjectVersion
1070
     0
  0
ACAD_PROXY_OBJECT
  5
31
102
{ACAD_REACTORS
330
2A
102
}
330
2A
100
AcDbProxyObject
 90
      499
 91
      501
 93
      476
310
41921A5919195B90640502408333333333333E33F0000000000000F901079024090700405020000000000001110200405405064090740C02480A0340
1001
ACAD
1000
AcDbSavedByObjectVersion
1070
     0
  0
ACAD_PROXY_OBJECT
  5
3B
102
{ACAD_REACTORS
330
2A
102
}
330
2A
100
AcDbProxyObject
 90
      499
 91
      501
 93
      428
310
42529A5D1D195C93D999914409028333333333333E33F0000000000000F9010790141107004050150A41D405064090741402480A0350
1001
ACAD
1000
AcDbSavedByObjectVersion
1070
     0
  0
ACAD_PROXY_OBJECT
  5
38
102
{ACAD_REACTORS
330
2A
102
}
330
2A
100
AcDbProxyObject
 90
      499
 91
      501
 93
      444
310
42D31A5B995C185D1D195C9B90E409028333333333333E33F0000000000000F9010790141107004050750841D405064090741402483A0350
1001
ACAD
1000
AcDbSavedByObjectVersion
1070
     0
  0
ACAD_PROXY_OBJECT
  5
3C
102
{ACAD_REACTORS
330
2A
102
}
330
2A
100
AcDbProxyObject
 90
      499
 91
      501
 93
      444
310
42D3DD995C9A185B99D3D999915409028333333333333E33F0000000000000F9010790141107004050150941D405064090741402480A0350
1001
ACAD
1000
AcDbSavedByObjectVersion
1070
     0
  0
ACAD_PROXY_OBJECT
  5
33
102
{ACAD_REACTORS
330
2A
102
}
330
2A
100
AcDbProxyObject
 90
      499
 91
      501
 93
      428
310
425499585B1A5CDD1A58D08409038333333333333E33F0000000000000F9010740A907004050150800405405064090740C02480A1B40
1001
ACAD
1000
AcDbSavedByObjectVersion
1070
     0
  0
ACAD_PROXY_OBJECT
  5
42
102
{ACAD_REACTORS
330
2A
102
}
330
2A
100
AcDbProxyObject
 90
      499
 91
      501
 93
      420
310
4194DA1859195911B40902404333333333333E33F0000000000000F9010740A41107004050150800405405064090840C02480A0B40
1001
ACAD
1000
AcDbSavedByObjectVersion
1070
     0
  0
ACAD_PROXY_OBJECT
  5
41
102
{ACAD_REACTORS
330
2A
102
}
330
2A
100
AcDbProxyObject
 90
      499
 91
      501
 93
      516
310
4454DA18591959081DDA5D1A08195919D95CD1A40902404333333333333E33F0000000000000F901074090142907004050250800405405064090740C02480A0B40
1001
ACAD
1000
AcDbSavedByObjectVersion
1070
     0
  0
ACAD_PROXY_OBJECT
  5
3E
102
{ACAD_REACTORS
330
2A
102
}
330
2A
100
AcDbProxyObject
 90
      499
 91
      501
 93
      532
310
4394DA1859195CC81BD98811DC985E5174090240C333333333333E33F0000000000000F901079024090741D01000000000000111010841D405064090740C02480A0340
1001
ACAD
1000
AcDbSavedByObjectVersion
1070
     0
  0
ACAD_PROXY_OBJECT
  5
3F
102
{ACAD_REACTORS
330
2A
102
}
330
2A
100
AcDbProxyObject
 90
      499
 91
      501
 93
      476
310
41D4DAD95D18DA1E51840502408333333333333E33F0000000000000F901079024090741D01000000000000111010B41D405064090741802480A0340
1001
ACAD
1000
AcDbSavedByObjectVersion
1070
     0
  0
ACAD_PROXY_OBJECT
  5
37
102
{ACAD_REACTORS
330
2A
102
}
330
2A
100
AcDbProxyObject
 90
      499
 91
      501
 93
      412
310
41D51A1A58DAD95B90D409028333333333333E33F0000000000000F9010790141107004050150C41D405064090741402480A0350
1001
ACAD
1000
AcDbSavedByObjectVersion
1070
     0
  0
ACAD_PROXY_OBJECT
  5
30
102
{ACAD_REACTORS
330
2A
102
}
330
2A
100
AcDbProxyObject
 90
      499
 91
      501
 93
      420
310
4255DA5C99599C985B595059028333333333333E33F0000000000000F90107901411070040501600405405064090740C02480A0340
1001
ACAD
1000
AcDbSavedByObjectVersion
1070
     0
  0
ACAD_PROXY_OBJECT
  5
40
102
{ACAD_REACTORS
330
2A
102
}
330
2A
100
AcDbProxyObject
 90
      499
 91
      501
 93
      404
310
41560B54985E51940902404000000000000E03F0000000000000F9010740501907004050150841D405064090740C02480A1B40
1001
ACAD
1000
AcDbSavedByObjectVersion
1070
     0
  0
XRECORD
  5
44A
102
{ACAD_REACTORS
330
440
102
}
330
440
100
AcDbXrecord
340
0
  0
XRECORD
  5
449
102
{ACAD_REACTORS
330
440
102
}
330
440
100
AcDbXrecord
 90
        0
  0
XRECORD
  5
460
102
{ACAD_REACTORS
330
440
102
}
330
440
100
AcDbXrecord
1000
DSTYLE
1002
{
1070
   279
 70
     2
1070
   340
340
11
1002
}
  0
XRECORD
  5
44B
102
{ACAD_REACTORS
330
440
102
}
330
440
100
AcDbXrecord
  1
{c558ed22-1cbd-4903-9b3e-c32915339e89}
  0
XRECORD
  5
443
102
{ACAD_REACTORS
330
440
102
}
330
440
100
AcDbXrecord
  1

  0
XRECORD
  5
448
102
{ACAD_REACTORS
330
440
102
}
330
440
100
AcDbXrecord
 90
        1
  0
XRECORD
  5
445
102
{ACAD_REACTORS
330
440
102
}
330
440
100
AcDbXrecord
340
1A
  0
XRECORD
  5
447
102
{ACAD_REACTORS
330
440
102
}
330
440
100
AcDbXrecord
 90
    10781
  0
XRECORD
  5
446
102
{ACAD_REACTORS
330
440
102
}
330
440
100
AcDbXrecord
340
19
  0
XRECORD
  5
44D
102
{ACAD_REACTORS
330
440
102
}
330
440
100
AcDbXrecord
 40
0.0
  0
XRECORD
  5
450
102
{ACAD_REACTORS
330
440
102
}
330
440
100
AcDbXrecord
340
0
  0
XRECORD
  5
456
102
{ACAD_REACTORS
330
440
102
}
330
440
100
AcDbXrecord
 10
0.0
 20
0.0
 30
0.0
  0
XRECORD
  5
452
102
{ACAD_REACTORS
330
440
102
}
330
440
100
AcDbXrecord
 10
0.0
 20
0.0
 30
0.0
  0
XRECORD
  5
455
102
{ACAD_REACTORS
330
440
102
}
330
440
100
AcDbXrecord
 10
0.0
 20
0.0
 30
0.0
  0
XRECORD
  5
453
102
{ACAD_REACTORS
330
440
102
}
330
440
100
AcDbXrecord
 10
0.0
 20
0.0
 30
0.0
  0
XRECORD
  5
454
102
{ACAD_REACTORS
330
440
102
}
330
440
100
AcDbXrecord
 10
0.0
 20
0.0
 30
0.0
  0
XRECORD
  5
451
102
{ACAD_REACTORS
330
440
102
}
330
440
100
AcDbXrecord
 10
0.0
 20
0.0
 30
0.0
  0
XRECORD
  5
44E
102
{ACAD_REACTORS
330
440
102
}
330
440
100
AcDbXrecord
340
0
  0
XRECORD
  5
44F
102
{ACAD_REACTORS
330
440
102
}
330
440
100
AcDbXrecord
 70
     0
  0
XRECORD
  5
444
102
{ACAD_REACTORS
330
440
102
}
330
440
100
AcDbXrecord
  1

  0
XRECORD
  5
441
102
{ACAD_REACTORS
330
440
102
}
330
440
100
AcDbXrecord
 90
        1
  0
XRECORD
  5
442
102
{ACAD_REACTORS
330
440
102
}
330
440
100
AcDbXrecord
 90
       70
  0
XRECORD
  5
459
102
{ACAD_REACTORS
330
440
102
}
330
440
100
AcDbXrecord
340
0
  0
XRECORD
  5
45F
102
{ACAD_REACTORS
330
440
102
}
330
440
100
AcDbXrecord
 10
0.0
 20
0.0
 30
0.0
  0
XRECORD
  5
45B
102
{ACAD_REACTORS
330
440
102
}
330
440
100
AcDbXrecord
 10
0.0
 20
0.0
 30
0.0
  0
XRECORD
  5
45E
102
{ACAD_REACTORS
330
440
102
}
330
440
100
AcDbXrecord
 10
0.0
 20
0.0
 30
0.0
  0
XRECORD
  5
45C
102
{ACAD_REACTORS
330
440
102
}
330
440
100
AcDbXrecord
 10
0.0
 20
0.0
 30
0.0
  0
XRECORD
  5
45D
102
{ACAD_REACTORS
330
440
102
}
330
440
100
AcDbXrecord
 10
0.0
 20
0.0
 30
0.0
  0
XRECORD
  5
45A
102
{ACAD_REACTORS
330
440
102
}
330
440
100
AcDbXrecord
 10
0.0
 20
0.0
 30
0.0
  0
XRECORD
  5
457
102
{ACAD_REACTORS
330
440
102
}
330
440
100
AcDbXrecord
340
0
  0
XRECORD
  5
458
102
{ACAD_REACTORS
330
440
102
}
330
440
100
AcDbXrecord
 70
     0
  0
XRECORD
  5
44C
102
{ACAD_REACTORS
330
440
102
}
330
440
100
AcDbXrecord
  1
{FAEB1C32-E019-11D5-929B-00C0DF256EC4}
  0
DICTIONARYVAR
  5
46A
102
{ACAD_REACTORS
330
461
102
}
330
461
100
DictionaryVariables
280
     0
  1
1:1
  0
DICTIONARYVAR
  5
463
102
{ACAD_REACTORS
330
461
102
}
330
461
100
DictionaryVariables
280
     0
  1
Standard
  0
DICTIONARYVAR
  5
462
102
{ACAD_REACTORS
330
461
102
}
330
461
100
DictionaryVariables
280
     0
  1
Standard
  0
DICTIONARYVAR
  5
466
102
{ACAD_REACTORS
330
461
102
}
330
461
100
DictionaryVariables
280
     0
  1
2
  0
DICTIONARYVAR
  5
467
102
{ACAD_REACTORS
330
461
102
}
330
461
100
DictionaryVariables
280
     0
  1
1
  0
DICTIONARYVAR
  5
46B
102
{ACAD_REACTORS
330
461
102
}
330
461
100
DictionaryVariables
280
     0
  1
1
  0
DICTIONARY
  5
46E
330
45
100
AcDbDictionary
280
     1
  3
ACAD_XREC_ROUNDTRIP
360
46F
  0
DICTIONARY
  5
46C
330
44
100
AcDbDictionary
280
     1
  3
ACAD_XREC_ROUNDTRIP
360
46D
  0
DICTIONARY
  5
470
330
46
100
AcDbDictionary
280
     1
  3
ACAD_XREC_ROUNDTRIP
360
471
  0
XRECORD
  5
46F
102
{ACAD_REACTORS
330
46E
102
}
330
46E
100
AcDbXrecord
102
MATERIAL
148
0.0
149
0.0
149
0.0
 93
        0
 94
      127
282
     0
 72
     1
 77
     1
171
     1
175
     1
179
     1
273
     0
  0
XRECORD
  5
46D
102
{ACAD_REACTORS
330
46C
102
}
330
46C
100
AcDbXrecord
102
MATERIAL
148
0.0
149
0.0
149
0.0
 93
        0
 94
      127
282
     0
 72
     1
 77
     1
171
     1
175
     1
179
     1
273
     0
  0
XRECORD
  5
471
102
{ACAD_REACTORS
330
470
102
}
330
470
100
AcDbXrecord
102
MATERIAL
148
0.0
149
0.0
149
0.0
 93
        0
 94
      127
282
     0
 72
     1
 77
     1
171
     1
175
     1
179
     1
273
     0
  0
ENDSEC
  0
EOF
