  0
SECTION
  2
HEADER
  9
$ACADVER
  1
AC1024
  9
$ACADMAINTVER
 70
     6
  9
$DWGCODEPAGE
  3
ANSI_1252
  9
$INSBASE
 10
0.0
 20
0.0
 30
0.0
  9
$EXTMIN
 10
1.000000000000000E+20
 20
1.000000000000000E+20
 30
1.000000000000000E+20
  9
$EXTMAX
 10
-1.000000000000000E+20
 20
-1.000000000000000E+20
 30
-1.000000000000000E+20
  9
$LIMMIN
 10
0.0
 20
0.0
  9
$LIMMAX
 10
12.0
 20
9.0
  9
$ORTHOMODE
 70
     0
  9
$REGENMODE
 70
     1
  9
$FILLMODE
 70
     1
  9
$QTEXTMODE
 70
     0
  9
$MIRRTEXT
 70
     1
  9
$LTSCALE
 40
1.0
  9
$ATTMODE
 70
     1
  9
$TEXTSIZE
 40
0.2
  9
$TRACEWID
 40
0.05
  9
$TEXTSTYLE
  7
Standard
  9
$CLAYER
  8
0
  9
$CELTYPE
  6
ByLayer
  9
$CECOLOR
 62
   256
  9
$CELTSCALE
 40
1.0
  9
$DISPSILH
 70
     0
  9
$DIMSCALE
 40
1.0
  9
$DIMASZ
 40
0.18
  9
$DIMEXO
 40
0.0625
  9
$DIMDLI
 40
0.38
  9
$DIMRND
 40
0.0
  9
$DIMDLE
 40
0.0
  9
$DIMEXE
 40
0.18
  9
$DIMTP
 40
0.0
  9
$DIMTM
 40
0.0
  9
$DIMTXT
 40
0.18
  9
$DIMCEN
 40
0.09
  9
$DIMTSZ
 40
0.0
  9
$DIMTOL
 70
     0
  9
$DIMLIM
 70
     0
  9
$DIMTIH
 70
     1
  9
$DIMTOH
 70
     1
  9
$DIMSE1
 70
     0
  9
$DIMSE2
 70
     0
  9
$DIMTAD
 70
     0
  9
$DIMZIN
 70
     0
  9
$DIMBLK
  1

  9
$DIMASO
 70
     1
  9
$DIMSHO
 70
     1
  9
$DIMPOST
  1

  9
$DIMAPOST
  1

  9
$DIMALT
 70
     0
  9
$DIMALTD
 70
     2
  9
$DIMALTF
 40
25.4
  9
$DIMLFAC
 40
1.0
  9
$DIMTOFL
 70
     0
  9
$DIMTVP
 40
0.0
  9
$DIMTIX
 70
     0
  9
$DIMSOXD
 70
     0
  9
$DIMSAH
 70
     0
  9
$DIMBLK1
  1

  9
$DIMBLK2
  1

  9
$DIMSTYLE
  2
Standard
  9
$DIMCLRD
 70
     0
  9
$DIMCLRE
 70
     0
  9
$DIMCLRT
 70
     0
  9
$DIMTFAC
 40
1.0
  9
$DIMGAP
 40
0.09
  9
$DIMJUST
 70
     0
  9
$DIMSD1
 70
     0
  9
$DIMSD2
 70
     0
  9
$DIMTOLJ
 70
     1
  9
$DIMTZIN
 70
     0
  9
$DIMALTZ
 70
     0
  9
$DIMALTTZ
 70
     0
  9
$DIMUPT
 70
     0
  9
$DIMDEC
 70
     4
  9
$DIMTDEC
 70
     4
  9
$DIMALTU
 70
     2
  9
$DIMALTTD
 70
     2
  9
$DIMTXSTY
  7
Standard
  9
$DIMAUNIT
 70
     0
  9
$DIMADEC
 70
     0
  9
$DIMALTRND
 40
0.0
  9
$DIMAZIN
 70
     0
  9
$DIMDSEP
 70
    46
  9
$DIMATFIT
 70
     3
  9
$DIMFRAC
 70
     0
  9
$DIMLDRBLK
  1

  9
$DIMLUNIT
 70
     2
  9
$DIMLWD
 70
    -2
  9
$DIMLWE
 70
    -2
  9
$DIMTMOVE
 70
     0
  9
$DIMFXL
 40
1.0
  9
$DIMFXLON
 70
     0
  9
$DIMJOGANG
 40
0.7853981633974483
  9
$DIMTFILL
 70
     0
  9
$DIMTFILLCLR
 70
     0
  9
$DIMARCSYM
 70
     0
  9
$DIMLTYPE
  6

  9
$DIMLTEX1
  6

  9
$DIMLTEX2
  6

  9
$DIMTXTDIRECTION
 70
     0
  9
$LUNITS
 70
     2
  9
$LUPREC
 70
     4
  9
$SKETCHINC
 40
0.1
  9
$FILLETRAD
 40
0.5
  9
$AUNITS
 70
     0
  9
$AUPREC
 70
     0
  9
$MENU
  1
.
  9
$ELEVATION
 40
0.0
  9
$PELEVATION
 40
0.0
  9
$THICKNESS
 40
0.0
  9
$LIMCHECK
 70
     0
  9
$CHAMFERA
 40
0.5
  9
$CHAMFERB
 40
0.5
  9
$CHAMFERC
 40
1.0
  9
$CHAMFERD
 40
0.0
  9
$SKPOLY
 70
     0
  9
$TDCREATE
 40
2458639.952989456
  9
$TDUCREATE
 40
2458640.244656123
  9
$TDUPDATE
 40
2458639.952989491
  9
$TDUUPDATE
 40
2458640.244656157
  9
$TDINDWG
 40
0.0000000116
  9
$TDUSRTIMER
 40
0.0000000116
  9
$USRTIMER
 70
     1
  9
$ANGBASE
 50
0.0
  9
$ANGDIR
 70
     0
  9
$PDMODE
 70
     0
  9
$PDSIZE
 40
0.0
  9
$PLINEWID
 40
0.0
  9
$SPLFRAME
 70
     0
  9
$SPLINETYPE
 70
     6
  9
$SPLINESEGS
 70
     8
  9
$HANDSEED
  5
C1
  9
$SURFTAB1
 70
     6
  9
$SURFTAB2
 70
     6
  9
$SURFTYPE
 70
     6
  9
$SURFU
 70
     6
  9
$SURFV
 70
     6
  9
$UCSBASE
  2

  9
$UCSNAME
  2

  9
$UCSORG
 10
0.0
 20
0.0
 30
0.0
  9
$UCSXDIR
 10
1.0
 20
0.0
 30
0.0
  9
$UCSYDIR
 10
0.0
 20
1.0
 30
0.0
  9
$UCSORTHOREF
  2

  9
$UCSORTHOVIEW
 70
     0
  9
$UCSORGTOP
 10
0.0
 20
0.0
 30
0.0
  9
$UCSORGBOTTOM
 10
0.0
 20
0.0
 30
0.0
  9
$UCSORGLEFT
 10
0.0
 20
0.0
 30
0.0
  9
$UCSORGRIGHT
 10
0.0
 20
0.0
 30
0.0
  9
$UCSORGFRONT
 10
0.0
 20
0.0
 30
0.0
  9
$UCSORGBACK
 10
0.0
 20
0.0
 30
0.0
  9
$PUCSBASE
  2

  9
$PUCSNAME
  2

  9
$PUCSORG
 10
0.0
 20
0.0
 30
0.0
  9
$PUCSXDIR
 10
1.0
 20
0.0
 30
0.0
  9
$PUCSYDIR
 10
0.0
 20
1.0
 30
0.0
  9
$PUCSORTHOREF
  2

  9
$PUCSORTHOVIEW
 70
     0
  9
$PUCSORGTOP
 10
0.0
 20
0.0
 30
0.0
  9
$PUCSORGBOTTOM
 10
0.0
 20
0.0
 30
0.0
  9
$PUCSORGLEFT
 10
0.0
 20
0.0
 30
0.0
  9
$PUCSORGRIGHT
 10
0.0
 20
0.0
 30
0.0
  9
$PUCSORGFRONT
 10
0.0
 20
0.0
 30
0.0
  9
$PUCSORGBACK
 10
0.0
 20
0.0
 30
0.0
  9
$USERI1
 70
     0
  9
$USERI2
 70
     0
  9
$USERI3
 70
     0
  9
$USERI4
 70
     0
  9
$USERI5
 70
     0
  9
$USERR1
 40
0.0
  9
$USERR2
 40
0.0
  9
$USERR3
 40
0.0
  9
$USERR4
 40
0.0
  9
$USERR5
 40
0.0
  9
$WORLDVIEW
 70
     1
  9
$SHADEDGE
 70
     3
  9
$SHADEDIF
 70
    70
  9
$TILEMODE
 70
     1
  9
$MAXACTVP
 70
    64
  9
$PINSBASE
 10
0.0
 20
0.0
 30
0.0
  9
$PLIMCHECK
 70
     0
  9
$PEXTMIN
 10
1.000000000000000E+20
 20
1.000000000000000E+20
 30
1.000000000000000E+20
  9
$PEXTMAX
 10
-1.000000000000000E+20
 20
-1.000000000000000E+20
 30
-1.000000000000000E+20
  9
$PLIMMIN
 10
0.0
 20
0.0
  9
$PLIMMAX
 10
12.0
 20
9.0
  9
$UNITMODE
 70
     0
  9
$VISRETAIN
 70
     1
  9
$PLINEGEN
 70
     0
  9
$PSLTSCALE
 70
     1
  9
$TREEDEPTH
 70
  3020
  9
$CMLSTYLE
  2
Standard
  9
$CMLJUST
 70
     0
  9
$CMLSCALE
 40
1.0
  9
$PROXYGRAPHICS
 70
     1
  9
$MEASUREMENT
 70
     0
  9
$CELWEIGHT
370
    -1
  9
$ENDCAPS
280
     0
  9
$JOINSTYLE
280
     0
  9
$LWDISPLAY
290
     1
  9
$INSUNITS
 70
     1
  9
$HYPERLINKBASE
  1

  9
$STYLESHEET
  1

  9
$XEDIT
290
     1
  9
$CEPSNTYPE
380
     0
  9
$PSTYLEMODE
290
     1
  9
$FINGERPRINTGUID
  2
{C29B89A0-6463-47DB-8B56-0FFAE640D0F3}
  9
$VERSIONGUID
  2
{FAEB1C32-E019-11D5-929B-00C0DF256EC4}
  9
$EXTNAMES
290
     1
  9
$PSVPSCALE
 40
0.0
  9
$OLESTARTUP
290
     0
  9
$SORTENTS
280
   127
  9
$INDEXCTL
280
     0
  9
$HIDETEXT
280
     1
  9
$XCLIPFRAME
280
     2
  9
$HALOGAP
280
     0
  9
$OBSCOLOR
 70
   257
  9
$OBSLTYPE
280
     0
  9
$INTERSECTIONDISPLAY
280
     0
  9
$INTERSECTIONCOLOR
 70
   257
  9
$DIMASSOC
280
     2
  9
$PROJECTNAME
  1

  9
$CAMERADISPLAY
290
     0
  9
$LENSLENGTH
 40
50.0
  9
$CAMERAHEIGHT
 40
0.0
  9
$STEPSPERSEC
 40
2.0
  9
$STEPSIZE
 40
6.0
  9
$3DDWFPREC
 40
2.0
  9
$PSOLWIDTH
 40
0.25
  9
$PSOLHEIGHT
 40
4.0
  9
$LOFTANG1
 40
1.570796326794897
  9
$LOFTANG2
 40
1.570796326794897
  9
$LOFTMAG1
 40
0.0
  9
$LOFTMAG2
 40
0.0
  9
$LOFTPARAM
 70
     7
  9
$LOFTNORMALS
280
     1
  9
$LATITUDE
 40
37.795
  9
$LONGITUDE
 40
-122.394
  9
$NORTHDIRECTION
 40
0.0
  9
$TIMEZONE
 70
 -8000
  9
$LIGHTGLYPHDISPLAY
280
     1
  9
$TILEMODELIGHTSYNCH
280
     1
  9
$CMATERIAL
347
3C
  9
$SOLIDHIST
280
     1
  9
$SHOWHIST
280
     1
  9
$DWFFRAME
280
     2
  9
$DGNFRAME
280
     2
  9
$REALWORLDSCALE
290
     1
  9
$INTERFERECOLOR
 62
   256
  9
$CSHADOW
280
     0
  9
$SHADOWPLANELOCATION
 40
0.0
  0
ENDSEC
  0
SECTION
  2
CLASSES
  0
CLASS
  1
ACDBDICTIONARYWDFLT
  2
AcDbDictionaryWithDefault
  3
ObjectDBX Classes
 90
        0
 91
        4
280
     0
281
     0
  0
CLASS
  1
VISUALSTYLE
  2
AcDbVisualStyle
  3
ObjectDBX Classes
 90
     4095
 91
        4
280
     0
281
     0
  0
CLASS
  1
MATERIAL
  2
AcDbMaterial
  3
ObjectDBX Classes
 90
     1153
 91
        4
280
     0
281
     0
  0
CLASS
  1
SUN
  2
AcDbSun
  3
SCENEOE
 90
     1024
 91
        4
280
     0
281
     0
  0
ENDSEC
  0
SECTION
  2
TABLES
  0
TABLE
  2
VPORT
  5
8
330
0
100
AcDbSymbolTable
 70
     1
  0
VPORT
  5
29
330
8
100
AcDbSymbolTableRecord
100
AcDbViewportTableRecord
  2
*Active
 70
     0
 10
0.0
 20
0.0
 11
1.0
 21
1.0
 12
0.0
 22
0.0
 13
0.0
 23
0.0
 14
0.5
 24
0.5
 15
0.5
 25
0.5
 16
0.0
 26
0.0
 36
1.0
 17
406.3999998984
 27
-253.9999999365
 37
0.0
 40
507.999999873
 41
1.6
 42
50.0
 43
0.0
 44
0.0
 50
0.0
 51
0.0
 71
     0
 72
   100
 73
     1
 74
     3
 75
     0
 76
     0
 77
     0
 78
     0
281
     0
 65
     1
110
0.0
120
0.0
130
0.0
111
1.0
121
0.0
131
0.0
112
0.0
122
1.0
132
0.0
 79
     0
146
0.0
 60
     3
 61
     5
292
     1
282
     1
141
0.0
142
0.0
 63
   250
361
3F
  0
ENDTAB
  0
TABLE
  2
LTYPE
  5
5
330
0
100
AcDbSymbolTable
 70
     1
  0
LTYPE
  5
14
330
5
100
AcDbSymbolTableRecord
100
AcDbLinetypeTableRecord
  2
ByBlock
 70
     0
  3

 72
    65
 73
     0
 40
0.0
  0
LTYPE
  5
15
330
5
100
AcDbSymbolTableRecord
100
AcDbLinetypeTableRecord
  2
ByLayer
 70
     0
  3

 72
    65
 73
     0
 40
0.0
  0
LTYPE
  5
16
330
5
100
AcDbSymbolTableRecord
100
AcDbLinetypeTableRecord
  2
Continuous
 70
     0
  3
Solid line
 72
    65
 73
     0
 40
0.0
  0
ENDTAB
  0
TABLE
  2
LAYER
  5
2
330
0
100
AcDbSymbolTable
 70
    14
  0
LAYER
  5
10
330
2
100
AcDbSymbolTableRecord
100
AcDbLayerTableRecord
  2
0
 70
     0
 62
     7
  6
Continuous
370
    -3
390
F
347
3E
  0
LAYER
  5
40
330
2
100
AcDbSymbolTableRecord
100
AcDbLayerTableRecord
  2
Layer 1
 70
     1
 62
     7
  6
Continuous
370
    -3
390
F
347
3E
  0
LAYER
  5
41
330
2
100
AcDbSymbolTableRecord
100
AcDbLayerTableRecord
  2
Layer 3
 70
     1
 62
     7
  6
Continuous
370
    -3
390
F
347
3E
  0
LAYER
  5
42
330
2
100
AcDbSymbolTableRecord
100
AcDbLayerTableRecord
  2
Layer 3 scaled
 70
     1
 62
     7
  6
Continuous
370
    -3
390
F
347
3E
  0
LAYER
  5
43
330
2
100
AcDbSymbolTableRecord
100
AcDbLayerTableRecord
  2
Layer 2
 70
     1
 62
     7
  6
Continuous
370
    -3
390
F
347
3E
  0
LAYER
  5
44
330
2
100
AcDbSymbolTableRecord
100
AcDbLayerTableRecord
  2
Layer 5
 70
     1
 62
     7
  6
Continuous
370
    -3
390
F
347
3E
  0
LAYER
  5
45
330
2
100
AcDbSymbolTableRecord
100
AcDbLayerTableRecord
  2
Layer 6
 70
     1
 62
     7
  6
Continuous
370
    -3
390
F
347
3E
  0
LAYER
  5
46
330
2
100
AcDbSymbolTableRecord
100
AcDbLayerTableRecord
  2
Layer 7
 70
     1
 62
     7
  6
Continuous
370
    -3
390
F
347
3E
  0
LAYER
  5
47
330
2
100
AcDbSymbolTableRecord
100
AcDbLayerTableRecord
  2
Layer 8
 70
     1
 62
     7
  6
Continuous
370
    -3
390
F
347
3E
  0
LAYER
  5
48
330
2
100
AcDbSymbolTableRecord
100
AcDbLayerTableRecord
  2
Layer 9
 70
     1
 62
     7
  6
Continuous
370
    -3
390
F
347
3E
  0
LAYER
  5
49
330
2
100
AcDbSymbolTableRecord
100
AcDbLayerTableRecord
  2
Layer 10
 70
     1
 62
     7
  6
Continuous
370
    -3
390
F
347
3E
  0
LAYER
  5
4A
330
2
100
AcDbSymbolTableRecord
100
AcDbLayerTableRecord
  2
Layer 11
 70
     1
 62
     7
  6
Continuous
370
    -3
390
F
347
3E
  0
LAYER
  5
4B
330
2
100
AcDbSymbolTableRecord
100
AcDbLayerTableRecord
  2
Layer 12
 70
     1
 62
     7
  6
Continuous
370
    -3
390
F
347
3E
  0
LAYER
  5
4C
330
2
100
AcDbSymbolTableRecord
100
AcDbLayerTableRecord
  2
Layer 13
 70
     0
 62
     7
  6
Continuous
370
    -3
390
F
347
3E
  0
ENDTAB
  0
TABLE
  2
STYLE
  5
3
330
0
100
AcDbSymbolTable
 70
     1
  0
STYLE
  5
11
330
3
100
AcDbSymbolTableRecord
100
AcDbTextStyleTableRecord
  2
Standard
 70
     0
 40
0.0
 41
1.0
 50
0.0
 71
     0
 42
0.2
  3
txt
  4

  0
ENDTAB
  0
TABLE
  2
VIEW
  5
6
330
0
100
AcDbSymbolTable
 70
     0
  0
ENDTAB
  0
TABLE
  2
UCS
  5
7
330
0
100
AcDbSymbolTable
 70
     0
  0
ENDTAB
  0
TABLE
  2
APPID
  5
9
330
0
100
AcDbSymbolTable
 70
     1
  0
APPID
  5
12
330
9
100
AcDbSymbolTableRecord
100
AcDbRegAppTableRecord
  2
ACAD
 70
     0
  0
ENDTAB
  0
TABLE
  2
DIMSTYLE
  5
A
330
0
100
AcDbSymbolTable
 70
     1
100
AcDbDimStyleTable
  0
DIMSTYLE
105
27
330
A
100
AcDbSymbolTableRecord
100
AcDbDimStyleTableRecord
  2
Standard
 70
     0
178
     0
340
11
  0
ENDTAB
  0
TABLE
  2
BLOCK_RECORD
  5
1
330
0
100
AcDbSymbolTable
 70
     2
  0
BLOCK_RECORD
  5
1F
330
1
100
AcDbSymbolTableRecord
100
AcDbBlockTableRecord
  2
*Model_Space
340
22
 70
     0
280
     1
281
     0
  0
BLOCK_RECORD
  5
1B
330
1
100
AcDbSymbolTableRecord
100
AcDbBlockTableRecord
  2
*Paper_Space
340
1E
 70
     0
280
     1
281
     0
  0
BLOCK_RECORD
  5
23
330
1
100
AcDbSymbolTableRecord
100
AcDbBlockTableRecord
  2
*Paper_Space0
340
26
 70
     0
280
     1
281
     0
  0
BLOCK_RECORD
  5
4D
330
1
100
AcDbSymbolTableRecord
100
AcDbBlockTableRecord
  2
block 2
340
0
102
{BLKREFS
331
4E
102
}
 70
     0
280
     1
281
     0
  0
ENDTAB
  0
ENDSEC
  0
SECTION
  2
BLOCKS
  0
BLOCK
  5
20
330
1F
100
AcDbEntity
  8
0
100
AcDbBlockBegin
  2
*Model_Space
 70
     0
 10
0.0
 20
0.0
 30
0.0
  3
*Model_Space
  1

  0
ENDBLK
  5
21
330
1F
100
AcDbEntity
  8
0
100
AcDbBlockEnd
  0
BLOCK
  5
1C
330
1B
100
AcDbEntity
 67
     1
  8
0
100
AcDbBlockBegin
  2
*Paper_Space
 70
     0
 10
0.0
 20
0.0
 30
0.0
  3
*Paper_Space
  1

  0
ENDBLK
  5
1D
330
1B
100
AcDbEntity
 67
     1
  8
0
100
AcDbBlockEnd
  0
BLOCK
  5
24
330
23
100
AcDbEntity
  8
0
100
AcDbBlockBegin
  2
*Paper_Space0
 70
     0
 10
0.0
 20
0.0
 30
0.0
  3
*Paper_Space0
  1

  0
ENDBLK
  5
25
330
23
100
AcDbEntity
  8
0
100
AcDbBlockEnd
  0
BLOCK
  5
4F
330
4D
100
AcDbEntity
  8
0
100
AcDbBlockBegin
  2
block 2
 70
     0
 10
0.0
 20
0.0
 30
0.0
  3
block 2
  1

  0
POLYLINE
  5
51
330
4D
100
AcDbEntity
  8
Layer 13
 62
     7
420
 16777215
370
    35
100
AcDb2dPolyline
 66
     1
 10
0.0
 20
0.0
 30
0.0
  0
VERTEX
  5
52
330
51
100
AcDbEntity
  8
Layer 13
 62
     7
420
 16777215
370
    35
100
AcDbVertex
100
AcDb2dVertex
 10
621.5971897529486
 20
-275.2834713200678
 30
0.0
  0
VERTEX
  5
53
330
51
100
AcDbEntity
  8
Layer 13
 62
     7
420
 16777215
370
    35
100
AcDbVertex
100
AcDb2dVertex
 10
621.5971897529486
 20
-287.3908752059299
 30
0.0
  0
SEQEND
  5
54
330
51
100
AcDbEntity
  8
Layer 13
 62
     7
420
 16777215
370
    35
  0
SPLINE
  5
55
330
4D
100
AcDbEntity
  8
Layer 13
 62
     7
420
 16777215
370
    35
100
AcDbSpline
210
0.0
220
0.0
230
1.0
 70
     8
 71
     3
 72
    35
 73
    31
 74
     0
 42
0.0000000001
 43
0.0000000001
 12
1.0
 22
0.0
 32
0.0
 13
1.0
 23
0.0
 33
0.0
 40
0.0
 40
0.0
 40
0.0
 40
0.0
 40
1.0
 40
1.0
 40
1.0
 40
2.0
 40
2.0
 40
2.0
 40
3.0
 40
3.0
 40
3.0
 40
4.0
 40
4.0
 40
4.0
 40
5.0
 40
5.0
 40
5.0
 40
6.0
 40
6.0
 40
6.0
 40
7.0
 40
7.0
 40
7.0
 40
8.0
 40
8.0
 40
8.0
 40
9.0
 40
9.0
 40
9.0
 40
10.0
 40
10.0
 40
10.0
 40
10.0
 10
621.5971897529486
 20
-275.2834713200678
 30
0.0
 10
610.6446747545928
 20
-273.3963218760955
 30
0.0
 10
596.837199829073
 20
-271.5298099321176
 30
0.0
 10
585.6754523360552
 20
-271.3100293766172
 30
0.0
 10
579.7816999864173
 20
-271.194000765535
 30
0.0
 10
573.4941770912698
 20
-271.4899107654608
 30
0.0
 10
567.6910533504309
 20
-272.7769499318053
 30
0.0
 10
564.6574114833811
 20
-273.4498029871929
 30
0.0
 10
561.7764518346584
 20
-274.350903264746
 30
0.0
 10
558.9944110723007
 20
-275.7837102088322
 30
0.0
 10
556.878838070718
 20
-276.8732996530039
 30
0.0
 10
553.4688176021593
 20
-279.0459874302389
 30
0.0
 10
552.7813242863654
 20
-281.7727479851122
 30
0.0
 10
552.3506531862416
 20
-283.4808627069078
 30
0.0
 10
553.1417220549487
 20
-284.8714068732266
 30
0.0
 10
554.4942720204422
 20
-285.8229896507668
 30
0.0
 10
555.70158337853
 20
-286.6724079838875
 30
0.0
 10
557.3353325035163
 20
-287.1946954837568
 30
0.0
 10
558.7270408013442
 20
-287.5364313170052
 30
0.0
 10
561.3749201782356
 20
-288.1866360390642
 30
0.0
 10
564.7220403706212
 20
-288.5439293723084
 30
0.0
 10
567.4218133572998
 20
-288.7641332611423
 30
0.0
 10
573.1410818225003
 20
-289.2306113165811
 30
0.0
 10
579.7600394314144
 20
-289.3861863165425
 30
0.0
 10
585.4926781740514
 20
-289.3726749276569
 30
0.0
 10
591.5256719090258
 20
-289.3584579832158
 30
0.0
 10
597.5453659221173
 20
-289.1543054832669
 30
0.0
 10
603.5673177129289
 20
-288.8023743722435
 30
0.0
 10
609.5877525593348
 20
-288.4505138167759
 30
0.0
 10
615.593723517221
 20
-287.9530618724561
 30
0.0
 10
621.5971897529486
 20
-287.3908752059299
 30
0.0
  0
POLYLINE
  5
56
330
4D
100
AcDbEntity
  8
Layer 13
 62
     7
420
 16777215
370
    35
100
AcDb2dPolyline
 66
     1
 10
0.0
 20
0.0
 30
0.0
  0
VERTEX
  5
57
330
56
100
AcDbEntity
  8
Layer 13
 62
     7
420
 16777215
370
    35
100
AcDbVertex
100
AcDb2dVertex
 10
249.1629579932649
 20
-415.0773520412821
 30
0.0
  0
VERTEX
  5
58
330
56
100
AcDbEntity
  8
Layer 13
 62
     7
420
 16777215
370
    35
100
AcDbVertex
100
AcDb2dVertex
 10
253.7349579921218
 20
-415.0773520412821
 30
0.0
  0
VERTEX
  5
59
330
56
100
AcDbEntity
  8
Layer 13
 62
     7
420
 16777215
370
    35
100
AcDbVertex
100
AcDb2dVertex
 10
253.7349579921218
 20
-402.9361523510299
 30
0.0
  0
VERTEX
  5
5A
330
56
100
AcDbEntity
  8
Layer 13
 62
     7
420
 16777215
370
    35
100
AcDbVertex
100
AcDb2dVertex
 10
249.1629579932649
 20
-402.9361523510299
 30
0.0
  0
VERTEX
  5
5B
330
56
100
AcDbEntity
  8
Layer 13
 62
     7
420
 16777215
370
    35
100
AcDbVertex
100
AcDb2dVertex
 10
249.1629579932649
 20
-415.0773520412821
 30
0.0
  0
SEQEND
  5
5C
330
56
100
AcDbEntity
  8
Layer 13
 62
     7
420
 16777215
370
    35
  0
POLYLINE
  5
5D
330
4D
100
AcDbEntity
  8
Layer 13
 62
     7
420
 16777215
370
    35
100
AcDb2dPolyline
 66
     1
 10
0.0
 20
0.0
 30
0.0
  0
VERTEX
  5
5E
330
5D
100
AcDbEntity
  8
Layer 13
 62
     7
420
 16777215
370
    35
100
AcDbVertex
100
AcDb2dVertex
 10
607.8966417691454
 20
-288.553454372306
 30
0.0
  0
VERTEX
  5
5F
330
5D
100
AcDbEntity
  8
Layer 13
 62
     7
420
 16777215
370
    35
100
AcDbVertex
100
AcDb2dVertex
 10
608.988841741281
 20
-288.553454372306
 30
0.0
  0
VERTEX
  5
60
330
5D
100
AcDbEntity
  8
Layer 13
 62
     7
420
 16777215
370
    35
100
AcDbVertex
100
AcDb2dVertex
 10
608.988841741281
 20
-277.2504543751321
 30
0.0
  0
VERTEX
  5
61
330
5D
100
AcDbEntity
  8
Layer 13
 62
     7
420
 16777215
370
    35
100
AcDbVertex
100
AcDb2dVertex
 10
607.8966417691454
 20
-277.2504543751321
 30
0.0
  0
VERTEX
  5
62
330
5D
100
AcDbEntity
  8
Layer 13
 62
     7
420
 16777215
370
    35
100
AcDbVertex
100
AcDb2dVertex
 10
607.8966417691454
 20
-288.553454372306
 30
0.0
  0
SEQEND
  5
63
330
5D
100
AcDbEntity
  8
Layer 13
 62
     7
420
 16777215
370
    35
  0
POLYLINE
  5
64
330
4D
100
AcDbEntity
  8
Layer 13
 62
     7
420
 16777215
370
    35
100
AcDb2dPolyline
 66
     1
 10
0.0
 20
0.0
 30
0.0
  0
VERTEX
  5
65
330
64
100
AcDbEntity
  8
Layer 13
 62
     7
420
 16777215
370
    35
100
AcDbVertex
100
AcDb2dVertex
 10
584.2248654286183
 20
-282.5291740960344
 30
0.0
  0
VERTEX
  5
66
330
64
100
AcDbEntity
  8
Layer 13
 62
     7
420
 16777215
370
    35
100
AcDbVertex
100
AcDb2dVertex
 10
585.3170654007539
 20
-282.5291740960344
 30
0.0
  0
VERTEX
  5
67
330
64
100
AcDbEntity
  8
Layer 13
 62
     7
420
 16777215
370
    35
100
AcDbVertex
100
AcDb2dVertex
 10
585.3170654007539
 20
-271.2261740988599
 30
0.0
  0
VERTEX
  5
68
330
64
100
AcDbEntity
  8
Layer 13
 62
     7
420
 16777215
370
    35
100
AcDbVertex
100
AcDb2dVertex
 10
584.2248654286183
 20
-271.2261740988599
 30
0.0
  0
VERTEX
  5
69
330
64
100
AcDbEntity
  8
Layer 13
 62
     7
420
 16777215
370
    35
100
AcDbVertex
100
AcDb2dVertex
 10
584.2248654286183
 20
-282.5291740960344
 30
0.0
  0
SEQEND
  5
6A
330
64
100
AcDbEntity
  8
Layer 13
 62
     7
420
 16777215
370
    35
  0
POLYLINE
  5
6B
330
4D
100
AcDbEntity
  8
Layer 13
 62
     7
420
 16777215
370
    35
100
AcDb2dPolyline
 66
     1
 10
0.0
 20
0.0
 30
0.0
  0
VERTEX
  5
6C
330
6B
100
AcDbEntity
  8
Layer 13
 62
     7
420
 16777215
370
    35
100
AcDbVertex
100
AcDb2dVertex
 10
569.7253816318643
 20
-289.0428277055167
 30
0.0
  0
VERTEX
  5
6D
330
6B
100
AcDbEntity
  8
Layer 13
 62
     7
420
 16777215
370
    35
100
AcDbVertex
100
AcDb2dVertex
 10
570.8175816039999
 20
-289.0428277055167
 30
0.0
  0
VERTEX
  5
6E
330
6B
100
AcDbEntity
  8
Layer 13
 62
     7
420
 16777215
370
    35
100
AcDbVertex
100
AcDb2dVertex
 10
570.8175816039999
 20
-277.7398277083428
 30
0.0
  0
VERTEX
  5
6F
330
6B
100
AcDbEntity
  8
Layer 13
 62
     7
420
 16777215
370
    35
100
AcDbVertex
100
AcDb2dVertex
 10
569.7253816318643
 20
-277.7398277083428
 30
0.0
  0
VERTEX
  5
70
330
6B
100
AcDbEntity
  8
Layer 13
 62
     7
420
 16777215
370
    35
100
AcDbVertex
100
AcDb2dVertex
 10
569.7253816318643
 20
-289.0428277055167
 30
0.0
  0
SEQEND
  5
71
330
6B
100
AcDbEntity
  8
Layer 13
 62
     7
420
 16777215
370
    35
  0
POLYLINE
  5
72
330
4D
100
AcDbEntity
  8
Layer 13
 62
     7
420
 16777215
370
    35
100
AcDb2dPolyline
 66
     1
 10
0.0
 20
0.0
 30
0.0
  0
VERTEX
  5
73
330
72
100
AcDbEntity
  8
Layer 13
 62
     7
420
 16777215
370
    35
100
AcDbVertex
100
AcDb2dVertex
 10
563.9514678902801
 20
-283.4564857624692
 30
0.0
  0
VERTEX
  5
74
330
72
100
AcDbEntity
  8
Layer 13
 62
     7
420
 16777215
370
    35
100
AcDbVertex
100
AcDb2dVertex
 10
563.9677309454208
 20
-282.3644268738532
 30
0.0
  0
VERTEX
  5
75
330
72
100
AcDbEntity
  8
Layer 13
 62
     7
420
 16777215
370
    35
100
AcDbVertex
100
AcDb2dVertex
 10
552.6659659559751
 20
-282.1962929850063
 30
0.0
  0
VERTEX
  5
76
330
72
100
AcDbEntity
  8
Layer 13
 62
     7
420
 16777215
370
    35
100
AcDbVertex
100
AcDb2dVertex
 10
552.6497381786113
 20
-283.2883871513999
 30
0.0
  0
VERTEX
  5
77
330
72
100
AcDbEntity
  8
Layer 13
 62
     7
420
 16777215
370
    35
100
AcDbVertex
100
AcDb2dVertex
 10
563.9514678902801
 20
-283.4564857624692
 30
0.0
  0
SEQEND
  5
78
330
72
100
AcDbEntity
  8
Layer 13
 62
     7
420
 16777215
370
    35
  0
POLYLINE
  5
79
330
4D
100
AcDbEntity
  8
Layer 13
 62
     7
420
 16777215
370
    35
100
AcDb2dPolyline
 66
     1
 10
0.0
 20
0.0
 30
0.0
  0
VERTEX
  5
7A
330
79
100
AcDbEntity
  8
Layer 13
 62
     7
420
 16777215
370
    35
100
AcDbVertex
100
AcDb2dVertex
 10
204.3679413377969
 20
-410.9017332589221
 30
0.0
  0
VERTEX
  5
7B
330
79
100
AcDbEntity
  8
Layer 13
 62
     7
420
 16777215
370
    35
100
AcDbVertex
100
AcDb2dVertex
 10
208.9399413366539
 20
-410.9017332589221
 30
0.0
  0
VERTEX
  5
7C
330
79
100
AcDbEntity
  8
Layer 13
 62
     7
420
 16777215
370
    35
100
AcDbVertex
100
AcDb2dVertex
 10
208.9399413366539
 20
-398.7605335686699
 30
0.0
  0
VERTEX
  5
7D
330
79
100
AcDbEntity
  8
Layer 13
 62
     7
420
 16777215
370
    35
100
AcDbVertex
100
AcDb2dVertex
 10
204.3679413377969
 20
-398.7605335686699
 30
0.0
  0
VERTEX
  5
7E
330
79
100
AcDbEntity
  8
Layer 13
 62
     7
420
 16777215
370
    35
100
AcDbVertex
100
AcDb2dVertex
 10
204.3679413377969
 20
-410.9017332589221
 30
0.0
  0
SEQEND
  5
7F
330
79
100
AcDbEntity
  8
Layer 13
 62
     7
420
 16777215
370
    35
  0
POLYLINE
  5
80
330
4D
100
AcDbEntity
  8
Layer 13
 62
     7
420
 16777215
370
    35
100
AcDb2dPolyline
 66
     1
 10
0.0
 20
0.0
 30
0.0
  0
VERTEX
  5
81
330
80
100
AcDbEntity
  8
Layer 13
 62
     7
420
 16777215
370
    35
100
AcDbVertex
100
AcDb2dVertex
 10
166.2409185695508
 20
-416.3437183978633
 30
0.0
  0
VERTEX
  5
82
330
80
100
AcDbEntity
  8
Layer 13
 62
     7
420
 16777215
370
    35
100
AcDbVertex
100
AcDb2dVertex
 10
166.2705166250991
 20
-411.7717890700584
 30
0.0
  0
VERTEX
  5
83
330
80
100
AcDbEntity
  8
Layer 13
 62
     7
420
 16777215
370
    35
100
AcDbVertex
100
AcDb2dVertex
 10
154.1295635725789
 20
-411.6932254609517
 30
0.0
  0
VERTEX
  5
84
330
80
100
AcDbEntity
  8
Layer 13
 62
     7
420
 16777215
370
    35
100
AcDbVertex
100
AcDb2dVertex
 10
154.0999655170306
 20
-416.2651195109796
 30
0.0
  0
VERTEX
  5
85
330
80
100
AcDbEntity
  8
Layer 13
 62
     7
420
 16777215
370
    35
100
AcDbVertex
100
AcDb2dVertex
 10
166.2409185695508
 20
-416.3437183978633
 30
0.0
  0
SEQEND
  5
86
330
80
100
AcDbEntity
  8
Layer 13
 62
     7
420
 16777215
370
    35
  0
SPLINE
  5
87
330
4D
100
AcDbEntity
  8
Layer 13
 62
     7
420
 16777215
370
    35
100
AcDbSpline
210
0.0
220
0.0
230
1.0
 70
    11
 71
     3
 72
    50
 73
    46
 74
     0
 42
0.0000000001
 43
0.0000000001
 12
1.0
 22
0.0
 32
0.0
 13
1.0
 23
0.0
 33
0.0
 40
0.0
 40
0.0
 40
0.0
 40
0.0
 40
1.0
 40
1.0
 40
1.0
 40
2.0
 40
2.0
 40
2.0
 40
3.0
 40
3.0
 40
3.0
 40
4.0
 40
4.0
 40
4.0
 40
5.0
 40
5.0
 40
5.0
 40
6.0
 40
6.0
 40
6.0
 40
7.0
 40
7.0
 40
7.0
 40
8.0
 40
8.0
 40
8.0
 40
9.0
 40
9.0
 40
9.0
 40
10.0
 40
10.0
 40
10.0
 40
11.0
 40
11.0
 40
11.0
 40
12.0
 40
12.0
 40
12.0
 40
13.0
 40
13.0
 40
13.0
 40
14.0
 40
14.0
 40
14.0
 40
15.0
 40
15.0
 40
15.0
 40
15.0
 10
308.4033074228992
 20
-414.5336862218188
 30
0.0
 10
295.1189310373314
 20
-411.1964085291821
 30
0.0
 10
283.0808127070075
 20
-408.5782683181986
 30
0.0
 10
269.5844521548262
 20
-406.2241822671452
 30
0.0
 10
256.9165196579929
 20
-404.0145587124063
 30
0.0
 10
243.0549282725694
 20
-402.0751276507742
 30
0.0
 10
230.264793553545
 20
-400.7402518514964
 30
0.0
 10
217.6943335566875
 20
-399.4282713294123
 30
0.0
 10
203.3218846713916
 20
-398.3812621894571
 30
0.0
 10
190.632044674564
 20
-399.1117943930418
 30
0.0
 10
184.1083368984175
 20
-399.4873616056825
 30
0.0
 10
177.2808874556799
 20
-400.3632029722269
 30
0.0
 10
170.9610852350374
 20
-402.1728823705025
 30
0.0
 10
167.721985513625
 20
-403.1004056801727
 30
0.0
 10
164.6236088477329
 20
-404.2418534288298
 30
0.0
 10
161.6405905151454
 20
-405.8399719991695
 30
0.0
 10
159.2664313490722
 20
-407.1118769667205
 30
0.0
 10
155.6923691277435
 20
-409.4069432970574
 30
0.0
 10
154.4758855169366
 20
-412.1575868379937
 30
0.0
 10
153.7001977393527
 20
-413.9115626265794
 30
0.0
 10
154.0697677392606
 20
-415.5768148063175
 30
0.0
 10
155.5279746833404
 20
-416.8273061633037
 30
0.0
 10
156.7730685719178
 20
-417.8950233582862
 30
0.0
 10
158.6257163492323
 20
-418.5257194533069
 30
0.0
 10
160.1416024599646
 20
-418.9183258321796
 30
0.0
 10
163.0989385703363
 20
-419.6843122015265
 30
0.0
 10
166.8837502360569
 20
-420.0601969141591
 30
0.0
 10
169.9029635686354
 20
-420.2923599637917
 30
0.0
 10
175.7716335671681
 20
-420.7436332856121
 30
0.0
 10
183.5786410652165
 20
-420.9842982794722
 30
0.0
 10
189.4586705081909
 20
-421.1056185541548
 30
0.0
 10
196.0150807843294
 20
-421.2409088284811
 30
0.0
 10
202.5695507826911
 20
-421.2756927164826
 30
0.0
 10
209.1270193921625
 20
-421.2043963294126
 30
0.0
 10
215.8075368904926
 20
-421.1317241090444
 30
0.0
 10
222.4823746666016
 20
-420.9452810582454
 30
0.0
 10
229.1570007760442
 20
-420.6586138433367
 30
0.0
 10
242.3858499394034
 20
-420.0905005244971
 30
0.0
 10
255.582949102771
 20
-419.1303099934381
 30
0.0
 10
268.7822002105822
 20
-418.1291619634239
 30
0.0
 10
278.0664999304831
 20
-417.42494698139
 30
0.0
 10
299.0910677030049
 20
-415.8252056333138
 30
0.0
 10
308.3663363117973
 20
-415.0017870432099
 30
0.0
 10
308.3786835340164
 20
-414.8457534360795
 30
0.0
 10
308.390995478458
 20
-414.6897198289492
 30
0.0
 10
308.4033074228992
 20
-414.5336862218188
 30
0.0
  0
POLYLINE
  5
88
330
4D
100
AcDbEntity
  8
Layer 13
 62
     7
420
 16777215
370
    35
100
AcDb2dPolyline
 66
     1
 10
0.0
 20
0.0
 30
0.0
  0
VERTEX
  5
89
330
88
100
AcDbEntity
  8
Layer 13
 62
     7
420
 16777215
370
    35
100
AcDbVertex
100
AcDb2dVertex
 10
247.5066310492345
 20
-420.4370341267674
 30
0.0
  0
VERTEX
  5
8A
330
88
100
AcDbEntity
  8
Layer 13
 62
     7
420
 16777215
370
    35
100
AcDbVertex
100
AcDb2dVertex
 10
248.3125871601441
 20
-419.6999049789065
 30
0.0
  0
VERTEX
  5
8B
330
88
100
AcDbEntity
  8
Layer 13
 62
     7
420
 16777215
370
    35
100
AcDbVertex
100
AcDb2dVertex
 10
240.5982896620727
 20
-411.2657646385238
 30
0.0
  0
VERTEX
  5
8C
330
88
100
AcDbEntity
  8
Layer 13
 62
     7
420
 16777215
370
    35
100
AcDbVertex
100
AcDb2dVertex
 10
239.7923688289407
 20
-412.0028937863847
 30
0.0
  0
VERTEX
  5
8D
330
88
100
AcDbEntity
  8
Layer 13
 62
     7
420
 16777215
370
    35
100
AcDbVertex
100
AcDb2dVertex
 10
247.5066310492345
 20
-420.4370341267674
 30
0.0
  0
SEQEND
  5
8E
330
88
100
AcDbEntity
  8
Layer 13
 62
     7
420
 16777215
370
    35
  0
POLYLINE
  5
8F
330
4D
100
AcDbEntity
  8
Layer 13
 62
     7
420
 16777215
370
    35
100
AcDb2dPolyline
 66
     1
 10
0.0
 20
0.0
 30
0.0
  0
VERTEX
  5
90
330
8F
100
AcDbEntity
  8
Layer 13
 62
     7
420
 16777215
370
    35
100
AcDbVertex
100
AcDb2dVertex
 10
190.2365807857743
 20
-421.3144277154943
 30
0.0
  0
VERTEX
  5
91
330
8F
100
AcDbEntity
  8
Layer 13
 62
     7
420
 16777215
370
    35
100
AcDbVertex
100
AcDb2dVertex
 10
191.3287807855011
 20
-421.3144277154943
 30
0.0
  0
VERTEX
  5
92
330
8F
100
AcDbEntity
  8
Layer 13
 62
     7
420
 16777215
370
    35
100
AcDbVertex
100
AcDb2dVertex
 10
191.3287807855011
 20
-409.8844280070979
 30
0.0
  0
VERTEX
  5
93
330
8F
100
AcDbEntity
  8
Layer 13
 62
     7
420
 16777215
370
    35
100
AcDbVertex
100
AcDb2dVertex
 10
190.2365807857743
 20
-409.8844280070979
 30
0.0
  0
VERTEX
  5
94
330
8F
100
AcDbEntity
  8
Layer 13
 62
     7
420
 16777215
370
    35
100
AcDbVertex
100
AcDb2dVertex
 10
190.2365807857743
 20
-421.3144277154943
 30
0.0
  0
SEQEND
  5
95
330
8F
100
AcDbEntity
  8
Layer 13
 62
     7
420
 16777215
370
    35
  0
POLYLINE
  5
96
330
4D
100
AcDbEntity
  8
Layer 13
 62
     7
420
 16777215
370
    35
100
AcDb2dPolyline
 66
     1
 10
0.0
 20
0.0
 30
0.0
  0
VERTEX
  5
97
330
96
100
AcDbEntity
  8
Layer 13
 62
     7
420
 16777215
370
    35
100
AcDbVertex
100
AcDb2dVertex
 10
190.2365807857743
 20
-421.3551029922344
 30
0.0
  0
VERTEX
  5
98
330
96
100
AcDbEntity
  8
Layer 13
 62
     7
420
 16777215
370
    35
100
AcDbVertex
100
AcDb2dVertex
 10
191.3287807855011
 20
-421.3551029922344
 30
0.0
  0
VERTEX
  5
99
330
96
100
AcDbEntity
  8
Layer 13
 62
     7
420
 16777215
370
    35
100
AcDbVertex
100
AcDb2dVertex
 10
191.3287807855011
 20
-409.925103283838
 30
0.0
  0
VERTEX
  5
9A
330
96
100
AcDbEntity
  8
Layer 13
 62
     7
420
 16777215
370
    35
100
AcDbVertex
100
AcDb2dVertex
 10
190.2365807857743
 20
-409.925103283838
 30
0.0
  0
VERTEX
  5
9B
330
96
100
AcDbEntity
  8
Layer 13
 62
     7
420
 16777215
370
    35
100
AcDbVertex
100
AcDb2dVertex
 10
190.2365807857743
 20
-421.3551029922344
 30
0.0
  0
SEQEND
  5
9C
330
96
100
AcDbEntity
  8
Layer 13
 62
     7
420
 16777215
370
    35
  0
SPLINE
  5
9D
330
4D
100
AcDbEntity
  8
Layer 13
 62
     7
420
 16777215
370
    35
100
AcDbSpline
210
0.0
220
0.0
230
1.0
 70
     8
 71
     3
 72
    32
 73
    28
 74
     0
 42
0.0000000001
 43
0.0000000001
 12
1.0
 22
0.0
 32
0.0
 13
1.0
 23
0.0
 33
0.0
 40
0.0
 40
0.0
 40
0.0
 40
0.0
 40
1.0
 40
1.0
 40
1.0
 40
2.0
 40
2.0
 40
2.0
 40
3.0
 40
3.0
 40
3.0
 40
4.0
 40
4.0
 40
4.0
 40
5.0
 40
5.0
 40
5.0
 40
6.0
 40
6.0
 40
6.0
 40
7.0
 40
7.0
 40
7.0
 40
8.0
 40
8.0
 40
8.0
 40
9.0
 40
9.0
 40
9.0
 40
9.0
 10
311.310125755506
 20
-414.5750670540965
 30
0.0
 10
317.7679346427803
 20
-413.9965467910779
 30
0.0
 10
329.4581788065241
 20
-412.9436109846072
 30
0.0
 10
356.6362846330632
 20
-410.5972507666901
 30
0.0
 10
402.5401523993648
 20
-406.6342864233493
 30
0.0
 10
492.6267174877039
 20
-398.9816546741397
 30
0.0
 10
538.2914007671452
 20
-395.0961603288225
 30
0.0
 10
583.9560840465865
 20
-391.2106659835053
 30
0.0
 10
585.1989201259903
 20
-391.0922737643035
 30
0.0
 10
586.4812320377202
 20
-390.9541965456039
 30
0.0
 10
587.7635439494502
 20
-390.8160840491275
 30
0.0
 10
589.0852964157294
 20
-390.6582865531532
 30
0.0
 10
589.9533061158069
 20
-390.451135447327
 30
0.0
 10
590.8213158158843
 20
-390.2439843415007
 30
0.0
 10
591.2356180275368
 20
-389.9875501813763
 30
0.0
 10
591.6005666293373
 20
-389.61272380205
 30
0.0
 10
591.9655505089147
 20
-389.2378974227237
 30
0.0
 10
592.2811807786401
 20
-388.7446788241957
 30
0.0
 10
592.616566603417
 20
-387.7287141278928
 30
0.0
 10
592.9519171504171
 20
-386.7127494315901
 30
0.0
 10
593.3070232524686
 20
-385.1739680819587
 30
0.0
 10
597.9757900778029
 20
-367.9750640762949
 30
0.0
 10
602.6445216253603
 20
-350.7761247928541
 30
0.0
 10
611.6269138962004
 20
-317.9170185316319
 30
0.0
 10
616.1181276705089
 20
-300.9146113136604
 30
0.0
 10
617.8000662387102
 20
-294.5472546485851
 30
0.0
 10
618.852120100759
 20
-290.4037738162882
 30
0.0
 10
619.4981620287215
 20
-287.6669943725281
 30
0.0
  0
POLYLINE
  5
9E
330
4D
100
AcDbEntity
  8
Layer 13
 62
     7
420
 16777215
370
    35
100
AcDb2dPolyline
 66
     1
 10
0.0
 20
0.0
 30
0.0
  0
VERTEX
  5
9F
330
9E
100
AcDbEntity
  8
Layer 13
 62
     7
420
 16777215
370
    35
100
AcDbVertex
100
AcDb2dVertex
 10
166.611158847236
 20
-419.4442822076502
 30
0.0
  0
VERTEX
  5
A0
330
9E
100
AcDbEntity
  8
Layer 13
 62
     7
420
 16777215
370
    35
100
AcDbVertex
100
AcDb2dVertex
 10
311.310125755506
 20
-414.5750670540965
 30
0.0
  0
SEQEND
  5
A1
330
9E
100
AcDbEntity
  8
Layer 13
 62
     7
420
 16777215
370
    35
  0
POLYLINE
  5
A2
330
4D
100
AcDbEntity
  8
Layer 13
 62
     7
420
 16777215
370
    35
100
AcDb2dPolyline
 66
     1
 10
0.0
 20
0.0
 30
0.0
  0
VERTEX
  5
A3
330
A2
100
AcDbEntity
  8
Layer 13
 62
     7
420
 16777215
370
    35
100
AcDbVertex
100
AcDb2dVertex
 10
558.3433244222447
 20
-286.1983452062281
 30
0.0
  0
VERTEX
  5
A4
330
A2
100
AcDbEntity
  8
Layer 13
 62
     7
420
 16777215
370
    35
100
AcDbVertex
100
AcDb2dVertex
 10
619.4981620287215
 20
-287.6669943725281
 30
0.0
  0
SEQEND
  5
A5
330
A2
100
AcDbEntity
  8
Layer 13
 62
     7
420
 16777215
370
    35
  0
SPLINE
  5
A6
330
4D
100
AcDbEntity
  8
Layer 13
 62
     7
420
 16777215
370
    35
100
AcDbSpline
210
0.0
220
0.0
230
1.0
 70
     8
 71
     3
 72
   206
 73
   202
 74
     0
 42
0.0000000001
 43
0.0000000001
 12
1.0
 22
0.0
 32
0.0
 13
1.0
 23
0.0
 33
0.0
 40
0.0
 40
0.0
 40
0.0
 40
0.0
 40
1.0
 40
1.0
 40
1.0
 40
2.0
 40
2.0
 40
2.0
 40
3.0
 40
3.0
 40
3.0
 40
4.0
 40
4.0
 40
4.0
 40
5.0
 40
5.0
 40
5.0
 40
6.0
 40
6.0
 40
6.0
 40
7.0
 40
7.0
 40
7.0
 40
8.0
 40
8.0
 40
8.0
 40
9.0
 40
9.0
 40
9.0
 40
10.0
 40
10.0
 40
10.0
 40
11.0
 40
11.0
 40
11.0
 40
12.0
 40
12.0
 40
12.0
 40
13.0
 40
13.0
 40
13.0
 40
14.0
 40
14.0
 40
14.0
 40
15.0
 40
15.0
 40
15.0
 40
16.0
 40
16.0
 40
16.0
 40
17.0
 40
17.0
 40
17.0
 40
18.0
 40
18.0
 40
18.0
 40
19.0
 40
19.0
 40
19.0
 40
20.0
 40
20.0
 40
20.0
 40
21.0
 40
21.0
 40
21.0
 40
22.0
 40
22.0
 40
22.0
 40
23.0
 40
23.0
 40
23.0
 40
24.0
 40
24.0
 40
24.0
 40
25.0
 40
25.0
 40
25.0
 40
26.0
 40
26.0
 40
26.0
 40
27.0
 40
27.0
 40
27.0
 40
28.0
 40
28.0
 40
28.0
 40
29.0
 40
29.0
 40
29.0
 40
30.0
 40
30.0
 40
30.0
 40
31.0
 40
31.0
 40
31.0
 40
32.0
 40
32.0
 40
32.0
 40
33.0
 40
33.0
 40
33.0
 40
34.0
 40
34.0
 40
34.0
 40
35.0
 40
35.0
 40
35.0
 40
36.0
 40
36.0
 40
36.0
 40
37.0
 40
37.0
 40
37.0
 40
38.0
 40
38.0
 40
38.0
 40
39.0
 40
39.0
 40
39.0
 40
40.0
 40
40.0
 40
40.0
 40
41.0
 40
41.0
 40
41.0
 40
42.0
 40
42.0
 40
42.0
 40
43.0
 40
43.0
 40
43.0
 40
44.0
 40
44.0
 40
44.0
 40
45.0
 40
45.0
 40
45.0
 40
46.0
 40
46.0
 40
46.0
 40
47.0
 40
47.0
 40
47.0
 40
48.0
 40
48.0
 40
48.0
 40
49.0
 40
49.0
 40
49.0
 40
50.0
 40
50.0
 40
50.0
 40
51.0
 40
51.0
 40
51.0
 40
52.0
 40
52.0
 40
52.0
 40
53.0
 40
53.0
 40
53.0
 40
54.0
 40
54.0
 40
54.0
 40
55.0
 40
55.0
 40
55.0
 40
56.0
 40
56.0
 40
56.0
 40
57.0
 40
57.0
 40
57.0
 40
58.0
 40
58.0
 40
58.0
 40
59.0
 40
59.0
 40
59.0
 40
60.0
 40
60.0
 40
60.0
 40
61.0
 40
61.0
 40
61.0
 40
62.0
 40
62.0
 40
62.0
 40
63.0
 40
63.0
 40
63.0
 40
64.0
 40
64.0
 40
64.0
 40
65.0
 40
65.0
 40
65.0
 40
66.0
 40
66.0
 40
66.0
 40
67.0
 40
67.0
 40
67.0
 40
67.0
 10
558.3433244222447
 20
-286.1983452062281
 30
0.0
 10
558.1146891502999
 20
-286.3605171506317
 30
0.0
 10
557.8905694337955
 20
-286.5274515950346
 30
0.0
 10
557.6716002727152
 20
-286.6993249283248
 30
0.0
 10
555.2130920021036
 20
-288.6289488167316
 30
0.0
 10
553.4039417704811
 20
-291.178050482761
 30
0.0
 10
551.4537862646781
 20
-293.6461190932552
 30
0.0
 10
549.503666036652
 20
-296.1141877037494
 30
0.0
 10
547.4125405344456
 20
-298.5012232587077
 30
0.0
 10
538.438967707825
 20
-309.1943410338122
 30
0.0
 10
529.4654301589811
 20
-319.8874588089168
 30
0.0
 10
513.6094805635001
 20
-338.8866673184017
 30
0.0
 10
505.3299627191727
 20
-348.7218645674849
 30
0.0
 10
497.0504448748453
 20
-358.5570265387913
 30
0.0
 10
496.3473587816713
 20
-359.2281509661139
 30
0.0
 10
495.5883221343693
 20
-359.8593409500109
 30
0.0
 10
494.8293207648442
 20
-360.4905309339079
 30
0.0
 10
494.0143688411909
 20
-361.0817864743793
 30
0.0
 10
493.2313785833888
 20
-361.5931025724456
 30
0.0
 10
492.4483530478099
 20
-362.1044539482888
 30
0.0
 10
491.6973244558591
 20
-362.535901159504
 30
0.0
 10
490.5787719843958
 20
-362.9833292036446
 30
0.0
 10
489.4602195129324
 20
-363.4307572477854
 30
0.0
 10
487.9741431619565
 20
-363.8941661248517
 30
0.0
 10
484.536676582987
 20
-364.125835285608
 30
0.0
 10
481.0992100040174
 20
-364.3575397241412
 30
0.0
 10
475.7103531970541
 20
-364.3575397241412
 30
0.0
 10
449.83706719047
 20
-362.9170422608913
 30
0.0
 10
423.963745906109
 20
-361.4765095198646
 30
0.0
 10
377.6059954611538
 20
-358.5954440378111
 30
0.0
 10
352.7432760229254
 20
-356.9745360236084
 30
0.0
 10
327.8805918624743
 20
-355.3535927316288
 30
0.0
 10
324.5129399188716
 20
-354.992771629723
 30
0.0
 10
320.9949693641958
 20
-354.7522477469703
 30
0.0
 10
317.4769988095197
 20
-354.5116885864409
 30
0.0
 10
313.8087096437701
 20
-354.3914266450646
 30
0.0
 10
311.0574663111244
 20
-354.2561010929614
 30
0.0
 10
308.3062229784791
 20
-354.1208108186352
 30
0.0
 10
306.4720607567153
 20
-353.9704569335822
 30
0.0
 10
304.8032807571324
 20
-353.6096358316764
 30
0.0
 10
303.1345007575495
 20
-353.2488147297706
 30
0.0
 10
301.6311029801476
 20
-352.677526411012
 30
0.0
 10
300.1126768694162
 20
-352.031061149727
 30
0.0
 10
298.5942154809071
 20
-351.3845958884419
 30
0.0
 10
297.0607610368459
 20
-350.6629536846303
 30
0.0
 10
294.6703388152213
 20
-349.5053487141632
 30
0.0
 10
292.2799165935968
 20
-348.3477084659193
 30
0.0
 10
289.0325618721864
 20
-346.75410545102
 30
0.0
 10
286.0257310396048
 20
-345.4010263188732
 30
0.0
 10
283.018935484801
 20
-344.0479824645034
 30
0.0
 10
280.2526638188256
 20
-342.9354624928861
 30
0.0
 10
277.4262435417546
 20
-341.8981194637954
 30
0.0
 10
274.599858542461
 20
-340.8607411569278
 30
0.0
 10
271.7133249320718
 20
-339.8985750703636
 30
0.0
 10
268.8869046550004
 20
-338.8612320412728
 30
0.0
 10
266.0604843779295
 20
-337.8238890121821
 30
0.0
 10
263.2942479897321
 20
-336.7113690405649
 30
0.0
 10
260.332502157139
 20
-335.6739907336973
 30
0.0
 10
257.3707916023241
 20
-334.6366477046065
 30
0.0
 10
254.2136421586688
 20
-333.6744816180423
 30
0.0
 10
251.1166413261096
 20
-332.8325774728544
 30
0.0
 10
248.0196052157729
 20
-331.9906733276665
 30
0.0
 10
244.9827529943099
 20
-331.2690311238549
 30
0.0
 10
241.5700160507187
 20
-330.6375941955198
 30
0.0
 10
238.1572791071275
 20
-330.0061572671846
 30
0.0
 10
234.3686927191854
 20
-329.4649256143259
 30
0.0
 10
230.6552832756695
 20
-329.0740478465203
 30
0.0
 10
226.9418738321534
 20
-328.6831700787146
 30
0.0
 10
223.3036060552853
 20
-328.4426109181851
 30
0.0
 10
220.6275396670655
 20
-328.3524056427087
 30
0.0
 10
217.9514732788455
 20
-328.2622003672322
 30
0.0
 10
216.2376082792741
 20
-328.3223489768088
 30
0.0
 10
214.478623001936
 20
-328.4275825852352
 30
0.0
 10
212.7196377245979
 20
-328.5328161936616
 30
0.0
 10
210.9155321694936
 20
-328.6831700787146
 30
0.0
 10
209.0513132810706
 20
-328.938757572194
 30
0.0
 10
207.1870943926476
 20
-329.1943097878966
 30
0.0
 10
205.2627268931288
 20
-329.5551308898024
 30
0.0
 10
203.0677435603443
 20
-329.9911289342347
 30
0.0
 10
200.8727955053373
 20
-330.427126978667
 30
0.0
 10
198.4071963392871
 20
-330.938266687849
 30
0.0
 10
196.2272766176099
 20
-331.5546752832342
 30
0.0
 10
194.0473216181549
 20
-332.1710486008425
 30
0.0
 10
192.1530107852951
 20
-332.8926908046541
 30
0.0
 10
189.7926805081074
 20
-333.7646868935188
 30
0.0
 10
187.4323149531421
 20
-334.6366477046065
 30
0.0
 10
184.6059299538486
 20
-335.6589624007473
 30
0.0
 10
182.1854510655648
 20
-336.7714823723646
 30
0.0
 10
179.7649721772809
 20
-337.8840023439818
 30
0.0
 10
177.7503994000066
 20
-339.0867275910755
 30
0.0
 10
175.5253594005631
 20
-340.3796581136457
 30
0.0
 10
173.3003194011193
 20
-341.6725886362158
 30
0.0
 10
170.8647769017281
 20
-343.0557244342624
 30
0.0
 10
168.8652677355615
 20
-344.2434213484062
 30
0.0
 10
166.8657232916168
 20
-345.4311182625499
 30
0.0
 10
165.3021769031188
 20
-346.4233762927909
 30
0.0
 10
163.7536588479506
 20
-347.3705140464052
 30
0.0
 10
162.2051760705599
 20
-348.3176518000195
 30
0.0
 10
160.6716863487209
 20
-349.219704554784
 30
0.0
 10
159.4689610712441
 20
-349.9563750915455
 30
0.0
 10
158.2662357937669
 20
-350.693045628307
 30
0.0
 10
157.3942749606515
 20
-351.2643339470656
 30
0.0
 10
156.6726327386095
 20
-351.7604453232976
 30
0.0
 10
155.9509905165679
 20
-352.2565919773065
 30
0.0
 10
155.3797021833772
 20
-352.677526411012
 30
0.0
 10
154.4926777391545
 20
-353.0383475129178
 30
0.0
 10
153.6056885727097
 20
-353.3991686148236
 30
0.0
 10
152.4029632952325
 20
-353.6998411071528
 30
0.0
 10
150.6439780178948
 20
-353.9253719347324
 30
0.0
 10
148.8849927405567
 20
-354.1508674845351
 30
0.0
 10
146.5697474633575
 20
-354.3012213695881
 30
0.0
 10
142.9916282975855
 20
-354.6169221948672
 30
0.0
 10
139.4135091318133
 20
-354.9326582979232
 30
0.0
 10
134.5725513552458
 20
-355.4137413412054
 30
0.0
 10
130.5133491340384
 20
-355.8346757749109
 30
0.0
 10
126.4541469128309
 20
-356.2556454863933
 30
0.0
 10
123.1767355247614
 20
-356.6164665882991
 30
0.0
 10
119.0573846924578
 20
-357.0975496315812
 30
0.0
 10
114.938069137932
 20
-357.5786326748633
 30
0.0
 10
109.9768141391726
 20
-358.1800129372986
 30
0.0
 10
104.2109788628362
 20
-359.0931781917795
 30
0.0
 10
98.44514358649982
 20
-360.0063434462605
 30
0.0
 10
91.87469275480917
 20
-361.231364248341
 30
0.0
 10
86.88189942272378
 20
-361.9923411733713
 30
0.0
 10
81.88910609063869
 20
-362.7533180984016
 30
0.0
 10
78.47397025815918
 20
-363.0502864241586
 30
0.0
 10
75.68988331441089
 20
-363.3658108605534
 30
0.0
 10
72.90579637066229
 20
-363.681370574725
 30
0.0
 10
70.75275831564521
 20
-364.0154511217575
 30
0.0
 10
68.80390803835463
 20
-364.460903610393
 30
0.0
 10
66.85502248328622
 20
-364.9063560990286
 30
0.0
 10
65.1103247059446
 20
-365.4631805292673
 30
0.0
 10
63.10580609533463
 20
-366.0385610701437
 30
0.0
 10
61.10125220694681
 20
-366.61394161102
 30
0.0
 10
58.83687748529062
 20
-367.2078782625341
 30
0.0
 10
56.57246748585691
 20
-367.9502990769267
 30
0.0
 10
54.30809276420072
 20
-368.6927198913193
 30
0.0
 10
52.04368276476702
 20
-369.5836248685904
 30
0.0
 10
49.25490387657495
 20
-370.7528009498733
 30
0.0
 10
46.46612498838352
 20
-371.9219770311563
 30
0.0
 10
43.15294193365622
 20
-373.3694242164511
 30
0.0
 10
42.29833776720299
 20
-374.4597897441891
 30
0.0
 10
41.44376887852793
 20
-375.5501199941502
 30
0.0
 10
43.04774360034912
 20
-376.2833685865546
 30
0.0
 10
45.27045526645996
 20
-377.2457816175569
 30
0.0
 10
47.49313165479328
 20
-378.2081946485593
 30
0.0
 10
50.33450970963874
 20
-379.3997368403827
 30
0.0
 10
53.19878304225571
 20
-380.4996273678778
 30
0.0
 10
56.06305637487333
 20
-381.5994826175959
 30
0.0
 10
58.95026026304031
 20
-382.6077214807625
 30
0.0
 10
61.33334470688884
 20
-383.3409700731668
 30
0.0
 10
63.71642915073738
 20
-384.0742539433481
 30
0.0
 10
65.59542942804563
 20
-384.5325122649903
 30
0.0
 10
67.06192664990095
 20
-384.8075025357525
 30
0.0
 10
68.52845914953446
 20
-385.0824575287378
 30
0.0
 10
69.58248859371567
 20
-385.1741444708431
 30
0.0
 10
70.13243387135596
 20
-385.6324027924853
 30
0.0
 10
70.68237914899625
 20
-386.0906963919044
 30
0.0
 10
70.72820498231809
 20
-386.9155966486372
 30
0.0
 10
71.02609053779915
 20
-388.0154871761322
 30
0.0
 10
71.32397609328022
 20
-389.1153777036272
 30
0.0
 10
71.87392137092051
 20
-390.4902585018844
 30
0.0
 10
72.44679720411048
 20
-391.8192781902005
 30
0.0
 10
73.01963775952294
 20
-393.1482978785166
 30
0.0
 10
73.61540887048507
 20
-394.4314917346685
 30
0.0
 10
74.13032331480083
 20
-395.3690339329721
 30
0.0
 10
74.64520248133876
 20
-396.3065408534987
 30
0.0
 10
75.07922498123031
 20
-396.8983608384001
 30
0.0
 10
75.4441735922501
 20
-397.2633094402006
 30
0.0
 10
75.80912220326988
 20
-397.628293319778
 30
0.0
 10
76.1050674809739
 20
-397.7663705384776
 30
0.0
 10
76.75604831414415
 20
-398.2003930274047
 30
0.0
 10
77.40706442509257
 20
-398.6344155163319
 30
0.0
 10
78.41318664706353
 20
-399.3643127199329
 30
0.0
 10
79.08392303578457
 20
-400.1830393657121
 30
0.0
 10
79.75465942450562
 20
-401.0017307337144
 30
0.0
 10
80.09004525775521
 20
-401.9092162661181
 30
0.0
 10
80.4747494243258
 20
-403.1618948452707
 30
0.0
 10
80.85941831311852
 20
-404.4146087022002
 30
0.0
 10
81.29344081300977
 20
-406.0125508836555
 30
0.0
 10
82.09241192392143
 20
-407.2455444633104
 30
0.0
 10
82.89138303483277
 20
-408.4785380429652
 30
0.0
 10
84.0553027567639
 20
-409.3465477430426
 30
0.0
 10
86.06754720070518
 20
-410.0370043920943
 30
0.0
 10
88.07975636686895
 20
-410.7274963189228
 30
0.0
 10
90.94029025504256
 20
-411.2403999169487
 30
0.0
 10
93.9882196987253
 20
-411.7730590700261
 30
0.0
 10
97.03614914240742
 20
-412.3056829453266
 30
0.0
 10
100.2714741415987
 20
-412.8580623756786
 30
0.0
 10
103.2996833075085
 20
-413.3019626421316
 30
0.0
 10
106.327892473418
 20
-413.7458276308076
 30
0.0
 10
109.1489505282685
 20
-414.0811781778077
 30
0.0
 10
111.8910921942493
 20
-414.3672456705095
 30
0.0
 10
114.6332691380084
 20
-414.6532778854344
 30
0.0
 10
117.2964944151202
 20
-414.8900270460611
 30
0.0
 10
123.1554983025442
 20
-415.4603981426209
 30
0.0
 10
129.0145021899686
 20
-416.0307692391806
 30
0.0
 10
138.0692846877051
 20
-416.9347975494503
 30
0.0
 10
146.1637355190146
 20
-417.710661696323
 30
0.0
 10
153.9002580170805
 20
-418.4522711218474
 30
0.0
 10
160.759492737588
 20
-419.0767936059145
 30
0.0
 10
166.611158847236
 20
-419.4442822076502
 30
0.0
  0
ENDBLK
  5
50
330
4D
100
AcDbEntity
  8
0
100
AcDbBlockEnd
  0
ENDSEC
  0
SECTION
  2
ENTITIES
  0
INSERT
  5
4E
330
1F
100
AcDbEntity
  8
Layer 13
100
AcDbBlockReference
  2
block 2
 10
0.0
 20
0.0
 30
0.0
  0
POLYLINE
  5
A7
330
1F
100
AcDbEntity
  8
Layer 13
 62
     7
420
 16777215
370
    35
100
AcDb2dPolyline
 66
     1
 10
0.0
 20
0.0
 30
0.0
  0
VERTEX
  5
A8
330
A7
100
AcDbEntity
  8
Layer 13
 62
     7
420
 16777215
370
    35
100
AcDbVertex
100
AcDb2dVertex
 10
383.9986110151115
 20
-408.3402776756927
 30
0.0
  0
VERTEX
  5
A9
330
A7
100
AcDbEntity
  8
Layer 13
 62
     7
420
 16777215
370
    35
100
AcDbVertex
100
AcDb2dVertex
 10
383.9986110151115
 20
-357.1874999107031
 30
0.0
  0
SEQEND
  5
AA
330
A7
100
AcDbEntity
  8
Layer 13
 62
     7
420
 16777215
370
    35
  0
POLYLINE
  5
AB
330
1F
100
AcDbEntity
  8
Layer 13
 62
     7
420
 16777215
370
    35
100
AcDb2dPolyline
 66
     1
 10
0.0
 20
0.0
 30
0.0
  0
VERTEX
  5
AC
330
AB
100
AcDbEntity
  8
Layer 13
 62
     7
420
 16777215
370
    35
100
AcDbVertex
100
AcDb2dVertex
 10
474.6624998813344
 20
-398.815277678074
 30
0.0
  0
VERTEX
  5
AD
330
AB
100
AcDbEntity
  8
Layer 13
 62
     7
420
 16777215
370
    35
100
AcDbVertex
100
AcDb2dVertex
 10
474.6624998813344
 20
-366.3597221306323
 30
0.0
  0
SEQEND
  5
AE
330
AB
100
AcDbEntity
  8
Layer 13
 62
     7
420
 16777215
370
    35
  0
POLYLINE
  5
AF
330
1F
100
AcDbEntity
  8
Layer 13
 62
     7
420
 16777215
370
    35
100
AcDb2dPolyline
 66
     1
 10
0.0
 20
0.0
 30
0.0
  0
VERTEX
  5
B0
330
AF
100
AcDbEntity
  8
Layer 13
 62
     7
420
 16777215
370
    35
100
AcDbVertex
100
AcDb2dVertex
 10
177.6236110667052
 20
-414.6902776741052
 30
0.0
  0
VERTEX
  5
B1
330
AF
100
AcDbEntity
  8
Layer 13
 62
     7
420
 16777215
370
    35
100
AcDbVertex
100
AcDb2dVertex
 10
177.6236110667052
 20
-363.5374999091156
 30
0.0
  0
SEQEND
  5
B2
330
AF
100
AcDbEntity
  8
Layer 13
 62
     7
420
 16777215
370
    35
  0
POLYLINE
  5
B3
330
1F
100
AcDbEntity
  8
Layer 13
 62
     7
420
 16777215
370
    35
100
AcDb2dPolyline
 66
     1
 10
0.0
 20
0.0
 30
0.0
  0
VERTEX
  5
B4
330
B3
100
AcDbEntity
  8
Layer 13
 62
     7
420
 16777215
370
    35
100
AcDbVertex
100
AcDb2dVertex
 10
104.2458333072719
 20
-411.8680554525886
 30
0.0
  0
VERTEX
  5
B5
330
B3
100
AcDbEntity
  8
Layer 13
 62
     7
420
 16777215
370
    35
100
AcDbVertex
100
AcDb2dVertex
 10
104.2458333072719
 20
-360.715277687599
 30
0.0
  0
SEQEND
  5
B6
330
B3
100
AcDbEntity
  8
Layer 13
 62
     7
420
 16777215
370
    35
  0
POLYLINE
  5
B7
330
1F
100
AcDbEntity
  8
Layer 13
 62
     7
420
 16777215
370
    35
100
AcDb2dPolyline
 66
     1
 10
0.0
 20
0.0
 30
0.0
  0
VERTEX
  5
B8
330
B7
100
AcDbEntity
  8
Layer 13
 62
     7
420
 16777215
370
    35
100
AcDbVertex
100
AcDb2dVertex
 10
293.3347221488885
 20
-411.8680554525886
 30
0.0
  0
VERTEX
  5
B9
330
B7
100
AcDbEntity
  8
Layer 13
 62
     7
420
 16777215
370
    35
100
AcDbVertex
100
AcDb2dVertex
 10
293.3347221488885
 20
-360.715277687599
 30
0.0
  0
SEQEND
  5
BA
330
B7
100
AcDbEntity
  8
Layer 13
 62
     7
420
 16777215
370
    35
  0
POLYLINE
  5
BB
330
1F
100
AcDbEntity
  8
Layer 13
 62
     7
420
 16777215
370
    35
100
AcDb2dPolyline
 66
     1
 10
0.0
 20
0.0
 30
0.0
  0
VERTEX
  5
BC
330
BB
100
AcDbEntity
  8
Layer 13
 62
     7
420
 16777215
370
    35
100
AcDbVertex
100
AcDb2dVertex
 10
177.6236110667052
 20
-410.1041665641407
 30
0.0
  0
VERTEX
  5
BD
330
BB
100
AcDbEntity
  8
Layer 13
 62
     7
420
 16777215
370
    35
100
AcDbVertex
100
AcDb2dVertex
 10
177.6236110667052
 20
-358.9513887991511
 30
0.0
  0
SEQEND
  5
BE
330
BB
100
AcDbEntity
  8
Layer 13
 62
     7
420
 16777215
370
    35
  0
ENDSEC
  0
SECTION
  2
OBJECTS
  0
DICTIONARY
  5
C
330
0
100
AcDbDictionary
281
     1
  3
ACAD_GROUP
350
D
  3
ACAD_LAYOUT
350
1A
  3
ACAD_MATERIAL
350
3B
  3
ACAD_MLEADERSTYLE
350
C0
  3
ACAD_MLINESTYLE
350
17
  3
ACAD_PLOTSETTINGS
350
19
  3
ACAD_PLOTSTYLENAME
350
E
  3
ACAD_TABLESTYLE
350
BF
  3
ACAD_VISUALSTYLE
350
2A
  0
SUN
  5
3F
330
29
100
AcDbSun
 90
        1
290
     0
 63
     7
421
 16777215
 40
1.0
291
     1
 91
  2455826
 92
 54000000
292
     0
 70
     2
 71
   256
280
     1
  0
DICTIONARY
  5
D
102
{ACAD_REACTORS
330
C
102
}
330
C
100
AcDbDictionary
281
     1
  0
DICTIONARY
  5
1A
102
{ACAD_REACTORS
330
C
102
}
330
C
100
AcDbDictionary
281
     1
  3
Layout1
350
1E
  3
Layout2
350
26
  3
Model
350
22
  0
DICTIONARY
  5
3B
102
{ACAD_REACTORS
330
C
102
}
330
C
100
AcDbDictionary
281
     1
  3
ByBlock
350
3D
  3
ByLayer
350
3C
  3
Global
350
3E
  0
DICTIONARY
  5
C0
102
{ACAD_REACTORS
330
C
102
}
330
C
100
AcDbDictionary
281
     1
  0
DICTIONARY
  5
17
102
{ACAD_REACTORS
330
C
102
}
330
C
100
AcDbDictionary
281
     1
  3
Standard
350
18
  0
DICTIONARY
  5
19
102
{ACAD_REACTORS
330
C
102
}
330
C
100
AcDbDictionary
281
     1
  0
ACDBDICTIONARYWDFLT
  5
E
102
{ACAD_REACTORS
330
C
102
}
330
C
100
AcDbDictionary
281
     1
  3
Normal
350
F
100
AcDbDictionaryWithDefault
340
F
  0
DICTIONARY
  5
BF
102
{ACAD_REACTORS
330
C
102
}
330
C
100
AcDbDictionary
281
     1
  0
DICTIONARY
  5
2A
102
{ACAD_REACTORS
330
C
102
}
330
C
100
AcDbDictionary
281
     1
  3
2dWireframe
350
2F
  3
3D Hidden
350
31
  3
3dWireframe
350
30
  3
Basic
350
32
  3
Brighten
350
36
  3
ColorChange
350
3A
  3
Conceptual
350
34
  3
Dim
350
35
  3
Facepattern
350
39
  3
Flat
350
2B
  3
FlatWithEdges
350
2C
  3
Gouraud
350
2D
  3
GouraudWithEdges
350
2E
  3
Linepattern
350
38
  3
Realistic
350
33
  3
Thicken
350
37
  0
LAYOUT
  5
1E
102
{ACAD_REACTORS
330
1A
102
}
330
1A
100
AcDbPlotSettings
  1

  2
none_device
  4

  6

 40
0.0
 41
0.0
 42
0.0
 43
0.0
 44
0.0
 45
0.0
 46
0.0
 47
0.0
 48
0.0
 49
0.0
140
0.0
141
0.0
142
1.0
143
1.0
 70
   688
 72
     0
 73
     0
 74
     5
  7

 75
    16
 76
     0
 77
     2
 78
   300
147
1.0
148
0.0
149
0.0
100
AcDbLayout
  1
Layout1
 70
     1
 71
     1
 10
0.0
 20
0.0
 11
12.0
 21
9.0
 12
0.0
 22
0.0
 32
0.0
 14
1.000000000000000E+20
 24
1.000000000000000E+20
 34
1.000000000000000E+20
 15
-1.000000000000000E+20
 25
-1.000000000000000E+20
 35
-1.000000000000000E+20
146
0.0
 13
0.0
 23
0.0
 33
0.0
 16
1.0
 26
0.0
 36
0.0
 17
0.0
 27
1.0
 37
0.0
 76
     0
330
1B
  0
LAYOUT
  5
26
102
{ACAD_REACTORS
330
1A
102
}
330
1A
100
AcDbPlotSettings
  1

  2
none_device
  4

  6

 40
0.0
 41
0.0
 42
0.0
 43
0.0
 44
0.0
 45
0.0
 46
0.0
 47
0.0
 48
0.0
 49
0.0
140
0.0
141
0.0
142
1.0
143
1.0
 70
   688
 72
     0
 73
     0
 74
     5
  7

 75
    16
 76
     0
 77
     2
 78
   300
147
1.0
148
0.0
149
0.0
100
AcDbLayout
  1
Layout2
 70
     1
 71
     2
 10
0.0
 20
0.0
 11
0.0
 21
0.0
 12
0.0
 22
0.0
 32
0.0
 14
0.0
 24
0.0
 34
0.0
 15
0.0
 25
0.0
 35
0.0
146
0.0
 13
0.0
 23
0.0
 33
0.0
 16
1.0
 26
0.0
 36
0.0
 17
0.0
 27
1.0
 37
0.0
 76
     0
330
23
  0
LAYOUT
  5
22
102
{ACAD_REACTORS
330
1A
102
}
330
1A
100
AcDbPlotSettings
  1

  2
none_device
  4

  6

 40
0.0
 41
0.0
 42
0.0
 43
0.0
 44
0.0
 45
0.0
 46
0.0
 47
0.0
 48
0.0
 49
0.0
140
0.0
141
0.0
142
1.0
143
1.0
 70
  1712
 72
     0
 73
     0
 74
     0
  7

 75
     0
 76
     0
 77
     2
 78
   300
147
1.0
148
0.0
149
0.0
100
AcDbLayout
  1
Model
 70
     1
 71
     0
 10
0.0
 20
0.0
 11
12.0
 21
9.0
 12
0.0
 22
0.0
 32
0.0
 14
1.000000000000000E+20
 24
1.000000000000000E+20
 34
1.000000000000000E+20
 15
-1.000000000000000E+20
 25
-1.000000000000000E+20
 35
-1.000000000000000E+20
146
0.0
 13
0.0
 23
0.0
 33
0.0
 16
1.0
 26
0.0
 36
0.0
 17
0.0
 27
1.0
 37
0.0
 76
     0
330
1F
331
29
  0
MATERIAL
  5
3D
102
{ACAD_REACTORS
330
3B
102
}
330
3B
100
AcDbMaterial
  1
ByBlock
 72
     1
 94
      127
  0
MATERIAL
  5
3C
102
{ACAD_REACTORS
330
3B
102
}
330
3B
100
AcDbMaterial
  1
ByLayer
 72
     1
 94
      127
  0
MATERIAL
  5
3E
102
{ACAD_REACTORS
330
3B
102
}
330
3B
100
AcDbMaterial
  1
Global
 72
     1
 94
      127
  0
MLINESTYLE
  5
18
102
{ACAD_REACTORS
330
17
102
}
330
17
100
AcDbMlineStyle
  2
Standard
 70
     0
  3

 62
   256
 51
90.0
 52
90.0
 71
     2
 49
0.5
 62
   256
  6
BYLAYER
 49
-0.5
 62
   256
  6
BYLAYER
  0
ACDBPLACEHOLDER
  5
F
102
{ACAD_REACTORS
330
E
102
}
330
E
  0
VISUALSTYLE
  5
2F
102
{ACAD_REACTORS
330
2A
102
}
330
2A
100
AcDbVisualStyle
  2
2dWireframe
 70
     4
177
     2
291
     0
 71
     0
176
     1
 72
     2
176
     1
 73
     0
176
     1
 90
        0
176
     1
 40
-0.6
176
     1
 41
-30.0
176
     1
 62
     5
 63
     7
421
 16777215
176
     1
 74
     1
176
     1
 91
        4
176
     1
 64
     7
176
     1
 65
   257
176
     1
 75
     1
176
     1
175
     1
176
     1
 42
1.0
176
     1
 92
        0
176
     1
 66
   257
176
     1
 43
1.0
176
     1
 76
     1
176
     1
 77
     6
176
     1
 78
     2
176
     1
 67
     7
176
     1
 79
     5
176
     1
170
     0
176
     1
171
     0
176
     1
290
     0
176
     1
 93
        1
176
     1
 44
0.0
176
     1
173
     0
176
     1
  0
VISUALSTYLE
  5
31
102
{ACAD_REACTORS
330
2A
102
}
330
2A
100
AcDbVisualStyle
  2
3D Hidden
 70
     6
177
     2
291
     0
 71
     1
176
     1
 72
     2
176
     1
 73
     2
176
     1
 90
        0
176
     1
 40
-0.6
176
     1
 41
-30.0
176
     1
 62
     5
 63
     7
421
 16777215
176
     1
 74
     2
176
     1
 91
        2
176
     1
 64
     7
176
     1
 65
   257
176
     1
 75
     2
176
     1
175
     1
176
     1
 42
40.0
176
     1
 92
        0
176
     1
 66
   257
176
     1
 43
1.0
176
     1
 76
     1
176
     1
 77
     6
176
     1
 78
     2
176
     1
 67
     7
176
     1
 79
     3
176
     1
170
     0
176
     1
171
     0
176
     1
290
     0
176
     1
 93
        1
176
     1
 44
0.0
176
     1
173
     0
176
     1
  0
VISUALSTYLE
  5
30
102
{ACAD_REACTORS
330
2A
102
}
330
2A
100
AcDbVisualStyle
  2
3dWireframe
 70
     5
177
     2
291
     0
 71
     0
176
     1
 72
     2
176
     1
 73
     0
176
     1
 90
        0
176
     1
 40
-0.6
176
     1
 41
-30.0
176
     1
 62
     5
 63
     7
421
 16777215
176
     1
 74
     1
176
     1
 91
        4
176
     1
 64
     7
176
     1
 65
   257
176
     1
 75
     1
176
     1
175
     1
176
     1
 42
1.0
176
     1
 92
        0
176
     1
 66
   257
176
     1
 43
1.0
176
     1
 76
     1
176
     1
 77
     6
176
     1
 78
     2
176
     1
 67
     7
176
     1
 79
     5
176
     1
170
     0
176
     1
171
     0
176
     1
290
     0
176
     1
 93
        1
176
     1
 44
0.0
176
     1
173
     0
176
     1
  0
VISUALSTYLE
  5
32
102
{ACAD_REACTORS
330
2A
102
}
330
2A
100
AcDbVisualStyle
  2
Basic
 70
     7
177
     2
291
     1
 71
     1
176
     1
 72
     0
176
     1
 73
     1
176
     1
 90
        0
176
     1
 40
-0.6
176
     1
 41
-30.0
176
     1
 62
     5
 63
     7
421
 16777215
176
     1
 74
     0
176
     1
 91
        4
176
     1
 64
     7
176
     1
 65
   257
176
     1
 75
     1
176
     1
175
     1
176
     1
 42
1.0
176
     1
 92
        8
176
     1
 66
     7
176
     1
 43
1.0
176
     1
 76
     1
176
     1
 77
     6
176
     1
 78
     2
176
     1
 67
     7
176
     1
 79
     5
176
     1
170
     0
176
     1
171
     0
176
     1
290
     0
176
     1
 93
        1
176
     1
 44
0.0
176
     1
173
     0
176
     1
  0
VISUALSTYLE
  5
36
102
{ACAD_REACTORS
330
2A
102
}
330
2A
100
AcDbVisualStyle
  2
Brighten
 70
    12
177
     2
291
     1
 71
     2
176
     1
 72
     2
176
     1
 73
     0
176
     1
 90
        0
176
     1
 40
-0.6
176
     1
 41
-30.0
176
     1
 62
     5
 63
     7
421
 16777215
176
     1
 74
     1
176
     1
 91
        4
176
     1
 64
     7
176
     1
 65
   257
176
     1
 75
     1
176
     1
175
     1
176
     1
 42
1.0
176
     1
 92
        8
176
     1
 66
     7
176
     1
 43
1.0
176
     1
 76
     1
176
     1
 77
     6
176
     1
 78
     2
176
     1
 67
     7
176
     1
 79
     5
176
     1
170
     0
176
     1
171
     0
176
     1
290
     0
176
     1
 93
        1
176
     1
 44
50.0
176
     1
173
     0
176
     1
  0
VISUALSTYLE
  5
3A
102
{ACAD_REACTORS
330
2A
102
}
330
2A
100
AcDbVisualStyle
  2
ColorChange
 70
    16
177
     2
291
     1
 71
     2
176
     1
 72
     2
176
     1
 73
     3
176
     1
 90
        0
176
     1
 40
-0.6
176
     1
 41
-30.0
176
     1
 62
     5
 63
     8
421
  8421504
176
     1
 74
     1
176
     1
 91
        4
176
     1
 64
     7
176
     1
 65
   257
176
     1
 75
     1
176
     1
175
     1
176
     1
 42
1.0
176
     1
 92
        8
176
     1
 66
     8
424
  8421504
176
     1
 43
1.0
176
     1
 76
     1
176
     1
 77
     6
176
     1
 78
     2
176
     1
 67
     7
176
     1
 79
     5
176
     1
170
     0
176
     1
171
     0
176
     1
290
     0
176
     1
 93
        1
176
     1
 44
0.0
176
     1
173
     0
176
     1
  0
VISUALSTYLE
  5
34
102
{ACAD_REACTORS
330
2A
102
}
330
2A
100
AcDbVisualStyle
  2
Conceptual
 70
     9
177
     2
291
     0
 71
     3
176
     1
 72
     2
176
     1
 73
     0
176
     1
 90
        0
176
     1
 40
-0.6
176
     1
 41
-30.0
176
     1
 62
     5
 63
     7
421
 16777215
176
     1
 74
     2
176
     1
 91
        2
176
     1
 64
     7
176
     1
 65
   257
176
     1
 75
     1
176
     1
175
     1
176
     1
 42
40.0
176
     1
 92
        8
176
     1
 66
     7
176
     1
 43
1.0
176
     1
 76
     1
176
     1
 77
     6
176
     1
 78
     2
176
     1
 67
     7
176
     1
 79
     3
176
     1
170
     0
176
     1
171
     0
176
     1
290
     0
176
     1
 93
        1
176
     1
 44
0.0
176
     1
173
     0
176
     1
  0
VISUALSTYLE
  5
35
102
{ACAD_REACTORS
330
2A
102
}
330
2A
100
AcDbVisualStyle
  2
Dim
 70
    11
177
     2
291
     1
 71
     2
176
     1
 72
     2
176
     1
 73
     0
176
     1
 90
        0
176
     1
 40
-0.6
176
     1
 41
-30.0
176
     1
 62
     5
 63
     7
421
 16777215
176
     1
 74
     1
176
     1
 91
        4
176
     1
 64
     7
176
     1
 65
   257
176
     1
 75
     1
176
     1
175
     1
176
     1
 42
1.0
176
     1
 92
        8
176
     1
 66
     7
176
     1
 43
1.0
176
     1
 76
     1
176
     1
 77
     6
176
     1
 78
     2
176
     1
 67
     7
176
     1
 79
     5
176
     1
170
     0
176
     1
171
     0
176
     1
290
     0
176
     1
 93
        1
176
     1
 44
-50.0
176
     1
173
     0
176
     1
  0
VISUALSTYLE
  5
39
102
{ACAD_REACTORS
330
2A
102
}
330
2A
100
AcDbVisualStyle
  2
Facepattern
 70
    15
177
     2
291
     1
 71
     2
176
     1
 72
     2
176
     1
 73
     0
176
     1
 90
        0
176
     1
 40
-0.6
176
     1
 41
-30.0
176
     1
 62
     5
 63
     7
421
 16777215
176
     1
 74
     1
176
     1
 91
        4
176
     1
 64
     7
176
     1
 65
   257
176
     1
 75
     1
176
     1
175
     1
176
     1
 42
1.0
176
     1
 92
        8
176
     1
 66
     7
176
     1
 43
1.0
176
     1
 76
     1
176
     1
 77
     6
176
     1
 78
     2
176
     1
 67
     7
176
     1
 79
     5
176
     1
170
     0
176
     1
171
     0
176
     1
290
     0
176
     1
 93
        1
176
     1
 44
0.0
176
     1
173
     0
176
     1
  0
VISUALSTYLE
  5
2B
102
{ACAD_REACTORS
330
2A
102
}
330
2A
100
AcDbVisualStyle
  2
Flat
 70
     0
177
     2
291
     1
 71
     2
176
     1
 72
     1
176
     1
 73
     1
176
     1
 90
        2
176
     1
 40
-0.6
176
     1
 41
30.0
176
     1
 62
     5
 63
     7
421
 16777215
176
     1
 74
     0
176
     1
 91
        4
176
     1
 64
     7
176
     1
 65
   257
176
     1
 75
     1
176
     1
175
     1
176
     1
 42
1.0
176
     1
 92
        8
176
     1
 66
     7
176
     1
 43
1.0
176
     1
 76
     1
176
     1
 77
     6
176
     1
 78
     2
176
     1
 67
     7
176
     1
 79
     5
176
     1
170
     0
176
     1
171
     0
176
     1
290
     0
176
     1
 93
       13
176
     1
 44
0.0
176
     1
173
     0
176
     1
  0
VISUALSTYLE
  5
2C
102
{ACAD_REACTORS
330
2A
102
}
330
2A
100
AcDbVisualStyle
  2
FlatWithEdges
 70
     1
177
     2
291
     1
 71
     2
176
     1
 72
     1
176
     1
 73
     1
176
     1
 90
        2
176
     1
 40
-0.6
176
     1
 41
30.0
176
     1
 62
     5
 63
     7
421
 16777215
176
     1
 74
     1
176
     1
 91
        4
176
     1
 64
     7
176
     1
 65
   257
176
     1
 75
     1
176
     1
175
     1
176
     1
 42
1.0
176
     1
 92
        0
176
     1
 66
   257
176
     1
 43
1.0
176
     1
 76
     1
176
     1
 77
     6
176
     1
 78
     2
176
     1
 67
     7
176
     1
 79
     5
176
     1
170
     0
176
     1
171
     0
176
     1
290
     0
176
     1
 93
       13
176
     1
 44
0.0
176
     1
173
     0
176
     1
  0
VISUALSTYLE
  5
2D
102
{ACAD_REACTORS
330
2A
102
}
330
2A
100
AcDbVisualStyle
  2
Gouraud
 70
     2
177
     2
291
     1
 71
     2
176
     1
 72
     2
176
     1
 73
     1
176
     1
 90
        2
176
     1
 40
-0.6
176
     1
 41
30.0
176
     1
 62
     5
 63
     7
421
 16777215
176
     1
 74
     0
176
     1
 91
        4
176
     1
 64
     7
176
     1
 65
   257
176
     1
 75
     1
176
     1
175
     1
176
     1
 42
1.0
176
     1
 92
        0
176
     1
 66
     7
176
     1
 43
1.0
176
     1
 76
     1
176
     1
 77
     6
176
     1
 78
     2
176
     1
 67
     7
176
     1
 79
     5
176
     1
170
     0
176
     1
171
     0
176
     1
290
     0
176
     1
 93
       13
176
     1
 44
0.0
176
     1
173
     0
176
     1
  0
VISUALSTYLE
  5
2E
102
{ACAD_REACTORS
330
2A
102
}
330
2A
100
AcDbVisualStyle
  2
GouraudWithEdges
 70
     3
177
     2
291
     1
 71
     2
176
     1
 72
     2
176
     1
 73
     1
176
     1
 90
        2
176
     1
 40
-0.6
176
     1
 41
30.0
176
     1
 62
     5
 63
     7
421
 16777215
176
     1
 74
     1
176
     1
 91
        4
176
     1
 64
     7
176
     1
 65
   257
176
     1
 75
     1
176
     1
175
     1
176
     1
 42
1.0
176
     1
 92
        0
176
     1
 66
   257
176
     1
 43
1.0
176
     1
 76
     1
176
     1
 77
     6
176
     1
 78
     2
176
     1
 67
     7
176
     1
 79
     5
176
     1
170
     0
176
     1
171
     0
176
     1
290
     0
176
     1
 93
       13
176
     1
 44
0.0
176
     1
173
     0
176
     1
  0
VISUALSTYLE
  5
38
102
{ACAD_REACTORS
330
2A
102
}
330
2A
100
AcDbVisualStyle
  2
Linepattern
 70
    14
177
     2
291
     1
 71
     2
176
     1
 72
     2
176
     1
 73
     0
176
     1
 90
        0
176
     1
 40
-0.6
176
     1
 41
-30.0
176
     1
 62
     5
 63
     7
421
 16777215
176
     1
 74
     1
176
     1
 91
        4
176
     1
 64
     7
176
     1
 65
   257
176
     1
 75
     7
176
     1
175
     7
176
     1
 42
1.0
176
     1
 92
        8
176
     1
 66
     7
176
     1
 43
1.0
176
     1
 76
     1
176
     1
 77
     6
176
     1
 78
     2
176
     1
 67
     7
176
     1
 79
     5
176
     1
170
     0
176
     1
171
     0
176
     1
290
     0
176
     1
 93
        1
176
     1
 44
0.0
176
     1
173
     0
176
     1
  0
VISUALSTYLE
  5
33
102
{ACAD_REACTORS
330
2A
102
}
330
2A
100
AcDbVisualStyle
  2
Realistic
 70
     8
177
     2
291
     0
 71
     2
176
     1
 72
     2
176
     1
 73
     0
176
     1
 90
        0
176
     1
 40
-0.6
176
     1
 41
-30.0
176
     1
 62
     5
 63
     7
421
 16777215
176
     1
 74
     1
176
     1
 91
        0
176
     1
 64
     7
176
     1
 65
   257
176
     1
 75
     1
176
     1
175
     1
176
     1
 42
1.0
176
     1
 92
        8
176
     1
 66
     8
424
  7895160
176
     1
 43
1.0
176
     1
 76
     1
176
     1
 77
     6
176
     1
 78
     2
176
     1
 67
     7
176
     1
 79
     5
176
     1
170
     0
176
     1
171
     0
176
     1
290
     0
176
     1
 93
       13
176
     1
 44
0.0
176
     1
173
     0
176
     1
  0
VISUALSTYLE
  5
37
102
{ACAD_REACTORS
330
2A
102
}
330
2A
100
AcDbVisualStyle
  2
Thicken
 70
    13
177
     2
291
     1
 71
     2
176
     1
 72
     2
176
     1
 73
     0
176
     1
 90
        0
176
     1
 40
-0.6
176
     1
 41
-30.0
176
     1
 62
     5
 63
     7
421
 16777215
176
     1
 74
     1
176
     1
 91
        4
176
     1
 64
     7
176
     1
 65
   257
176
     1
 75
     1
176
     1
175
     1
176
     1
 42
1.0
176
     1
 92
       12
176
     1
 66
     7
176
     1
 43
1.0
176
     1
 76
     1
176
     1
 77
     6
176
     1
 78
     2
176
     1
 67
     7
176
     1
 79
     5
176
     1
170
     0
176
     1
171
     0
176
     1
290
     0
176
     1
 93
        1
176
     1
 44
0.0
176
     1
173
     0
176
     1
  0
ENDSEC
  0
EOF
