<?xml version="1.0" encoding="utf-8"?>
<!-- Generator: Adobe Illustrator 23.0.3, SVG Export Plug-In . SVG Version: 6.00 Build 0)  -->
<svg version="1.1" id="VISIBLE" xmlns="http://www.w3.org/2000/svg" xmlns:xlink="http://www.w3.org/1999/xlink" x="0px" y="0px"
	 viewBox="0 0 2592 1440" style="enable-background:new 0 0 2592 1440;" xml:space="preserve">
<style type="text/css">
	.st0{fill:none;stroke:#000000;stroke-width:0.7087;stroke-linecap:round;stroke-linejoin:round;stroke-miterlimit:10;}
</style>
<line class="st0" x1="766.6" y1="547.3" x2="766.6" y2="562.3"/>
<line class="st0" x1="769.6" y1="562.2" x2="766.6" y2="562.3"/>
<line class="st0" x1="782" y1="561.7" x2="769.6" y2="562.2"/>
<line class="st0" x1="798.8" y1="560.5" x2="782" y2="561.7"/>
<line class="st0" x1="818.5" y1="558.4" x2="798.8" y2="560.5"/>
<line class="st0" x1="839.4" y1="555.6" x2="818.5" y2="558.4"/>
<line class="st0" x1="861.5" y1="552.2" x2="839.4" y2="555.6"/>
<line class="st0" x1="867.6" y1="551.2" x2="861.5" y2="552.2"/>
<path class="st0" d="M867.6,551.2c9-3.3,13.5-13.3,10.2-22.2c-2.1-5.7-7-9.8-13-11"/>
<line class="st0" x1="853.4" y1="516.8" x2="864.9" y2="517.9"/>
<line class="st0" x1="833.7" y1="515.3" x2="853.4" y2="516.8"/>
<line class="st0" x1="833.7" y1="515.3" x2="833.7" y2="530.2"/>
<path class="st0" d="M829.1,530.2c0,1.3,1,2.3,2.3,2.3s2.3-1,2.3-2.3"/>
<line class="st0" x1="829.1" y1="530.2" x2="829.1" y2="515"/>
<line class="st0" x1="825.4" y1="514.7" x2="829.1" y2="515"/>
<line class="st0" x1="801.3" y1="513.4" x2="825.4" y2="514.7"/>
<line class="st0" x1="779.3" y1="512.7" x2="801.3" y2="513.4"/>
<line class="st0" x1="757.9" y1="512.6" x2="779.3" y2="512.7"/>
<line class="st0" x1="737.8" y1="513.1" x2="757.9" y2="512.6"/>
<line class="st0" x1="725.5" y1="513.7" x2="737.8" y2="513.1"/>
<line class="st0" x1="725.5" y1="513.7" x2="725.5" y2="528.8"/>
<path class="st0" d="M720.9,528.8c0,1.3,1,2.3,2.3,2.3s2.3-1,2.3-2.3"/>
<line class="st0" x1="720.9" y1="528.8" x2="720.9" y2="513.9"/>
<line class="st0" x1="720.7" y1="513.9" x2="720.9" y2="513.9"/>
<line class="st0" x1="709.3" y1="514.9" x2="720.7" y2="513.9"/>
<line class="st0" x1="702.1" y1="515.7" x2="709.3" y2="514.9"/>
<line class="st0" x1="697.1" y1="516.5" x2="702.1" y2="515.7"/>
<line class="st0" x1="694.1" y1="517" x2="697.1" y2="516.5"/>
<line class="st0" x1="691.3" y1="517.6" x2="694.1" y2="517"/>
<line class="st0" x1="689.3" y1="518.1" x2="691.3" y2="517.6"/>
<line class="st0" x1="687.4" y1="518.7" x2="689.3" y2="518.1"/>
<line class="st0" x1="686.2" y1="519.1" x2="687.4" y2="518.7"/>
<line class="st0" x1="685" y1="519.5" x2="686.2" y2="519.1"/>
<line class="st0" x1="683.9" y1="519.9" x2="685" y2="519.5"/>
<line class="st0" x1="682.9" y1="520.3" x2="683.9" y2="519.9"/>
<line class="st0" x1="682.4" y1="520.5" x2="682.9" y2="520.3"/>
<line class="st0" x1="681.9" y1="520.8" x2="682.4" y2="520.5"/>
<line class="st0" x1="681.5" y1="521" x2="681.9" y2="520.8"/>
<line class="st0" x1="681" y1="521.2" x2="681.5" y2="521"/>
<line class="st0" x1="680.6" y1="521.5" x2="681" y2="521.2"/>
<line class="st0" x1="680.1" y1="521.7" x2="680.6" y2="521.5"/>
<line class="st0" x1="679.7" y1="522" x2="680.1" y2="521.7"/>
<line class="st0" x1="679.3" y1="522.2" x2="679.7" y2="522"/>
<line class="st0" x1="679" y1="522.5" x2="679.3" y2="522.2"/>
<line class="st0" x1="678.6" y1="522.8" x2="679" y2="522.5"/>
<line class="st0" x1="678.2" y1="523" x2="678.6" y2="522.8"/>
<line class="st0" x1="677.9" y1="523.3" x2="678.2" y2="523"/>
<line class="st0" x1="677.6" y1="523.6" x2="677.9" y2="523.3"/>
<line class="st0" x1="677.3" y1="523.9" x2="677.6" y2="523.6"/>
<line class="st0" x1="677" y1="524.2" x2="677.3" y2="523.9"/>
<line class="st0" x1="676.7" y1="524.5" x2="677" y2="524.2"/>
<line class="st0" x1="676.4" y1="524.8" x2="676.7" y2="524.5"/>
<line class="st0" x1="676.3" y1="524.9" x2="676.4" y2="524.8"/>
<line class="st0" x1="676.2" y1="525.1" x2="676.3" y2="524.9"/>
<line class="st0" x1="676" y1="525.2" x2="676.2" y2="525.1"/>
<line class="st0" x1="675.9" y1="525.4" x2="676" y2="525.2"/>
<line class="st0" x1="675.8" y1="525.5" x2="675.9" y2="525.4"/>
<line class="st0" x1="675.7" y1="525.7" x2="675.8" y2="525.5"/>
<line class="st0" x1="675.6" y1="525.8" x2="675.7" y2="525.7"/>
<line class="st0" x1="675.5" y1="526" x2="675.6" y2="525.8"/>
<line class="st0" x1="675.4" y1="526.1" x2="675.5" y2="526"/>
<line class="st0" x1="675.3" y1="526.3" x2="675.4" y2="526.1"/>
<line class="st0" x1="675.2" y1="526.5" x2="675.3" y2="526.3"/>
<line class="st0" x1="675.1" y1="526.6" x2="675.2" y2="526.5"/>
<line class="st0" x1="675" y1="526.8" x2="675.1" y2="526.6"/>
<line class="st0" x1="675" y1="526.9" x2="675" y2="526.8"/>
<line class="st0" x1="674.9" y1="527.1" x2="675" y2="526.9"/>
<line class="st0" x1="674.8" y1="527.3" x2="674.9" y2="527.1"/>
<line class="st0" x1="674.7" y1="527.4" x2="674.8" y2="527.3"/>
<line class="st0" x1="674.7" y1="527.6" x2="674.7" y2="527.4"/>
<line class="st0" x1="674.6" y1="527.8" x2="674.7" y2="527.6"/>
<line class="st0" x1="674.5" y1="528" x2="674.6" y2="527.8"/>
<line class="st0" x1="674.5" y1="528.1" x2="674.5" y2="528"/>
<line class="st0" x1="674.4" y1="528.3" x2="674.5" y2="528.1"/>
<line class="st0" x1="674.4" y1="528.3" x2="674.4" y2="528.3"/>
<line class="st0" x1="674.4" y1="528.3" x2="689.3" y2="528.1"/>
<path class="st0" d="M689.3,532.7c1.3,0,2.3-1.1,2.3-2.3c0-1.3-1.1-2.3-2.3-2.3"/>
<line class="st0" x1="689.3" y1="532.7" x2="674.3" y2="532.9"/>
<line class="st0" x1="674.3" y1="533.1" x2="674.3" y2="532.9"/>
<line class="st0" x1="674.4" y1="533.3" x2="674.3" y2="533.1"/>
<line class="st0" x1="674.4" y1="533.5" x2="674.4" y2="533.3"/>
<line class="st0" x1="674.5" y1="533.7" x2="674.4" y2="533.5"/>
<line class="st0" x1="674.6" y1="533.9" x2="674.5" y2="533.7"/>
<line class="st0" x1="674.7" y1="534.3" x2="674.6" y2="533.9"/>
<line class="st0" x1="674.8" y1="534.6" x2="674.7" y2="534.3"/>
<line class="st0" x1="675" y1="535" x2="674.8" y2="534.6"/>
<line class="st0" x1="675.2" y1="535.4" x2="675" y2="535"/>
<line class="st0" x1="675.4" y1="535.8" x2="675.2" y2="535.4"/>
<line class="st0" x1="675.6" y1="536.3" x2="675.4" y2="535.8"/>
<line class="st0" x1="675.8" y1="536.7" x2="675.6" y2="536.3"/>
<line class="st0" x1="676.1" y1="537.1" x2="675.8" y2="536.7"/>
<line class="st0" x1="676.3" y1="537.5" x2="676.1" y2="537.1"/>
<line class="st0" x1="676.6" y1="537.9" x2="676.3" y2="537.5"/>
<line class="st0" x1="676.9" y1="538.3" x2="676.6" y2="537.9"/>
<line class="st0" x1="677.2" y1="538.7" x2="676.9" y2="538.3"/>
<line class="st0" x1="677.6" y1="539.2" x2="677.2" y2="538.7"/>
<line class="st0" x1="677.9" y1="539.6" x2="677.6" y2="539.2"/>
<line class="st0" x1="678.3" y1="540" x2="677.9" y2="539.6"/>
<line class="st0" x1="678.7" y1="540.4" x2="678.3" y2="540"/>
<line class="st0" x1="679.1" y1="540.9" x2="678.7" y2="540.4"/>
<line class="st0" x1="679.5" y1="541.3" x2="679.1" y2="540.9"/>
<line class="st0" x1="680" y1="541.7" x2="679.5" y2="541.3"/>
<line class="st0" x1="680.4" y1="542.2" x2="680" y2="541.7"/>
<line class="st0" x1="680.9" y1="542.6" x2="680.4" y2="542.2"/>
<line class="st0" x1="681.4" y1="543" x2="680.9" y2="542.6"/>
<line class="st0" x1="681.9" y1="543.5" x2="681.4" y2="543"/>
<line class="st0" x1="683" y1="544.3" x2="681.9" y2="543.5"/>
<line class="st0" x1="684.2" y1="545.2" x2="683" y2="544.3"/>
<line class="st0" x1="685.4" y1="546.1" x2="684.2" y2="545.2"/>
<line class="st0" x1="686.7" y1="546.9" x2="685.4" y2="546.1"/>
<line class="st0" x1="688.1" y1="547.8" x2="686.7" y2="546.9"/>
<line class="st0" x1="689.6" y1="548.6" x2="688.1" y2="547.8"/>
<line class="st0" x1="691.2" y1="549.5" x2="689.6" y2="548.6"/>
<line class="st0" x1="692.8" y1="550.3" x2="691.2" y2="549.5"/>
<line class="st0" x1="694.5" y1="551.1" x2="692.8" y2="550.3"/>
<line class="st0" x1="696.3" y1="551.9" x2="694.5" y2="551.1"/>
<line class="st0" x1="699.1" y1="553.1" x2="696.3" y2="551.9"/>
<line class="st0" x1="702.1" y1="554.2" x2="699.1" y2="553.1"/>
<line class="st0" x1="705.3" y1="555.3" x2="702.1" y2="554.2"/>
<line class="st0" x1="708.7" y1="556.3" x2="705.3" y2="555.3"/>
<line class="st0" x1="712.1" y1="557.2" x2="708.7" y2="556.3"/>
<line class="st0" x1="715.8" y1="558.1" x2="712.1" y2="557.2"/>
<line class="st0" x1="719.6" y1="558.9" x2="715.8" y2="558.1"/>
<line class="st0" x1="724.9" y1="559.8" x2="719.6" y2="558.9"/>
<line class="st0" x1="730.4" y1="560.6" x2="724.9" y2="559.8"/>
<line class="st0" x1="736.1" y1="561.3" x2="730.4" y2="560.6"/>
<line class="st0" x1="742.1" y1="561.8" x2="736.1" y2="561.3"/>
<line class="st0" x1="749.8" y1="562.2" x2="742.1" y2="561.8"/>
<line class="st0" x1="759.5" y1="562.4" x2="749.8" y2="562.2"/>
<line class="st0" x1="762" y1="562.3" x2="759.5" y2="562.4"/>
<line class="st0" x1="762" y1="562.3" x2="762" y2="547.3"/>
<path class="st0" d="M766.6,547.3c0-1.3-1-2.3-2.3-2.3c-1.3,0-2.3,1-2.3,2.3"/>
<path class="st0" d="M856.2,534.9c0-3,2.4-5.5,5.5-5.5c3,0,5.5,2.4,5.5,5.5c0,3-2.4,5.5-5.5,5.5
	C858.6,540.4,856.2,537.9,856.2,534.9L856.2,534.9z"/>
<path class="st0" d="M685.8,486.2c0-3,2.4-5.5,5.5-5.5c3,0,5.5,2.4,5.5,5.5c0,3-2.4,5.5-5.5,5.5
	C688.2,491.7,685.8,489.2,685.8,486.2L685.8,486.2z"/>
<line class="st0" x1="764.5" y1="493" x2="779.8" y2="493.2"/>
<line class="st0" x1="779.8" y1="493.2" x2="779.8" y2="494.5"/>
<line class="st0" x1="778.7" y1="494.6" x2="779.8" y2="494.5"/>
<line class="st0" x1="720.3" y1="500.8" x2="778.7" y2="494.6"/>
<line class="st0" x1="691.2" y1="503.5" x2="720.3" y2="500.8"/>
<line class="st0" x1="776.6" y1="487.1" x2="756.1" y2="481.9"/>
<line class="st0" x1="779.9" y1="488.7" x2="764.6" y2="488.4"/>
<line class="st0" x1="779.9" y1="488" x2="779.9" y2="488.7"/>
<line class="st0" x1="779.9" y1="488" x2="776.6" y2="487.1"/>
<line class="st0" x1="756.1" y1="481.9" x2="736.1" y2="477.4"/>
<line class="st0" x1="714.3" y1="473" x2="691.2" y2="468.9"/>
<line class="st0" x1="736.1" y1="477.4" x2="714.3" y2="473"/>
<path class="st0" d="M764.6,488.4c-0.3,0-0.5,0-0.8,0.1c-0.2,0.1-0.5,0.2-0.7,0.4s-0.4,0.4-0.5,0.6s-0.2,0.5-0.3,0.7
	c-0.1,0.3-0.1,0.5-0.1,0.8c0,0.3,0.1,0.5,0.2,0.7c0.1,0.2,0.3,0.4,0.4,0.6c0.2,0.2,0.4,0.3,0.6,0.5c0.3,0.1,0.6,0.2,0.7,0.2
	c0.1,0,0.2,0,0.2,0"/>
<path class="st0" d="M691.2,468.9c-9.6,0-17.3,7.8-17.2,17.4c0,9.5,7.8,17.2,17.3,17.2"/>
</svg>
