  0
SECTION
  2
HEADER
  9
$ACADVER
  1
AC1014
  9
$ACADMAINTVER
 70
     9
  9
$DWGCODEPAGE
  3
ANSI_1252
  9
$INSBASE
 10
0.0
 20
0.0
 30
0.0
  9
$EXTMIN
 10
1.000000000000000E+20
 20
1.000000000000000E+20
 30
1.000000000000000E+20
  9
$EXTMAX
 10
-1.000000000000000E+20
 20
-1.000000000000000E+20
 30
-1.000000000000000E+20
  9
$LIMMIN
 10
0.0
 20
0.0
  9
$LIMMAX
 10
12.0
 20
9.0
  9
$ORTHOMODE
 70
     0
  9
$REGENMODE
 70
     1
  9
$FILLMODE
 70
     1
  9
$QTEXTMODE
 70
     0
  9
$MIRRTEXT
 70
     1
  9
$DRAGMODE
 70
     2
  9
$LTSCALE
 40
1.0
  9
$OSMODE
 70
    37
  9
$ATTMODE
 70
     1
  9
$TEXTSIZE
 40
0.2
  9
$TRACEWID
 40
0.05
  9
$TEXTSTYLE
  7
STANDARD
  9
$CLAYER
  8
DEFAULT
  9
$CELTYPE
  6
BYLAYER
  9
$CECOLOR
 62
   256
  9
$CELTSCALE
 40
1.0
  9
$DELOBJ
 70
     1
  9
$DISPSILH
 70
     0
  9
$DIMSCALE
 40
1.0
  9
$DIMASZ
 40
0.18
  9
$DIMEXO
 40
0.0625
  9
$DIMDLI
 40
0.38
  9
$DIMRND
 40
0.0
  9
$DIMDLE
 40
0.0
  9
$DIMEXE
 40
0.18
  9
$DIMTP
 40
0.0
  9
$DIMTM
 40
0.0
  9
$DIMTXT
 40
0.18
  9
$DIMCEN
 40
0.09
  9
$DIMTSZ
 40
0.0
  9
$DIMTOL
 70
     0
  9
$DIMLIM
 70
     0
  9
$DIMTIH
 70
     1
  9
$DIMTOH
 70
     1
  9
$DIMSE1
 70
     0
  9
$DIMSE2
 70
     0
  9
$DIMTAD
 70
     0
  9
$DIMZIN
 70
     0
  9
$DIMBLK
  1

  9
$DIMASO
 70
     1
  9
$DIMSHO
 70
     1
  9
$DIMPOST
  1

  9
$DIMAPOST
  1

  9
$DIMALT
 70
     0
  9
$DIMALTD
 70
     2
  9
$DIMALTF
 40
25.4
  9
$DIMLFAC
 40
1.0
  9
$DIMTOFL
 70
     0
  9
$DIMTVP
 40
0.0
  9
$DIMTIX
 70
     0
  9
$DIMSOXD
 70
     0
  9
$DIMSAH
 70
     0
  9
$DIMBLK1
  1

  9
$DIMBLK2
  1

  9
$DIMSTYLE
  2
STANDARD_ACAD
  9
$DIMCLRD
 70
     0
  9
$DIMCLRE
 70
     0
  9
$DIMCLRT
 70
     0
  9
$DIMTFAC
 40
1.0
  9
$DIMGAP
 40
0.09
  9
$DIMJUST
 70
     0
  9
$DIMSD1
 70
     0
  9
$DIMSD2
 70
     0
  9
$DIMTOLJ
 70
     1
  9
$DIMTZIN
 70
     0
  9
$DIMALTZ
 70
     0
  9
$DIMALTTZ
 70
     0
  9
$DIMFIT
 70
     5
  9
$DIMUPT
 70
     0
  9
$DIMUNIT
 70
     2
  9
$DIMDEC
 70
     4
  9
$DIMTDEC
 70
     4
  9
$DIMALTU
 70
     2
  9
$DIMALTTD
 70
     2
  9
$DIMTXSTY
  7
STANDARD
  9
$DIMAUNIT
 70
     0
  9
$LUNITS
 70
     2
  9
$LUPREC
 70
     2
  9
$SKETCHINC
 40
0.1
  9
$FILLETRAD
 40
0.5
  9
$AUNITS
 70
     0
  9
$AUPREC
 70
     0
  9
$MENU
  1
.
  9
$ELEVATION
 40
0.0
  9
$PELEVATION
 40
0.0
  9
$THICKNESS
 40
0.0
  9
$LIMCHECK
 70
     0
  9
$CHAMFERA
 40
0.0
  9
$CHAMFERB
 40
0.0
  9
$CHAMFERC
 40
0.0
  9
$CHAMFERD
 40
0.0
  9
$SKPOLY
 70
     0
  9
$TDCREATE
 40
2458636.754588507
  9
$TDUPDATE
 40
2458636.75471272
  9
$TDINDWG
 40
0.0000000116
  9
$TDUSRTIMER
 40
0.0000000116
  9
$USRTIMER
 70
     1
  9
$ANGBASE
 50
0.0
  9
$ANGDIR
 70
     0
  9
$PDMODE
 70
     0
  9
$PDSIZE
 40
0.0
  9
$PLINEWID
 40
0.0
  9
$COORDS
 70
     1
  9
$SPLFRAME
 70
     0
  9
$SPLINETYPE
 70
     6
  9
$SPLINESEGS
 70
     8
  9
$ATTDIA
 70
     0
  9
$ATTREQ
 70
     1
  9
$HANDLING
 70
     1
  9
$HANDSEED
  5
1BC
  9
$SURFTAB1
 70
     6
  9
$SURFTAB2
 70
     6
  9
$SURFTYPE
 70
     6
  9
$SURFU
 70
     6
  9
$SURFV
 70
     6
  9
$UCSNAME
  2

  9
$UCSORG
 10
0.0
 20
0.0
 30
0.0
  9
$UCSXDIR
 10
1.0
 20
0.0
 30
0.0
  9
$UCSYDIR
 10
0.0
 20
1.0
 30
0.0
  9
$PUCSNAME
  2

  9
$PUCSORG
 10
0.0
 20
0.0
 30
0.0
  9
$PUCSXDIR
 10
1.0
 20
0.0
 30
0.0
  9
$PUCSYDIR
 10
0.0
 20
1.0
 30
0.0
  9
$USERI1
 70
     0
  9
$USERI2
 70
     0
  9
$USERI3
 70
     0
  9
$USERI4
 70
     0
  9
$USERI5
 70
     0
  9
$USERR1
 40
0.0
  9
$USERR2
 40
0.0
  9
$USERR3
 40
0.0
  9
$USERR4
 40
0.0
  9
$USERR5
 40
0.0
  9
$WORLDVIEW
 70
     1
  9
$SHADEDGE
 70
     3
  9
$SHADEDIF
 70
    70
  9
$TILEMODE
 70
     1
  9
$MAXACTVP
 70
    64
  9
$PINSBASE
 10
0.0
 20
0.0
 30
0.0
  9
$PLIMCHECK
 70
     0
  9
$PEXTMIN
 10
1.000000000000000E+20
 20
1.000000000000000E+20
 30
1.000000000000000E+20
  9
$PEXTMAX
 10
-1.000000000000000E+20
 20
-1.000000000000000E+20
 30
-1.000000000000000E+20
  9
$PLIMMIN
 10
0.0
 20
0.0
  9
$PLIMMAX
 10
12.0
 20
9.0
  9
$UNITMODE
 70
     0
  9
$VISRETAIN
 70
     1
  9
$PLINEGEN
 70
     0
  9
$PSLTSCALE
 70
     1
  9
$TREEDEPTH
 70
  3020
  9
$PICKSTYLE
 70
     1
  9
$CMLSTYLE
  2
STANDARD
  9
$CMLJUST
 70
     0
  9
$CMLSCALE
 40
1.0
  9
$PROXYGRAPHICS
 70
     1
  9
$MEASUREMENT
 70
     0
  0
ENDSEC
  0
SECTION
  2
CLASSES
  0
CLASS
  1
ACDBDICTIONARYWDFLT
  2
AcDbDictionaryWithDefault
  3
ObjectDBX Classes
 90
        0
280
     0
281
     0
  0
CLASS
  1
VISUALSTYLE
  2
AcDbVisualStyle
  3
ObjectDBX Classes
 90
     4095
280
     0
281
     0
  0
CLASS
  1
MATERIAL
  2
AcDbMaterial
  3
ObjectDBX Classes
 90
     1153
280
     0
281
     0
  0
CLASS
  1
SCALE
  2
AcDbScale
  3
ObjectDBX Classes
 90
     1153
280
     0
281
     0
  0
CLASS
  1
TABLESTYLE
  2
AcDbTableStyle
  3
ObjectDBX Classes
 90
     4095
280
     0
281
     0
  0
CLASS
  1
MLEADERSTYLE
  2
AcDbMLeaderStyle
  3
ACDB_MLEADERSTYLE_CLASS
 90
     4095
280
     0
281
     0
  0
CLASS
  1
SUN
  2
AcDbSun
  3
SCENEOE
 90
     1153
280
     0
281
     0
  0
CLASS
  1
DICTIONARYVAR
  2
AcDbDictionaryVar
  3
ObjectDBX Classes
 90
        0
280
     0
281
     0
  0
CLASS
  1
XRECORD
  2
AcDbXrecord
  3
ObjectDBX Classes
 90
        0
280
     0
281
     0
  0
CLASS
  1
LWPOLYLINE
  2
AcDbPolyline
  3
ObjectDBX Classes
 90
        0
280
     0
281
     1
  0
CLASS
  1
HATCH
  2
AcDbHatch
  3
ObjectDBX Classes
 90
        0
280
     0
281
     1
  0
CLASS
  1
ACDBPLACEHOLDER
  2
AcDbPlaceHolder
  3
ObjectDBX Classes
 90
        0
280
     0
281
     0
  0
CLASS
  1
LAYOUT
  2
AcDbLayout
  3
ObjectDBX Classes
 90
        0
280
     0
281
     0
  0
ENDSEC
  0
SECTION
  2
TABLES
  0
TABLE
  2
VPORT
  5
8
102
{ACAD_XDICTIONARY
360
1B1
102
}
330
0
100
AcDbSymbolTable
 70
     1
  0
VPORT
  5
29
330
8
100
AcDbSymbolTableRecord
100
AcDbViewportTableRecord
  2
*ACTIVE
 70
     0
 10
0.0
 20
0.0
 11
1.0
 21
1.0
 12
10.42990654205607
 22
4.5
 13
0.0
 23
0.0
 14
0.5
 24
0.5
 15
0.5
 25
0.5
 16
0.0
 26
0.0
 36
1.0
 17
0.0
 27
0.0
 37
0.0
 40
9.0
 41
1.972972972850329
 42
50.0
 43
0.0
 44
0.0
 50
0.0
 51
0.0
 71
     0
 72
   100
 73
     1
 74
     3
 75
     0
 76
     0
 77
     0
 78
     0
  0
ENDTAB
  0
TABLE
  2
LTYPE
  5
5
330
0
100
AcDbSymbolTable
 70
     1
  0
LTYPE
  5
14
330
5
100
AcDbSymbolTableRecord
100
AcDbLinetypeTableRecord
  2
BYBLOCK
 70
     0
  3

 72
    65
 73
     0
 40
0.0
  0
LTYPE
  5
15
330
5
100
AcDbSymbolTableRecord
100
AcDbLinetypeTableRecord
  2
BYLAYER
 70
     0
  3

 72
    65
 73
     0
 40
0.0
  0
LTYPE
  5
16
330
5
100
AcDbSymbolTableRecord
100
AcDbLinetypeTableRecord
  2
CONTINUOUS
 70
     0
  3
Solid line
 72
    65
 73
     0
 40
0.0
  0
ENDTAB
  0
TABLE
  2
LAYER
  5
2
330
0
100
AcDbSymbolTable
 70
     2
  0
LAYER
  5
10
330
2
100
AcDbSymbolTableRecord
100
AcDbLayerTableRecord
  2
0
 70
     0
 62
     7
  6
CONTINUOUS
  0
LAYER
  5
6E
330
2
100
AcDbSymbolTableRecord
100
AcDbLayerTableRecord
  2
DEFAULT
 70
     0
 62
    18
  6
CONTINUOUS
  0
ENDTAB
  0
TABLE
  2
STYLE
  5
3
330
0
100
AcDbSymbolTable
 70
     1
  0
STYLE
  5
11
330
3
100
AcDbSymbolTableRecord
100
AcDbTextStyleTableRecord
  2
STANDARD
 70
     0
 40
0.0
 41
1.0
 50
0.0
 71
     0
 42
0.2
  3
txt
  4

  0
ENDTAB
  0
TABLE
  2
VIEW
  5
6
330
0
100
AcDbSymbolTable
 70
     0
  0
ENDTAB
  0
TABLE
  2
UCS
  5
7
330
0
100
AcDbSymbolTable
 70
     0
  0
ENDTAB
  0
TABLE
  2
APPID
  5
9
330
0
100
AcDbSymbolTable
 70
     2
  0
APPID
  5
12
330
9
100
AcDbSymbolTableRecord
100
AcDbRegAppTableRecord
  2
ACAD
 70
     0
  0
APPID
  5
1BB
330
9
100
AcDbSymbolTableRecord
100
AcDbRegAppTableRecord
  2
ACAD_MLEADERVER
 70
     0
  0
ENDTAB
  0
TABLE
  2
DIMSTYLE
  5
A
330
0
100
AcDbSymbolTable
 70
     1
  0
DIMSTYLE
105
27
330
A
100
AcDbSymbolTableRecord
100
AcDbDimStyleTableRecord
  2
STANDARD_ACAD
 70
     0
  3

  4

  5

  6

  7

 40
1.0
 41
0.18
 42
0.0625
 43
0.38
 44
0.18
 45
0.0
 46
0.0
 47
0.0
 48
0.0
140
0.18
141
0.09
142
0.0
143
25.4
144
1.0
145
0.0
146
1.0
147
0.09
 71
     0
 72
     0
 73
     1
 74
     1
 75
     0
 76
     0
 77
     0
 78
     0
170
     0
171
     2
172
     0
173
     0
174
     0
175
     0
176
     0
177
     0
178
     0
270
     2
271
     4
272
     4
273
     2
274
     2
340
11
275
     0
280
     0
281
     0
282
     0
283
     1
284
     0
285
     0
286
     0
287
     3
288
     0
  0
ENDTAB
  0
TABLE
  2
BLOCK_RECORD
  5
1
330
0
100
AcDbSymbolTable
 70
     0
  0
BLOCK_RECORD
  5
1F
330
1
100
AcDbSymbolTableRecord
100
AcDbBlockTableRecord
  2
*MODEL_SPACE
  0
BLOCK_RECORD
  5
1B
330
1
100
AcDbSymbolTableRecord
100
AcDbBlockTableRecord
  2
*PAPER_SPACE
  0
ENDTAB
  0
ENDSEC
  0
SECTION
  2
BLOCKS
  0
BLOCK
  5
20
330
1F
100
AcDbEntity
  8
0
100
AcDbBlockBegin
  2
*MODEL_SPACE
 70
     0
 10
0.0
 20
0.0
 30
0.0
  3
*MODEL_SPACE
  1

  0
ENDBLK
  5
21
330
1F
100
AcDbEntity
  8
0
100
AcDbBlockEnd
  0
BLOCK
  5
1C
330
1B
100
AcDbEntity
 67
     1
  8
0
100
AcDbBlockBegin
  2
*PAPER_SPACE
 70
     0
 10
0.0
 20
0.0
 30
0.0
  3
*PAPER_SPACE
  1

  0
ENDBLK
  5
1D
330
1B
100
AcDbEntity
 67
     1
  8
0
100
AcDbBlockEnd
  0
ENDSEC
  0
SECTION
  2
ENTITIES
  0
POLYLINE
  5
6F
330
1F
100
AcDbEntity
  8
DEFAULT
100
AcDb2dPolyline
 66
     1
 10
0.0
 20
0.0
 30
0.0
 70
     1
  0
VERTEX
  5
70
330
6F
100
AcDbEntity
  8
DEFAULT
100
AcDbVertex
100
AcDb2dVertex
 10
-22.04457966699277
 20
-11.72773146041155
 30
0.0
  0
VERTEX
  5
71
330
6F
100
AcDbEntity
  8
DEFAULT
100
AcDbVertex
100
AcDb2dVertex
 10
-22.00157966699277
 20
-11.72773146041155
 30
0.0
  0
VERTEX
  5
72
330
6F
100
AcDbEntity
  8
DEFAULT
100
AcDbVertex
100
AcDb2dVertex
 10
-22.00157966699277
 20
-11.27773146041155
 30
0.0
  0
VERTEX
  5
73
330
6F
100
AcDbEntity
  8
DEFAULT
100
AcDbVertex
100
AcDb2dVertex
 10
-22.04457966699277
 20
-11.27773146041155
 30
0.0
  0
SEQEND
  5
74
330
6F
100
AcDbEntity
  8
DEFAULT
  0
POLYLINE
  5
75
330
1F
100
AcDbEntity
  8
DEFAULT
100
AcDb2dPolyline
 66
     1
 10
0.0
 20
0.0
 30
0.0
 70
     1
  0
VERTEX
  5
76
330
75
100
AcDbEntity
  8
DEFAULT
100
AcDbVertex
100
AcDb2dVertex
 10
-22.04457966699277
 20
-11.72612961834334
 30
0.0
  0
VERTEX
  5
77
330
75
100
AcDbEntity
  8
DEFAULT
100
AcDbVertex
100
AcDb2dVertex
 10
-22.00157966699277
 20
-11.72612961834334
 30
0.0
  0
VERTEX
  5
78
330
75
100
AcDbEntity
  8
DEFAULT
100
AcDbVertex
100
AcDb2dVertex
 10
-22.00157966699277
 20
-11.27612961834334
 30
0.0
  0
VERTEX
  5
79
330
75
100
AcDbEntity
  8
DEFAULT
100
AcDbVertex
100
AcDb2dVertex
 10
-22.04457966699277
 20
-11.27612961834334
 30
0.0
  0
SEQEND
  5
7A
330
75
100
AcDbEntity
  8
DEFAULT
  0
POLYLINE
  5
7B
330
1F
100
AcDbEntity
  8
DEFAULT
100
AcDb2dPolyline
 66
     1
 10
0.0
 20
0.0
 30
0.0
 70
     1
  0
VERTEX
  5
7C
330
7B
100
AcDbEntity
  8
DEFAULT
100
AcDbVertex
100
AcDb2dVertex
 10
-19.78985288733856
 20
-11.69158705261621
 30
0.0
  0
VERTEX
  5
7D
330
7B
100
AcDbEntity
  8
DEFAULT
100
AcDbVertex
100
AcDb2dVertex
 10
-19.75812340797881
 20
-11.66256567877624
 30
0.0
  0
VERTEX
  5
7E
330
7B
100
AcDbEntity
  8
DEFAULT
100
AcDbVertex
100
AcDb2dVertex
 10
-20.06183545979243
 20
-11.33051298780212
 30
0.0
  0
VERTEX
  5
7F
330
7B
100
AcDbEntity
  8
DEFAULT
100
AcDbVertex
100
AcDb2dVertex
 10
-20.09356493915218
 20
-11.35953436164208
 30
0.0
  0
SEQEND
  5
80
330
7B
100
AcDbEntity
  8
DEFAULT
  0
POLYLINE
  5
81
330
1F
100
AcDbEntity
  8
DEFAULT
100
AcDb2dPolyline
 66
     1
 10
0.0
 20
0.0
 30
0.0
  0
VERTEX
  5
82
330
81
100
AcDbEntity
  8
DEFAULT
100
AcDbVertex
100
AcDb2dVertex
 10
-17.39234640134011
 20
-11.45917211670704
 30
0.0
  0
VERTEX
  5
83
330
81
100
AcDbEntity
  8
DEFAULT
100
AcDbVertex
100
AcDb2dVertex
 10
-17.77209473635659
 20
-11.36676602828226
 30
0.0
  0
VERTEX
  5
84
330
81
100
AcDbEntity
  8
DEFAULT
100
AcDbVertex
100
AcDb2dVertex
 10
-18.14447826825067
 20
-11.28299280130998
 30
0.0
  0
VERTEX
  5
85
330
81
100
AcDbEntity
  8
DEFAULT
100
AcDbVertex
100
AcDb2dVertex
 10
-18.50863048350353
 20
-11.20820893124731
 30
0.0
  0
VERTEX
  5
86
330
81
100
AcDbEntity
  8
DEFAULT
100
AcDbVertex
100
AcDb2dVertex
 10
-18.86379729078232
 20
-11.14202107136058
 30
0.0
  0
VERTEX
  5
87
330
81
100
AcDbEntity
  8
DEFAULT
100
AcDbVertex
100
AcDb2dVertex
 10
-19.25770326460891
 20
-11.07595233178868
 30
0.0
  0
VERTEX
  5
88
330
81
100
AcDbEntity
  8
DEFAULT
100
AcDbVertex
100
AcDb2dVertex
 10
-19.68381124104207
 20
-11.01242259358008
 30
0.0
  0
VERTEX
  5
89
330
81
100
AcDbEntity
  8
DEFAULT
100
AcDbVertex
100
AcDb2dVertex
 10
-20.09086676725326
 20
-10.95903141831615
 30
0.0
  0
VERTEX
  5
8A
330
81
100
AcDbEntity
  8
DEFAULT
100
AcDbVertex
100
AcDb2dVertex
 10
-20.47833240809707
 20
-10.91511590088282
 30
0.0
  0
VERTEX
  5
8B
330
81
100
AcDbEntity
  8
DEFAULT
100
AcDbVertex
100
AcDb2dVertex
 10
-20.84558724501942
 20
-10.88078668849794
 30
0.0
  0
VERTEX
  5
8C
330
81
100
AcDbEntity
  8
DEFAULT
100
AcDbVertex
100
AcDb2dVertex
 10
-21.15536421722864
 20
-10.85888534343286
 30
0.0
  0
VERTEX
  5
8D
330
81
100
AcDbEntity
  8
DEFAULT
100
AcDbVertex
100
AcDb2dVertex
 10
-21.41356295804675
 20
-10.84699519784457
 30
0.0
  0
VERTEX
  5
8E
330
81
100
AcDbEntity
  8
DEFAULT
100
AcDbVertex
100
AcDb2dVertex
 10
-21.65964404733629
 20
-10.84248983318089
 30
0.0
  0
VERTEX
  5
8F
330
81
100
AcDbEntity
  8
DEFAULT
100
AcDbVertex
100
AcDb2dVertex
 10
-21.86065948677852
 20
-10.84490736547977
 30
0.0
  0
VERTEX
  5
90
330
81
100
AcDbEntity
  8
DEFAULT
100
AcDbVertex
100
AcDb2dVertex
 10
-22.05213375078864
 20
-10.85339356351496
 30
0.0
  0
VERTEX
  5
91
330
81
100
AcDbEntity
  8
DEFAULT
100
AcDbVertex
100
AcDb2dVertex
 10
-22.20423294831816
 20
-10.86521307859163
 30
0.0
  0
VERTEX
  5
92
330
81
100
AcDbEntity
  8
DEFAULT
100
AcDbVertex
100
AcDb2dVertex
 10
-22.32080971278831
 20
-10.87779036462572
 30
0.0
  0
VERTEX
  5
93
330
81
100
AcDbEntity
  8
DEFAULT
100
AcDbVertex
100
AcDb2dVertex
 10
-22.43260711063985
 20
-10.89310820910386
 30
0.0
  0
VERTEX
  5
94
330
81
100
AcDbEntity
  8
DEFAULT
100
AcDbVertex
100
AcDb2dVertex
 10
-22.53949300814025
 20
-10.91110208202659
 30
0.0
  0
VERTEX
  5
95
330
81
100
AcDbEntity
  8
DEFAULT
100
AcDbVertex
100
AcDb2dVertex
 10
-22.64122741891043
 20
-10.93166117693083
 30
0.0
  0
VERTEX
  5
96
330
81
100
AcDbEntity
  8
DEFAULT
100
AcDbVertex
100
AcDb2dVertex
 10
-22.71400326053062
 20
-10.94866904903947
 30
0.0
  0
VERTEX
  5
97
330
81
100
AcDbEntity
  8
DEFAULT
100
AcDbVertex
100
AcDb2dVertex
 10
-22.78364570612466
 20
-10.96694230493765
 30
0.0
  0
VERTEX
  5
98
330
81
100
AcDbEntity
  8
DEFAULT
100
AcDbVertex
100
AcDb2dVertex
 10
-22.85001391744672
 20
-10.98637089133645
 30
0.0
  0
VERTEX
  5
99
330
81
100
AcDbEntity
  8
DEFAULT
100
AcDbVertex
100
AcDb2dVertex
 10
-22.91304420261122
 20
-11.00683860152104
 30
0.0
  0
VERTEX
  5
9A
330
81
100
AcDbEntity
  8
DEFAULT
100
AcDbVertex
100
AcDb2dVertex
 10
-22.97269564129564
 20
-11.02822156503213
 30
0.0
  0
VERTEX
  5
9B
330
81
100
AcDbEntity
  8
DEFAULT
100
AcDbVertex
100
AcDb2dVertex
 10
-23.02891476543367
 20
-11.0503862927641
 30
0.0
  0
VERTEX
  5
9C
330
81
100
AcDbEntity
  8
DEFAULT
100
AcDbVertex
100
AcDb2dVertex
 10
-23.08162164904572
 20
-11.07318922941138
 30
0.0
  0
VERTEX
  5
9D
330
81
100
AcDbEntity
  8
DEFAULT
100
AcDbVertex
100
AcDb2dVertex
 10
-23.11480453567244
 20
-11.08867963817857
 30
0.0
  0
VERTEX
  5
9E
330
81
100
AcDbEntity
  8
DEFAULT
100
AcDbVertex
100
AcDb2dVertex
 10
-23.14642809137752
 20
-11.10435634949289
 30
0.0
  0
VERTEX
  5
9F
330
81
100
AcDbEntity
  8
DEFAULT
100
AcDbVertex
100
AcDb2dVertex
 10
-23.17649520092672
 20
-11.12018194428547
 30
0.0
  0
VERTEX
  5
A0
330
81
100
AcDbEntity
  8
DEFAULT
100
AcDbVertex
100
AcDb2dVertex
 10
-23.20500926572817
 20
-11.13612017193918
 30
0.0
  0
VERTEX
  5
A1
330
81
100
AcDbEntity
  8
DEFAULT
100
AcDbVertex
100
AcDb2dVertex
 10
-23.23197924445629
 20
-11.15213723774572
 30
0.0
  0
VERTEX
  5
A2
330
81
100
AcDbEntity
  8
DEFAULT
100
AcDbVertex
100
AcDb2dVertex
 10
-23.25742009878199
 20
-11.16820223774465
 30
0.0
  0
VERTEX
  5
A3
330
81
100
AcDbEntity
  8
DEFAULT
100
AcDbVertex
100
AcDb2dVertex
 10
-23.28134182797477
 20
-11.18428507223583
 30
0.0
  0
VERTEX
  5
A4
330
81
100
AcDbEntity
  8
DEFAULT
100
AcDbVertex
100
AcDb2dVertex
 10
-23.30375585525881
 20
-11.20035784836626
 30
0.0
  0
VERTEX
  5
A5
330
81
100
AcDbEntity
  8
DEFAULT
100
AcDbVertex
100
AcDb2dVertex
 10
-23.32467470687372
 20
-11.21639492337991
 30
0.0
  0
VERTEX
  5
A6
330
81
100
AcDbEntity
  8
DEFAULT
100
AcDbVertex
100
AcDb2dVertex
 10
-23.33457758201291
 20
-11.22439267664798
 30
0.0
  0
VERTEX
  5
A7
330
81
100
AcDbEntity
  8
DEFAULT
100
AcDbVertex
100
AcDb2dVertex
 10
-23.34411170505926
 20
-11.2323729089236
 30
0.0
  0
VERTEX
  5
A8
330
81
100
AcDbEntity
  8
DEFAULT
100
AcDbVertex
100
AcDb2dVertex
 10
-23.35327881774197
 20
-11.24033304403688
 30
0.0
  0
VERTEX
  5
A9
330
81
100
AcDbEntity
  8
DEFAULT
100
AcDbVertex
100
AcDb2dVertex
 10
-23.36208067607633
 20
-11.24827064145163
 30
0.0
  0
VERTEX
  5
AA
330
81
100
AcDbEntity
  8
DEFAULT
100
AcDbVertex
100
AcDb2dVertex
 10
-23.37051904216341
 20
-11.25618339386845
 30
0.0
  0
VERTEX
  5
AB
330
81
100
AcDbEntity
  8
DEFAULT
100
AcDbVertex
100
AcDb2dVertex
 10
-23.37859567676847
 20
-11.26406912463001
 30
0.0
  0
VERTEX
  5
AC
330
81
100
AcDbEntity
  8
DEFAULT
100
AcDbVertex
100
AcDb2dVertex
 10
-23.38631233125196
 20
-11.27192578461777
 30
0.0
  0
VERTEX
  5
AD
330
81
100
AcDbEntity
  8
DEFAULT
100
AcDbVertex
100
AcDb2dVertex
 10
-23.39367074215725
 20
-11.27975144948107
 30
0.0
  0
VERTEX
  5
AE
330
81
100
AcDbEntity
  8
DEFAULT
100
AcDbVertex
100
AcDb2dVertex
 10
-23.40067262085493
 20
-11.28754431537245
 30
0.0
  0
VERTEX
  5
AF
330
81
100
AcDbEntity
  8
DEFAULT
100
AcDbVertex
100
AcDb2dVertex
 10
-23.40731965573144
 20
-11.29530269748263
 30
0.0
  0
VERTEX
  5
B0
330
81
100
AcDbEntity
  8
DEFAULT
100
AcDbVertex
100
AcDb2dVertex
 10
-23.41361348672871
 20
-11.30302502157785
 30
0.0
  0
VERTEX
  5
B1
330
81
100
AcDbEntity
  8
DEFAULT
100
AcDbVertex
100
AcDb2dVertex
 10
-23.41955574444968
 20
-11.31070983105941
 30
0.0
  0
VERTEX
  5
B2
330
81
100
AcDbEntity
  8
DEFAULT
100
AcDbVertex
100
AcDb2dVertex
 10
-23.42514794188744
 20
-11.31835575779586
 30
0.0
  0
VERTEX
  5
B3
330
81
100
AcDbEntity
  8
DEFAULT
100
AcDbVertex
100
AcDb2dVertex
 10
-23.43039172232287
 20
-11.32596157965525
 30
0.0
  0
VERTEX
  5
B4
330
81
100
AcDbEntity
  8
DEFAULT
100
AcDbVertex
100
AcDb2dVertex
 10
-23.43529345846382
 20
-11.33352734331906
 30
0.0
  0
VERTEX
  5
B5
330
81
100
AcDbEntity
  8
DEFAULT
100
AcDbVertex
100
AcDb2dVertex
 10
-23.43985148754476
 20
-11.34105124491522
 30
0.0
  0
VERTEX
  5
B6
330
81
100
AcDbEntity
  8
DEFAULT
100
AcDbVertex
100
AcDb2dVertex
 10
-23.44406534265918
 20
-11.3485318677904
 30
0.0
  0
VERTEX
  5
B7
330
81
100
AcDbEntity
  8
DEFAULT
100
AcDbVertex
100
AcDb2dVertex
 10
-23.44793570900787
 20
-11.35596817339343
 30
0.0
  0
VERTEX
  5
B8
330
81
100
AcDbEntity
  8
DEFAULT
100
AcDbVertex
100
AcDb2dVertex
 10
-23.44973271746014
 20
-11.3596490379221
 30
0.0
  0
VERTEX
  5
B9
330
81
100
AcDbEntity
  8
DEFAULT
100
AcDbVertex
100
AcDb2dVertex
 10
-23.45146380122611
 20
-11.36335934647379
 30
0.0
  0
VERTEX
  5
BA
330
81
100
AcDbEntity
  8
DEFAULT
100
AcDbVertex
100
AcDb2dVertex
 10
-23.45309132507592
 20
-11.36701812306575
 30
0.0
  0
VERTEX
  5
BB
330
81
100
AcDbEntity
  8
DEFAULT
100
AcDbVertex
100
AcDb2dVertex
 10
-23.45465074520061
 20
-11.37070463804768
 30
0.0
  0
VERTEX
  5
BC
330
81
100
AcDbEntity
  8
DEFAULT
100
AcDbVertex
100
AcDb2dVertex
 10
-23.45610929950526
 20
-11.37434109634651
 30
0.0
  0
VERTEX
  5
BD
330
81
100
AcDbEntity
  8
DEFAULT
100
AcDbVertex
100
AcDb2dVertex
 10
-23.45749760188264
 20
-11.37800336476175
 30
0.0
  0
VERTEX
  5
BE
330
81
100
AcDbEntity
  8
DEFAULT
100
AcDbVertex
100
AcDb2dVertex
 10
-23.45878766822174
 20
-11.38161731384446
 30
0.0
  0
VERTEX
  5
BF
330
81
100
AcDbEntity
  8
DEFAULT
100
AcDbVertex
100
AcDb2dVertex
 10
-23.46000535811813
 20
-11.38525489954757
 30
0.0
  0
VERTEX
  5
C0
330
81
100
AcDbEntity
  8
DEFAULT
100
AcDbVertex
100
AcDb2dVertex
 10
-23.46112735949348
 20
-11.38884617671475
 30
0.0
  0
VERTEX
  5
C1
330
81
100
AcDbEntity
  8
DEFAULT
100
AcDbVertex
100
AcDb2dVertex
 10
-23.46217493240572
 20
-11.39245866533752
 30
0.0
  0
VERTEX
  5
C2
330
81
100
AcDbEntity
  8
DEFAULT
100
AcDbVertex
100
AcDb2dVertex
 10
-23.46312924305433
 20
-11.39602713256079
 30
0.0
  0
VERTEX
  5
C3
330
81
100
AcDbEntity
  8
DEFAULT
100
AcDbVertex
100
AcDb2dVertex
 10
-23.4640071768609
 20
-11.39961412747004
 30
0.0
  0
VERTEX
  5
C4
330
81
100
AcDbEntity
  8
DEFAULT
100
AcDbVertex
100
AcDb2dVertex
 10
-23.46479411901634
 20
-11.40315966392336
 30
0.0
  0
VERTEX
  5
C5
330
81
100
AcDbEntity
  8
DEFAULT
100
AcDbVertex
100
AcDb2dVertex
 10
-23.4655028833093
 20
-11.406720787038
 30
0.0
  0
VERTEX
  5
C6
330
81
100
AcDbEntity
  8
DEFAULT
100
AcDbVertex
100
AcDb2dVertex
 10
-23.46612273139678
 20
-11.41024328287216
 30
0.0
  0
VERTEX
  5
C7
330
81
100
AcDbEntity
  8
DEFAULT
100
AcDbVertex
100
AcDb2dVertex
 10
-23.46666279041159
 20
-11.41377817487373
 30
0.0
  0
VERTEX
  5
C8
330
81
100
AcDbEntity
  8
DEFAULT
100
AcDbVertex
100
AcDb2dVertex
 10
-23.46711577490673
 20
-11.41727752477466
 30
0.0
  0
VERTEX
  5
C9
330
81
100
AcDbEntity
  8
DEFAULT
100
AcDbVertex
100
AcDb2dVertex
 10
-23.46748759308007
 20
-11.42078584705676
 30
0.0
  0
VERTEX
  5
CA
330
81
100
AcDbEntity
  8
DEFAULT
100
AcDbVertex
100
AcDb2dVertex
 10
-23.46777390592602
 20
-11.42426194428004
 30
0.0
  0
VERTEX
  5
CB
330
81
100
AcDbEntity
  8
DEFAULT
100
AcDbVertex
100
AcDb2dVertex
 10
-23.46797795321726
 20
-11.42774338232489
 30
0.0
  0
VERTEX
  5
CC
330
81
100
AcDbEntity
  8
DEFAULT
100
AcDbVertex
100
AcDb2dVertex
 10
-23.46809775728545
 20
-11.43119611481956
 30
0.0
  0
VERTEX
  5
CD
330
81
100
AcDbEntity
  8
DEFAULT
100
AcDbVertex
100
AcDb2dVertex
 10
-23.4681345117741
 20
-11.43465038204612
 30
0.0
  0
VERTEX
  5
CE
330
81
100
AcDbEntity
  8
DEFAULT
100
AcDbVertex
100
AcDb2dVertex
 10
-23.46808794544404
 20
-11.43807962798598
 30
0.0
  0
VERTEX
  5
CF
330
81
100
AcDbEntity
  8
DEFAULT
100
AcDbVertex
100
AcDb2dVertex
 10
-23.46795790070875
 20
-11.44150647283778
 30
0.0
  0
VERTEX
  5
D0
330
81
100
AcDbEntity
  8
DEFAULT
100
AcDbVertex
100
AcDb2dVertex
 10
-23.46774509750692
 20
-11.44491210326191
 30
0.0
  0
VERTEX
  5
D1
330
81
100
AcDbEntity
  8
DEFAULT
100
AcDbVertex
100
AcDb2dVertex
 10
-23.46744875504512
 20
-11.44831131226439
 30
0.0
  0
VERTEX
  5
D2
330
81
100
AcDbEntity
  8
DEFAULT
100
AcDbVertex
100
AcDb2dVertex
 10
-23.46706983135125
 20
-11.45169318444424
 30
0.0
  0
VERTEX
  5
D3
330
81
100
AcDbEntity
  8
DEFAULT
100
AcDbVertex
100
AcDb2dVertex
 10
-23.46660772245718
 20
-11.45506459674086
 30
0.0
  0
VERTEX
  5
D4
330
81
100
AcDbEntity
  8
DEFAULT
100
AcDbVertex
100
AcDb2dVertex
 10
-23.46606335706007
 20
-11.45841960518712
 30
0.0
  0
VERTEX
  5
D5
330
81
100
AcDbEntity
  8
DEFAULT
100
AcDbVertex
100
AcDb2dVertex
 10
-23.46543665662067
 20
-11.46176015806547
 30
0.0
  0
VERTEX
  5
D6
330
81
100
AcDbEntity
  8
DEFAULT
100
AcDbVertex
100
AcDb2dVertex
 10
-23.46472871362447
 20
-11.46508236637537
 30
0.0
  0
VERTEX
  5
D7
330
81
100
AcDbEntity
  8
DEFAULT
100
AcDbVertex
100
AcDb2dVertex
 10
-23.46394004926499
 20
-11.46838633499748
 30
0.0
  0
VERTEX
  5
D8
330
81
100
AcDbEntity
  8
DEFAULT
100
AcDbVertex
100
AcDb2dVertex
 10
-23.46307141272779
 20
-11.47167018481445
 30
0.0
  0
VERTEX
  5
D9
330
81
100
AcDbEntity
  8
DEFAULT
100
AcDbVertex
100
AcDb2dVertex
 10
-23.4621231854575
 20
-11.47493194616817
 30
0.0
  0
VERTEX
  5
DA
330
81
100
AcDbEntity
  8
DEFAULT
100
AcDbVertex
100
AcDb2dVertex
 10
-23.46109501068941
 20
-11.47817150902495
 30
0.0
  0
VERTEX
  5
DB
330
81
100
AcDbEntity
  8
DEFAULT
100
AcDbVertex
100
AcDb2dVertex
 10
-23.45998791749936
 20
-11.48138497840245
 30
0.0
  0
VERTEX
  5
DC
330
81
100
AcDbEntity
  8
DEFAULT
100
AcDbVertex
100
AcDb2dVertex
 10
-23.45880120539716
 20
-11.48457416018677
 30
0.0
  0
VERTEX
  5
DD
330
81
100
AcDbEntity
  8
DEFAULT
100
AcDbVertex
100
AcDb2dVertex
 10
-23.45753701663789
 20
-11.48773343368682
 30
0.0
  0
VERTEX
  5
DE
330
81
100
AcDbEntity
  8
DEFAULT
100
AcDbVertex
100
AcDb2dVertex
 10
-23.45619278475078
 20
-11.49086920460801
 30
0.0
  0
VERTEX
  5
DF
330
81
100
AcDbEntity
  8
DEFAULT
100
AcDbVertex
100
AcDb2dVertex
 10
-23.45477296993769
 20
-11.49397146424488
 30
0.0
  0
VERTEX
  5
E0
330
81
100
AcDbEntity
  8
DEFAULT
100
AcDbVertex
100
AcDb2dVertex
 10
-23.45327143044138
 20
-11.49705368881509
 30
0.0
  0
VERTEX
  5
E1
330
81
100
AcDbEntity
  8
DEFAULT
100
AcDbVertex
100
AcDb2dVertex
 10
-23.45169655451888
 20
-11.50009902645795
 30
0.0
  0
VERTEX
  5
E2
330
81
100
AcDbEntity
  8
DEFAULT
100
AcDbVertex
100
AcDb2dVertex
 10
-23.45003797599348
 20
-11.50312757227848
 30
0.0
  0
VERTEX
  5
E3
330
81
100
AcDbEntity
  8
DEFAULT
100
AcDbVertex
100
AcDb2dVertex
 10
-23.44830858779036
 20
-11.50611611921695
 30
0.0
  0
VERTEX
  5
E4
330
81
100
AcDbEntity
  8
DEFAULT
100
AcDbVertex
100
AcDb2dVertex
 10
-23.44649327296707
 20
-11.50909086150657
 30
0.0
  0
VERTEX
  5
E5
330
81
100
AcDbEntity
  8
DEFAULT
100
AcDbVertex
100
AcDb2dVertex
 10
-23.4446099233215
 20
-11.51202279058237
 30
0.0
  0
VERTEX
  5
E6
330
81
100
AcDbEntity
  8
DEFAULT
100
AcDbVertex
100
AcDb2dVertex
 10
-23.44263821805081
 20
-11.51494362071723
 30
0.0
  0
VERTEX
  5
E7
330
81
100
AcDbEntity
  8
DEFAULT
100
AcDbVertex
100
AcDb2dVertex
 10
-23.44060144507651
 20
-11.51781914167715
 30
0.0
  0
VERTEX
  5
E8
330
81
100
AcDbEntity
  8
DEFAULT
100
AcDbVertex
100
AcDb2dVertex
 10
-23.43847373187877
 20
-11.52068597233652
 30
0.0
  0
VERTEX
  5
E9
330
81
100
AcDbEntity
  8
DEFAULT
100
AcDbVertex
100
AcDb2dVertex
 10
-23.43628406261009
 20
-11.52350532822936
 30
0.0
  0
VERTEX
  5
EA
330
81
100
AcDbEntity
  8
DEFAULT
100
AcDbVertex
100
AcDb2dVertex
 10
-23.43400075969305
 20
-11.52631809809733
 30
0.0
  0
VERTEX
  5
EB
330
81
100
AcDbEntity
  8
DEFAULT
100
AcDbVertex
100
AcDb2dVertex
 10
-23.43165870680344
 20
-11.5290815600284
 30
0.0
  0
VERTEX
  5
EC
330
81
100
AcDbEntity
  8
DEFAULT
100
AcDbVertex
100
AcDb2dVertex
 10
-23.42922026454926
 20
-11.53184023690013
 30
0.0
  0
VERTEX
  5
ED
330
81
100
AcDbEntity
  8
DEFAULT
100
AcDbVertex
100
AcDb2dVertex
 10
-23.42672632727307
 20
-11.53454809900111
 30
0.0
  0
VERTEX
  5
EE
330
81
100
AcDbEntity
  8
DEFAULT
100
AcDbVertex
100
AcDb2dVertex
 10
-23.42413322487608
 20
-11.5372526816566
 30
0.0
  0
VERTEX
  5
EF
330
81
100
AcDbEntity
  8
DEFAULT
100
AcDbVertex
100
AcDb2dVertex
 10
-23.42148789109579
 20
-11.53990525645469
 30
0.0
  0
VERTEX
  5
F0
330
81
100
AcDbEntity
  8
DEFAULT
100
AcDbVertex
100
AcDb2dVertex
 10
-23.418740635871
 20
-11.54255577626454
 30
0.0
  0
VERTEX
  5
F1
330
81
100
AcDbEntity
  8
DEFAULT
100
AcDbVertex
100
AcDb2dVertex
 10
-23.41594438344973
 20
-11.54515339022202
 30
0.0
  0
VERTEX
  5
F2
330
81
100
AcDbEntity
  8
DEFAULT
100
AcDbVertex
100
AcDb2dVertex
 10
-23.41304350400518
 20
-11.54774991048297
 30
0.0
  0
VERTEX
  5
F3
330
81
100
AcDbEntity
  8
DEFAULT
100
AcDbVertex
100
AcDb2dVertex
 10
-23.41009680862945
 20
-11.55029290187473
 30
0.0
  0
VERTEX
  5
F4
330
81
100
AcDbEntity
  8
DEFAULT
100
AcDbVertex
100
AcDb2dVertex
 10
-23.40394619417918
 20
-11.55532423507785
 30
0.0
  0
VERTEX
  5
F5
330
81
100
AcDbEntity
  8
DEFAULT
100
AcDbVertex
100
AcDb2dVertex
 10
-23.39749359027909
 20
-11.5602478734437
 30
0.0
  0
VERTEX
  5
F6
330
81
100
AcDbEntity
  8
DEFAULT
100
AcDbVertex
100
AcDb2dVertex
 10
-23.39074008239261
 20
-11.56506434241639
 30
0.0
  0
VERTEX
  5
F7
330
81
100
AcDbEntity
  8
DEFAULT
100
AcDbVertex
100
AcDb2dVertex
 10
-23.38368677070203
 20
-11.56977420389159
 30
0.0
  0
VERTEX
  5
F8
330
81
100
AcDbEntity
  8
DEFAULT
100
AcDbVertex
100
AcDb2dVertex
 10
-23.37633537135246
 20
-11.57437820376222
 30
0.0
  0
VERTEX
  5
F9
330
81
100
AcDbEntity
  8
DEFAULT
100
AcDbVertex
100
AcDb2dVertex
 10
-23.36868881399928
 20
-11.57887741664307
 30
0.0
  0
VERTEX
  5
FA
330
81
100
AcDbEntity
  8
DEFAULT
100
AcDbVertex
100
AcDb2dVertex
 10
-23.36075126852354
 20
-11.58327324818239
 30
0.0
  0
VERTEX
  5
FB
330
81
100
AcDbEntity
  8
DEFAULT
100
AcDbVertex
100
AcDb2dVertex
 10
-23.35251922530515
 20
-11.58756527109097
 30
0.0
  0
VERTEX
  5
FC
330
81
100
AcDbEntity
  8
DEFAULT
100
AcDbVertex
100
AcDb2dVertex
 10
-23.34399386102572
 20
-11.59175424584988
 30
0.0
  0
VERTEX
  5
FD
330
81
100
AcDbEntity
  8
DEFAULT
100
AcDbVertex
100
AcDb2dVertex
 10
-23.33517656793546
 20
-11.59584102867373
 30
0.0
  0
VERTEX
  5
FE
330
81
100
AcDbEntity
  8
DEFAULT
100
AcDbVertex
100
AcDb2dVertex
 10
-23.32606870762607
 20
-11.59982651410855
 30
0.0
  0
VERTEX
  5
FF
330
81
100
AcDbEntity
  8
DEFAULT
100
AcDbVertex
100
AcDb2dVertex
 10
-23.31667170897052
 20
-11.60371166166404
 30
0.0
  0
VERTEX
  5
100
330
81
100
AcDbEntity
  8
DEFAULT
100
AcDbVertex
100
AcDb2dVertex
 10
-23.30698702219664
 20
-11.6074974872469
 30
0.0
  0
VERTEX
  5
101
330
81
100
AcDbEntity
  8
DEFAULT
100
AcDbVertex
100
AcDb2dVertex
 10
-23.29701613454193
 20
-11.61118506949233
 30
0.0
  0
VERTEX
  5
102
330
81
100
AcDbEntity
  8
DEFAULT
100
AcDbVertex
100
AcDb2dVertex
 10
-23.27622182916005
 20
-11.61827013087952
 30
0.0
  0
VERTEX
  5
103
330
81
100
AcDbEntity
  8
DEFAULT
100
AcDbVertex
100
AcDb2dVertex
 10
-23.25430114034113
 20
-11.62497674102843
 30
0.0
  0
VERTEX
  5
104
330
81
100
AcDbEntity
  8
DEFAULT
100
AcDbVertex
100
AcDb2dVertex
 10
-23.23126660944574
 20
-11.63131582463223
 30
0.0
  0
VERTEX
  5
105
330
81
100
AcDbEntity
  8
DEFAULT
100
AcDbVertex
100
AcDb2dVertex
 10
-23.20713077131423
 20
-11.6372993226155
 30
0.0
  0
VERTEX
  5
106
330
81
100
AcDbEntity
  8
DEFAULT
100
AcDbVertex
100
AcDb2dVertex
 10
-23.16888884510187
 20
-11.64563635390299
 30
0.0
  0
VERTEX
  5
107
330
81
100
AcDbEntity
  8
DEFAULT
100
AcDbVertex
100
AcDb2dVertex
 10
-23.12823572412071
 20
-11.65324993251732
 30
0.0
  0
VERTEX
  5
108
330
81
100
AcDbEntity
  8
DEFAULT
100
AcDbVertex
100
AcDb2dVertex
 10
-23.07033374853062
 20
-11.6623637212472
 30
0.0
  0
VERTEX
  5
109
330
81
100
AcDbEntity
  8
DEFAULT
100
AcDbVertex
100
AcDb2dVertex
 10
-22.99206256298143
 20
-11.67226462849161
 30
0.0
  0
VERTEX
  5
10A
330
81
100
AcDbEntity
  8
DEFAULT
100
AcDbVertex
100
AcDb2dVertex
 10
-22.85321715351559
 20
-11.68526215541581
 30
0.0
  0
VERTEX
  5
10B
330
81
100
AcDbEntity
  8
DEFAULT
100
AcDbVertex
100
AcDb2dVertex
 10
-22.61275458251976
 20
-11.70010315162602
 30
0.0
  0
VERTEX
  5
10C
330
81
100
AcDbEntity
  8
DEFAULT
100
AcDbVertex
100
AcDb2dVertex
 10
-22.25290082303417
 20
-11.71359509219486
 30
0.0
  0
VERTEX
  5
10D
330
81
100
AcDbEntity
  8
DEFAULT
100
AcDbVertex
100
AcDb2dVertex
 10
-21.82222330283513
 20
-11.72184287411655
 30
0.0
  0
VERTEX
  5
10E
330
81
100
AcDbEntity
  8
DEFAULT
100
AcDbVertex
100
AcDb2dVertex
 10
-21.39067179466269
 20
-11.72260492341231
 30
0.0
  0
VERTEX
  5
10F
330
81
100
AcDbEntity
  8
DEFAULT
100
AcDbVertex
100
AcDb2dVertex
 10
-20.98475338700349
 20
-11.71625609535486
 30
0.0
  0
VERTEX
  5
110
330
81
100
AcDbEntity
  8
DEFAULT
100
AcDbVertex
100
AcDb2dVertex
 10
-20.54386597335115
 20
-11.70164912819428
 30
0.0
  0
VERTEX
  5
111
330
81
100
AcDbEntity
  8
DEFAULT
100
AcDbVertex
100
AcDb2dVertex
 10
-20.07035828504144
 20
-11.67796899971896
 30
0.0
  0
VERTEX
  5
112
330
81
100
AcDbEntity
  8
DEFAULT
100
AcDbVertex
100
AcDb2dVertex
 10
-19.47281568068814
 20
-11.63915624005695
 30
0.0
  0
VERTEX
  5
113
330
81
100
AcDbEntity
  8
DEFAULT
100
AcDbVertex
100
AcDb2dVertex
 10
-18.10844112402871
 20
-11.53587399064843
 30
0.0
  0
VERTEX
  5
114
330
81
100
AcDbEntity
  8
DEFAULT
100
AcDbVertex
100
AcDb2dVertex
 10
-17.39380141372531
 20
-11.47760055328791
 30
0.0
  0
SEQEND
  5
115
330
81
100
AcDbEntity
  8
DEFAULT
  0
LINE
  5
116
330
1F
100
AcDbEntity
  8
DEFAULT
100
AcDbLine
 10
-17.39380141372531
 20
-11.47760055328791
 30
0.0
 11
-17.39234640134011
 21
-11.45917211670704
 31
0.0
  0
POLYLINE
  5
117
330
1F
100
AcDbEntity
  8
DEFAULT
100
AcDb2dPolyline
 66
     1
 10
0.0
 20
0.0
 30
0.0
 70
     1
  0
VERTEX
  5
118
330
117
100
AcDbEntity
  8
DEFAULT
100
AcDbVertex
100
AcDb2dVertex
 10
-23.5027085320119
 20
-10.17867424763548
 30
0.0
  0
VERTEX
  5
119
330
117
100
AcDbEntity
  8
DEFAULT
100
AcDbVertex
100
AcDb2dVertex
 10
-11.5027085320119
 20
-10.17867424763548
 30
0.0
  0
VERTEX
  5
11A
330
117
100
AcDbEntity
  8
DEFAULT
100
AcDbVertex
100
AcDb2dVertex
 10
-11.5027085320119
 20
-9.728674247635485
 30
0.0
  0
VERTEX
  5
11B
330
117
100
AcDbEntity
  8
DEFAULT
100
AcDbVertex
100
AcDb2dVertex
 10
-23.5027085320119
 20
-9.728674247635485
 30
0.0
  0
SEQEND
  5
11C
330
117
100
AcDbEntity
  8
DEFAULT
  0
LINE
  5
11D
330
1F
100
AcDbEntity
  8
DEFAULT
100
AcDbLine
 10
-30.081663623424
 20
-13.47244345564815
 30
0.0
 11
-29.539518623424
 21
-13.47244345564815
 31
0.0
  0
ARC
  5
11E
330
1F
100
AcDbEntity
  8
DEFAULT
100
AcDbCircle
 10
-29.539518623424
 20
-13.45344345564815
 30
0.0
 40
0.0189999999999999
100
AcDbArc
 50
270.0
 51
0.0
  0
LINE
  5
11F
330
1F
100
AcDbEntity
  8
DEFAULT
100
AcDbLine
 10
-29.52051862342399
 20
-13.45344345564815
 30
0.0
 11
-29.52051862342399
 21
-13.25244345564814
 31
0.0
  0
ARC
  5
120
330
1F
100
AcDbEntity
  8
DEFAULT
100
AcDbCircle
 10
29.50151862342399
 20
-13.25244345564814
 30
0.0
 40
0.0190000000000003
210
0.0
220
0.0
230
-1.0
100
AcDbArc
 50
0.0
 51
90.0
  0
LINE
  5
121
330
1F
100
AcDbEntity
  8
DEFAULT
100
AcDbLine
 10
-29.50151862342399
 20
-13.23344345564814
 30
0.0
 11
-29.49651862342399
 21
-13.23344345564814
 31
0.0
  0
ARC
  5
122
330
1F
100
AcDbEntity
  8
DEFAULT
100
AcDbCircle
 10
29.49651862342399
 20
-13.25244345564814
 30
0.0
 40
0.0189999999999997
210
0.0
220
0.0
230
-1.0
100
AcDbArc
 50
90.0
 51
180.0
  0
LINE
  5
123
330
1F
100
AcDbEntity
  8
DEFAULT
100
AcDbLine
 10
-29.477518623424
 20
-13.25244345564814
 30
0.0
 11
-29.477518623424
 21
-13.45344345564815
 31
0.0
  0
ARC
  5
124
330
1F
100
AcDbEntity
  8
DEFAULT
100
AcDbCircle
 10
-29.458518623424
 20
-13.45344345564815
 30
0.0
 40
0.019
100
AcDbArc
 50
180.0
 51
270.0
  0
LINE
  5
125
330
1F
100
AcDbEntity
  8
DEFAULT
100
AcDbLine
 10
-29.458518623424
 20
-13.47244345564815
 30
0.0
 11
-26.42455084564622
 21
-13.47244345564815
 31
0.0
  0
ARC
  5
126
330
1F
100
AcDbEntity
  8
DEFAULT
100
AcDbCircle
 10
-26.42455084564622
 20
-13.45344345564814
 30
0.0
 40
0.0190000000000015
100
AcDbArc
 50
270.0
 51
359.9999999999947
  0
LINE
  5
127
330
1F
100
AcDbEntity
  8
DEFAULT
100
AcDbLine
 10
-26.40555084564622
 20
-13.45344345564815
 30
0.0
 11
-26.40555084564622
 21
-13.25244345564814
 31
0.0
  0
ARC
  5
128
330
1F
100
AcDbEntity
  8
DEFAULT
100
AcDbCircle
 10
26.38655084564622
 20
-13.25244345564814
 30
0.0
 40
0.0189999999999992
210
0.0
220
0.0
230
-1.0
100
AcDbArc
 50
0.0
 51
90.0
  0
LINE
  5
129
330
1F
100
AcDbEntity
  8
DEFAULT
100
AcDbLine
 10
-26.38655084564622
 20
-13.23344345564814
 30
0.0
 11
-26.38155084564622
 21
-13.23344345564814
 31
0.0
  0
ARC
  5
12A
330
1F
100
AcDbEntity
  8
DEFAULT
100
AcDbCircle
 10
26.38155084564622
 20
-13.25244345564814
 30
0.0
 40
0.0190000000000005
210
0.0
220
0.0
230
-1.0
100
AcDbArc
 50
90.0
 51
180.0
  0
LINE
  5
12B
330
1F
100
AcDbEntity
  8
DEFAULT
100
AcDbLine
 10
-26.36255084564621
 20
-13.25244345564814
 30
0.0
 11
-26.36255084564621
 21
-13.45344345564815
 31
0.0
  0
ARC
  5
12C
330
1F
100
AcDbEntity
  8
DEFAULT
100
AcDbCircle
 10
-26.34355084564622
 20
-13.45344345564815
 30
0.0
 40
0.0189999999999994
100
AcDbArc
 50
179.9999999999947
 51
270.0
  0
LINE
  5
12D
330
1F
100
AcDbEntity
  8
DEFAULT
100
AcDbLine
 10
-26.34355084564622
 20
-13.47244345564815
 30
0.0
 11
-23.30958306786844
 21
-13.47244345564815
 31
0.0
  0
ARC
  5
12E
330
1F
100
AcDbEntity
  8
DEFAULT
100
AcDbCircle
 10
-23.30958306786844
 20
-13.45344345564815
 30
0.0
 40
0.0189999999999975
100
AcDbArc
 50
270.0
 51
0.0000000000053567
  0
LINE
  5
12F
330
1F
100
AcDbEntity
  8
DEFAULT
100
AcDbLine
 10
-23.29058306786845
 20
-13.45344345564815
 30
0.0
 11
-23.29058306786844
 21
-13.25244345564815
 31
0.0
  0
ARC
  5
130
330
1F
100
AcDbEntity
  8
DEFAULT
100
AcDbCircle
 10
23.27158306786844
 20
-13.25244345564815
 30
0.0
 40
0.0190000000000001
210
0.0
220
0.0
230
-1.0
100
AcDbArc
 50
0.0
 51
90.0
  0
LINE
  5
131
330
1F
100
AcDbEntity
  8
DEFAULT
100
AcDbLine
 10
-23.27158306786844
 20
-13.23344345564814
 30
0.0
 11
-23.26658306786845
 21
-13.23344345564814
 31
0.0
  0
ARC
  5
132
330
1F
100
AcDbEntity
  8
DEFAULT
100
AcDbCircle
 10
23.26658306786845
 20
-13.25244345564815
 30
0.0
 40
0.0190000000000017
210
0.0
220
0.0
230
-1.0
100
AcDbArc
 50
90.0
 51
179.9999999999947
  0
LINE
  5
133
330
1F
100
AcDbEntity
  8
DEFAULT
100
AcDbLine
 10
-23.24758306786844
 20
-13.25244345564815
 30
0.0
 11
-23.24758306786844
 21
-13.45344345564815
 31
0.0
  0
ARC
  5
134
330
1F
100
AcDbEntity
  8
DEFAULT
100
AcDbCircle
 10
-23.22858306786844
 20
-13.45344345564814
 30
0.0
 40
0.0190000000000011
100
AcDbArc
 50
180.0000000000053
 51
269.9999999999893
  0
LINE
  5
135
330
1F
100
AcDbEntity
  8
DEFAULT
100
AcDbLine
 10
-23.22858306786844
 20
-13.47244345564815
 30
0.0
 11
-20.19461529009066
 21
-13.47244345564815
 31
0.0
  0
ARC
  5
136
330
1F
100
AcDbEntity
  8
DEFAULT
100
AcDbCircle
 10
-20.19461529009067
 20
-13.45344345564814
 30
0.0
 40
0.0190000000000019
100
AcDbArc
 50
270.0
 51
359.9999999999947
  0
LINE
  5
137
330
1F
100
AcDbEntity
  8
DEFAULT
100
AcDbLine
 10
-20.17561529009066
 20
-13.45344345564815
 30
0.0
 11
-20.17561529009066
 21
-13.25244345564815
 31
0.0
  0
ARC
  5
138
330
1F
100
AcDbEntity
  8
DEFAULT
100
AcDbCircle
 10
20.15661529009066
 20
-13.25244345564815
 30
0.0
 40
0.0190000000000019
210
0.0
220
0.0
230
-1.0
100
AcDbArc
 50
0.0000000000053567
 51
89.99999999998929
  0
LINE
  5
139
330
1F
100
AcDbEntity
  8
DEFAULT
100
AcDbLine
 10
-20.15661529009066
 20
-13.23344345564814
 30
0.0
 11
-20.15161529009067
 21
-13.23344345564814
 31
0.0
  0
ARC
  5
13A
330
1F
100
AcDbEntity
  8
DEFAULT
100
AcDbCircle
 10
20.15161529009067
 20
-13.25244345564815
 30
0.0
 40
0.0190000000000012
210
0.0
220
0.0
230
-1.0
100
AcDbArc
 50
90.00000000001071
 51
179.9999999999947
  0
LINE
  5
13B
330
1F
100
AcDbEntity
  8
DEFAULT
100
AcDbLine
 10
-20.13261529009067
 20
-13.25244345564815
 30
0.0
 11
-20.13261529009066
 21
-13.45344345564815
 31
0.0
  0
ARC
  5
13C
330
1F
100
AcDbEntity
  8
DEFAULT
100
AcDbCircle
 10
-20.11361529009066
 20
-13.45344345564815
 30
0.0
 40
0.0190000000000002
100
AcDbArc
 50
180.0
 51
270.0
  0
LINE
  5
13D
330
1F
100
AcDbEntity
  8
DEFAULT
100
AcDbLine
 10
-20.11361529009066
 20
-13.47244345564815
 30
0.0
 11
-17.07964751231288
 21
-13.47244345564815
 31
0.0
  0
ARC
  5
13E
330
1F
100
AcDbEntity
  8
DEFAULT
100
AcDbCircle
 10
-17.07964751231289
 20
-13.45344345564814
 30
0.0
 40
0.0190000000000019
100
AcDbArc
 50
270.0
 51
359.9999999999947
  0
LINE
  5
13F
330
1F
100
AcDbEntity
  8
DEFAULT
100
AcDbLine
 10
-17.06064751231288
 20
-13.45344345564815
 30
0.0
 11
-17.06064751231289
 21
-13.25244345564815
 31
0.0
  0
ARC
  5
140
330
1F
100
AcDbEntity
  8
DEFAULT
100
AcDbCircle
 10
17.04164751231288
 20
-13.25244345564815
 30
0.0
 40
0.0190000000000013
210
0.0
220
0.0
230
-1.0
100
AcDbArc
 50
0.0000000000053567
 51
90.0
  0
LINE
  5
141
330
1F
100
AcDbEntity
  8
DEFAULT
100
AcDbLine
 10
-17.04164751231288
 20
-13.23344345564814
 30
0.0
 11
-17.03664751231289
 21
-13.23344345564814
 31
0.0
  0
ARC
  5
142
330
1F
100
AcDbEntity
  8
DEFAULT
100
AcDbCircle
 10
17.03664751231289
 20
-13.25244345564815
 30
0.0
 40
0.0190000000000028
210
0.0
220
0.0
230
-1.0
100
AcDbArc
 50
90.00000000001071
 51
179.9999999999947
  0
LINE
  5
143
330
1F
100
AcDbEntity
  8
DEFAULT
100
AcDbLine
 10
-17.01764751231289
 20
-13.25244345564815
 30
0.0
 11
-17.01764751231288
 21
-13.45344345564815
 31
0.0
  0
ARC
  5
144
330
1F
100
AcDbEntity
  8
DEFAULT
100
AcDbCircle
 10
-16.99864751231289
 20
-13.45344345564815
 30
0.0
 40
0.0190000000000003
100
AcDbArc
 50
180.0
 51
270.0
  0
LINE
  5
145
330
1F
100
AcDbEntity
  8
DEFAULT
100
AcDbLine
 10
-16.99864751231289
 20
-13.47244345564815
 30
0.0
 11
-13.96467973453511
 21
-13.47244345564815
 31
0.0
  0
ARC
  5
146
330
1F
100
AcDbEntity
  8
DEFAULT
100
AcDbCircle
 10
-13.96467973453511
 20
-13.45344345564815
 30
0.0
 40
0.0189999999999984
100
AcDbArc
 50
270.0
 51
0.0
  0
LINE
  5
147
330
1F
100
AcDbEntity
  8
DEFAULT
100
AcDbLine
 10
-13.9456797345351
 20
-13.45344345564815
 30
0.0
 11
-13.94567973453511
 21
-13.25244345564815
 31
0.0
  0
ARC
  5
148
330
1F
100
AcDbEntity
  8
DEFAULT
100
AcDbCircle
 10
13.9266797345351
 20
-13.25244345564815
 30
0.0
 40
0.0190000000000055
210
0.0
220
0.0
230
-1.0
100
AcDbArc
 50
0.0000000000053567
 51
90.0
  0
LINE
  5
149
330
1F
100
AcDbEntity
  8
DEFAULT
100
AcDbLine
 10
-13.9266797345351
 20
-13.23344345564814
 30
0.0
 11
-13.92167973453511
 21
-13.23344345564814
 31
0.0
  0
ARC
  5
14A
330
1F
100
AcDbEntity
  8
DEFAULT
100
AcDbCircle
 10
13.92167973453511
 20
-13.25244345564814
 30
0.0
 40
0.0189999999999975
210
0.0
220
0.0
230
-1.0
100
AcDbArc
 50
90.0
 51
180.0
  0
LINE
  5
14B
330
1F
100
AcDbEntity
  8
DEFAULT
100
AcDbLine
 10
-13.90267973453511
 20
-13.25244345564814
 30
0.0
 11
-13.90267973453511
 21
-13.45344345564814
 31
0.0
  0
ARC
  5
14C
330
1F
100
AcDbEntity
  8
DEFAULT
100
AcDbCircle
 10
-13.88367973453511
 20
-13.45344345564815
 30
0.0
 40
0.0189999999999984
100
AcDbArc
 50
179.9999999999893
 51
270.0000000000107
  0
LINE
  5
14D
330
1F
100
AcDbEntity
  8
DEFAULT
100
AcDbLine
 10
-13.88367973453511
 20
-13.47244345564815
 30
0.0
 11
-10.84971195675733
 21
-13.47244345564815
 31
0.0
  0
ARC
  5
14E
330
1F
100
AcDbEntity
  8
DEFAULT
100
AcDbCircle
 10
-10.84971195675734
 20
-13.45344345564814
 30
0.0
 40
0.0190000000000055
100
AcDbArc
 50
270.0000000000214
 51
359.9999999999893
  0
LINE
  5
14F
330
1F
100
AcDbEntity
  8
DEFAULT
100
AcDbLine
 10
-10.83071195675734
 20
-13.45344345564815
 30
0.0
 11
-10.83071195675733
 21
-13.25244345564814
 31
0.0
  0
ARC
  5
150
330
1F
100
AcDbEntity
  8
DEFAULT
100
AcDbCircle
 10
10.81171195675734
 20
-13.25244345564814
 30
0.0
 40
0.0189999999999944
210
0.0
220
0.0
230
-1.0
100
AcDbArc
 50
359.9999999999893
 51
90.00000000001071
  0
LINE
  5
151
330
1F
100
AcDbEntity
  8
DEFAULT
100
AcDbLine
 10
-10.81171195675733
 20
-13.23344345564814
 30
0.0
 11
-10.80671195675733
 21
-13.23344345564814
 31
0.0
  0
ARC
  5
152
330
1F
100
AcDbEntity
  8
DEFAULT
100
AcDbCircle
 10
10.80671195675734
 20
-13.25244345564815
 30
0.0
 40
0.0190000000000039
210
0.0
220
0.0
230
-1.0
100
AcDbArc
 50
90.00000000001071
 51
179.9999999999839
  0
LINE
  5
153
330
1F
100
AcDbEntity
  8
DEFAULT
100
AcDbLine
 10
-10.78771195675733
 20
-13.25244345564814
 30
0.0
 11
-10.78771195675733
 21
-13.45344345564815
 31
0.0
  0
ARC
  5
154
330
1F
100
AcDbEntity
  8
DEFAULT
100
AcDbCircle
 10
-10.76871195675733
 20
-13.45344345564814
 30
0.0
 40
0.0190000000000012
100
AcDbArc
 50
180.0000000000107
 51
269.9999999999893
  0
LINE
  5
155
330
1F
100
AcDbEntity
  8
DEFAULT
100
AcDbLine
 10
-10.76871195675733
 20
-13.47244345564815
 30
0.0
 11
-7.734744178979552
 21
-13.47244345564815
 31
0.0
  0
ARC
  5
156
330
1F
100
AcDbEntity
  8
DEFAULT
100
AcDbCircle
 10
-7.734744178979556
 20
-13.45344345564814
 30
0.0
 40
0.0190000000000019
100
AcDbArc
 50
270.0000000000107
 51
359.9999999999893
  0
LINE
  5
157
330
1F
100
AcDbEntity
  8
DEFAULT
100
AcDbLine
 10
-7.715744178979554
 20
-13.45344345564815
 30
0.0
 11
-7.715744178979554
 21
-13.25244345564814
 31
0.0
  0
ARC
  5
158
330
1F
100
AcDbEntity
  8
DEFAULT
100
AcDbCircle
 10
7.696744178979555
 20
-13.25244345564814
 30
0.0
 40
0.0189999999999983
210
0.0
220
0.0
230
-1.0
100
AcDbArc
 50
359.9999999999893
 51
90.0
  0
LINE
  5
159
330
1F
100
AcDbEntity
  8
DEFAULT
100
AcDbLine
 10
-7.696744178979555
 20
-13.23344345564814
 30
0.0
 11
-7.691744178979552
 21
-13.23344345564814
 31
0.0
  0
ARC
  5
15A
330
1F
100
AcDbEntity
  8
DEFAULT
100
AcDbCircle
 10
7.691744178979546
 20
-13.25244345564814
 30
0.0
 40
0.0189999999999938
210
0.0
220
0.0
230
-1.0
100
AcDbArc
 50
89.99999999997857
 51
180.0000000000161
  0
LINE
  5
15B
330
1F
100
AcDbEntity
  8
DEFAULT
100
AcDbLine
 10
-7.67274417897955
 20
-13.25244345564814
 30
0.0
 11
-7.672744178979554
 21
-13.45344345564815
 31
0.0
  0
ARC
  5
15C
330
1F
100
AcDbEntity
  8
DEFAULT
100
AcDbCircle
 10
-7.653744178979559
 20
-13.45344345564815
 30
0.0
 40
0.0189999999999947
100
AcDbArc
 50
179.9999999999786
 51
270.0000000000107
  0
LINE
  5
15D
330
1F
100
AcDbEntity
  8
DEFAULT
100
AcDbLine
 10
-7.653744178979555
 20
-13.47244345564815
 30
0.0
 11
-4.61977640120177
 21
-13.47244345564815
 31
0.0
  0
ARC
  5
15E
330
1F
100
AcDbEntity
  8
DEFAULT
100
AcDbCircle
 10
-4.61977640120177
 20
-13.45344345564815
 30
0.0
 40
0.0189999999999984
100
AcDbArc
 50
270.0
 51
0.0
  0
LINE
  5
15F
330
1F
100
AcDbEntity
  8
DEFAULT
100
AcDbLine
 10
-4.600776401201772
 20
-13.45344345564815
 30
0.0
 11
-4.600776401201775
 21
-13.25244345564815
 31
0.0
  0
ARC
  5
160
330
1F
100
AcDbEntity
  8
DEFAULT
100
AcDbCircle
 10
4.581776401201773
 20
-13.25244345564815
 30
0.0
 40
0.0190000000000024
210
0.0
220
0.0
230
-1.0
100
AcDbArc
 50
0.0
 51
90.00000000001071
  0
LINE
  5
161
330
1F
100
AcDbEntity
  8
DEFAULT
100
AcDbLine
 10
-4.58177640120177
 20
-13.23344345564814
 30
0.0
 11
-4.576776401201778
 21
-13.23344345564814
 31
0.0
  0
ARC
  5
162
330
1F
100
AcDbEntity
  8
DEFAULT
100
AcDbCircle
 10
4.576776401201782
 20
-13.25244345564815
 30
0.0
 40
0.0190000000000028
210
0.0
220
0.0
230
-1.0
100
AcDbArc
 50
90.00000000001071
 51
179.9999999999839
  0
LINE
  5
163
330
1F
100
AcDbEntity
  8
DEFAULT
100
AcDbLine
 10
-4.55777640120178
 20
-13.25244345564814
 30
0.0
 11
-4.557776401201773
 21
-13.45344345564815
 31
0.0
  0
ARC
  5
164
330
1F
100
AcDbEntity
  8
DEFAULT
100
AcDbCircle
 10
-4.538776401201771
 20
-13.45344345564815
 30
0.0
 40
0.019000000000002
100
AcDbArc
 50
180.0
 51
269.9999999999893
  0
LINE
  5
165
330
1F
100
AcDbEntity
  8
DEFAULT
100
AcDbLine
 10
-4.538776401201774
 20
-13.47244345564815
 30
0.0
 11
-1.504808623423992
 21
-13.47244345564815
 31
0.0
  0
ARC
  5
166
330
1F
100
AcDbEntity
  8
DEFAULT
100
AcDbCircle
 10
-1.504808623423992
 20
-13.45344345564816
 30
0.0
 40
0.0189999999999912
100
AcDbArc
 50
270.0
 51
0.0000000000267836
  0
LINE
  5
167
330
1F
100
AcDbEntity
  8
DEFAULT
100
AcDbLine
 10
-1.485808623424001
 20
-13.45344345564815
 30
0.0
 11
-1.485808623423997
 21
-13.25244345564815
 31
0.0
  0
ARC
  5
168
330
1F
100
AcDbEntity
  8
DEFAULT
100
AcDbCircle
 10
1.466808623423988
 20
-13.25244345564816
 30
0.0
 40
0.019000000000011
210
0.0
220
0.0
230
-1.0
100
AcDbArc
 50
0.0000000000374971
 51
89.99999999997857
  0
LINE
  5
169
330
1F
100
AcDbEntity
  8
DEFAULT
100
AcDbLine
 10
-1.466808623423995
 20
-13.23344345564814
 30
0.0
 11
-1.461808623424
 21
-13.23344345564815
 31
0.0
  0
ARC
  5
16A
330
1F
100
AcDbEntity
  8
DEFAULT
100
AcDbCircle
 10
1.461808623424
 20
-13.25244345564815
 30
0.0
 40
0.0190000000000019
210
0.0
220
0.0
230
-1.0
100
AcDbArc
 50
90.0
 51
179.9999999999893
  0
LINE
  5
16B
330
1F
100
AcDbEntity
  8
DEFAULT
100
AcDbLine
 10
-1.442808623423998
 20
-13.25244345564815
 30
0.0
 11
-1.442808623423994
 21
-13.45344345564815
 31
0.0
  0
ARC
  5
16C
330
1F
100
AcDbEntity
  8
DEFAULT
100
AcDbCircle
 10
-1.423808623424
 20
-13.45344345564815
 30
0.0
 40
0.0189999999999948
100
AcDbArc
 50
180.0
 51
270.0000000000322
  0
LINE
  5
16D
330
1F
100
AcDbEntity
  8
DEFAULT
100
AcDbLine
 10
-1.423808623423989
 20
-13.47244345564815
 30
0.0
 11
-0.9246636234239974
 21
-13.47244345564815
 31
0.0
  0
ARC
  5
16E
330
1F
100
AcDbEntity
  8
DEFAULT
100
AcDbCircle
 10
-0.9246636234239994
 20
-13.23344345564814
 30
0.0
 40
0.2390000000000025
100
AcDbArc
 50
270.0000000000005
 51
89.99999999999953
  0
LINE
  5
16F
330
1F
100
AcDbEntity
  8
DEFAULT
100
AcDbLine
 10
-0.9246636234239974
 20
-12.99444345564814
 30
0.0
 11
-30.081663623424
 21
-12.99444345564814
 31
0.0
  0
ARC
  5
170
330
1F
100
AcDbEntity
  8
DEFAULT
100
AcDbCircle
 10
-30.081663623424
 20
-13.23344345564814
 30
0.0
 40
0.2390000000000025
100
AcDbArc
 50
90.0
 51
270.0
  0
POLYLINE
  5
171
330
1F
100
AcDbEntity
  8
DEFAULT
100
AcDb2dPolyline
 66
     1
 10
0.0
 20
0.0
 30
0.0
 70
     1
  0
VERTEX
  5
172
330
171
100
AcDbEntity
  8
DEFAULT
100
AcDbVertex
100
AcDb2dVertex
 10
-19.72464310869458
 20
-11.24157638155333
 30
0.0
  0
VERTEX
  5
173
330
171
100
AcDbEntity
  8
DEFAULT
100
AcDbVertex
100
AcDb2dVertex
 10
-19.54464310869458
 20
-11.24157638155333
 30
0.0
  0
VERTEX
  5
174
330
171
100
AcDbEntity
  8
DEFAULT
100
AcDbVertex
100
AcDb2dVertex
 10
-19.54464310869458
 20
-11.00257638155333
 30
0.0
  0
VERTEX
  5
175
330
171
100
AcDbEntity
  8
DEFAULT
100
AcDbVertex
100
AcDb2dVertex
 10
-19.72464310869458
 20
-11.00257638155333
 30
0.0
  0
SEQEND
  5
176
330
171
100
AcDbEntity
  8
DEFAULT
  0
POLYLINE
  5
177
330
1F
100
AcDbEntity
  8
DEFAULT
100
AcDb2dPolyline
 66
     1
 10
0.0
 20
0.0
 30
0.0
 70
     1
  0
VERTEX
  5
178
330
177
100
AcDbEntity
  8
DEFAULT
100
AcDbVertex
100
AcDb2dVertex
 10
-23.22828616005376
 20
-11.52888507995998
 30
0.0
  0
VERTEX
  5
179
330
177
100
AcDbEntity
  8
DEFAULT
100
AcDbVertex
100
AcDb2dVertex
 10
-23.22712101580034
 20
-11.34888885100263
 30
0.0
  0
VERTEX
  5
17A
330
177
100
AcDbEntity
  8
DEFAULT
100
AcDbVertex
100
AcDb2dVertex
 10
-23.46611600869372
 20
-11.34734179835504
 30
0.0
  0
VERTEX
  5
17B
330
177
100
AcDbEntity
  8
DEFAULT
100
AcDbVertex
100
AcDb2dVertex
 10
-23.46728115294714
 20
-11.52733802731239
 30
0.0
  0
SEQEND
  5
17C
330
177
100
AcDbEntity
  8
DEFAULT
  0
POLYLINE
  5
17D
330
1F
100
AcDbEntity
  8
DEFAULT
100
AcDb2dPolyline
 66
     1
 10
0.0
 20
0.0
 30
0.0
 70
     1
  0
VERTEX
  5
17E
330
17D
100
AcDbEntity
  8
DEFAULT
100
AcDbVertex
100
AcDb2dVertex
 10
-21.48822755530089
 20
-11.07718190721836
 30
0.0
  0
VERTEX
  5
17F
330
17D
100
AcDbEntity
  8
DEFAULT
100
AcDbVertex
100
AcDb2dVertex
 10
-21.30822755530089
 20
-11.07718190721836
 30
0.0
  0
VERTEX
  5
180
330
17D
100
AcDbEntity
  8
DEFAULT
100
AcDbVertex
100
AcDb2dVertex
 10
-21.30822755530089
 20
-10.83818190721836
 30
0.0
  0
VERTEX
  5
181
330
17D
100
AcDbEntity
  8
DEFAULT
100
AcDbVertex
100
AcDb2dVertex
 10
-21.48822755530089
 20
-10.83818190721836
 30
0.0
  0
SEQEND
  5
182
330
17D
100
AcDbEntity
  8
DEFAULT
  0
POLYLINE
  5
183
330
1F
100
AcDbEntity
  8
DEFAULT
100
AcDb2dPolyline
 66
     1
 10
0.0
 20
0.0
 30
0.0
 70
     1
  0
VERTEX
  5
184
330
183
100
AcDbEntity
  8
DEFAULT
100
AcDbVertex
100
AcDb2dVertex
 10
-19.72464310869458
 20
-11.24157638155333
 30
0.0
  0
VERTEX
  5
185
330
183
100
AcDbEntity
  8
DEFAULT
100
AcDbVertex
100
AcDb2dVertex
 10
-19.54464310869458
 20
-11.24157638155333
 30
0.0
  0
VERTEX
  5
186
330
183
100
AcDbEntity
  8
DEFAULT
100
AcDbVertex
100
AcDb2dVertex
 10
-19.54464310869458
 20
-11.00257638155333
 30
0.0
  0
VERTEX
  5
187
330
183
100
AcDbEntity
  8
DEFAULT
100
AcDbVertex
100
AcDb2dVertex
 10
-19.72464310869458
 20
-11.00257638155333
 30
0.0
  0
SEQEND
  5
188
330
183
100
AcDbEntity
  8
DEFAULT
  0
ENDSEC
  0
SECTION
  2
OBJECTS
  0
DICTIONARY
  5
C
330
0
100
AcDbDictionary
  3
ACAD_GROUP
350
D
  3
ACAD_LAYOUT
350
1A
  3
ACAD_MATERIAL
350
43
  3
ACAD_MLEADERSTYLE
350
6B
  3
ACAD_MLINESTYLE
350
17
  3
ACAD_PLOTSETTINGS
350
19
  3
ACAD_SCALELIST
350
47
  3
ACAD_VISUALSTYLE
350
2A
  3
ACDBHEADERROUNDTRIPXREC
350
189
  3
ACDBVARIABLEDICTIONARY
350
1AA
  0
DICTIONARY
  5
1B1
330
8
100
AcDbDictionary
280
     1
  3
ACAD_XREC_ROUNDTRIP
360
1B2
  0
DICTIONARY
  5
D
102
{ACAD_REACTORS
330
C
102
}
330
C
100
AcDbDictionary
  0
DICTIONARY
  5
1A
102
{ACAD_REACTORS
330
C
102
}
330
C
100
AcDbDictionary
  0
DICTIONARY
  5
43
102
{ACAD_REACTORS
330
C
102
}
330
C
100
AcDbDictionary
  3
BYBLOCK
350
45
  3
BYLAYER
350
44
  3
GLOBAL
350
46
  0
DICTIONARY
  5
6B
102
{ACAD_REACTORS
330
C
102
}
330
C
100
AcDbDictionary
  3
STANDARD
350
6C
  0
DICTIONARY
  5
17
102
{ACAD_REACTORS
330
C
102
}
330
C
100
AcDbDictionary
  3
STANDARD
350
18
  0
DICTIONARY
  5
19
102
{ACAD_REACTORS
330
C
102
}
330
C
100
AcDbDictionary
  0
DICTIONARY
  5
47
102
{ACAD_REACTORS
330
C
102
}
330
C
100
AcDbDictionary
  3
A0
350
48
  3
A1
350
49
  3
A2
350
4A
  3
A3
350
4B
  3
A4
350
4C
  3
A5
350
4D
  3
A6
350
4E
  3
A7
350
4F
  3
A8
350
50
  3
A9
350
51
  3
B0
350
52
  3
B1
350
53
  3
B2
350
54
  3
B3
350
55
  3
B4
350
56
  3
B5
350
57
  3
B6
350
58
  3
B7
350
59
  3
B8
350
5A
  3
B9
350
5B
  3
C0
350
5C
  3
C1
350
5D
  3
C2
350
5E
  3
C3
350
5F
  3
C4
350
60
  3
C5
350
61
  3
C6
350
62
  3
C7
350
63
  3
C8
350
64
  3
C9
350
65
  3
D0
350
66
  3
D1
350
67
  3
D2
350
68
  0
DICTIONARY
  5
2A
102
{ACAD_REACTORS
330
C
102
}
330
C
100
AcDbDictionary
  3
2DWIREFRAME
350
2F
  3
BASIC
350
32
  3
BRIGHTEN
350
36
  3
COLORCHANGE
350
3A
  3
CONCEPTUAL
350
34
  3
DIM
350
35
  3
EDGECOLOROFF
350
3D
  3
FACEPATTERN
350
39
  3
FLAT
350
2B
  3
FLATWITHEDGES
350
2C
  3
GOURAUD
350
2D
  3
GOURAUDWITHEDGES
350
2E
  3
HIDDEN
350
31
  3
JITTEROFF
350
3B
  3
LINEPATTERN
350
38
  3
OVERHANGOFF
350
3C
  3
REALISTIC
350
33
  3
SHADED
350
42
  3
SHADED_WITH_EDGES
350
41
  3
SHADES_OF_GRAY
350
3E
  3
SKETCHY
350
3F
  3
THICKEN
350
37
  3
WIREFRAME
350
30
  3
X-RAY
350
40
  0
DICTIONARY
  5
189
102
{ACAD_REACTORS
330
C
102
}
330
C
100
AcDbDictionary
  3
CEPSNID
350
193
  3
CEPSNTYPE
350
192
  3
DIMSTYLEDATA
350
1A9
  3
FINGERPRINTGUID
350
194
  3
HYPERLINKBASE
350
18C
  3
INSUNITS
350
191
  3
LAYOUTDICT
350
18E
  3
LWETCUNION
350
190
  3
PLOTSETDICT
350
18F
  3
PSVPSCALE
350
196
  3
PUCSBASE
350
199
  3
PUCSORGBACK
350
19F
  3
PUCSORGBOTTOM
350
19B
  3
PUCSORGFRONT
350
19E
  3
PUCSORGLEFT
350
19C
  3
PUCSORGRIGHT
350
19D
  3
PUCSORGTOP
350
19A
  3
PUCSORTHOREF
350
197
  3
PUCSORTHOVIEW
350
198
  3
STYLESHEET
350
18D
  3
TSTACKALIGN
350
18A
  3
TSTACKSIZE
350
18B
  3
UCSBASE
350
1A2
  3
UCSORGBACK
350
1A8
  3
UCSORGBOTTOM
350
1A4
  3
UCSORGFRONT
350
1A7
  3
UCSORGLEFT
350
1A5
  3
UCSORGRIGHT
350
1A6
  3
UCSORGTOP
350
1A3
  3
UCSORTHOREF
350
1A0
  3
UCSORTHOVIEW
350
1A1
  3
VERSIONGUID
350
195
  0
DICTIONARY
  5
1AA
102
{ACAD_REACTORS
330
C
102
}
330
C
100
AcDbDictionary
  3
CANNOSCALE
350
1B3
  3
CMLEADERSTYLE
350
1AC
  3
CTABLESTYLE
350
1AB
  3
DIMASSOC
350
1AF
  3
HIDETEXT
350
1B0
  3
MSLTSCALE
350
1B4
  0
XRECORD
  5
1B2
102
{ACAD_REACTORS
330
1B1
102
}
330
1B1
100
AcDbXrecord
102
VTR_0.000_0.000_1.000_1.000_VISUALSTYLE
340
2F
102
VTR_0.000_0.000_1.000_1.000_GRIDDISPLAY
 70
     3
102
VTR_0.000_0.000_1.000_1.000_GRIDMAJOR
 70
     5
102
VTR_0.000_0.000_1.000_1.000_DEFAULTLIGHTING
280
     1
102
VTR_0.000_0.000_1.000_1.000_DEFAULTLIGHTINGTYPE
 70
     1
102
VTR_0.000_0.000_1.000_1.000_BRIGHTNESS
141
0.0
102
VTR_0.000_0.000_1.000_1.000_CONTRAST
142
0.0
  0
MATERIAL
  5
45
102
{ACAD_REACTORS
330
43
102
}
102
{ACAD_XDICTIONARY
360
1B7
102
}
330
43
100
AcDbMaterial
  1
BYBLOCK
  0
MATERIAL
  5
44
102
{ACAD_REACTORS
330
43
102
}
102
{ACAD_XDICTIONARY
360
1B5
102
}
330
43
100
AcDbMaterial
  1
BYLAYER
  0
MATERIAL
  5
46
102
{ACAD_REACTORS
330
43
102
}
102
{ACAD_XDICTIONARY
360
1B9
102
}
330
43
100
AcDbMaterial
  1
GLOBAL
  0
ACAD_PROXY_OBJECT
  5
6C
102
{ACAD_REACTORS
330
6B
102
}
330
6B
100
AcDbProxyObject
 90
      499
 91
      505
 93
      610
310
40901902A4063FBFFFFFE056BD1B81E855B9FC0AD7A3703D0AD73F4214DD185B99185C9900AD7A3703D0AC73F90141901A02B5E8DC0F42B1CFC02B5E8DC0F42B1CFE5764000000000000300FC0
340
14
340
0
340
11
340
0
 94
        0
1001
ACAD_MLEADERVER
1070
     2
  0
MLINESTYLE
  5
18
102
{ACAD_REACTORS
330
17
102
}
330
17
100
AcDbMlineStyle
  2
Standard
 70
     0
  3

 62
   256
 51
90.0
 52
90.0
 71
     2
 49
0.5
 62
   256
  6
BYLAYER
 49
-0.5
 62
   256
  6
BYLAYER
  0
ACAD_PROXY_OBJECT
  5
48
102
{ACAD_REACTORS
330
47
102
}
330
47
100
AcDbProxyObject
 90
      499
 91
      503
 93
       41
310
903313A31580
  0
ACAD_PROXY_OBJECT
  5
49
102
{ACAD_REACTORS
330
47
102
}
330
47
100
AcDbProxyObject
 90
      499
 91
      503
 93
      105
310
903313A324000000000000004000
  0
ACAD_PROXY_OBJECT
  5
4A
102
{ACAD_REACTORS
330
47
102
}
330
47
100
AcDbProxyObject
 90
      499
 91
      503
 93
      105
310
903313A344000000000000104000
  0
ACAD_PROXY_OBJECT
  5
4B
102
{ACAD_REACTORS
330
47
102
}
330
47
100
AcDbProxyObject
 90
      499
 91
      503
 93
      105
310
903313A354000000000000144000
  0
ACAD_PROXY_OBJECT
  5
4C
102
{ACAD_REACTORS
330
47
102
}
330
47
100
AcDbProxyObject
 90
      499
 91
      503
 93
      105
310
903313A384000000000000204000
  0
ACAD_PROXY_OBJECT
  5
4D
102
{ACAD_REACTORS
330
47
102
}
330
47
100
AcDbProxyObject
 90
      499
 91
      503
 93
      113
310
904313A31304000000000000244000
  0
ACAD_PROXY_OBJECT
  5
4E
102
{ACAD_REACTORS
330
47
102
}
330
47
100
AcDbProxyObject
 90
      499
 91
      503
 93
      113
310
904313A31364000000000000304000
  0
ACAD_PROXY_OBJECT
  5
4F
102
{ACAD_REACTORS
330
47
102
}
330
47
100
AcDbProxyObject
 90
      499
 91
      503
 93
      113
310
904313A32304000000000000344000
  0
ACAD_PROXY_OBJECT
  5
50
102
{ACAD_REACTORS
330
47
102
}
330
47
100
AcDbProxyObject
 90
      499
 91
      503
 93
      113
310
904313A333040000000000003E4000
  0
ACAD_PROXY_OBJECT
  5
51
102
{ACAD_REACTORS
330
47
102
}
330
47
100
AcDbProxyObject
 90
      499
 91
      503
 93
      113
310
904313A34304000000000000444000
  0
ACAD_PROXY_OBJECT
  5
52
102
{ACAD_REACTORS
330
47
102
}
330
47
100
AcDbProxyObject
 90
      499
 91
      503
 93
      113
310
904313A35304000000000000494000
  0
ACAD_PROXY_OBJECT
  5
53
102
{ACAD_REACTORS
330
47
102
}
330
47
100
AcDbProxyObject
 90
      499
 91
      503
 93
      121
310
905313A3130304000000000000594000
  0
ACAD_PROXY_OBJECT
  5
54
102
{ACAD_REACTORS
330
47
102
}
330
47
100
AcDbProxyObject
 90
      499
 91
      503
 93
      105
310
903323A310000000000000010100
  0
ACAD_PROXY_OBJECT
  5
55
102
{ACAD_REACTORS
330
47
102
}
330
47
100
AcDbProxyObject
 90
      499
 91
      503
 93
      105
310
903343A310000000000000410100
  0
ACAD_PROXY_OBJECT
  5
56
102
{ACAD_REACTORS
330
47
102
}
330
47
100
AcDbProxyObject
 90
      499
 91
      503
 93
      105
310
903383A310000000000000810100
  0
ACAD_PROXY_OBJECT
  5
57
102
{ACAD_REACTORS
330
47
102
}
330
47
100
AcDbProxyObject
 90
      499
 91
      503
 93
      113
310
90431303A310000000000000910100
  0
ACAD_PROXY_OBJECT
  5
58
102
{ACAD_REACTORS
330
47
102
}
330
47
100
AcDbProxyObject
 90
      499
 91
      503
 93
      121
310
9053130303A310000000000001650100
  0
ACAD_PROXY_OBJECT
  5
59
102
{ACAD_REACTORS
330
47
102
}
330
47
100
AcDbProxyObject
 90
      499
 91
      503
 93
      257
310
90E312F31323822203D2031272D3022000000000000200FC000000000000284000
  0
ACAD_PROXY_OBJECT
  5
5A
102
{ACAD_REACTORS
330
47
102
}
330
47
100
AcDbProxyObject
 90
      499
 91
      503
 93
      249
310
90D312F363422203D2031272D3022000000000000240FC000000000000284000
  0
ACAD_PROXY_OBJECT
  5
5B
102
{ACAD_REACTORS
330
47
102
}
330
47
100
AcDbProxyObject
 90
      499
 91
      503
 93
      249
310
90D312F333222203D2031272D3022000000000000280FC000000000000284000
  0
ACAD_PROXY_OBJECT
  5
5C
102
{ACAD_REACTORS
330
47
102
}
330
47
100
AcDbProxyObject
 90
      499
 91
      503
 93
      249
310
90D312F313622203D2031272D30220000000000002C0FC000000000000284000
  0
ACAD_PROXY_OBJECT
  5
5D
102
{ACAD_REACTORS
330
47
102
}
330
47
100
AcDbProxyObject
 90
      499
 91
      503
 93
      249
310
90D332F333222203D2031272D30220000000000002E0FC000000000000284000
  0
ACAD_PROXY_OBJECT
  5
5E
102
{ACAD_REACTORS
330
47
102
}
330
47
100
AcDbProxyObject
 90
      499
 91
      503
 93
      241
310
90C312F3822203D2031272D3022000000000000300FC000000000000284000
  0
ACAD_PROXY_OBJECT
  5
5F
102
{ACAD_REACTORS
330
47
102
}
330
47
100
AcDbProxyObject
 90
      499
 91
      503
 93
      249
310
90D332F313622203D2031272D3022000000000000320FC000000000000284000
  0
ACAD_PROXY_OBJECT
  5
60
102
{ACAD_REACTORS
330
47
102
}
330
47
100
AcDbProxyObject
 90
      499
 91
      503
 93
      241
310
90C312F3422203D2031272D3022000000000000340FC000000000000284000
  0
ACAD_PROXY_OBJECT
  5
61
102
{ACAD_REACTORS
330
47
102
}
330
47
100
AcDbProxyObject
 90
      499
 91
      503
 93
      241
310
90C332F3822203D2031272D3022000000000000360FC000000000000284000
  0
ACAD_PROXY_OBJECT
  5
62
102
{ACAD_REACTORS
330
47
102
}
330
47
100
AcDbProxyObject
 90
      499
 91
      503
 93
      241
310
90C312F3222203D2031272D3022000000000000380FC000000000000284000
  0
ACAD_PROXY_OBJECT
  5
63
102
{ACAD_REACTORS
330
47
102
}
330
47
100
AcDbProxyObject
 90
      499
 91
      503
 93
      241
310
90C332F3422203D2031272D30220000000000003A0FC000000000000284000
  0
ACAD_PROXY_OBJECT
  5
64
102
{ACAD_REACTORS
330
47
102
}
330
47
100
AcDbProxyObject
 90
      499
 91
      503
 93
      161
310
90A3122203D2031272D30224000000000000284000
  0
ACAD_PROXY_OBJECT
  5
65
102
{ACAD_REACTORS
330
47
102
}
330
47
100
AcDbProxyObject
 90
      499
 91
      503
 93
      257
310
90E312D312F3222203D2031272D30220000000000003E0FC000000000000284000
  0
ACAD_PROXY_OBJECT
  5
66
102
{ACAD_REACTORS
330
47
102
}
330
47
100
AcDbProxyObject
 90
      499
 91
      503
 93
      225
310
90A3322203D2031272D302200000000000002100000000000000284000
  0
ACAD_PROXY_OBJECT
  5
67
102
{ACAD_REACTORS
330
47
102
}
330
47
100
AcDbProxyObject
 90
      499
 91
      503
 93
      225
310
90A3622203D2031272D302200000000000006100000000000000284000
  0
ACAD_PROXY_OBJECT
  5
68
102
{ACAD_REACTORS
330
47
102
}
330
47
100
AcDbProxyObject
 90
      499
 91
      503
 93
      249
310
90D31272D3022203D2031272D30220000000000000A100000000000000284000
  0
ACAD_PROXY_OBJECT
  5
2F
102
{ACAD_REACTORS
330
2A
102
}
330
2A
100
AcDbProxyObject
 90
      499
 91
      501
 93
      436
310
42CC9915DA5C99599C985B595049028333333333333E33F0000000000000F90107901411070040501600405405064090741402480A0340
1001
ACAD
1000
AcDbSavedByObjectVersion
1070
     0
  0
ACAD_PROXY_OBJECT
  5
32
102
{ACAD_REACTORS
330
2A
102
}
330
2A
100
AcDbProxyObject
 90
      499
 91
      501
 93
      388
310
4150985CDA58D07406404333333333333E33F0000000000000F90107A41107004050150841D405064090741402480A0350
1001
ACAD
1000
AcDbSavedByObjectVersion
1070
     0
  0
ACAD_PROXY_OBJECT
  5
36
102
{ACAD_REACTORS
330
2A
102
}
330
2A
100
AcDbProxyObject
 90
      499
 91
      501
 93
      428
310
42109C9A59DA1D195B90C409028333333333333E33F0000000000000F9010790141107004050150841D405064090741402480A029950
1001
ACAD
1000
AcDbSavedByObjectVersion
1070
     0
  0
ACAD_PROXY_OBJECT
  5
3A
102
{ACAD_REACTORS
330
2A
102
}
330
2A
100
AcDbProxyObject
 90
      499
 91
      501
 93
      452
310
42D0DBDB1BDC90DA185B99D95104090240C333333333333E33F0000000000000F90108901411070040501508421405064090741402480A0350
1001
ACAD
1000
AcDbSavedByObjectVersion
1070
     0
  0
ACAD_PROXY_OBJECT
  5
34
102
{ACAD_REACTORS
330
2A
102
}
330
2A
100
AcDbProxyObject
 90
      499
 91
      501
 93
      500
310
4290DBDB98D95C1D1D585B10940D028333333333333E33F0000000000000F90107902409070040501000000000018199010841D405064090740C02480A0340
1001
ACAD
1000
AcDbSavedByObjectVersion
1070
     0
  0
ACAD_PROXY_OBJECT
  5
35
102
{ACAD_REACTORS
330
2A
102
}
330
2A
100
AcDbProxyObject
 90
      499
 91
      501
 93
      412
310
40D11A5B50B409028333333333333E33F0000000000000F9010790141107004050150841D405064090741402480A02677FFFFFD0
1001
ACAD
1000
AcDbSavedByObjectVersion
1070
     0
  0
ACAD_PROXY_OBJECT
  5
3D
102
{ACAD_REACTORS
330
2A
102
}
330
2A
100
AcDbProxyObject
 90
      499
 91
      501
 93
      452
310
43115919D950DBDB1BDC93D999916409028333333333333E33F0000000000000F9010790141107004050150841D405064090741402480A0350
1001
ACAD
1000
AcDbSavedByObjectVersion
1070
     0
  0
ACAD_PROXY_OBJECT
  5
39
102
{ACAD_REACTORS
330
2A
102
}
330
2A
100
AcDbProxyObject
 90
      499
 91
      501
 93
      444
310
42D19858D95C185D1D195C9B90F409028333333333333E33F0000000000000F9010790141107004050150841D405064090741402480A0350
1001
ACAD
1000
AcDbSavedByObjectVersion
1070
     0
  0
ACAD_PROXY_OBJECT
  5
2B
102
{ACAD_REACTORS
330
2A
102
}
330
2A
100
AcDbProxyObject
 90
      499
 91
      501
 93
      380
310
41119B185D240901404333333333333E33F0000000000000F9010740A907004050150841D405064090741402480A1B50
1001
ACAD
1000
AcDbSavedByObjectVersion
1070
     0
  0
ACAD_PROXY_OBJECT
  5
2C
102
{ACAD_REACTORS
330
2A
102
}
330
2A
100
AcDbProxyObject
 90
      499
 91
      501
 93
      468
310
43519B185D15DA5D1A115919D95CD0140901404333333333333E33F0000000000000F90107409019070040501600405405064090741402480A1B50
1001
ACAD
1000
AcDbSavedByObjectVersion
1070
     0
  0
ACAD_PROXY_OBJECT
  5
2D
102
{ACAD_REACTORS
330
2A
102
}
330
2A
100
AcDbProxyObject
 90
      499
 91
      501
 93
      404
310
41D1DBDD5C985D5910240902404333333333333E33F0000000000000F9010740A9070040501641D405064090741402480A1B50
1001
ACAD
1000
AcDbSavedByObjectVersion
1070
     0
  0
ACAD_PROXY_OBJECT
  5
2E
102
{ACAD_REACTORS
330
2A
102
}
330
2A
100
AcDbProxyObject
 90
      499
 91
      501
 93
      492
310
4411DBDD5C985D5915DA5D1A115919D95CD0340902404333333333333E33F0000000000000F90107409019070040501600405405064090741402480A1B50
1001
ACAD
1000
AcDbSavedByObjectVersion
1070
     0
  0
ACAD_PROXY_OBJECT
  5
31
102
{ACAD_REACTORS
330
2A
102
}
330
2A
100
AcDbProxyObject
 90
      499
 91
      501
 93
      476
310
41921A5919195B90640502408333333333333E33F0000000000000F901079024090700405020000000000001110200405405064090740C02480A0340
1001
ACAD
1000
AcDbSavedByObjectVersion
1070
     0
  0
ACAD_PROXY_OBJECT
  5
3B
102
{ACAD_REACTORS
330
2A
102
}
330
2A
100
AcDbProxyObject
 90
      499
 91
      501
 93
      428
310
42529A5D1D195C93D999914409028333333333333E33F0000000000000F9010790141107004050150A41D405064090741402480A0350
1001
ACAD
1000
AcDbSavedByObjectVersion
1070
     0
  0
ACAD_PROXY_OBJECT
  5
38
102
{ACAD_REACTORS
330
2A
102
}
330
2A
100
AcDbProxyObject
 90
      499
 91
      501
 93
      444
310
42D31A5B995C185D1D195C9B90E409028333333333333E33F0000000000000F9010790141107004050750841D405064090741402483A0350
1001
ACAD
1000
AcDbSavedByObjectVersion
1070
     0
  0
ACAD_PROXY_OBJECT
  5
3C
102
{ACAD_REACTORS
330
2A
102
}
330
2A
100
AcDbProxyObject
 90
      499
 91
      501
 93
      444
310
42D3DD995C9A185B99D3D999915409028333333333333E33F0000000000000F9010790141107004050150941D405064090741402480A0350
1001
ACAD
1000
AcDbSavedByObjectVersion
1070
     0
  0
ACAD_PROXY_OBJECT
  5
33
102
{ACAD_REACTORS
330
2A
102
}
330
2A
100
AcDbProxyObject
 90
      499
 91
      501
 93
      428
310
425499585B1A5CDD1A58D08409038333333333333E33F0000000000000F9010740A907004050150800405405064090740C02480A1B40
1001
ACAD
1000
AcDbSavedByObjectVersion
1070
     0
  0
ACAD_PROXY_OBJECT
  5
42
102
{ACAD_REACTORS
330
2A
102
}
330
2A
100
AcDbProxyObject
 90
      499
 91
      501
 93
      420
310
4194DA1859195911B40902404333333333333E33F0000000000000F9010740A41107004050150800405405064090840C02480A0B40
1001
ACAD
1000
AcDbSavedByObjectVersion
1070
     0
  0
ACAD_PROXY_OBJECT
  5
41
102
{ACAD_REACTORS
330
2A
102
}
330
2A
100
AcDbProxyObject
 90
      499
 91
      501
 93
      516
310
4454DA18591959081DDA5D1A08195919D95CD1A40902404333333333333E33F0000000000000F901074090142907004050250800405405064090740C02480A0B40
1001
ACAD
1000
AcDbSavedByObjectVersion
1070
     0
  0
ACAD_PROXY_OBJECT
  5
3E
102
{ACAD_REACTORS
330
2A
102
}
330
2A
100
AcDbProxyObject
 90
      499
 91
      501
 93
      532
310
4394DA1859195CC81BD98811DC985E5174090240C333333333333E33F0000000000000F901079024090741D01000000000000111010841D405064090740C02480A0340
1001
ACAD
1000
AcDbSavedByObjectVersion
1070
     0
  0
ACAD_PROXY_OBJECT
  5
3F
102
{ACAD_REACTORS
330
2A
102
}
330
2A
100
AcDbProxyObject
 90
      499
 91
      501
 93
      476
310
41D4DAD95D18DA1E51840502408333333333333E33F0000000000000F901079024090741D01000000000000111010B41D405064090741802480A0340
1001
ACAD
1000
AcDbSavedByObjectVersion
1070
     0
  0
ACAD_PROXY_OBJECT
  5
37
102
{ACAD_REACTORS
330
2A
102
}
330
2A
100
AcDbProxyObject
 90
      499
 91
      501
 93
      412
310
41D51A1A58DAD95B90D409028333333333333E33F0000000000000F9010790141107004050150C41D405064090741402480A0350
1001
ACAD
1000
AcDbSavedByObjectVersion
1070
     0
  0
ACAD_PROXY_OBJECT
  5
30
102
{ACAD_REACTORS
330
2A
102
}
330
2A
100
AcDbProxyObject
 90
      499
 91
      501
 93
      420
310
4255DA5C99599C985B595059028333333333333E33F0000000000000F90107901411070040501600405405064090740C02480A0340
1001
ACAD
1000
AcDbSavedByObjectVersion
1070
     0
  0
ACAD_PROXY_OBJECT
  5
40
102
{ACAD_REACTORS
330
2A
102
}
330
2A
100
AcDbProxyObject
 90
      499
 91
      501
 93
      404
310
41560B54985E51940902404000000000000E03F0000000000000F9010740501907004050150841D405064090740C02480A1B40
1001
ACAD
1000
AcDbSavedByObjectVersion
1070
     0
  0
XRECORD
  5
193
102
{ACAD_REACTORS
330
189
102
}
330
189
100
AcDbXrecord
340
0
  0
XRECORD
  5
192
102
{ACAD_REACTORS
330
189
102
}
330
189
100
AcDbXrecord
 90
        0
  0
XRECORD
  5
1A9
102
{ACAD_REACTORS
330
189
102
}
330
189
100
AcDbXrecord
1000
DSTYLE
1002
{
1070
   279
 70
     2
1070
   340
340
11
1002
}
  0
XRECORD
  5
194
102
{ACAD_REACTORS
330
189
102
}
330
189
100
AcDbXrecord
  1
{491bb4d4-e777-49ad-937f-c2582416e12a}
  0
XRECORD
  5
18C
102
{ACAD_REACTORS
330
189
102
}
330
189
100
AcDbXrecord
  1

  0
XRECORD
  5
191
102
{ACAD_REACTORS
330
189
102
}
330
189
100
AcDbXrecord
 90
        1
  0
XRECORD
  5
18E
102
{ACAD_REACTORS
330
189
102
}
330
189
100
AcDbXrecord
340
1A
  0
XRECORD
  5
190
102
{ACAD_REACTORS
330
189
102
}
330
189
100
AcDbXrecord
 90
    10781
  0
XRECORD
  5
18F
102
{ACAD_REACTORS
330
189
102
}
330
189
100
AcDbXrecord
340
19
  0
XRECORD
  5
196
102
{ACAD_REACTORS
330
189
102
}
330
189
100
AcDbXrecord
 40
0.0
  0
XRECORD
  5
199
102
{ACAD_REACTORS
330
189
102
}
330
189
100
AcDbXrecord
340
0
  0
XRECORD
  5
19F
102
{ACAD_REACTORS
330
189
102
}
330
189
100
AcDbXrecord
 10
0.0
 20
0.0
 30
0.0
  0
XRECORD
  5
19B
102
{ACAD_REACTORS
330
189
102
}
330
189
100
AcDbXrecord
 10
0.0
 20
0.0
 30
0.0
  0
XRECORD
  5
19E
102
{ACAD_REACTORS
330
189
102
}
330
189
100
AcDbXrecord
 10
0.0
 20
0.0
 30
0.0
  0
XRECORD
  5
19C
102
{ACAD_REACTORS
330
189
102
}
330
189
100
AcDbXrecord
 10
0.0
 20
0.0
 30
0.0
  0
XRECORD
  5
19D
102
{ACAD_REACTORS
330
189
102
}
330
189
100
AcDbXrecord
 10
0.0
 20
0.0
 30
0.0
  0
XRECORD
  5
19A
102
{ACAD_REACTORS
330
189
102
}
330
189
100
AcDbXrecord
 10
0.0
 20
0.0
 30
0.0
  0
XRECORD
  5
197
102
{ACAD_REACTORS
330
189
102
}
330
189
100
AcDbXrecord
340
0
  0
XRECORD
  5
198
102
{ACAD_REACTORS
330
189
102
}
330
189
100
AcDbXrecord
 70
     0
  0
XRECORD
  5
18D
102
{ACAD_REACTORS
330
189
102
}
330
189
100
AcDbXrecord
  1

  0
XRECORD
  5
18A
102
{ACAD_REACTORS
330
189
102
}
330
189
100
AcDbXrecord
 90
        1
  0
XRECORD
  5
18B
102
{ACAD_REACTORS
330
189
102
}
330
189
100
AcDbXrecord
 90
       70
  0
XRECORD
  5
1A2
102
{ACAD_REACTORS
330
189
102
}
330
189
100
AcDbXrecord
340
0
  0
XRECORD
  5
1A8
102
{ACAD_REACTORS
330
189
102
}
330
189
100
AcDbXrecord
 10
0.0
 20
0.0
 30
0.0
  0
XRECORD
  5
1A4
102
{ACAD_REACTORS
330
189
102
}
330
189
100
AcDbXrecord
 10
0.0
 20
0.0
 30
0.0
  0
XRECORD
  5
1A7
102
{ACAD_REACTORS
330
189
102
}
330
189
100
AcDbXrecord
 10
0.0
 20
0.0
 30
0.0
  0
XRECORD
  5
1A5
102
{ACAD_REACTORS
330
189
102
}
330
189
100
AcDbXrecord
 10
0.0
 20
0.0
 30
0.0
  0
XRECORD
  5
1A6
102
{ACAD_REACTORS
330
189
102
}
330
189
100
AcDbXrecord
 10
0.0
 20
0.0
 30
0.0
  0
XRECORD
  5
1A3
102
{ACAD_REACTORS
330
189
102
}
330
189
100
AcDbXrecord
 10
0.0
 20
0.0
 30
0.0
  0
XRECORD
  5
1A0
102
{ACAD_REACTORS
330
189
102
}
330
189
100
AcDbXrecord
340
0
  0
XRECORD
  5
1A1
102
{ACAD_REACTORS
330
189
102
}
330
189
100
AcDbXrecord
 70
     0
  0
XRECORD
  5
195
102
{ACAD_REACTORS
330
189
102
}
330
189
100
AcDbXrecord
  1
{FAEB1C32-E019-11D5-929B-00C0DF256EC4}
  0
DICTIONARYVAR
  5
1B3
102
{ACAD_REACTORS
330
1AA
102
}
330
1AA
100
DictionaryVariables
280
     0
  1
1:1
  0
DICTIONARYVAR
  5
1AC
102
{ACAD_REACTORS
330
1AA
102
}
330
1AA
100
DictionaryVariables
280
     0
  1
Standard
  0
DICTIONARYVAR
  5
1AB
102
{ACAD_REACTORS
330
1AA
102
}
330
1AA
100
DictionaryVariables
280
     0
  1
Standard
  0
DICTIONARYVAR
  5
1AF
102
{ACAD_REACTORS
330
1AA
102
}
330
1AA
100
DictionaryVariables
280
     0
  1
2
  0
DICTIONARYVAR
  5
1B0
102
{ACAD_REACTORS
330
1AA
102
}
330
1AA
100
DictionaryVariables
280
     0
  1
1
  0
DICTIONARYVAR
  5
1B4
102
{ACAD_REACTORS
330
1AA
102
}
330
1AA
100
DictionaryVariables
280
     0
  1
1
  0
DICTIONARY
  5
1B7
330
45
100
AcDbDictionary
280
     1
  3
ACAD_XREC_ROUNDTRIP
360
1B8
  0
DICTIONARY
  5
1B5
330
44
100
AcDbDictionary
280
     1
  3
ACAD_XREC_ROUNDTRIP
360
1B6
  0
DICTIONARY
  5
1B9
330
46
100
AcDbDictionary
280
     1
  3
ACAD_XREC_ROUNDTRIP
360
1BA
  0
XRECORD
  5
1B8
102
{ACAD_REACTORS
330
1B7
102
}
330
1B7
100
AcDbXrecord
102
MATERIAL
148
0.0
149
0.0
149
0.0
 93
        0
 94
      127
282
     0
 72
     1
 77
     1
171
     1
175
     1
179
     1
273
     0
  0
XRECORD
  5
1B6
102
{ACAD_REACTORS
330
1B5
102
}
330
1B5
100
AcDbXrecord
102
MATERIAL
148
0.0
149
0.0
149
0.0
 93
        0
 94
      127
282
     0
 72
     1
 77
     1
171
     1
175
     1
179
     1
273
     0
  0
XRECORD
  5
1BA
102
{ACAD_REACTORS
330
1B9
102
}
330
1B9
100
AcDbXrecord
102
MATERIAL
148
0.0
149
0.0
149
0.0
 93
        0
 94
      127
282
     0
 72
     1
 77
     1
171
     1
175
     1
179
     1
273
     0
  0
ENDSEC
  0
EOF
