  0
SECTION
  2
HEADER
  9
$ACADVER
  1
AC1014
  9
$ACADMAINTVER
 70
     9
  9
$DWGCODEPAGE
  3
ANSI_1252
  9
$INSBASE
 10
0.0
 20
0.0
 30
0.0
  9
$EXTMIN
 10
1.000000000000000E+20
 20
1.000000000000000E+20
 30
1.000000000000000E+20
  9
$EXTMAX
 10
-1.000000000000000E+20
 20
-1.000000000000000E+20
 30
-1.000000000000000E+20
  9
$LIMMIN
 10
0.0
 20
0.0
  9
$LIMMAX
 10
12.0
 20
9.0
  9
$ORTHOMODE
 70
     0
  9
$REGENMODE
 70
     1
  9
$FILLMODE
 70
     1
  9
$QTEXTMODE
 70
     0
  9
$MIRRTEXT
 70
     1
  9
$DRAGMODE
 70
     2
  9
$LTSCALE
 40
1.0
  9
$OSMODE
 70
    37
  9
$ATTMODE
 70
     1
  9
$TEXTSIZE
 40
0.2
  9
$TRACEWID
 40
0.05
  9
$TEXTSTYLE
  7
STANDARD
  9
$CLAYER
  8
DEFAULT
  9
$CELTYPE
  6
BYLAYER
  9
$CECOLOR
 62
   256
  9
$CELTSCALE
 40
1.0
  9
$DELOBJ
 70
     1
  9
$DISPSILH
 70
     0
  9
$DIMSCALE
 40
1.0
  9
$DIMASZ
 40
0.18
  9
$DIMEXO
 40
0.0625
  9
$DIMDLI
 40
0.38
  9
$DIMRND
 40
0.0
  9
$DIMDLE
 40
0.0
  9
$DIMEXE
 40
0.18
  9
$DIMTP
 40
0.0
  9
$DIMTM
 40
0.0
  9
$DIMTXT
 40
0.18
  9
$DIMCEN
 40
0.09
  9
$DIMTSZ
 40
0.0
  9
$DIMTOL
 70
     0
  9
$DIMLIM
 70
     0
  9
$DIMTIH
 70
     1
  9
$DIMTOH
 70
     1
  9
$DIMSE1
 70
     0
  9
$DIMSE2
 70
     0
  9
$DIMTAD
 70
     0
  9
$DIMZIN
 70
     0
  9
$DIMBLK
  1

  9
$DIMASO
 70
     1
  9
$DIMSHO
 70
     1
  9
$DIMPOST
  1

  9
$DIMAPOST
  1

  9
$DIMALT
 70
     0
  9
$DIMALTD
 70
     2
  9
$DIMALTF
 40
25.4
  9
$DIMLFAC
 40
1.0
  9
$DIMTOFL
 70
     0
  9
$DIMTVP
 40
0.0
  9
$DIMTIX
 70
     0
  9
$DIMSOXD
 70
     0
  9
$DIMSAH
 70
     0
  9
$DIMBLK1
  1

  9
$DIMBLK2
  1

  9
$DIMSTYLE
  2
STANDARD_ACAD
  9
$DIMCLRD
 70
     0
  9
$DIMCLRE
 70
     0
  9
$DIMCLRT
 70
     0
  9
$DIMTFAC
 40
1.0
  9
$DIMGAP
 40
0.09
  9
$DIMJUST
 70
     0
  9
$DIMSD1
 70
     0
  9
$DIMSD2
 70
     0
  9
$DIMTOLJ
 70
     1
  9
$DIMTZIN
 70
     0
  9
$DIMALTZ
 70
     0
  9
$DIMALTTZ
 70
     0
  9
$DIMFIT
 70
     5
  9
$DIMUPT
 70
     0
  9
$DIMUNIT
 70
     2
  9
$DIMDEC
 70
     4
  9
$DIMTDEC
 70
     4
  9
$DIMALTU
 70
     2
  9
$DIMALTTD
 70
     2
  9
$DIMTXSTY
  7
STANDARD
  9
$DIMAUNIT
 70
     0
  9
$LUNITS
 70
     2
  9
$LUPREC
 70
     2
  9
$SKETCHINC
 40
0.1
  9
$FILLETRAD
 40
0.5
  9
$AUNITS
 70
     0
  9
$AUPREC
 70
     0
  9
$MENU
  1
.
  9
$ELEVATION
 40
0.0
  9
$PELEVATION
 40
0.0
  9
$THICKNESS
 40
0.0
  9
$LIMCHECK
 70
     0
  9
$CHAMFERA
 40
0.0
  9
$CHAMFERB
 40
0.0
  9
$CHAMFERC
 40
0.0
  9
$CHAMFERD
 40
0.0
  9
$SKPOLY
 70
     0
  9
$TDCREATE
 40
2458638.915325903
  9
$TDUPDATE
 40
2458638.915350775
  9
$TDINDWG
 40
0.0000000116
  9
$TDUSRTIMER
 40
0.0000000116
  9
$USRTIMER
 70
     1
  9
$ANGBASE
 50
0.0
  9
$ANGDIR
 70
     0
  9
$PDMODE
 70
     0
  9
$PDSIZE
 40
0.0
  9
$PLINEWID
 40
0.0
  9
$COORDS
 70
     1
  9
$SPLFRAME
 70
     0
  9
$SPLINETYPE
 70
     6
  9
$SPLINESEGS
 70
     8
  9
$ATTDIA
 70
     0
  9
$ATTREQ
 70
     1
  9
$HANDLING
 70
     1
  9
$HANDSEED
  5
174
  9
$SURFTAB1
 70
     6
  9
$SURFTAB2
 70
     6
  9
$SURFTYPE
 70
     6
  9
$SURFU
 70
     6
  9
$SURFV
 70
     6
  9
$UCSNAME
  2

  9
$UCSORG
 10
0.0
 20
0.0
 30
0.0
  9
$UCSXDIR
 10
1.0
 20
0.0
 30
0.0
  9
$UCSYDIR
 10
0.0
 20
1.0
 30
0.0
  9
$PUCSNAME
  2

  9
$PUCSORG
 10
0.0
 20
0.0
 30
0.0
  9
$PUCSXDIR
 10
1.0
 20
0.0
 30
0.0
  9
$PUCSYDIR
 10
0.0
 20
1.0
 30
0.0
  9
$USERI1
 70
     0
  9
$USERI2
 70
     0
  9
$USERI3
 70
     0
  9
$USERI4
 70
     0
  9
$USERI5
 70
     0
  9
$USERR1
 40
0.0
  9
$USERR2
 40
0.0
  9
$USERR3
 40
0.0
  9
$USERR4
 40
0.0
  9
$USERR5
 40
0.0
  9
$WORLDVIEW
 70
     1
  9
$SHADEDGE
 70
     3
  9
$SHADEDIF
 70
    70
  9
$TILEMODE
 70
     1
  9
$MAXACTVP
 70
    64
  9
$PINSBASE
 10
0.0
 20
0.0
 30
0.0
  9
$PLIMCHECK
 70
     0
  9
$PEXTMIN
 10
1.000000000000000E+20
 20
1.000000000000000E+20
 30
1.000000000000000E+20
  9
$PEXTMAX
 10
-1.000000000000000E+20
 20
-1.000000000000000E+20
 30
-1.000000000000000E+20
  9
$PLIMMIN
 10
0.0
 20
0.0
  9
$PLIMMAX
 10
12.0
 20
9.0
  9
$UNITMODE
 70
     0
  9
$VISRETAIN
 70
     1
  9
$PLINEGEN
 70
     0
  9
$PSLTSCALE
 70
     1
  9
$TREEDEPTH
 70
  3020
  9
$PICKSTYLE
 70
     1
  9
$CMLSTYLE
  2
STANDARD
  9
$CMLJUST
 70
     0
  9
$CMLSCALE
 40
1.0
  9
$PROXYGRAPHICS
 70
     1
  9
$MEASUREMENT
 70
     1
  0
ENDSEC
  0
SECTION
  2
CLASSES
  0
CLASS
  1
ACDBDICTIONARYWDFLT
  2
AcDbDictionaryWithDefault
  3
ObjectDBX Classes
 90
        0
280
     0
281
     0
  0
CLASS
  1
VISUALSTYLE
  2
AcDbVisualStyle
  3
ObjectDBX Classes
 90
     4095
280
     0
281
     0
  0
CLASS
  1
MATERIAL
  2
AcDbMaterial
  3
ObjectDBX Classes
 90
     1153
280
     0
281
     0
  0
CLASS
  1
SCALE
  2
AcDbScale
  3
ObjectDBX Classes
 90
     1153
280
     0
281
     0
  0
CLASS
  1
TABLESTYLE
  2
AcDbTableStyle
  3
ObjectDBX Classes
 90
     4095
280
     0
281
     0
  0
CLASS
  1
MLEADERSTYLE
  2
AcDbMLeaderStyle
  3
ACDB_MLEADERSTYLE_CLASS
 90
     4095
280
     0
281
     0
  0
CLASS
  1
SUN
  2
AcDbSun
  3
SCENEOE
 90
     1153
280
     0
281
     0
  0
CLASS
  1
DICTIONARYVAR
  2
AcDbDictionaryVar
  3
ObjectDBX Classes
 90
        0
280
     0
281
     0
  0
CLASS
  1
XRECORD
  2
AcDbXrecord
  3
ObjectDBX Classes
 90
        0
280
     0
281
     0
  0
CLASS
  1
LWPOLYLINE
  2
AcDbPolyline
  3
ObjectDBX Classes
 90
        0
280
     0
281
     1
  0
CLASS
  1
HATCH
  2
AcDbHatch
  3
ObjectDBX Classes
 90
        0
280
     0
281
     1
  0
CLASS
  1
ACDBPLACEHOLDER
  2
AcDbPlaceHolder
  3
ObjectDBX Classes
 90
        0
280
     0
281
     0
  0
CLASS
  1
LAYOUT
  2
AcDbLayout
  3
ObjectDBX Classes
 90
        0
280
     0
281
     0
  0
ENDSEC
  0
SECTION
  2
TABLES
  0
TABLE
  2
VPORT
  5
8
102
{ACAD_XDICTIONARY
360
169
102
}
330
0
100
AcDbSymbolTable
 70
     1
  0
VPORT
  5
29
330
8
100
AcDbSymbolTableRecord
100
AcDbViewportTableRecord
  2
*ACTIVE
 70
     0
 10
0.0
 20
0.0
 11
1.0
 21
1.0
 12
10.42990654205607
 22
4.5
 13
0.0
 23
0.0
 14
0.5
 24
0.5
 15
0.5
 25
0.5
 16
0.0
 26
0.0
 36
1.0
 17
0.0
 27
0.0
 37
0.0
 40
9.0
 41
1.972972972850329
 42
50.0
 43
0.0
 44
0.0
 50
0.0
 51
0.0
 71
     0
 72
   100
 73
     1
 74
     3
 75
     0
 76
     0
 77
     0
 78
     0
  0
ENDTAB
  0
TABLE
  2
LTYPE
  5
5
330
0
100
AcDbSymbolTable
 70
     1
  0
LTYPE
  5
14
330
5
100
AcDbSymbolTableRecord
100
AcDbLinetypeTableRecord
  2
BYBLOCK
 70
     0
  3

 72
    65
 73
     0
 40
0.0
  0
LTYPE
  5
15
330
5
100
AcDbSymbolTableRecord
100
AcDbLinetypeTableRecord
  2
BYLAYER
 70
     0
  3

 72
    65
 73
     0
 40
0.0
  0
LTYPE
  5
16
330
5
100
AcDbSymbolTableRecord
100
AcDbLinetypeTableRecord
  2
CONTINUOUS
 70
     0
  3
Solid line
 72
    65
 73
     0
 40
0.0
  0
ENDTAB
  0
TABLE
  2
LAYER
  5
2
330
0
100
AcDbSymbolTable
 70
     2
  0
LAYER
  5
10
330
2
100
AcDbSymbolTableRecord
100
AcDbLayerTableRecord
  2
0
 70
     0
 62
     7
  6
CONTINUOUS
  0
LAYER
  5
6E
330
2
100
AcDbSymbolTableRecord
100
AcDbLayerTableRecord
  2
DEFAULT
 70
     0
 62
    18
  6
CONTINUOUS
  0
ENDTAB
  0
TABLE
  2
STYLE
  5
3
330
0
100
AcDbSymbolTable
 70
     1
  0
STYLE
  5
11
330
3
100
AcDbSymbolTableRecord
100
AcDbTextStyleTableRecord
  2
STANDARD
 70
     0
 40
0.0
 41
1.0
 50
0.0
 71
     0
 42
0.2
  3
txt
  4

  0
ENDTAB
  0
TABLE
  2
VIEW
  5
6
330
0
100
AcDbSymbolTable
 70
     0
  0
ENDTAB
  0
TABLE
  2
UCS
  5
7
330
0
100
AcDbSymbolTable
 70
     0
  0
ENDTAB
  0
TABLE
  2
APPID
  5
9
330
0
100
AcDbSymbolTable
 70
     2
  0
APPID
  5
12
330
9
100
AcDbSymbolTableRecord
100
AcDbRegAppTableRecord
  2
ACAD
 70
     0
  0
APPID
  5
173
330
9
100
AcDbSymbolTableRecord
100
AcDbRegAppTableRecord
  2
ACAD_MLEADERVER
 70
     0
  0
ENDTAB
  0
TABLE
  2
DIMSTYLE
  5
A
330
0
100
AcDbSymbolTable
 70
     1
  0
DIMSTYLE
105
27
330
A
100
AcDbSymbolTableRecord
100
AcDbDimStyleTableRecord
  2
STANDARD_ACAD
 70
     0
  3

  4

  5

  6

  7

 40
1.0
 41
0.18
 42
0.0625
 43
0.38
 44
0.18
 45
0.0
 46
0.0
 47
0.0
 48
0.0
140
0.18
141
0.09
142
0.0
143
25.4
144
1.0
145
0.0
146
1.0
147
0.09
 71
     0
 72
     0
 73
     1
 74
     1
 75
     0
 76
     0
 77
     0
 78
     0
170
     0
171
     2
172
     0
173
     0
174
     0
175
     0
176
     0
177
     0
178
     0
270
     2
271
     4
272
     4
273
     2
274
     2
340
11
275
     0
280
     0
281
     0
282
     0
283
     1
284
     0
285
     0
286
     0
287
     3
288
     0
  0
ENDTAB
  0
TABLE
  2
BLOCK_RECORD
  5
1
330
0
100
AcDbSymbolTable
 70
     0
  0
BLOCK_RECORD
  5
1F
330
1
100
AcDbSymbolTableRecord
100
AcDbBlockTableRecord
  2
*MODEL_SPACE
  0
BLOCK_RECORD
  5
1B
330
1
100
AcDbSymbolTableRecord
100
AcDbBlockTableRecord
  2
*PAPER_SPACE
  0
ENDTAB
  0
ENDSEC
  0
SECTION
  2
BLOCKS
  0
BLOCK
  5
20
330
1F
100
AcDbEntity
  8
0
100
AcDbBlockBegin
  2
*MODEL_SPACE
 70
     0
 10
0.0
 20
0.0
 30
0.0
  3
*MODEL_SPACE
  1

  0
ENDBLK
  5
21
330
1F
100
AcDbEntity
  8
0
100
AcDbBlockEnd
  0
BLOCK
  5
1C
330
1B
100
AcDbEntity
 67
     1
  8
0
100
AcDbBlockBegin
  2
*PAPER_SPACE
 70
     0
 10
0.0
 20
0.0
 30
0.0
  3
*PAPER_SPACE
  1

  0
ENDBLK
  5
1D
330
1B
100
AcDbEntity
 67
     1
  8
0
100
AcDbBlockEnd
  0
ENDSEC
  0
SECTION
  2
ENTITIES
  0
POLYLINE
  5
6F
330
1F
100
AcDbEntity
  8
DEFAULT
100
AcDb2dPolyline
 66
     1
 10
0.0
 20
0.0
 30
0.0
 70
     1
  0
VERTEX
  5
70
330
6F
100
AcDbEntity
  8
DEFAULT
100
AcDbVertex
100
AcDb2dVertex
 10
-653.8712342663313
 20
-127.9418953563974
 30
0.0
  0
VERTEX
  5
71
330
6F
100
AcDbEntity
  8
DEFAULT
100
AcDbVertex
100
AcDb2dVertex
 10
-652.7790342663312
 20
-127.9418953563974
 30
0.0
  0
VERTEX
  5
72
330
6F
100
AcDbEntity
  8
DEFAULT
100
AcDbVertex
100
AcDb2dVertex
 10
-652.7790342663312
 20
-116.5118953563974
 30
0.0
  0
VERTEX
  5
73
330
6F
100
AcDbEntity
  8
DEFAULT
100
AcDbVertex
100
AcDb2dVertex
 10
-653.8712342663313
 20
-116.5118953563974
 30
0.0
  0
SEQEND
  5
74
330
6F
100
AcDbEntity
  8
DEFAULT
  0
POLYLINE
  5
75
330
1F
100
AcDbEntity
  8
DEFAULT
100
AcDb2dPolyline
 66
     1
 10
0.0
 20
0.0
 30
0.0
 70
     1
  0
VERTEX
  5
76
330
75
100
AcDbEntity
  8
DEFAULT
100
AcDbVertex
100
AcDb2dVertex
 10
-653.8712342663313
 20
-127.9012085678647
 30
0.0
  0
VERTEX
  5
77
330
75
100
AcDbEntity
  8
DEFAULT
100
AcDbVertex
100
AcDb2dVertex
 10
-652.7790342663312
 20
-127.9012085678647
 30
0.0
  0
VERTEX
  5
78
330
75
100
AcDbEntity
  8
DEFAULT
100
AcDbVertex
100
AcDb2dVertex
 10
-652.7790342663312
 20
-116.4712085678648
 30
0.0
  0
VERTEX
  5
79
330
75
100
AcDbEntity
  8
DEFAULT
100
AcDbVertex
100
AcDb2dVertex
 10
-653.8712342663313
 20
-116.4712085678648
 30
0.0
  0
SEQEND
  5
7A
330
75
100
AcDbEntity
  8
DEFAULT
  0
POLYLINE
  5
7B
330
1F
100
AcDbEntity
  8
DEFAULT
100
AcDb2dPolyline
 66
     1
 10
0.0
 20
0.0
 30
0.0
 70
     1
  0
VERTEX
  5
7C
330
7B
100
AcDbEntity
  8
DEFAULT
100
AcDbVertex
100
AcDb2dVertex
 10
-596.6011740631143
 20
-127.0238273983958
 30
0.0
  0
VERTEX
  5
7D
330
7B
100
AcDbEntity
  8
DEFAULT
100
AcDbVertex
100
AcDb2dVertex
 10
-595.7952452873765
 20
-126.2866845028606
 30
0.0
  0
VERTEX
  5
7E
330
7B
100
AcDbEntity
  8
DEFAULT
100
AcDbVertex
100
AcDb2dVertex
 10
-603.5095314034425
 20
-117.8525461521177
 30
0.0
  0
VERTEX
  5
7F
330
7B
100
AcDbEntity
  8
DEFAULT
100
AcDbVertex
100
AcDb2dVertex
 10
-604.3154601791801
 20
-118.5896890476529
 30
0.0
  0
SEQEND
  5
80
330
7B
100
AcDbEntity
  8
DEFAULT
  0
POLYLINE
  5
81
330
1F
100
AcDbEntity
  8
DEFAULT
100
AcDb2dPolyline
 66
     1
 10
0.0
 20
0.0
 30
0.0
  0
VERTEX
  5
82
330
81
100
AcDbEntity
  8
DEFAULT
100
AcDbVertex
100
AcDb2dVertex
 10
-535.7045093187536
 20
-121.1204880263028
 30
0.0
  0
VERTEX
  5
83
330
81
100
AcDbEntity
  8
DEFAULT
100
AcDbVertex
100
AcDb2dVertex
 10
-542.6119490408989
 20
-119.4227776716289
 30
0.0
  0
VERTEX
  5
84
330
81
100
AcDbEntity
  8
DEFAULT
100
AcDbVertex
100
AcDb2dVertex
 10
-548.0727055044464
 20
-118.1421450451291
 30
0.0
  0
VERTEX
  5
85
330
81
100
AcDbEntity
  8
DEFAULT
100
AcDbVertex
100
AcDb2dVertex
 10
-553.4697423327947
 20
-116.9354776277526
 30
0.0
  0
VERTEX
  5
86
330
81
100
AcDbEntity
  8
DEFAULT
100
AcDbVertex
100
AcDb2dVertex
 10
-558.7995996502686
 20
-115.8037728782117
 30
0.0
  0
VERTEX
  5
87
330
81
100
AcDbEntity
  8
DEFAULT
100
AcDbVertex
100
AcDb2dVertex
 10
-564.0581250057044
 20
-114.7460231156257
 30
0.0
  0
VERTEX
  5
88
330
81
100
AcDbEntity
  8
DEFAULT
100
AcDbVertex
100
AcDb2dVertex
 10
-569.2408938682381
 20
-113.7597878447859
 30
0.0
  0
VERTEX
  5
89
330
81
100
AcDbEntity
  8
DEFAULT
100
AcDbVertex
100
AcDb2dVertex
 10
-575.6129078569754
 20
-112.622058671603
 30
0.0
  0
VERTEX
  5
8A
330
81
100
AcDbEntity
  8
DEFAULT
100
AcDbVertex
100
AcDb2dVertex
 10
-581.8531526709005
 20
-111.5832621277408
 30
0.0
  0
VERTEX
  5
8B
330
81
100
AcDbEntity
  8
DEFAULT
100
AcDbVertex
100
AcDb2dVertex
 10
-587.9532283631974
 20
-110.6358673800535
 30
0.0
  0
VERTEX
  5
8C
330
81
100
AcDbEntity
  8
DEFAULT
100
AcDbVertex
100
AcDb2dVertex
 10
-593.9077162471833
 20
-109.7730501388779
 30
0.0
  0
VERTEX
  5
8D
330
81
100
AcDbEntity
  8
DEFAULT
100
AcDbVertex
100
AcDb2dVertex
 10
-599.7125913979637
 20
-108.9893848352484
 30
0.0
  0
VERTEX
  5
8E
330
81
100
AcDbEntity
  8
DEFAULT
100
AcDbVertex
100
AcDb2dVertex
 10
-606.4772574062606
 20
-108.1484388697799
 30
0.0
  0
VERTEX
  5
8F
330
81
100
AcDbEntity
  8
DEFAULT
100
AcDbVertex
100
AcDb2dVertex
 10
-611.945121664734
 20
-107.5286885063149
 30
0.0
  0
VERTEX
  5
90
330
81
100
AcDbEntity
  8
DEFAULT
100
AcDbVertex
100
AcDb2dVertex
 10
-617.2547796044244
 20
-106.9831300535157
 30
0.0
  0
VERTEX
  5
91
330
81
100
AcDbEntity
  8
DEFAULT
100
AcDbVertex
100
AcDb2dVertex
 10
-622.4054425758657
 20
-106.5139056864167
 30
0.0
  0
VERTEX
  5
92
330
81
100
AcDbEntity
  8
DEFAULT
100
AcDbVertex
100
AcDb2dVertex
 10
-627.4005352680922
 20
-106.1244085667688
 30
0.0
  0
VERTEX
  5
93
330
81
100
AcDbEntity
  8
DEFAULT
100
AcDbVertex
100
AcDb2dVertex
 10
-632.2407947561067
 20
-105.8191253197373
 30
0.0
  0
VERTEX
  5
94
330
81
100
AcDbEntity
  8
DEFAULT
100
AcDbVertex
100
AcDb2dVertex
 10
-636.0009476337759
 20
-105.6389723347163
 30
0.0
  0
VERTEX
  5
95
330
81
100
AcDbEntity
  8
DEFAULT
100
AcDbVertex
100
AcDb2dVertex
 10
-639.6606152753193
 20
-105.518736494223
 30
0.0
  0
VERTEX
  5
96
330
81
100
AcDbEntity
  8
DEFAULT
100
AcDbVertex
100
AcDb2dVertex
 10
-643.2199580752094
 20
-105.4610896710446
 30
0.0
  0
VERTEX
  5
97
330
81
100
AcDbEntity
  8
DEFAULT
100
AcDbVertex
100
AcDb2dVertex
 10
-646.6764851583509
 20
-105.4685405129117
 30
0.0
  0
VERTEX
  5
98
330
81
100
AcDbEntity
  8
DEFAULT
100
AcDbVertex
100
AcDb2dVertex
 10
-650.0273246351023
 20
-105.5432460039639
 30
0.0
  0
VERTEX
  5
99
330
81
100
AcDbEntity
  8
DEFAULT
100
AcDbVertex
100
AcDb2dVertex
 10
-653.2697871727491
 20
-105.6868882366649
 30
0.0
  0
VERTEX
  5
9A
330
81
100
AcDbEntity
  8
DEFAULT
100
AcDbVertex
100
AcDb2dVertex
 10
-656.401688393705
 20
-105.9005904853294
 30
0.0
  0
VERTEX
  5
9B
330
81
100
AcDbEntity
  8
DEFAULT
100
AcDbVertex
100
AcDb2dVertex
 10
-658.6778387628568
 20
-106.1072085738269
 30
0.0
  0
VERTEX
  5
9C
330
81
100
AcDbEntity
  8
DEFAULT
100
AcDbVertex
100
AcDb2dVertex
 10
-660.887477429538
 20
-106.3533915234374
 30
0.0
  0
VERTEX
  5
9D
330
81
100
AcDbEntity
  8
DEFAULT
100
AcDbVertex
100
AcDb2dVertex
 10
-663.0288356537632
 20
-106.6387486885839
 30
0.0
  0
VERTEX
  5
9E
330
81
100
AcDbEntity
  8
DEFAULT
100
AcDbVertex
100
AcDb2dVertex
 10
-665.1005319270469
 20
-106.9626372747316
 30
0.0
  0
VERTEX
  5
9F
330
81
100
AcDbEntity
  8
DEFAULT
100
AcDbVertex
100
AcDb2dVertex
 10
-667.100551846355
 20
-107.3240875089203
 30
0.0
  0
VERTEX
  5
A0
330
81
100
AcDbEntity
  8
DEFAULT
100
AcDbVertex
100
AcDb2dVertex
 10
-669.0260871650397
 20
-107.721710155987
 30
0.0
  0
VERTEX
  5
A1
330
81
100
AcDbEntity
  8
DEFAULT
100
AcDbVertex
100
AcDb2dVertex
 10
-670.8745935421925
 20
-108.1537101075466
 30
0.0
  0
VERTEX
  5
A2
330
81
100
AcDbEntity
  8
DEFAULT
100
AcDbVertex
100
AcDb2dVertex
 10
-672.6435116602811
 20
-108.6178508073603
 30
0.0
  0
VERTEX
  5
A3
330
81
100
AcDbEntity
  8
DEFAULT
100
AcDbVertex
100
AcDb2dVertex
 10
-674.3292642278616
 20
-109.1113369018898
 30
0.0
  0
VERTEX
  5
A4
330
81
100
AcDbEntity
  8
DEFAULT
100
AcDbVertex
100
AcDb2dVertex
 10
-675.93023347104
 20
-109.6312167405785
 30
0.0
  0
VERTEX
  5
A5
330
81
100
AcDbEntity
  8
DEFAULT
100
AcDbVertex
100
AcDb2dVertex
 10
-677.4453800136241
 20
-110.17434401376
 30
0.0
  0
VERTEX
  5
A6
330
81
100
AcDbEntity
  8
DEFAULT
100
AcDbVertex
100
AcDb2dVertex
 10
-678.8733457667299
 20
-110.7373280981521
 30
0.0
  0
VERTEX
  5
A7
330
81
100
AcDbEntity
  8
DEFAULT
100
AcDbVertex
100
AcDb2dVertex
 10
-680.2121006104762
 20
-111.3165226889932
 30
0.0
  0
VERTEX
  5
A8
330
81
100
AcDbEntity
  8
DEFAULT
100
AcDbVertex
100
AcDb2dVertex
 10
-681.0549459307947
 20
-111.7099790716798
 30
0.0
  0
VERTEX
  5
A9
330
81
100
AcDbEntity
  8
DEFAULT
100
AcDbVertex
100
AcDb2dVertex
 10
-681.8581842457037
 20
-112.1081675390632
 30
0.0
  0
VERTEX
  5
AA
330
81
100
AcDbEntity
  8
DEFAULT
100
AcDbVertex
100
AcDb2dVertex
 10
-682.6218888282534
 20
-112.5101376467949
 30
0.0
  0
VERTEX
  5
AB
330
81
100
AcDbEntity
  8
DEFAULT
100
AcDbVertex
100
AcDb2dVertex
 10
-683.3461460742102
 20
-112.9149686291993
 30
0.0
  0
VERTEX
  5
AC
330
81
100
AcDbEntity
  8
DEFAULT
100
AcDbVertex
100
AcDb2dVertex
 10
-684.0311835339045
 20
-113.3218021006852
 30
0.0
  0
VERTEX
  5
AD
330
81
100
AcDbEntity
  8
DEFAULT
100
AcDbVertex
100
AcDb2dVertex
 10
-684.6773812337774
 20
-113.7298531006581
 30
0.0
  0
VERTEX
  5
AE
330
81
100
AcDbEntity
  8
DEFAULT
100
AcDbVertex
100
AcDb2dVertex
 10
-685.2849931552739
 20
-114.138357096734
 30
0.0
  0
VERTEX
  5
AF
330
81
100
AcDbEntity
  8
DEFAULT
100
AcDbVertex
100
AcDb2dVertex
 10
-685.8543094482886
 20
-114.5466056104469
 30
0.0
  0
VERTEX
  5
B0
330
81
100
AcDbEntity
  8
DEFAULT
100
AcDbVertex
100
AcDb2dVertex
 10
-686.3856482793071
 20
-114.9539473157937
 30
0.0
  0
VERTEX
  5
B1
330
81
100
AcDbEntity
  8
DEFAULT
100
AcDbVertex
100
AcDb2dVertex
 10
-686.6371813078429
 20
-115.1570902488026
 30
0.0
  0
VERTEX
  5
B2
330
81
100
AcDbEntity
  8
DEFAULT
100
AcDbVertex
100
AcDb2dVertex
 10
-686.8793480332197
 20
-115.3597881486035
 30
0.0
  0
VERTEX
  5
B3
330
81
100
AcDbEntity
  8
DEFAULT
100
AcDbVertex
100
AcDb2dVertex
 10
-687.1121926953608
 20
-115.5619755804809
 30
0.0
  0
VERTEX
  5
B4
330
81
100
AcDbEntity
  8
DEFAULT
100
AcDbVertex
100
AcDb2dVertex
 10
-687.3357598970533
 20
-115.7635905548154
 30
0.0
  0
VERTEX
  5
B5
330
81
100
AcDbEntity
  8
DEFAULT
100
AcDbVertex
100
AcDb2dVertex
 10
-687.5500943956652
 20
-115.9645744662026
 30
0.0
  0
VERTEX
  5
B6
330
81
100
AcDbEntity
  8
DEFAULT
100
AcDbVertex
100
AcDb2dVertex
 10
-687.7552409146339
 20
-116.1648720275461
 30
0.0
  0
VERTEX
  5
B7
330
81
100
AcDbEntity
  8
DEFAULT
100
AcDbVertex
100
AcDb2dVertex
 10
-687.9512439385147
 20
-116.3644311912354
 30
0.0
  0
VERTEX
  5
B8
330
81
100
AcDbEntity
  8
DEFAULT
100
AcDbVertex
100
AcDb2dVertex
 10
-688.138147575509
 20
-116.5632030787631
 30
0.0
  0
VERTEX
  5
B9
330
81
100
AcDbEntity
  8
DEFAULT
100
AcDbVertex
100
AcDb2dVertex
 10
-688.31599529443
 20
-116.7611418724044
 30
0.0
  0
VERTEX
  5
BA
330
81
100
AcDbEntity
  8
DEFAULT
100
AcDbVertex
100
AcDb2dVertex
 10
-688.4848299802934
 20
-116.9582047780028
 30
0.0
  0
VERTEX
  5
BB
330
81
100
AcDbEntity
  8
DEFAULT
100
AcDbVertex
100
AcDb2dVertex
 10
-688.644693287624
 20
-117.1543518100214
 30
0.0
  0
VERTEX
  5
BC
330
81
100
AcDbEntity
  8
DEFAULT
100
AcDbVertex
100
AcDb2dVertex
 10
-688.7956266337367
 20
-117.3495459708531
 30
0.0
  0
VERTEX
  5
BD
330
81
100
AcDbEntity
  8
DEFAULT
100
AcDbVertex
100
AcDb2dVertex
 10
-688.9376684486558
 20
-117.5437525099589
 30
0.0
  0
VERTEX
  5
BE
330
81
100
AcDbEntity
  8
DEFAULT
100
AcDbVertex
100
AcDb2dVertex
 10
-689.0708604717158
 20
-117.7369403851874
 30
0.0
  0
VERTEX
  5
BF
330
81
100
AcDbEntity
  8
DEFAULT
100
AcDbVertex
100
AcDb2dVertex
 10
-689.1953645696958
 20
-117.929110782248
 30
0.0
  0
VERTEX
  5
C0
330
81
100
AcDbEntity
  8
DEFAULT
100
AcDbVertex
100
AcDb2dVertex
 10
-689.311138508352
 20
-118.1202178827905
 30
0.0
  0
VERTEX
  5
C1
330
81
100
AcDbEntity
  8
DEFAULT
100
AcDbVertex
100
AcDb2dVertex
 10
-689.4181704282578
 20
-118.31022570382
 30
0.0
  0
VERTEX
  5
C2
330
81
100
AcDbEntity
  8
DEFAULT
100
AcDbVertex
100
AcDb2dVertex
 10
-689.5164777335146
 20
-118.4991078661371
 30
0.0
  0
VERTEX
  5
C3
330
81
100
AcDbEntity
  8
DEFAULT
100
AcDbVertex
100
AcDb2dVertex
 10
-689.5621217482021
 20
-118.5926018251654
 30
0.0
  0
VERTEX
  5
C4
330
81
100
AcDbEntity
  8
DEFAULT
100
AcDbVertex
100
AcDb2dVertex
 10
-689.606091275858
 20
-118.6868436623784
 30
0.0
  0
VERTEX
  5
C5
330
81
100
AcDbEntity
  8
DEFAULT
100
AcDbVertex
100
AcDb2dVertex
 10
-689.6474303816431
 20
-118.7797765878142
 30
0.0
  0
VERTEX
  5
C6
330
81
100
AcDbEntity
  8
DEFAULT
100
AcDbVertex
100
AcDb2dVertex
 10
-689.6870396528101
 20
-118.8734140683552
 30
0.0
  0
VERTEX
  5
C7
330
81
100
AcDbEntity
  8
DEFAULT
100
AcDbVertex
100
AcDb2dVertex
 10
-689.7240869321487
 20
-118.9657801091454
 30
0.0
  0
VERTEX
  5
C8
330
81
100
AcDbEntity
  8
DEFAULT
100
AcDbVertex
100
AcDb2dVertex
 10
-689.7593498125339
 20
-119.0588017268925
 30
0.0
  0
VERTEX
  5
C9
330
81
100
AcDbEntity
  8
DEFAULT
100
AcDbVertex
100
AcDb2dVertex
 10
-689.792117497547
 20
-119.1505960335933
 30
0.0
  0
VERTEX
  5
CA
330
81
100
AcDbEntity
  8
DEFAULT
100
AcDbVertex
100
AcDb2dVertex
 10
-689.8230468209154
 20
-119.2429907104521
 30
0.0
  0
VERTEX
  5
CB
330
81
100
AcDbEntity
  8
DEFAULT
100
AcDbVertex
100
AcDb2dVertex
 10
-689.8515456558491
 20
-119.3342091504987
 30
0.0
  0
VERTEX
  5
CC
330
81
100
AcDbEntity
  8
DEFAULT
100
AcDbVertex
100
AcDb2dVertex
 10
-689.87815400782
 20
-119.4259663615169
 30
0.0
  0
VERTEX
  5
CD
330
81
100
AcDbEntity
  8
DEFAULT
100
AcDbVertex
100
AcDb2dVertex
 10
-689.9023934982949
 20
-119.5166054289881
 30
0.0
  0
VERTEX
  5
CE
330
81
100
AcDbEntity
  8
DEFAULT
100
AcDbVertex
100
AcDb2dVertex
 10
-689.9246930169816
 20
-119.607715099683
 30
0.0
  0
VERTEX
  5
CF
330
81
100
AcDbEntity
  8
DEFAULT
100
AcDbVertex
100
AcDb2dVertex
 10
-689.9446813477298
 20
-119.6977717255972
 30
0.0
  0
VERTEX
  5
D0
330
81
100
AcDbEntity
  8
DEFAULT
100
AcDbVertex
100
AcDb2dVertex
 10
-689.962683960771
 20
-119.7882242527091
 30
0.0
  0
VERTEX
  5
D1
330
81
100
AcDbEntity
  8
DEFAULT
100
AcDbVertex
100
AcDb2dVertex
 10
-689.9784281021931
 20
-119.8776956468968
 30
0.0
  0
VERTEX
  5
D2
330
81
100
AcDbEntity
  8
DEFAULT
100
AcDbVertex
100
AcDb2dVertex
 10
-689.9921456011692
 20
-119.9674819037368
 30
0.0
  0
VERTEX
  5
D3
330
81
100
AcDbEntity
  8
DEFAULT
100
AcDbVertex
100
AcDb2dVertex
 10
-690.0036514073456
 20
-120.0563653912204
 30
0.0
  0
VERTEX
  5
D4
330
81
100
AcDbEntity
  8
DEFAULT
100
AcDbVertex
100
AcDb2dVertex
 10
-690.0130955889485
 20
-120.1454767771855
 30
0.0
  0
VERTEX
  5
D5
330
81
100
AcDbEntity
  8
DEFAULT
100
AcDbVertex
100
AcDb2dVertex
 10
-690.0203679352358
 20
-120.2337696466569
 30
0.0
  0
VERTEX
  5
D6
330
81
100
AcDbEntity
  8
DEFAULT
100
AcDbVertex
100
AcDb2dVertex
 10
-690.0255507364332
 20
-120.3221981729964
 30
0.0
  0
VERTEX
  5
D7
330
81
100
AcDbEntity
  8
DEFAULT
100
AcDbVertex
100
AcDb2dVertex
 10
-690.028593759765
 20
-120.4098975783608
 30
0.0
  0
VERTEX
  5
D8
330
81
100
AcDbEntity
  8
DEFAULT
100
AcDbVertex
100
AcDb2dVertex
 10
-690.0295273237768
 20
-120.4976359659154
 30
0.0
  0
VERTEX
  5
D9
330
81
100
AcDbEntity
  8
DEFAULT
100
AcDbVertex
100
AcDb2dVertex
 10
-690.0283445389935
 20
-120.584738812788
 30
0.0
  0
VERTEX
  5
DA
330
81
100
AcDbEntity
  8
DEFAULT
100
AcDbVertex
100
AcDb2dVertex
 10
-690.025041402717
 20
-120.6717806720237
 30
0.0
  0
VERTEX
  5
DB
330
81
100
AcDbEntity
  8
DEFAULT
100
AcDbVertex
100
AcDb2dVertex
 10
-690.0196362013908
 20
-120.7582836847965
 30
0.0
  0
VERTEX
  5
DC
330
81
100
AcDbEntity
  8
DEFAULT
100
AcDbVertex
100
AcDb2dVertex
 10
-690.0121091028609
 20
-120.8446235934596
 30
0.0
  0
VERTEX
  5
DD
330
81
100
AcDbEntity
  8
DEFAULT
100
AcDbVertex
100
AcDb2dVertex
 10
-690.0024844410364
 20
-120.9305231468278
 30
0.0
  0
VERTEX
  5
DE
330
81
100
AcDbEntity
  8
DEFAULT
100
AcDbVertex
100
AcDb2dVertex
 10
-689.9907468751273
 20
-121.0161570191618
 30
0.0
  0
VERTEX
  5
DF
330
81
100
AcDbEntity
  8
DEFAULT
100
AcDbVertex
100
AcDb2dVertex
 10
-689.9769199940405
 20
-121.1013742336969
 30
0.0
  0
VERTEX
  5
E0
330
81
100
AcDbEntity
  8
DEFAULT
100
AcDbVertex
100
AcDb2dVertex
 10
-689.9610018028799
 20
-121.1862242768068
 30
0.0
  0
VERTEX
  5
E1
330
81
100
AcDbEntity
  8
DEFAULT
100
AcDbVertex
100
AcDb2dVertex
 10
-689.9430200507762
 20
-121.2706083678784
 30
0.0
  0
VERTEX
  5
E2
330
81
100
AcDbEntity
  8
DEFAULT
100
AcDbVertex
100
AcDb2dVertex
 10
-689.9229879760455
 20
-121.3545291708799
 30
0.0
  0
VERTEX
  5
E3
330
81
100
AcDbEntity
  8
DEFAULT
100
AcDbVertex
100
AcDb2dVertex
 10
-689.9009246080007
 20
-121.4379389562309
 30
0.0
  0
VERTEX
  5
E4
330
81
100
AcDbEntity
  8
DEFAULT
100
AcDbVertex
100
AcDb2dVertex
 10
-689.8768396353353
 20
-121.5207876946155
 30
0.0
  0
VERTEX
  5
E5
330
81
100
AcDbEntity
  8
DEFAULT
100
AcDbVertex
100
AcDb2dVertex
 10
-689.8507239962257
 20
-121.6030725911777
 30
0.0
  0
VERTEX
  5
E6
330
81
100
AcDbEntity
  8
DEFAULT
100
AcDbVertex
100
AcDb2dVertex
 10
-689.8226038291982
 20
-121.6846947133662
 30
0.0
  0
VERTEX
  5
E7
330
81
100
AcDbEntity
  8
DEFAULT
100
AcDbVertex
100
AcDb2dVertex
 10
-689.7924613418026
 20
-121.7656999306879
 30
0.0
  0
VERTEX
  5
E8
330
81
100
AcDbEntity
  8
DEFAULT
100
AcDbVertex
100
AcDb2dVertex
 10
-689.7603509473172
 20
-121.8459454775892
 30
0.0
  0
VERTEX
  5
E9
330
81
100
AcDbEntity
  8
DEFAULT
100
AcDbVertex
100
AcDb2dVertex
 10
-689.7262074573845
 20
-121.9255940589876
 30
0.0
  0
VERTEX
  5
EA
330
81
100
AcDbEntity
  8
DEFAULT
100
AcDbVertex
100
AcDb2dVertex
 10
-689.690144161132
 20
-122.004391453764
 30
0.0
  0
VERTEX
  5
EB
330
81
100
AcDbEntity
  8
DEFAULT
100
AcDbVertex
100
AcDb2dVertex
 10
-689.652005057926
 20
-122.0826799578473
 30
0.0
  0
VERTEX
  5
EC
330
81
100
AcDbEntity
  8
DEFAULT
100
AcDbVertex
100
AcDb2dVertex
 10
-689.6120032094946
 20
-122.1600315339759
 30
0.0
  0
VERTEX
  5
ED
330
81
100
AcDbEntity
  8
DEFAULT
100
AcDbVertex
100
AcDb2dVertex
 10
-689.5698753149493
 20
-122.2369565978174
 30
0.0
  0
VERTEX
  5
EE
330
81
100
AcDbEntity
  8
DEFAULT
100
AcDbVertex
100
AcDb2dVertex
 10
-689.52594885459
 20
-122.3128656900546
 30
0.0
  0
VERTEX
  5
EF
330
81
100
AcDbEntity
  8
DEFAULT
100
AcDbVertex
100
AcDb2dVertex
 10
-689.4798398580785
 20
-122.3884241442109
 30
0.0
  0
VERTEX
  5
F0
330
81
100
AcDbEntity
  8
DEFAULT
100
AcDbVertex
100
AcDb2dVertex
 10
-689.4320027770812
 20
-122.4628951427361
 30
0.0
  0
VERTEX
  5
F1
330
81
100
AcDbEntity
  8
DEFAULT
100
AcDbVertex
100
AcDb2dVertex
 10
-689.3819214632053
 20
-122.5370842281615
 30
0.0
  0
VERTEX
  5
F2
330
81
100
AcDbEntity
  8
DEFAULT
100
AcDbVertex
100
AcDb2dVertex
 10
-689.3301874296579
 20
-122.6101224605435
 30
0.0
  0
VERTEX
  5
F3
330
81
100
AcDbEntity
  8
DEFAULT
100
AcDbVertex
100
AcDb2dVertex
 10
-689.2761435144358
 20
-122.6829399592916
 30
0.0
  0
VERTEX
  5
F4
330
81
100
AcDbEntity
  8
DEFAULT
100
AcDbVertex
100
AcDb2dVertex
 10
-689.2205259150112
 20
-122.7545515989698
 30
0.0
  0
VERTEX
  5
F5
330
81
100
AcDbEntity
  8
DEFAULT
100
AcDbVertex
100
AcDb2dVertex
 10
-689.1625300209182
 20
-122.8259959536161
 30
0.0
  0
VERTEX
  5
F6
330
81
100
AcDbEntity
  8
DEFAULT
100
AcDbVertex
100
AcDb2dVertex
 10
-689.1030418775221
 20
-122.8961878866653
 30
0.0
  0
VERTEX
  5
F7
330
81
100
AcDbEntity
  8
DEFAULT
100
AcDbVertex
100
AcDb2dVertex
 10
-689.0411054442661
 20
-122.9662582792073
 30
0.0
  0
VERTEX
  5
F8
330
81
100
AcDbEntity
  8
DEFAULT
100
AcDbVertex
100
AcDb2dVertex
 10
-688.9777594374507
 20
-123.0350379765723
 30
0.0
  0
VERTEX
  5
F9
330
81
100
AcDbEntity
  8
DEFAULT
100
AcDbVertex
100
AcDb2dVertex
 10
-688.911894636567
 20
-123.1037343760216
 30
0.0
  0
VERTEX
  5
FA
330
81
100
AcDbEntity
  8
DEFAULT
100
AcDbVertex
100
AcDb2dVertex
 10
-688.8447031585479
 20
-123.1711097758931
 30
0.0
  0
VERTEX
  5
FB
330
81
100
AcDbEntity
  8
DEFAULT
100
AcDbVertex
100
AcDb2dVertex
 10
-688.7749228758383
 20
-123.2384329790633
 30
0.0
  0
VERTEX
  5
FC
330
81
100
AcDbEntity
  8
DEFAULT
100
AcDbVertex
100
AcDb2dVertex
 10
-688.7038980643381
 20
-123.3044123735835
 30
0.0
  0
VERTEX
  5
FD
330
81
100
AcDbEntity
  8
DEFAULT
100
AcDbVertex
100
AcDb2dVertex
 10
-688.6302157264463
 20
-123.3703639882115
 30
0.0
  0
VERTEX
  5
FE
330
81
100
AcDbEntity
  8
DEFAULT
100
AcDbVertex
100
AcDb2dVertex
 10
-688.5553696639029
 20
-123.434955969562
 30
0.0
  0
VERTEX
  5
FF
330
81
100
AcDbEntity
  8
DEFAULT
100
AcDbVertex
100
AcDb2dVertex
 10
-688.399144056866
 20
-123.5627518329214
 30
0.0
  0
VERTEX
  5
100
330
81
100
AcDbEntity
  8
DEFAULT
100
AcDbVertex
100
AcDb2dVertex
 10
-688.2352479178037
 20
-123.687812247414
 30
0.0
  0
VERTEX
  5
101
330
81
100
AcDbEntity
  8
DEFAULT
100
AcDbVertex
100
AcDb2dVertex
 10
-688.0637088174872
 20
-123.8101505593202
 30
0.0
  0
VERTEX
  5
102
330
81
100
AcDbEntity
  8
DEFAULT
100
AcDbVertex
100
AcDb2dVertex
 10
-687.8845547005463
 20
-123.9297810407903
 30
0.0
  0
VERTEX
  5
103
330
81
100
AcDbEntity
  8
DEFAULT
100
AcDbVertex
100
AcDb2dVertex
 10
-687.6978291570674
 20
-124.0467226375043
 30
0.0
  0
VERTEX
  5
104
330
81
100
AcDbEntity
  8
DEFAULT
100
AcDbVertex
100
AcDb2dVertex
 10
-687.5036066002965
 20
-124.1610026446779
 30
0.0
  0
VERTEX
  5
105
330
81
100
AcDbEntity
  8
DEFAULT
100
AcDbVertex
100
AcDb2dVertex
 10
-687.3019929452128
 20
-124.2726567657767
 30
0.0
  0
VERTEX
  5
106
330
81
100
AcDbEntity
  8
DEFAULT
100
AcDbVertex
100
AcDb2dVertex
 10
-687.0928990474655
 20
-124.3816741476547
 30
0.0
  0
VERTEX
  5
107
330
81
100
AcDbEntity
  8
DEFAULT
100
AcDbVertex
100
AcDb2dVertex
 10
-686.876354794768
 20
-124.488074106531
 30
0.0
  0
VERTEX
  5
108
330
81
100
AcDbEntity
  8
DEFAULT
100
AcDbVertex
100
AcDb2dVertex
 10
-686.6523955502754
 20
-124.5918783902566
 30
0.0
  0
VERTEX
  5
109
330
81
100
AcDbEntity
  8
DEFAULT
100
AcDbVertex
100
AcDb2dVertex
 10
-686.4210558984169
 20
-124.6931097203011
 30
0.0
  0
VERTEX
  5
10A
330
81
100
AcDbEntity
  8
DEFAULT
100
AcDbVertex
100
AcDb2dVertex
 10
-686.1823721325658
 20
-124.7917924682105
 30
0.0
  0
VERTEX
  5
10B
330
81
100
AcDbEntity
  8
DEFAULT
100
AcDbVertex
100
AcDb2dVertex
 10
-685.9363810885095
 20
-124.8879524380152
 30
0.0
  0
VERTEX
  5
10C
330
81
100
AcDbEntity
  8
DEFAULT
100
AcDbVertex
100
AcDb2dVertex
 10
-685.6831205420799
 20
-124.981617027049
 30
0.0
  0
VERTEX
  5
10D
330
81
100
AcDbEntity
  8
DEFAULT
100
AcDbVertex
100
AcDb2dVertex
 10
-685.15494518538
 20
-125.1615775862837
 30
0.0
  0
VERTEX
  5
10E
330
81
100
AcDbEntity
  8
DEFAULT
100
AcDbVertex
100
AcDb2dVertex
 10
-684.5981596893795
 20
-125.331925484066
 30
0.0
  0
VERTEX
  5
10F
330
81
100
AcDbEntity
  8
DEFAULT
100
AcDbVertex
100
AcDb2dVertex
 10
-684.0130826046367
 20
-125.4929382076026
 30
0.0
  0
VERTEX
  5
110
330
81
100
AcDbEntity
  8
DEFAULT
100
AcDbVertex
100
AcDb2dVertex
 10
-683.4000323160963
 20
-125.6449190563778
 30
0.0
  0
VERTEX
  5
111
330
81
100
AcDbEntity
  8
DEFAULT
100
AcDbVertex
100
AcDb2dVertex
 10
-682.4286873903023
 20
-125.8566796510799
 30
0.0
  0
VERTEX
  5
112
330
81
100
AcDbEntity
  8
DEFAULT
100
AcDbVertex
100
AcDb2dVertex
 10
-681.3960981173807
 20
-126.0500645478837
 30
0.0
  0
VERTEX
  5
113
330
81
100
AcDbEntity
  8
DEFAULT
100
AcDbVertex
100
AcDb2dVertex
 10
-679.9253879373923
 20
-126.2815547816228
 30
0.0
  0
VERTEX
  5
114
330
81
100
AcDbEntity
  8
DEFAULT
100
AcDbVertex
100
AcDb2dVertex
 10
-677.9372998244432
 20
-126.533037825631
 30
0.0
  0
VERTEX
  5
115
330
81
100
AcDbEntity
  8
DEFAULT
100
AcDbVertex
100
AcDb2dVertex
 10
-675.332318062117
 20
-126.7878223353213
 30
0.0
  0
VERTEX
  5
116
330
81
100
AcDbEntity
  8
DEFAULT
100
AcDbVertex
100
AcDb2dVertex
 10
-671.9886630320624
 20
-127.0343766627305
 30
0.0
  0
VERTEX
  5
117
330
81
100
AcDbEntity
  8
DEFAULT
100
AcDbVertex
100
AcDb2dVertex
 10
-667.7472843106585
 20
-127.2668600263214
 30
0.0
  0
VERTEX
  5
118
330
81
100
AcDbEntity
  8
DEFAULT
100
AcDbVertex
100
AcDb2dVertex
 10
-662.4048138971452
 20
-127.4820478267446
 30
0.0
  0
VERTEX
  5
119
330
81
100
AcDbEntity
  8
DEFAULT
100
AcDbVertex
100
AcDb2dVertex
 10
-655.7180782514954
 20
-127.6694792430249
 30
0.0
  0
VERTEX
  5
11A
330
81
100
AcDbEntity
  8
DEFAULT
100
AcDbVertex
100
AcDb2dVertex
 10
-649.0097751617259
 20
-127.7835866841979
 30
0.0
  0
VERTEX
  5
11B
330
81
100
AcDbEntity
  8
DEFAULT
100
AcDbVertex
100
AcDb2dVertex
 10
-642.4895464269687
 20
-127.8265276816816
 30
0.0
  0
VERTEX
  5
11C
330
81
100
AcDbEntity
  8
DEFAULT
100
AcDbVertex
100
AcDb2dVertex
 10
-636.3631023486531
 20
-127.8046227321159
 30
0.0
  0
VERTEX
  5
11D
330
81
100
AcDbEntity
  8
DEFAULT
100
AcDbVertex
100
AcDb2dVertex
 10
-629.8544247323201
 20
-127.7136268715531
 30
0.0
  0
VERTEX
  5
11E
330
81
100
AcDbEntity
  8
DEFAULT
100
AcDbVertex
100
AcDb2dVertex
 10
-622.9789632321578
 20
-127.5415375342932
 30
0.0
  0
VERTEX
  5
11F
330
81
100
AcDbEntity
  8
DEFAULT
100
AcDbVertex
100
AcDb2dVertex
 10
-615.7531064478337
 20
-127.2794041180787
 30
0.0
  0
VERTEX
  5
120
330
81
100
AcDbEntity
  8
DEFAULT
100
AcDbVertex
100
AcDb2dVertex
 10
-608.1896066924585
 20
-126.923260204322
 30
0.0
  0
VERTEX
  5
121
330
81
100
AcDbEntity
  8
DEFAULT
100
AcDbVertex
100
AcDb2dVertex
 10
-600.313363541173
 20
-126.4748401237261
 30
0.0
  0
VERTEX
  5
122
330
81
100
AcDbEntity
  8
DEFAULT
100
AcDbVertex
100
AcDb2dVertex
 10
-590.9485825023338
 20
-125.8604217516474
 30
0.0
  0
VERTEX
  5
123
330
81
100
AcDbEntity
  8
DEFAULT
100
AcDbVertex
100
AcDb2dVertex
 10
-578.7154035573476
 20
-124.9718130258966
 30
0.0
  0
VERTEX
  5
124
330
81
100
AcDbEntity
  8
DEFAULT
100
AcDbVertex
100
AcDb2dVertex
 10
-548.4035477436026
 20
-122.639192485511
 30
0.0
  0
VERTEX
  5
125
330
81
100
AcDbEntity
  8
DEFAULT
100
AcDbVertex
100
AcDb2dVertex
 10
-538.5865362006107
 20
-121.8366243948466
 30
0.0
  0
VERTEX
  5
126
330
81
100
AcDbEntity
  8
DEFAULT
100
AcDbVertex
100
AcDb2dVertex
 10
-535.7414666333376
 20
-121.5885703154569
 30
0.0
  0
SEQEND
  5
127
330
81
100
AcDbEntity
  8
DEFAULT
  0
LINE
  5
128
330
1F
100
AcDbEntity
  8
DEFAULT
100
AcDbLine
 10
-535.7414666333376
 20
-121.5885703154569
 30
0.0
 11
-535.7045093187536
 21
-121.1204880263028
 31
0.0
  0
POLYLINE
  5
129
330
1F
100
AcDbEntity
  8
DEFAULT
100
AcDb2dPolyline
 66
     1
 10
0.0
 20
0.0
 30
0.0
 70
     1
  0
VERTEX
  5
12A
330
129
100
AcDbEntity
  8
DEFAULT
100
AcDbVertex
100
AcDb2dVertex
 10
-594.9448456855571
 20
-115.5935563533987
 30
0.0
  0
VERTEX
  5
12B
330
129
100
AcDbEntity
  8
DEFAULT
100
AcDbVertex
100
AcDb2dVertex
 10
-590.3728456855571
 20
-115.5935563533987
 30
0.0
  0
VERTEX
  5
12C
330
129
100
AcDbEntity
  8
DEFAULT
100
AcDbVertex
100
AcDb2dVertex
 10
-590.3728456855571
 20
-109.5229563533987
 30
0.0
  0
VERTEX
  5
12D
330
129
100
AcDbEntity
  8
DEFAULT
100
AcDbVertex
100
AcDb2dVertex
 10
-594.9448456855571
 20
-109.5229563533987
 30
0.0
  0
SEQEND
  5
12E
330
129
100
AcDbEntity
  8
DEFAULT
  0
POLYLINE
  5
12F
330
1F
100
AcDbEntity
  8
DEFAULT
100
AcDb2dPolyline
 66
     1
 10
0.0
 20
0.0
 30
0.0
 70
     1
  0
VERTEX
  5
130
330
12F
100
AcDbEntity
  8
DEFAULT
100
AcDbVertex
100
AcDb2dVertex
 10
-683.9373791900804
 20
-122.8911972929275
 30
0.0
  0
VERTEX
  5
131
330
12F
100
AcDbEntity
  8
DEFAULT
100
AcDbVertex
100
AcDb2dVertex
 10
-683.9077845260434
 20
-118.3192930774107
 30
0.0
  0
VERTEX
  5
132
330
12F
100
AcDbEntity
  8
DEFAULT
100
AcDbVertex
100
AcDb2dVertex
 10
-689.9782573455353
 20
-118.279997940162
 30
0.0
  0
VERTEX
  5
133
330
12F
100
AcDbEntity
  8
DEFAULT
100
AcDbVertex
100
AcDb2dVertex
 10
-690.007852009572
 20
-122.8519021556788
 30
0.0
  0
SEQEND
  5
134
330
12F
100
AcDbEntity
  8
DEFAULT
  0
POLYLINE
  5
135
330
1F
100
AcDbEntity
  8
DEFAULT
100
AcDb2dPolyline
 66
     1
 10
0.0
 20
0.0
 30
0.0
 70
     1
  0
VERTEX
  5
136
330
135
100
AcDbEntity
  8
DEFAULT
100
AcDbVertex
100
AcDb2dVertex
 10
-639.7398906293573
 20
-111.4179367052903
 30
0.0
  0
VERTEX
  5
137
330
135
100
AcDbEntity
  8
DEFAULT
100
AcDbVertex
100
AcDb2dVertex
 10
-635.1678906293573
 20
-111.4179367052903
 30
0.0
  0
VERTEX
  5
138
330
135
100
AcDbEntity
  8
DEFAULT
100
AcDbVertex
100
AcDb2dVertex
 10
-635.1678906293573
 20
-105.3473367052904
 30
0.0
  0
VERTEX
  5
139
330
135
100
AcDbEntity
  8
DEFAULT
100
AcDbVertex
100
AcDb2dVertex
 10
-639.7398906293573
 20
-105.3473367052904
 30
0.0
  0
SEQEND
  5
13A
330
135
100
AcDbEntity
  8
DEFAULT
  0
POLYLINE
  5
13B
330
1F
100
AcDbEntity
  8
DEFAULT
100
AcDb2dPolyline
 66
     1
 10
0.0
 20
0.0
 30
0.0
 70
     1
  0
VERTEX
  5
13C
330
13B
100
AcDbEntity
  8
DEFAULT
100
AcDbVertex
100
AcDb2dVertex
 10
-594.9448456855571
 20
-115.5935563533987
 30
0.0
  0
VERTEX
  5
13D
330
13B
100
AcDbEntity
  8
DEFAULT
100
AcDbVertex
100
AcDb2dVertex
 10
-590.3728456855571
 20
-115.5935563533987
 30
0.0
  0
VERTEX
  5
13E
330
13B
100
AcDbEntity
  8
DEFAULT
100
AcDbVertex
100
AcDb2dVertex
 10
-590.3728456855571
 20
-109.5229563533987
 30
0.0
  0
VERTEX
  5
13F
330
13B
100
AcDbEntity
  8
DEFAULT
100
AcDbVertex
100
AcDb2dVertex
 10
-594.9448456855571
 20
-109.5229563533987
 30
0.0
  0
SEQEND
  5
140
330
13B
100
AcDbEntity
  8
DEFAULT
  0
ENDSEC
  0
SECTION
  2
OBJECTS
  0
DICTIONARY
  5
C
330
0
100
AcDbDictionary
  3
ACAD_GROUP
350
D
  3
ACAD_LAYOUT
350
1A
  3
ACAD_MATERIAL
350
43
  3
ACAD_MLEADERSTYLE
350
6B
  3
ACAD_MLINESTYLE
350
17
  3
ACAD_PLOTSETTINGS
350
19
  3
ACAD_SCALELIST
350
47
  3
ACAD_VISUALSTYLE
350
2A
  3
ACDBHEADERROUNDTRIPXREC
350
141
  3
ACDBVARIABLEDICTIONARY
350
162
  0
DICTIONARY
  5
169
330
8
100
AcDbDictionary
280
     1
  3
ACAD_XREC_ROUNDTRIP
360
16A
  0
DICTIONARY
  5
D
102
{ACAD_REACTORS
330
C
102
}
330
C
100
AcDbDictionary
  0
DICTIONARY
  5
1A
102
{ACAD_REACTORS
330
C
102
}
330
C
100
AcDbDictionary
  0
DICTIONARY
  5
43
102
{ACAD_REACTORS
330
C
102
}
330
C
100
AcDbDictionary
  3
BYBLOCK
350
45
  3
BYLAYER
350
44
  3
GLOBAL
350
46
  0
DICTIONARY
  5
6B
102
{ACAD_REACTORS
330
C
102
}
330
C
100
AcDbDictionary
  3
STANDARD
350
6C
  0
DICTIONARY
  5
17
102
{ACAD_REACTORS
330
C
102
}
330
C
100
AcDbDictionary
  3
STANDARD
350
18
  0
DICTIONARY
  5
19
102
{ACAD_REACTORS
330
C
102
}
330
C
100
AcDbDictionary
  0
DICTIONARY
  5
47
102
{ACAD_REACTORS
330
C
102
}
330
C
100
AcDbDictionary
  3
A0
350
48
  3
A1
350
49
  3
A2
350
4A
  3
A3
350
4B
  3
A4
350
4C
  3
A5
350
4D
  3
A6
350
4E
  3
A7
350
4F
  3
A8
350
50
  3
A9
350
51
  3
B0
350
52
  3
B1
350
53
  3
B2
350
54
  3
B3
350
55
  3
B4
350
56
  3
B5
350
57
  3
B6
350
58
  3
B7
350
59
  3
B8
350
5A
  3
B9
350
5B
  3
C0
350
5C
  3
C1
350
5D
  3
C2
350
5E
  3
C3
350
5F
  3
C4
350
60
  3
C5
350
61
  3
C6
350
62
  3
C7
350
63
  3
C8
350
64
  3
C9
350
65
  3
D0
350
66
  3
D1
350
67
  3
D2
350
68
  0
DICTIONARY
  5
2A
102
{ACAD_REACTORS
330
C
102
}
330
C
100
AcDbDictionary
  3
2DWIREFRAME
350
2F
  3
BASIC
350
32
  3
BRIGHTEN
350
36
  3
COLORCHANGE
350
3A
  3
CONCEPTUAL
350
34
  3
DIM
350
35
  3
EDGECOLOROFF
350
3D
  3
FACEPATTERN
350
39
  3
FLAT
350
2B
  3
FLATWITHEDGES
350
2C
  3
GOURAUD
350
2D
  3
GOURAUDWITHEDGES
350
2E
  3
HIDDEN
350
31
  3
JITTEROFF
350
3B
  3
LINEPATTERN
350
38
  3
OVERHANGOFF
350
3C
  3
REALISTIC
350
33
  3
SHADED
350
42
  3
SHADED_WITH_EDGES
350
41
  3
SHADES_OF_GRAY
350
3E
  3
SKETCHY
350
3F
  3
THICKEN
350
37
  3
WIREFRAME
350
30
  3
X-RAY
350
40
  0
DICTIONARY
  5
141
102
{ACAD_REACTORS
330
C
102
}
330
C
100
AcDbDictionary
  3
CEPSNID
350
14B
  3
CEPSNTYPE
350
14A
  3
DIMSTYLEDATA
350
161
  3
FINGERPRINTGUID
350
14C
  3
HYPERLINKBASE
350
144
  3
INSUNITS
350
149
  3
LAYOUTDICT
350
146
  3
LWETCUNION
350
148
  3
PLOTSETDICT
350
147
  3
PSVPSCALE
350
14E
  3
PUCSBASE
350
151
  3
PUCSORGBACK
350
157
  3
PUCSORGBOTTOM
350
153
  3
PUCSORGFRONT
350
156
  3
PUCSORGLEFT
350
154
  3
PUCSORGRIGHT
350
155
  3
PUCSORGTOP
350
152
  3
PUCSORTHOREF
350
14F
  3
PUCSORTHOVIEW
350
150
  3
STYLESHEET
350
145
  3
TSTACKALIGN
350
142
  3
TSTACKSIZE
350
143
  3
UCSBASE
350
15A
  3
UCSORGBACK
350
160
  3
UCSORGBOTTOM
350
15C
  3
UCSORGFRONT
350
15F
  3
UCSORGLEFT
350
15D
  3
UCSORGRIGHT
350
15E
  3
UCSORGTOP
350
15B
  3
UCSORTHOREF
350
158
  3
UCSORTHOVIEW
350
159
  3
VERSIONGUID
350
14D
  0
DICTIONARY
  5
162
102
{ACAD_REACTORS
330
C
102
}
330
C
100
AcDbDictionary
  3
CANNOSCALE
350
16B
  3
CMLEADERSTYLE
350
164
  3
CTABLESTYLE
350
163
  3
DIMASSOC
350
167
  3
HIDETEXT
350
168
  3
MSLTSCALE
350
16C
  0
XRECORD
  5
16A
102
{ACAD_REACTORS
330
169
102
}
330
169
100
AcDbXrecord
102
VTR_0.000_0.000_1.000_1.000_VISUALSTYLE
340
2F
102
VTR_0.000_0.000_1.000_1.000_GRIDDISPLAY
 70
     3
102
VTR_0.000_0.000_1.000_1.000_GRIDMAJOR
 70
     5
102
VTR_0.000_0.000_1.000_1.000_DEFAULTLIGHTING
280
     1
102
VTR_0.000_0.000_1.000_1.000_DEFAULTLIGHTINGTYPE
 70
     1
102
VTR_0.000_0.000_1.000_1.000_BRIGHTNESS
141
0.0
102
VTR_0.000_0.000_1.000_1.000_CONTRAST
142
0.0
  0
MATERIAL
  5
45
102
{ACAD_REACTORS
330
43
102
}
102
{ACAD_XDICTIONARY
360
16F
102
}
330
43
100
AcDbMaterial
  1
BYBLOCK
  0
MATERIAL
  5
44
102
{ACAD_REACTORS
330
43
102
}
102
{ACAD_XDICTIONARY
360
16D
102
}
330
43
100
AcDbMaterial
  1
BYLAYER
  0
MATERIAL
  5
46
102
{ACAD_REACTORS
330
43
102
}
102
{ACAD_XDICTIONARY
360
171
102
}
330
43
100
AcDbMaterial
  1
GLOBAL
  0
ACAD_PROXY_OBJECT
  5
6C
102
{ACAD_REACTORS
330
6B
102
}
330
6B
100
AcDbProxyObject
 90
      499
 91
      505
 93
      610
310
40901902A4063FBFFFFFE056BD1B81E855B9FC0AD7A3703D0AD73F4214DD185B99185C9900AD7A3703D0AC73F90141901A02B5E8DC0F42B1CFC02B5E8DC0F42B1CFE5764000000000000300FC0
340
14
340
0
340
11
340
0
 94
        0
1001
ACAD_MLEADERVER
1070
     2
  0
MLINESTYLE
  5
18
102
{ACAD_REACTORS
330
17
102
}
330
17
100
AcDbMlineStyle
  2
Standard
 70
     0
  3

 62
   256
 51
90.0
 52
90.0
 71
     2
 49
0.5
 62
   256
  6
BYLAYER
 49
-0.5
 62
   256
  6
BYLAYER
  0
ACAD_PROXY_OBJECT
  5
48
102
{ACAD_REACTORS
330
47
102
}
330
47
100
AcDbProxyObject
 90
      499
 91
      503
 93
       41
310
903313A31580
  0
ACAD_PROXY_OBJECT
  5
49
102
{ACAD_REACTORS
330
47
102
}
330
47
100
AcDbProxyObject
 90
      499
 91
      503
 93
      105
310
903313A324000000000000004000
  0
ACAD_PROXY_OBJECT
  5
4A
102
{ACAD_REACTORS
330
47
102
}
330
47
100
AcDbProxyObject
 90
      499
 91
      503
 93
      105
310
903313A344000000000000104000
  0
ACAD_PROXY_OBJECT
  5
4B
102
{ACAD_REACTORS
330
47
102
}
330
47
100
AcDbProxyObject
 90
      499
 91
      503
 93
      105
310
903313A354000000000000144000
  0
ACAD_PROXY_OBJECT
  5
4C
102
{ACAD_REACTORS
330
47
102
}
330
47
100
AcDbProxyObject
 90
      499
 91
      503
 93
      105
310
903313A384000000000000204000
  0
ACAD_PROXY_OBJECT
  5
4D
102
{ACAD_REACTORS
330
47
102
}
330
47
100
AcDbProxyObject
 90
      499
 91
      503
 93
      113
310
904313A31304000000000000244000
  0
ACAD_PROXY_OBJECT
  5
4E
102
{ACAD_REACTORS
330
47
102
}
330
47
100
AcDbProxyObject
 90
      499
 91
      503
 93
      113
310
904313A31364000000000000304000
  0
ACAD_PROXY_OBJECT
  5
4F
102
{ACAD_REACTORS
330
47
102
}
330
47
100
AcDbProxyObject
 90
      499
 91
      503
 93
      113
310
904313A32304000000000000344000
  0
ACAD_PROXY_OBJECT
  5
50
102
{ACAD_REACTORS
330
47
102
}
330
47
100
AcDbProxyObject
 90
      499
 91
      503
 93
      113
310
904313A333040000000000003E4000
  0
ACAD_PROXY_OBJECT
  5
51
102
{ACAD_REACTORS
330
47
102
}
330
47
100
AcDbProxyObject
 90
      499
 91
      503
 93
      113
310
904313A34304000000000000444000
  0
ACAD_PROXY_OBJECT
  5
52
102
{ACAD_REACTORS
330
47
102
}
330
47
100
AcDbProxyObject
 90
      499
 91
      503
 93
      113
310
904313A35304000000000000494000
  0
ACAD_PROXY_OBJECT
  5
53
102
{ACAD_REACTORS
330
47
102
}
330
47
100
AcDbProxyObject
 90
      499
 91
      503
 93
      121
310
905313A3130304000000000000594000
  0
ACAD_PROXY_OBJECT
  5
54
102
{ACAD_REACTORS
330
47
102
}
330
47
100
AcDbProxyObject
 90
      499
 91
      503
 93
      105
310
903323A310000000000000010100
  0
ACAD_PROXY_OBJECT
  5
55
102
{ACAD_REACTORS
330
47
102
}
330
47
100
AcDbProxyObject
 90
      499
 91
      503
 93
      105
310
903343A310000000000000410100
  0
ACAD_PROXY_OBJECT
  5
56
102
{ACAD_REACTORS
330
47
102
}
330
47
100
AcDbProxyObject
 90
      499
 91
      503
 93
      105
310
903383A310000000000000810100
  0
ACAD_PROXY_OBJECT
  5
57
102
{ACAD_REACTORS
330
47
102
}
330
47
100
AcDbProxyObject
 90
      499
 91
      503
 93
      113
310
90431303A310000000000000910100
  0
ACAD_PROXY_OBJECT
  5
58
102
{ACAD_REACTORS
330
47
102
}
330
47
100
AcDbProxyObject
 90
      499
 91
      503
 93
      121
310
9053130303A310000000000001650100
  0
ACAD_PROXY_OBJECT
  5
59
102
{ACAD_REACTORS
330
47
102
}
330
47
100
AcDbProxyObject
 90
      499
 91
      503
 93
      257
310
90E312F31323822203D2031272D3022000000000000200FC000000000000284000
  0
ACAD_PROXY_OBJECT
  5
5A
102
{ACAD_REACTORS
330
47
102
}
330
47
100
AcDbProxyObject
 90
      499
 91
      503
 93
      249
310
90D312F363422203D2031272D3022000000000000240FC000000000000284000
  0
ACAD_PROXY_OBJECT
  5
5B
102
{ACAD_REACTORS
330
47
102
}
330
47
100
AcDbProxyObject
 90
      499
 91
      503
 93
      249
310
90D312F333222203D2031272D3022000000000000280FC000000000000284000
  0
ACAD_PROXY_OBJECT
  5
5C
102
{ACAD_REACTORS
330
47
102
}
330
47
100
AcDbProxyObject
 90
      499
 91
      503
 93
      249
310
90D312F313622203D2031272D30220000000000002C0FC000000000000284000
  0
ACAD_PROXY_OBJECT
  5
5D
102
{ACAD_REACTORS
330
47
102
}
330
47
100
AcDbProxyObject
 90
      499
 91
      503
 93
      249
310
90D332F333222203D2031272D30220000000000002E0FC000000000000284000
  0
ACAD_PROXY_OBJECT
  5
5E
102
{ACAD_REACTORS
330
47
102
}
330
47
100
AcDbProxyObject
 90
      499
 91
      503
 93
      241
310
90C312F3822203D2031272D3022000000000000300FC000000000000284000
  0
ACAD_PROXY_OBJECT
  5
5F
102
{ACAD_REACTORS
330
47
102
}
330
47
100
AcDbProxyObject
 90
      499
 91
      503
 93
      249
310
90D332F313622203D2031272D3022000000000000320FC000000000000284000
  0
ACAD_PROXY_OBJECT
  5
60
102
{ACAD_REACTORS
330
47
102
}
330
47
100
AcDbProxyObject
 90
      499
 91
      503
 93
      241
310
90C312F3422203D2031272D3022000000000000340FC000000000000284000
  0
ACAD_PROXY_OBJECT
  5
61
102
{ACAD_REACTORS
330
47
102
}
330
47
100
AcDbProxyObject
 90
      499
 91
      503
 93
      241
310
90C332F3822203D2031272D3022000000000000360FC000000000000284000
  0
ACAD_PROXY_OBJECT
  5
62
102
{ACAD_REACTORS
330
47
102
}
330
47
100
AcDbProxyObject
 90
      499
 91
      503
 93
      241
310
90C312F3222203D2031272D3022000000000000380FC000000000000284000
  0
ACAD_PROXY_OBJECT
  5
63
102
{ACAD_REACTORS
330
47
102
}
330
47
100
AcDbProxyObject
 90
      499
 91
      503
 93
      241
310
90C332F3422203D2031272D30220000000000003A0FC000000000000284000
  0
ACAD_PROXY_OBJECT
  5
64
102
{ACAD_REACTORS
330
47
102
}
330
47
100
AcDbProxyObject
 90
      499
 91
      503
 93
      161
310
90A3122203D2031272D30224000000000000284000
  0
ACAD_PROXY_OBJECT
  5
65
102
{ACAD_REACTORS
330
47
102
}
330
47
100
AcDbProxyObject
 90
      499
 91
      503
 93
      257
310
90E312D312F3222203D2031272D30220000000000003E0FC000000000000284000
  0
ACAD_PROXY_OBJECT
  5
66
102
{ACAD_REACTORS
330
47
102
}
330
47
100
AcDbProxyObject
 90
      499
 91
      503
 93
      225
310
90A3322203D2031272D302200000000000002100000000000000284000
  0
ACAD_PROXY_OBJECT
  5
67
102
{ACAD_REACTORS
330
47
102
}
330
47
100
AcDbProxyObject
 90
      499
 91
      503
 93
      225
310
90A3622203D2031272D302200000000000006100000000000000284000
  0
ACAD_PROXY_OBJECT
  5
68
102
{ACAD_REACTORS
330
47
102
}
330
47
100
AcDbProxyObject
 90
      499
 91
      503
 93
      249
310
90D31272D3022203D2031272D30220000000000000A100000000000000284000
  0
ACAD_PROXY_OBJECT
  5
2F
102
{ACAD_REACTORS
330
2A
102
}
330
2A
100
AcDbProxyObject
 90
      499
 91
      501
 93
      436
310
42CC9915DA5C99599C985B595049028333333333333E33F0000000000000F90107901411070040501600405405064090741402480A0340
1001
ACAD
1000
AcDbSavedByObjectVersion
1070
     0
  0
ACAD_PROXY_OBJECT
  5
32
102
{ACAD_REACTORS
330
2A
102
}
330
2A
100
AcDbProxyObject
 90
      499
 91
      501
 93
      388
310
4150985CDA58D07406404333333333333E33F0000000000000F90107A41107004050150841D405064090741402480A0350
1001
ACAD
1000
AcDbSavedByObjectVersion
1070
     0
  0
ACAD_PROXY_OBJECT
  5
36
102
{ACAD_REACTORS
330
2A
102
}
330
2A
100
AcDbProxyObject
 90
      499
 91
      501
 93
      428
310
42109C9A59DA1D195B90C409028333333333333E33F0000000000000F9010790141107004050150841D405064090741402480A029950
1001
ACAD
1000
AcDbSavedByObjectVersion
1070
     0
  0
ACAD_PROXY_OBJECT
  5
3A
102
{ACAD_REACTORS
330
2A
102
}
330
2A
100
AcDbProxyObject
 90
      499
 91
      501
 93
      452
310
42D0DBDB1BDC90DA185B99D95104090240C333333333333E33F0000000000000F90108901411070040501508421405064090741402480A0350
1001
ACAD
1000
AcDbSavedByObjectVersion
1070
     0
  0
ACAD_PROXY_OBJECT
  5
34
102
{ACAD_REACTORS
330
2A
102
}
330
2A
100
AcDbProxyObject
 90
      499
 91
      501
 93
      500
310
4290DBDB98D95C1D1D585B10940D028333333333333E33F0000000000000F90107902409070040501000000000018199010841D405064090740C02480A0340
1001
ACAD
1000
AcDbSavedByObjectVersion
1070
     0
  0
ACAD_PROXY_OBJECT
  5
35
102
{ACAD_REACTORS
330
2A
102
}
330
2A
100
AcDbProxyObject
 90
      499
 91
      501
 93
      412
310
40D11A5B50B409028333333333333E33F0000000000000F9010790141107004050150841D405064090741402480A02677FFFFFD0
1001
ACAD
1000
AcDbSavedByObjectVersion
1070
     0
  0
ACAD_PROXY_OBJECT
  5
3D
102
{ACAD_REACTORS
330
2A
102
}
330
2A
100
AcDbProxyObject
 90
      499
 91
      501
 93
      452
310
43115919D950DBDB1BDC93D999916409028333333333333E33F0000000000000F9010790141107004050150841D405064090741402480A0350
1001
ACAD
1000
AcDbSavedByObjectVersion
1070
     0
  0
ACAD_PROXY_OBJECT
  5
39
102
{ACAD_REACTORS
330
2A
102
}
330
2A
100
AcDbProxyObject
 90
      499
 91
      501
 93
      444
310
42D19858D95C185D1D195C9B90F409028333333333333E33F0000000000000F9010790141107004050150841D405064090741402480A0350
1001
ACAD
1000
AcDbSavedByObjectVersion
1070
     0
  0
ACAD_PROXY_OBJECT
  5
2B
102
{ACAD_REACTORS
330
2A
102
}
330
2A
100
AcDbProxyObject
 90
      499
 91
      501
 93
      380
310
41119B185D240901404333333333333E33F0000000000000F9010740A907004050150841D405064090741402480A1B50
1001
ACAD
1000
AcDbSavedByObjectVersion
1070
     0
  0
ACAD_PROXY_OBJECT
  5
2C
102
{ACAD_REACTORS
330
2A
102
}
330
2A
100
AcDbProxyObject
 90
      499
 91
      501
 93
      468
310
43519B185D15DA5D1A115919D95CD0140901404333333333333E33F0000000000000F90107409019070040501600405405064090741402480A1B50
1001
ACAD
1000
AcDbSavedByObjectVersion
1070
     0
  0
ACAD_PROXY_OBJECT
  5
2D
102
{ACAD_REACTORS
330
2A
102
}
330
2A
100
AcDbProxyObject
 90
      499
 91
      501
 93
      404
310
41D1DBDD5C985D5910240902404333333333333E33F0000000000000F9010740A9070040501641D405064090741402480A1B50
1001
ACAD
1000
AcDbSavedByObjectVersion
1070
     0
  0
ACAD_PROXY_OBJECT
  5
2E
102
{ACAD_REACTORS
330
2A
102
}
330
2A
100
AcDbProxyObject
 90
      499
 91
      501
 93
      492
310
4411DBDD5C985D5915DA5D1A115919D95CD0340902404333333333333E33F0000000000000F90107409019070040501600405405064090741402480A1B50
1001
ACAD
1000
AcDbSavedByObjectVersion
1070
     0
  0
ACAD_PROXY_OBJECT
  5
31
102
{ACAD_REACTORS
330
2A
102
}
330
2A
100
AcDbProxyObject
 90
      499
 91
      501
 93
      476
310
41921A5919195B90640502408333333333333E33F0000000000000F901079024090700405020000000000001110200405405064090740C02480A0340
1001
ACAD
1000
AcDbSavedByObjectVersion
1070
     0
  0
ACAD_PROXY_OBJECT
  5
3B
102
{ACAD_REACTORS
330
2A
102
}
330
2A
100
AcDbProxyObject
 90
      499
 91
      501
 93
      428
310
42529A5D1D195C93D999914409028333333333333E33F0000000000000F9010790141107004050150A41D405064090741402480A0350
1001
ACAD
1000
AcDbSavedByObjectVersion
1070
     0
  0
ACAD_PROXY_OBJECT
  5
38
102
{ACAD_REACTORS
330
2A
102
}
330
2A
100
AcDbProxyObject
 90
      499
 91
      501
 93
      444
310
42D31A5B995C185D1D195C9B90E409028333333333333E33F0000000000000F9010790141107004050750841D405064090741402483A0350
1001
ACAD
1000
AcDbSavedByObjectVersion
1070
     0
  0
ACAD_PROXY_OBJECT
  5
3C
102
{ACAD_REACTORS
330
2A
102
}
330
2A
100
AcDbProxyObject
 90
      499
 91
      501
 93
      444
310
42D3DD995C9A185B99D3D999915409028333333333333E33F0000000000000F9010790141107004050150941D405064090741402480A0350
1001
ACAD
1000
AcDbSavedByObjectVersion
1070
     0
  0
ACAD_PROXY_OBJECT
  5
33
102
{ACAD_REACTORS
330
2A
102
}
330
2A
100
AcDbProxyObject
 90
      499
 91
      501
 93
      428
310
425499585B1A5CDD1A58D08409038333333333333E33F0000000000000F9010740A907004050150800405405064090740C02480A1B40
1001
ACAD
1000
AcDbSavedByObjectVersion
1070
     0
  0
ACAD_PROXY_OBJECT
  5
42
102
{ACAD_REACTORS
330
2A
102
}
330
2A
100
AcDbProxyObject
 90
      499
 91
      501
 93
      420
310
4194DA1859195911B40902404333333333333E33F0000000000000F9010740A41107004050150800405405064090840C02480A0B40
1001
ACAD
1000
AcDbSavedByObjectVersion
1070
     0
  0
ACAD_PROXY_OBJECT
  5
41
102
{ACAD_REACTORS
330
2A
102
}
330
2A
100
AcDbProxyObject
 90
      499
 91
      501
 93
      516
310
4454DA18591959081DDA5D1A08195919D95CD1A40902404333333333333E33F0000000000000F901074090142907004050250800405405064090740C02480A0B40
1001
ACAD
1000
AcDbSavedByObjectVersion
1070
     0
  0
ACAD_PROXY_OBJECT
  5
3E
102
{ACAD_REACTORS
330
2A
102
}
330
2A
100
AcDbProxyObject
 90
      499
 91
      501
 93
      532
310
4394DA1859195CC81BD98811DC985E5174090240C333333333333E33F0000000000000F901079024090741D01000000000000111010841D405064090740C02480A0340
1001
ACAD
1000
AcDbSavedByObjectVersion
1070
     0
  0
ACAD_PROXY_OBJECT
  5
3F
102
{ACAD_REACTORS
330
2A
102
}
330
2A
100
AcDbProxyObject
 90
      499
 91
      501
 93
      476
310
41D4DAD95D18DA1E51840502408333333333333E33F0000000000000F901079024090741D01000000000000111010B41D405064090741802480A0340
1001
ACAD
1000
AcDbSavedByObjectVersion
1070
     0
  0
ACAD_PROXY_OBJECT
  5
37
102
{ACAD_REACTORS
330
2A
102
}
330
2A
100
AcDbProxyObject
 90
      499
 91
      501
 93
      412
310
41D51A1A58DAD95B90D409028333333333333E33F0000000000000F9010790141107004050150C41D405064090741402480A0350
1001
ACAD
1000
AcDbSavedByObjectVersion
1070
     0
  0
ACAD_PROXY_OBJECT
  5
30
102
{ACAD_REACTORS
330
2A
102
}
330
2A
100
AcDbProxyObject
 90
      499
 91
      501
 93
      420
310
4255DA5C99599C985B595059028333333333333E33F0000000000000F90107901411070040501600405405064090740C02480A0340
1001
ACAD
1000
AcDbSavedByObjectVersion
1070
     0
  0
ACAD_PROXY_OBJECT
  5
40
102
{ACAD_REACTORS
330
2A
102
}
330
2A
100
AcDbProxyObject
 90
      499
 91
      501
 93
      404
310
41560B54985E51940902404000000000000E03F0000000000000F9010740501907004050150841D405064090740C02480A1B40
1001
ACAD
1000
AcDbSavedByObjectVersion
1070
     0
  0
XRECORD
  5
14B
102
{ACAD_REACTORS
330
141
102
}
330
141
100
AcDbXrecord
340
0
  0
XRECORD
  5
14A
102
{ACAD_REACTORS
330
141
102
}
330
141
100
AcDbXrecord
 90
        0
  0
XRECORD
  5
161
102
{ACAD_REACTORS
330
141
102
}
330
141
100
AcDbXrecord
1000
DSTYLE
1002
{
1070
   171
 70
     2
1070
   143
 40
25.4
1070
   274
 70
     2
1070
    41
 40
0.18
1070
   141
 40
0.09
1070
   271
 70
     4
1070
    43
 40
0.38
1070
   278
 70
    46
1070
    44
 40
0.18
1070
    42
 40
0.0625
1070
   147
 40
0.09
1070
    77
 70
     0
1070
   272
 70
     4
1070
    73
 70
     1
1070
   279
 70
     2
1070
   172
 70
     0
1070
    74
 70
     1
1070
   283
 70
     1
1070
   340
340
11
1070
   140
 40
0.18
1070
   284
 70
     0
1070
    78
 70
     0
1002
}
  0
XRECORD
  5
14C
102
{ACAD_REACTORS
330
141
102
}
330
141
100
AcDbXrecord
  1
{e7b4c28d-6e9f-42c6-8123-9930bacd1adb}
  0
XRECORD
  5
144
102
{ACAD_REACTORS
330
141
102
}
330
141
100
AcDbXrecord
  1

  0
XRECORD
  5
149
102
{ACAD_REACTORS
330
141
102
}
330
141
100
AcDbXrecord
 90
        4
  0
XRECORD
  5
146
102
{ACAD_REACTORS
330
141
102
}
330
141
100
AcDbXrecord
340
1A
  0
XRECORD
  5
148
102
{ACAD_REACTORS
330
141
102
}
330
141
100
AcDbXrecord
 90
    10781
  0
XRECORD
  5
147
102
{ACAD_REACTORS
330
141
102
}
330
141
100
AcDbXrecord
340
19
  0
XRECORD
  5
14E
102
{ACAD_REACTORS
330
141
102
}
330
141
100
AcDbXrecord
 40
0.0
  0
XRECORD
  5
151
102
{ACAD_REACTORS
330
141
102
}
330
141
100
AcDbXrecord
340
0
  0
XRECORD
  5
157
102
{ACAD_REACTORS
330
141
102
}
330
141
100
AcDbXrecord
 10
0.0
 20
0.0
 30
0.0
  0
XRECORD
  5
153
102
{ACAD_REACTORS
330
141
102
}
330
141
100
AcDbXrecord
 10
0.0
 20
0.0
 30
0.0
  0
XRECORD
  5
156
102
{ACAD_REACTORS
330
141
102
}
330
141
100
AcDbXrecord
 10
0.0
 20
0.0
 30
0.0
  0
XRECORD
  5
154
102
{ACAD_REACTORS
330
141
102
}
330
141
100
AcDbXrecord
 10
0.0
 20
0.0
 30
0.0
  0
XRECORD
  5
155
102
{ACAD_REACTORS
330
141
102
}
330
141
100
AcDbXrecord
 10
0.0
 20
0.0
 30
0.0
  0
XRECORD
  5
152
102
{ACAD_REACTORS
330
141
102
}
330
141
100
AcDbXrecord
 10
0.0
 20
0.0
 30
0.0
  0
XRECORD
  5
14F
102
{ACAD_REACTORS
330
141
102
}
330
141
100
AcDbXrecord
340
0
  0
XRECORD
  5
150
102
{ACAD_REACTORS
330
141
102
}
330
141
100
AcDbXrecord
 70
     0
  0
XRECORD
  5
145
102
{ACAD_REACTORS
330
141
102
}
330
141
100
AcDbXrecord
  1

  0
XRECORD
  5
142
102
{ACAD_REACTORS
330
141
102
}
330
141
100
AcDbXrecord
 90
        1
  0
XRECORD
  5
143
102
{ACAD_REACTORS
330
141
102
}
330
141
100
AcDbXrecord
 90
       70
  0
XRECORD
  5
15A
102
{ACAD_REACTORS
330
141
102
}
330
141
100
AcDbXrecord
340
0
  0
XRECORD
  5
160
102
{ACAD_REACTORS
330
141
102
}
330
141
100
AcDbXrecord
 10
0.0
 20
0.0
 30
0.0
  0
XRECORD
  5
15C
102
{ACAD_REACTORS
330
141
102
}
330
141
100
AcDbXrecord
 10
0.0
 20
0.0
 30
0.0
  0
XRECORD
  5
15F
102
{ACAD_REACTORS
330
141
102
}
330
141
100
AcDbXrecord
 10
0.0
 20
0.0
 30
0.0
  0
XRECORD
  5
15D
102
{ACAD_REACTORS
330
141
102
}
330
141
100
AcDbXrecord
 10
0.0
 20
0.0
 30
0.0
  0
XRECORD
  5
15E
102
{ACAD_REACTORS
330
141
102
}
330
141
100
AcDbXrecord
 10
0.0
 20
0.0
 30
0.0
  0
XRECORD
  5
15B
102
{ACAD_REACTORS
330
141
102
}
330
141
100
AcDbXrecord
 10
0.0
 20
0.0
 30
0.0
  0
XRECORD
  5
158
102
{ACAD_REACTORS
330
141
102
}
330
141
100
AcDbXrecord
340
0
  0
XRECORD
  5
159
102
{ACAD_REACTORS
330
141
102
}
330
141
100
AcDbXrecord
 70
     0
  0
XRECORD
  5
14D
102
{ACAD_REACTORS
330
141
102
}
330
141
100
AcDbXrecord
  1
{FAEB1C32-E019-11D5-929B-00C0DF256EC4}
  0
DICTIONARYVAR
  5
16B
102
{ACAD_REACTORS
330
162
102
}
330
162
100
DictionaryVariables
280
     0
  1
1:1
  0
DICTIONARYVAR
  5
164
102
{ACAD_REACTORS
330
162
102
}
330
162
100
DictionaryVariables
280
     0
  1
Standard
  0
DICTIONARYVAR
  5
163
102
{ACAD_REACTORS
330
162
102
}
330
162
100
DictionaryVariables
280
     0
  1
Standard
  0
DICTIONARYVAR
  5
167
102
{ACAD_REACTORS
330
162
102
}
330
162
100
DictionaryVariables
280
     0
  1
2
  0
DICTIONARYVAR
  5
168
102
{ACAD_REACTORS
330
162
102
}
330
162
100
DictionaryVariables
280
     0
  1
1
  0
DICTIONARYVAR
  5
16C
102
{ACAD_REACTORS
330
162
102
}
330
162
100
DictionaryVariables
280
     0
  1
1
  0
DICTIONARY
  5
16F
330
45
100
AcDbDictionary
280
     1
  3
ACAD_XREC_ROUNDTRIP
360
170
  0
DICTIONARY
  5
16D
330
44
100
AcDbDictionary
280
     1
  3
ACAD_XREC_ROUNDTRIP
360
16E
  0
DICTIONARY
  5
171
330
46
100
AcDbDictionary
280
     1
  3
ACAD_XREC_ROUNDTRIP
360
172
  0
XRECORD
  5
170
102
{ACAD_REACTORS
330
16F
102
}
330
16F
100
AcDbXrecord
102
MATERIAL
148
0.0
149
0.0
149
0.0
 93
        0
 94
      127
282
     0
 72
     1
 77
     1
171
     1
175
     1
179
     1
273
     0
  0
XRECORD
  5
16E
102
{ACAD_REACTORS
330
16D
102
}
330
16D
100
AcDbXrecord
102
MATERIAL
148
0.0
149
0.0
149
0.0
 93
        0
 94
      127
282
     0
 72
     1
 77
     1
171
     1
175
     1
179
     1
273
     0
  0
XRECORD
  5
172
102
{ACAD_REACTORS
330
171
102
}
330
171
100
AcDbXrecord
102
MATERIAL
148
0.0
149
0.0
149
0.0
 93
        0
 94
      127
282
     0
 72
     1
 77
     1
171
     1
175
     1
179
     1
273
     0
  0
ENDSEC
  0
EOF
