<svg xmlns="http://www.w3.org/2000/svg" viewBox="0 0 318.07 58.36"><defs><style>.cls-1{fill:#fff;}</style></defs><title>Asset 5</title><g id="Layer_2" data-name="Layer 2"><g id="Layer_1-2" data-name="Layer 1"><path class="cls-1" d="M22.45,13.73c3.87-1.34,7.76-2.61,11.59-4C57.74.92,82.43-1,107.29.43c25,1.44,50.18,3.16,75,6.79,31.21,4.56,62.14,11.07,93.15,17,11.78,2.24,23.47,5,35.15,7.75,7.62,1.8,7.58,2,7.48,10.88L101.44,58.36c-.22-1.88-.36-3-.49-4.18-.08.14-.24.3-.22.43.47,3.07-1.32,3.63-3.83,3.58-17.43-.3-34.87-.22-52.29-1-9.93-.43-19.83-2-29.7-3.44C.24,51.66-4.36,40.51,4.51,28.62A43.19,43.19,0,0,1,12,21.37c3.4-2.77,7.06-5.21,10.62-7.8Z"/></g></g></svg>