<!DOCTYPE svg PUBLIC "-//W3C//DTD SVG 1.1//EN" "http://www.w3.org/Graphics/SVG/1.1/DTD/svg11.dtd">
<svg width="106mm" height="28.51mm" viewBox="0 0 106 28.51" xmlns="http://www.w3.org/2000/svg" version="1.1" xmlns:xlink="http://www.w3.org/1999/xlink">
<title>Airfoil plot (naca0018-il) NACA 0018 by AirfoilTools.com</title>
<g transform="translate(3,12.003)"><g transform="scale(1,-1)"><line fill="none" stroke="green" stroke-width="0.05" x1="10" x2="10" y1="-12" y2="12"></line><line fill="none" stroke="green" stroke-width="0.05" x1="20" x2="20" y1="-12" y2="12"></line><line fill="none" stroke="green" stroke-width="0.05" x1="30" x2="30" y1="-12" y2="12"></line><line fill="none" stroke="green" stroke-width="0.05" x1="40" x2="40" y1="-12" y2="12"></line><line fill="none" stroke="green" stroke-width="0.05" x1="50" x2="50" y1="-12" y2="12"></line><line fill="none" stroke="green" stroke-width="0.05" x1="60" x2="60" y1="-12" y2="12"></line><line fill="none" stroke="green" stroke-width="0.05" x1="70" x2="70" y1="-12" y2="12"></line><line fill="none" stroke="green" stroke-width="0.05" x1="80" x2="80" y1="-12" y2="12"></line><line fill="none" stroke="green" stroke-width="0.05" x1="90" x2="90" y1="-12" y2="12"></line><line fill="none" stroke="green" stroke-width="0.05" x1="100" x2="100" y1="-12" y2="12"></line><line fill="none" stroke="green" stroke-width="0.05" x1="-3" x2="103" y1="10" y2="10"></line><line fill="none" stroke="green" stroke-width="0.05" x1="-3" x2="103" y1="-10" y2="-10"></line>
<path fill="none" stroke="red" stroke-width="0.1" d="M 100 0.19 L 95 1.21 L 90 2.17 L 80 3.94 L 70 5.5 L 60 6.85 L 50 7.94 L 40 8.71 L 30 9 L 25 8.91 L 20 8.61 L 15 8.02 L 10 7.02 L 7.5 6.3 L 5 5.33 L 2.5 3.92 L 1.25 2.84 L 0 0 L 1.25 -2.84 L 2.5 -3.92 L 5 -5.33 L 7.5 -6.3 L 10 -7.02 L 15 -8.02 L 20 -8.61 L 25 -8.91 L 30 -9 L 40 -8.71 L 50 -7.94 L 60 -6.85 L 70 -5.5 L 80 -3.94 L 90 -2.17 L 95 -1.21 L 100 -0.19 "></path>
<path fill="none" stroke="blue" stroke-width="0.1" d="M 0 0 L 100 0 "></path>
<line fill="none" stroke="black" stroke-width="0.1" x1="-3" x2="103" y1="0" y2="0"></line>
<line fill="none" stroke="black" stroke-width="0.1" x1="0" x2="0" y1="-12" y2="12"></line>
</g>
</g>
<g transform="translate(0,24.006)"><g transform="scale(1,1)"><text fill="rgb(48,48,144)" font-size="1.8" style="font-family:Arial,Helvetica,sans-serif;" x="1" y="2">Name = NACA 0018</text><text fill="rgb(48,48,144)" font-size="1.8" style="font-family:Arial,Helvetica,sans-serif;" x="1" y="4">Chord = 100mm  Radius = 0mm  Thickness = 100%  Origin = 0%  Pitch = 0&#176; </text></g></g></svg>